G04 EAGLE Gerber RS-274X export*
G75*
%MOMM*%
%FSLAX34Y34*%
%LPD*%
%INInner Layer 2*%
%IPPOS*%
%AMOC8*
5,1,8,0,0,1.08239X$1,22.5*%
G01*
%ADD10C,0.127000*%
%ADD11C,0.352400*%
%ADD12C,0.406400*%
%ADD13C,0.101600*%
%ADD14C,0.114300*%
%ADD15C,0.150000*%

G36*
X118630Y22287D02*
X118630Y22287D01*
X118729Y22290D01*
X118787Y22307D01*
X118848Y22315D01*
X118940Y22351D01*
X119035Y22379D01*
X119087Y22409D01*
X119143Y22432D01*
X119223Y22490D01*
X119309Y22540D01*
X119384Y22606D01*
X119401Y22618D01*
X119408Y22628D01*
X119430Y22646D01*
X120314Y23530D01*
X120374Y23609D01*
X120442Y23681D01*
X120471Y23734D01*
X120508Y23782D01*
X120548Y23873D01*
X120596Y23959D01*
X120611Y24018D01*
X120635Y24074D01*
X120650Y24172D01*
X120675Y24267D01*
X120681Y24367D01*
X120685Y24388D01*
X120683Y24400D01*
X120685Y24428D01*
X120685Y25613D01*
X120668Y25750D01*
X120655Y25889D01*
X120648Y25908D01*
X120645Y25928D01*
X120594Y26057D01*
X120547Y26189D01*
X120536Y26205D01*
X120528Y26224D01*
X120447Y26337D01*
X120369Y26452D01*
X120353Y26465D01*
X120342Y26481D01*
X120234Y26570D01*
X120130Y26662D01*
X120112Y26671D01*
X120097Y26684D01*
X119971Y26744D01*
X119847Y26807D01*
X119827Y26811D01*
X119809Y26820D01*
X119672Y26846D01*
X119537Y26876D01*
X119516Y26876D01*
X119497Y26880D01*
X119358Y26871D01*
X119219Y26867D01*
X119199Y26861D01*
X119179Y26860D01*
X119047Y26817D01*
X118913Y26778D01*
X118896Y26768D01*
X118877Y26762D01*
X118759Y26687D01*
X118639Y26617D01*
X118618Y26598D01*
X118608Y26592D01*
X118594Y26577D01*
X118519Y26510D01*
X116931Y24923D01*
X114209Y24923D01*
X112283Y26849D01*
X112283Y29571D01*
X113699Y30988D01*
X113772Y31082D01*
X113851Y31171D01*
X113869Y31207D01*
X113894Y31239D01*
X113942Y31348D01*
X113996Y31454D01*
X114005Y31493D01*
X114021Y31531D01*
X114039Y31648D01*
X114065Y31764D01*
X114064Y31805D01*
X114070Y31845D01*
X114059Y31963D01*
X114056Y32082D01*
X114044Y32121D01*
X114041Y32161D01*
X114000Y32273D01*
X113967Y32388D01*
X113947Y32423D01*
X113933Y32461D01*
X113866Y32559D01*
X113806Y32662D01*
X113766Y32707D01*
X113754Y32724D01*
X113739Y32737D01*
X113699Y32783D01*
X111521Y34961D01*
X111521Y37683D01*
X112048Y38211D01*
X112133Y38320D01*
X112222Y38427D01*
X112231Y38446D01*
X112243Y38462D01*
X112299Y38590D01*
X112358Y38715D01*
X112362Y38735D01*
X112370Y38754D01*
X112392Y38892D01*
X112418Y39028D01*
X112416Y39048D01*
X112420Y39068D01*
X112406Y39207D01*
X112398Y39345D01*
X112392Y39364D01*
X112390Y39384D01*
X112343Y39515D01*
X112300Y39647D01*
X112289Y39665D01*
X112282Y39684D01*
X112204Y39798D01*
X112130Y39916D01*
X112115Y39930D01*
X112104Y39947D01*
X111999Y40039D01*
X111898Y40134D01*
X111880Y40144D01*
X111865Y40157D01*
X111741Y40220D01*
X111620Y40288D01*
X111600Y40293D01*
X111582Y40302D01*
X111446Y40332D01*
X111312Y40367D01*
X111284Y40369D01*
X111272Y40372D01*
X111251Y40371D01*
X111151Y40377D01*
X108051Y40377D01*
X107913Y40360D01*
X107775Y40347D01*
X107756Y40340D01*
X107736Y40337D01*
X107606Y40286D01*
X107475Y40239D01*
X107459Y40228D01*
X107440Y40220D01*
X107327Y40139D01*
X107212Y40061D01*
X107199Y40045D01*
X107183Y40034D01*
X107094Y39926D01*
X107002Y39822D01*
X106993Y39804D01*
X106980Y39789D01*
X106920Y39663D01*
X106857Y39539D01*
X106853Y39519D01*
X106844Y39501D01*
X106818Y39364D01*
X106788Y39229D01*
X106788Y39208D01*
X106784Y39189D01*
X106793Y39050D01*
X106797Y38911D01*
X106803Y38891D01*
X106804Y38871D01*
X106847Y38739D01*
X106886Y38605D01*
X106896Y38588D01*
X106902Y38569D01*
X106977Y38451D01*
X107047Y38331D01*
X107066Y38310D01*
X107072Y38300D01*
X107087Y38286D01*
X107154Y38210D01*
X107427Y37937D01*
X107427Y35215D01*
X105501Y33289D01*
X102779Y33289D01*
X102197Y33870D01*
X102103Y33943D01*
X102014Y34022D01*
X101978Y34040D01*
X101946Y34065D01*
X101837Y34113D01*
X101731Y34167D01*
X101692Y34176D01*
X101654Y34192D01*
X101537Y34210D01*
X101421Y34236D01*
X101380Y34235D01*
X101340Y34241D01*
X101222Y34230D01*
X101103Y34227D01*
X101064Y34215D01*
X101024Y34212D01*
X100912Y34171D01*
X100797Y34138D01*
X100762Y34118D01*
X100724Y34104D01*
X100626Y34037D01*
X100523Y33977D01*
X100478Y33937D01*
X100461Y33925D01*
X100448Y33910D01*
X100402Y33870D01*
X99851Y33319D01*
X97853Y33319D01*
X97715Y33302D01*
X97577Y33289D01*
X97558Y33282D01*
X97538Y33279D01*
X97408Y33228D01*
X97277Y33181D01*
X97261Y33170D01*
X97242Y33162D01*
X97130Y33081D01*
X97014Y33003D01*
X97001Y32987D01*
X96985Y32976D01*
X96896Y32868D01*
X96804Y32764D01*
X96795Y32746D01*
X96782Y32731D01*
X96722Y32605D01*
X96659Y32481D01*
X96655Y32461D01*
X96646Y32443D01*
X96620Y32306D01*
X96590Y32171D01*
X96590Y32150D01*
X96586Y32131D01*
X96595Y31992D01*
X96599Y31853D01*
X96605Y31833D01*
X96606Y31813D01*
X96649Y31681D01*
X96688Y31547D01*
X96698Y31530D01*
X96704Y31511D01*
X96779Y31393D01*
X96849Y31273D01*
X96868Y31252D01*
X96874Y31242D01*
X96889Y31228D01*
X96956Y31153D01*
X98029Y30079D01*
X98029Y27357D01*
X96103Y25431D01*
X93381Y25431D01*
X91455Y27357D01*
X91455Y30079D01*
X92668Y31293D01*
X92754Y31402D01*
X92842Y31509D01*
X92851Y31528D01*
X92863Y31544D01*
X92919Y31672D01*
X92978Y31797D01*
X92982Y31817D01*
X92990Y31836D01*
X93011Y31973D01*
X93038Y32110D01*
X93036Y32130D01*
X93040Y32150D01*
X93026Y32289D01*
X93018Y32427D01*
X93012Y32446D01*
X93010Y32466D01*
X92963Y32598D01*
X92920Y32729D01*
X92909Y32747D01*
X92902Y32766D01*
X92824Y32881D01*
X92750Y32998D01*
X92735Y33012D01*
X92724Y33029D01*
X92619Y33121D01*
X92518Y33216D01*
X92500Y33226D01*
X92485Y33239D01*
X92361Y33303D01*
X92240Y33370D01*
X92220Y33375D01*
X92202Y33384D01*
X92066Y33414D01*
X91932Y33449D01*
X91904Y33451D01*
X91892Y33454D01*
X91871Y33453D01*
X91771Y33459D01*
X90333Y33459D01*
X89525Y34266D01*
X89431Y34339D01*
X89342Y34418D01*
X89306Y34436D01*
X89274Y34461D01*
X89165Y34509D01*
X89059Y34563D01*
X89020Y34572D01*
X88982Y34588D01*
X88865Y34606D01*
X88749Y34632D01*
X88708Y34631D01*
X88668Y34637D01*
X88550Y34626D01*
X88431Y34623D01*
X88392Y34611D01*
X88352Y34608D01*
X88240Y34567D01*
X88125Y34534D01*
X88090Y34514D01*
X88052Y34500D01*
X87954Y34433D01*
X87851Y34373D01*
X87806Y34333D01*
X87789Y34321D01*
X87776Y34306D01*
X87730Y34266D01*
X86943Y33479D01*
X84221Y33479D01*
X82295Y35405D01*
X82295Y38127D01*
X82378Y38210D01*
X82464Y38320D01*
X82552Y38427D01*
X82561Y38446D01*
X82573Y38462D01*
X82629Y38589D01*
X82688Y38715D01*
X82692Y38735D01*
X82700Y38754D01*
X82721Y38891D01*
X82748Y39028D01*
X82746Y39048D01*
X82750Y39068D01*
X82736Y39207D01*
X82728Y39345D01*
X82722Y39364D01*
X82720Y39384D01*
X82673Y39515D01*
X82630Y39647D01*
X82619Y39664D01*
X82612Y39684D01*
X82534Y39799D01*
X82460Y39916D01*
X82445Y39930D01*
X82434Y39947D01*
X82330Y40039D01*
X82228Y40134D01*
X82210Y40144D01*
X82195Y40157D01*
X82071Y40221D01*
X81950Y40288D01*
X81930Y40293D01*
X81912Y40302D01*
X81776Y40332D01*
X81642Y40367D01*
X81614Y40369D01*
X81602Y40372D01*
X81581Y40371D01*
X81481Y40377D01*
X66124Y40377D01*
X66006Y40362D01*
X65887Y40355D01*
X65849Y40342D01*
X65808Y40337D01*
X65698Y40294D01*
X65585Y40257D01*
X65550Y40235D01*
X65513Y40220D01*
X65417Y40151D01*
X65316Y40087D01*
X65288Y40057D01*
X65255Y40034D01*
X65179Y39942D01*
X65098Y39855D01*
X65078Y39820D01*
X65053Y39789D01*
X65002Y39681D01*
X64944Y39577D01*
X64934Y39537D01*
X64917Y39501D01*
X64895Y39384D01*
X64865Y39269D01*
X64861Y39209D01*
X64857Y39189D01*
X64859Y39168D01*
X64855Y39108D01*
X64855Y38949D01*
X62929Y37023D01*
X61642Y37023D01*
X61504Y37006D01*
X61365Y36993D01*
X61346Y36986D01*
X61326Y36983D01*
X61197Y36932D01*
X61066Y36885D01*
X61049Y36874D01*
X61030Y36866D01*
X60918Y36785D01*
X60803Y36707D01*
X60789Y36691D01*
X60773Y36680D01*
X60684Y36572D01*
X60592Y36468D01*
X60583Y36450D01*
X60570Y36435D01*
X60511Y36309D01*
X60448Y36185D01*
X60443Y36165D01*
X60435Y36147D01*
X60408Y36010D01*
X60378Y35875D01*
X60379Y35854D01*
X60375Y35835D01*
X60383Y35696D01*
X60388Y35557D01*
X60393Y35537D01*
X60395Y35517D01*
X60437Y35385D01*
X60476Y35251D01*
X60486Y35234D01*
X60493Y35215D01*
X60567Y35097D01*
X60638Y34977D01*
X60656Y34956D01*
X60663Y34946D01*
X60678Y34932D01*
X60744Y34857D01*
X61215Y34386D01*
X61215Y31242D01*
X58992Y29019D01*
X55848Y29019D01*
X53625Y31242D01*
X53625Y34386D01*
X55848Y36609D01*
X57557Y36609D01*
X57695Y36626D01*
X57833Y36639D01*
X57852Y36646D01*
X57872Y36649D01*
X58002Y36700D01*
X58133Y36747D01*
X58149Y36758D01*
X58168Y36766D01*
X58281Y36847D01*
X58396Y36925D01*
X58409Y36941D01*
X58425Y36952D01*
X58515Y37060D01*
X58606Y37164D01*
X58615Y37182D01*
X58628Y37197D01*
X58688Y37323D01*
X58751Y37447D01*
X58755Y37467D01*
X58764Y37485D01*
X58790Y37621D01*
X58820Y37757D01*
X58820Y37778D01*
X58824Y37797D01*
X58815Y37936D01*
X58811Y38075D01*
X58805Y38095D01*
X58804Y38115D01*
X58761Y38247D01*
X58722Y38381D01*
X58712Y38398D01*
X58706Y38417D01*
X58631Y38535D01*
X58561Y38655D01*
X58542Y38676D01*
X58536Y38686D01*
X58521Y38700D01*
X58454Y38776D01*
X58281Y38949D01*
X58281Y41106D01*
X58266Y41224D01*
X58259Y41343D01*
X58246Y41381D01*
X58241Y41422D01*
X58198Y41532D01*
X58161Y41645D01*
X58139Y41680D01*
X58124Y41717D01*
X58055Y41813D01*
X57991Y41914D01*
X57961Y41942D01*
X57938Y41975D01*
X57846Y42051D01*
X57759Y42132D01*
X57724Y42152D01*
X57693Y42177D01*
X57585Y42228D01*
X57481Y42286D01*
X57441Y42296D01*
X57405Y42313D01*
X57288Y42335D01*
X57173Y42365D01*
X57113Y42369D01*
X57093Y42373D01*
X57072Y42371D01*
X57012Y42375D01*
X55207Y42375D01*
X53281Y44301D01*
X53281Y47023D01*
X55207Y48949D01*
X57420Y48949D01*
X57538Y48964D01*
X57657Y48971D01*
X57695Y48984D01*
X57736Y48989D01*
X57846Y49032D01*
X57959Y49069D01*
X57994Y49091D01*
X58031Y49106D01*
X58127Y49175D01*
X58228Y49239D01*
X58256Y49269D01*
X58289Y49292D01*
X58365Y49384D01*
X58446Y49471D01*
X58466Y49506D01*
X58491Y49537D01*
X58542Y49645D01*
X58600Y49749D01*
X58610Y49789D01*
X58627Y49825D01*
X58649Y49942D01*
X58679Y50057D01*
X58683Y50117D01*
X58687Y50137D01*
X58685Y50158D01*
X58689Y50218D01*
X58689Y51070D01*
X58674Y51188D01*
X58667Y51307D01*
X58654Y51345D01*
X58649Y51386D01*
X58606Y51496D01*
X58569Y51609D01*
X58547Y51644D01*
X58532Y51681D01*
X58463Y51777D01*
X58399Y51878D01*
X58369Y51906D01*
X58346Y51939D01*
X58254Y52015D01*
X58167Y52096D01*
X58132Y52116D01*
X58101Y52141D01*
X57993Y52192D01*
X57889Y52250D01*
X57849Y52260D01*
X57813Y52277D01*
X57696Y52299D01*
X57581Y52329D01*
X57521Y52333D01*
X57501Y52337D01*
X57480Y52335D01*
X57420Y52339D01*
X55789Y52339D01*
X53863Y54265D01*
X53863Y56987D01*
X55789Y58913D01*
X58511Y58913D01*
X60437Y56987D01*
X60437Y54110D01*
X60452Y53992D01*
X60459Y53873D01*
X60472Y53835D01*
X60477Y53794D01*
X60520Y53684D01*
X60557Y53571D01*
X60579Y53536D01*
X60594Y53499D01*
X60663Y53403D01*
X60727Y53302D01*
X60757Y53274D01*
X60780Y53241D01*
X60872Y53165D01*
X60959Y53084D01*
X60994Y53064D01*
X61025Y53039D01*
X61133Y52988D01*
X61237Y52930D01*
X61277Y52920D01*
X61313Y52903D01*
X61430Y52881D01*
X61545Y52851D01*
X61605Y52847D01*
X61625Y52843D01*
X61646Y52845D01*
X61706Y52841D01*
X63337Y52841D01*
X65263Y50915D01*
X65263Y48178D01*
X65278Y48060D01*
X65285Y47941D01*
X65298Y47903D01*
X65303Y47862D01*
X65346Y47752D01*
X65383Y47639D01*
X65405Y47604D01*
X65420Y47567D01*
X65489Y47471D01*
X65553Y47370D01*
X65583Y47342D01*
X65606Y47309D01*
X65698Y47233D01*
X65785Y47152D01*
X65820Y47132D01*
X65851Y47107D01*
X65959Y47056D01*
X66063Y46998D01*
X66103Y46988D01*
X66139Y46971D01*
X66256Y46949D01*
X66371Y46919D01*
X66431Y46915D01*
X66451Y46911D01*
X66472Y46913D01*
X66532Y46909D01*
X109228Y46909D01*
X109346Y46924D01*
X109465Y46931D01*
X109503Y46944D01*
X109544Y46949D01*
X109654Y46992D01*
X109767Y47029D01*
X109802Y47051D01*
X109839Y47066D01*
X109935Y47135D01*
X110036Y47199D01*
X110064Y47229D01*
X110097Y47252D01*
X110173Y47344D01*
X110254Y47431D01*
X110274Y47466D01*
X110299Y47497D01*
X110350Y47605D01*
X110408Y47709D01*
X110418Y47749D01*
X110435Y47785D01*
X110457Y47902D01*
X110487Y48017D01*
X110491Y48077D01*
X110495Y48097D01*
X110493Y48118D01*
X110497Y48178D01*
X110497Y49691D01*
X112423Y51617D01*
X113560Y51617D01*
X113679Y51632D01*
X113797Y51639D01*
X113836Y51652D01*
X113876Y51657D01*
X113987Y51700D01*
X114100Y51737D01*
X114134Y51759D01*
X114172Y51774D01*
X114268Y51843D01*
X114368Y51907D01*
X114396Y51937D01*
X114429Y51960D01*
X114505Y52052D01*
X114586Y52139D01*
X114606Y52174D01*
X114632Y52205D01*
X114682Y52313D01*
X114740Y52417D01*
X114750Y52457D01*
X114767Y52493D01*
X114790Y52610D01*
X114819Y52725D01*
X114823Y52785D01*
X114827Y52805D01*
X114826Y52826D01*
X114830Y52886D01*
X114830Y53685D01*
X116755Y55611D01*
X119478Y55611D01*
X121403Y53685D01*
X121403Y50963D01*
X119516Y49075D01*
X119431Y48966D01*
X119342Y48859D01*
X119333Y48840D01*
X119321Y48824D01*
X119266Y48696D01*
X119207Y48571D01*
X119203Y48551D01*
X119195Y48532D01*
X119173Y48394D01*
X119147Y48258D01*
X119148Y48238D01*
X119145Y48218D01*
X119158Y48079D01*
X119166Y47941D01*
X119173Y47922D01*
X119175Y47902D01*
X119222Y47770D01*
X119265Y47639D01*
X119275Y47621D01*
X119282Y47602D01*
X119360Y47487D01*
X119435Y47370D01*
X119449Y47356D01*
X119461Y47339D01*
X119565Y47247D01*
X119666Y47152D01*
X119684Y47142D01*
X119699Y47129D01*
X119823Y47065D01*
X119945Y46998D01*
X119964Y46993D01*
X119982Y46984D01*
X120118Y46954D01*
X120253Y46919D01*
X120281Y46917D01*
X120293Y46914D01*
X120313Y46915D01*
X120413Y46909D01*
X132863Y46909D01*
X132961Y46921D01*
X133060Y46924D01*
X133118Y46941D01*
X133178Y46949D01*
X133270Y46985D01*
X133366Y47013D01*
X133418Y47043D01*
X133474Y47066D01*
X133554Y47124D01*
X133639Y47174D01*
X133715Y47240D01*
X133731Y47252D01*
X133739Y47262D01*
X133760Y47280D01*
X134381Y47901D01*
X137103Y47901D01*
X139222Y45782D01*
X139300Y45722D01*
X139372Y45654D01*
X139425Y45625D01*
X139473Y45588D01*
X139564Y45548D01*
X139651Y45500D01*
X139709Y45485D01*
X139765Y45461D01*
X139863Y45446D01*
X139958Y45421D01*
X140059Y45415D01*
X140079Y45411D01*
X140091Y45413D01*
X140119Y45411D01*
X141339Y45411D01*
X143265Y43485D01*
X143265Y42044D01*
X143280Y41926D01*
X143287Y41807D01*
X143300Y41769D01*
X143305Y41728D01*
X143348Y41618D01*
X143385Y41505D01*
X143407Y41470D01*
X143422Y41433D01*
X143491Y41337D01*
X143555Y41236D01*
X143585Y41208D01*
X143608Y41175D01*
X143700Y41099D01*
X143787Y41018D01*
X143822Y40998D01*
X143853Y40973D01*
X143961Y40922D01*
X144065Y40864D01*
X144105Y40854D01*
X144141Y40837D01*
X144258Y40815D01*
X144373Y40785D01*
X144433Y40781D01*
X144453Y40777D01*
X144474Y40779D01*
X144534Y40775D01*
X149030Y40775D01*
X149168Y40792D01*
X149307Y40805D01*
X149326Y40812D01*
X149346Y40815D01*
X149475Y40866D01*
X149606Y40913D01*
X149623Y40924D01*
X149641Y40932D01*
X149754Y41013D01*
X149869Y41091D01*
X149883Y41107D01*
X149899Y41118D01*
X149988Y41226D01*
X150080Y41330D01*
X150089Y41348D01*
X150102Y41363D01*
X150161Y41489D01*
X150224Y41613D01*
X150229Y41633D01*
X150237Y41651D01*
X150263Y41787D01*
X150294Y41923D01*
X150293Y41944D01*
X150297Y41963D01*
X150288Y42102D01*
X150284Y42241D01*
X150278Y42261D01*
X150277Y42281D01*
X150234Y42413D01*
X150196Y42547D01*
X150185Y42564D01*
X150179Y42583D01*
X150105Y42701D01*
X150082Y42740D01*
X150082Y45510D01*
X152114Y47542D01*
X152201Y47573D01*
X152218Y47585D01*
X152237Y47592D01*
X152349Y47674D01*
X152464Y47752D01*
X152478Y47767D01*
X152494Y47779D01*
X152583Y47886D01*
X152675Y47990D01*
X152684Y48008D01*
X152697Y48024D01*
X152756Y48150D01*
X152819Y48274D01*
X152824Y48294D01*
X152833Y48312D01*
X152859Y48448D01*
X152889Y48584D01*
X152889Y48604D01*
X152892Y48624D01*
X152884Y48763D01*
X152879Y48902D01*
X152874Y48921D01*
X152873Y48942D01*
X152830Y49074D01*
X152791Y49207D01*
X152781Y49225D01*
X152775Y49244D01*
X152700Y49361D01*
X152630Y49481D01*
X152611Y49502D01*
X152604Y49513D01*
X152590Y49527D01*
X152523Y49602D01*
X133664Y68462D01*
X133585Y68522D01*
X133513Y68590D01*
X133460Y68619D01*
X133412Y68656D01*
X133322Y68696D01*
X133235Y68744D01*
X133176Y68759D01*
X133121Y68783D01*
X133023Y68798D01*
X132927Y68823D01*
X132827Y68829D01*
X132807Y68833D01*
X132794Y68831D01*
X132766Y68833D01*
X126331Y68833D01*
X126233Y68821D01*
X126134Y68818D01*
X126076Y68801D01*
X126016Y68793D01*
X125924Y68757D01*
X125828Y68729D01*
X125776Y68699D01*
X125720Y68676D01*
X125640Y68618D01*
X125555Y68568D01*
X125479Y68502D01*
X125463Y68490D01*
X125455Y68480D01*
X125434Y68462D01*
X124551Y67579D01*
X123304Y67579D01*
X123206Y67567D01*
X123107Y67564D01*
X123048Y67547D01*
X122988Y67539D01*
X122896Y67503D01*
X122801Y67475D01*
X122749Y67445D01*
X122693Y67422D01*
X122612Y67364D01*
X122527Y67314D01*
X122452Y67248D01*
X122435Y67236D01*
X122427Y67226D01*
X122406Y67208D01*
X118920Y63721D01*
X25538Y63721D01*
X25440Y63709D01*
X25341Y63706D01*
X25282Y63689D01*
X25222Y63681D01*
X25130Y63645D01*
X25035Y63617D01*
X24983Y63587D01*
X24927Y63564D01*
X24846Y63506D01*
X24761Y63456D01*
X24686Y63390D01*
X24669Y63378D01*
X24661Y63368D01*
X24640Y63350D01*
X23066Y61776D01*
X23006Y61697D01*
X22938Y61625D01*
X22909Y61572D01*
X22872Y61524D01*
X22832Y61434D01*
X22784Y61347D01*
X22769Y61288D01*
X22745Y61233D01*
X22730Y61135D01*
X22705Y61039D01*
X22699Y60939D01*
X22695Y60919D01*
X22697Y60906D01*
X22695Y60878D01*
X22695Y59631D01*
X20769Y57705D01*
X18047Y57705D01*
X16121Y59631D01*
X16121Y62353D01*
X18047Y64279D01*
X19294Y64279D01*
X19392Y64291D01*
X19491Y64294D01*
X19550Y64311D01*
X19610Y64319D01*
X19702Y64355D01*
X19797Y64383D01*
X19849Y64413D01*
X19905Y64436D01*
X19986Y64494D01*
X20071Y64544D01*
X20146Y64610D01*
X20163Y64622D01*
X20171Y64632D01*
X20192Y64650D01*
X23328Y67787D01*
X88408Y67787D01*
X88526Y67802D01*
X88645Y67809D01*
X88683Y67822D01*
X88724Y67827D01*
X88834Y67870D01*
X88947Y67907D01*
X88982Y67929D01*
X89019Y67944D01*
X89115Y68013D01*
X89216Y68077D01*
X89244Y68107D01*
X89277Y68130D01*
X89353Y68222D01*
X89434Y68309D01*
X89454Y68344D01*
X89479Y68375D01*
X89530Y68483D01*
X89588Y68587D01*
X89598Y68627D01*
X89615Y68663D01*
X89637Y68780D01*
X89667Y68895D01*
X89671Y68955D01*
X89675Y68975D01*
X89673Y68996D01*
X89677Y69056D01*
X89677Y70703D01*
X91603Y72629D01*
X94325Y72629D01*
X96251Y70703D01*
X96251Y69056D01*
X96266Y68938D01*
X96273Y68819D01*
X96286Y68781D01*
X96291Y68740D01*
X96334Y68630D01*
X96371Y68517D01*
X96393Y68482D01*
X96408Y68445D01*
X96477Y68349D01*
X96541Y68248D01*
X96571Y68220D01*
X96594Y68187D01*
X96686Y68111D01*
X96773Y68030D01*
X96808Y68010D01*
X96839Y67985D01*
X96947Y67934D01*
X97051Y67876D01*
X97091Y67866D01*
X97127Y67849D01*
X97244Y67827D01*
X97359Y67797D01*
X97419Y67793D01*
X97439Y67789D01*
X97460Y67791D01*
X97520Y67787D01*
X107508Y67787D01*
X107646Y67804D01*
X107785Y67817D01*
X107804Y67824D01*
X107824Y67827D01*
X107953Y67878D01*
X108084Y67925D01*
X108101Y67936D01*
X108120Y67944D01*
X108232Y68025D01*
X108347Y68103D01*
X108361Y68119D01*
X108377Y68130D01*
X108466Y68238D01*
X108558Y68342D01*
X108567Y68360D01*
X108580Y68375D01*
X108639Y68501D01*
X108702Y68625D01*
X108707Y68645D01*
X108715Y68663D01*
X108741Y68799D01*
X108772Y68935D01*
X108771Y68956D01*
X108775Y68975D01*
X108767Y69114D01*
X108762Y69253D01*
X108757Y69273D01*
X108755Y69293D01*
X108713Y69425D01*
X108674Y69559D01*
X108664Y69576D01*
X108657Y69595D01*
X108583Y69713D01*
X108512Y69833D01*
X108494Y69854D01*
X108487Y69864D01*
X108472Y69878D01*
X108406Y69953D01*
X106515Y71844D01*
X106515Y74988D01*
X108738Y77211D01*
X111882Y77211D01*
X114248Y74844D01*
X114262Y74811D01*
X114331Y74715D01*
X114395Y74614D01*
X114425Y74586D01*
X114448Y74553D01*
X114540Y74477D01*
X114627Y74396D01*
X114662Y74376D01*
X114693Y74351D01*
X114801Y74300D01*
X114905Y74242D01*
X114945Y74232D01*
X114981Y74215D01*
X115098Y74193D01*
X115213Y74163D01*
X115273Y74159D01*
X115293Y74155D01*
X115314Y74157D01*
X115374Y74153D01*
X117947Y74153D01*
X118991Y73110D01*
X119085Y73037D01*
X119174Y72958D01*
X119210Y72940D01*
X119242Y72915D01*
X119351Y72867D01*
X119457Y72813D01*
X119496Y72804D01*
X119534Y72788D01*
X119651Y72770D01*
X119767Y72744D01*
X119808Y72745D01*
X119848Y72739D01*
X119966Y72750D01*
X120085Y72753D01*
X120124Y72765D01*
X120164Y72768D01*
X120276Y72809D01*
X120391Y72842D01*
X120426Y72862D01*
X120464Y72876D01*
X120562Y72943D01*
X120665Y73003D01*
X120710Y73043D01*
X120727Y73055D01*
X120740Y73070D01*
X120786Y73110D01*
X121829Y74153D01*
X124551Y74153D01*
X125434Y73270D01*
X125512Y73210D01*
X125584Y73142D01*
X125637Y73113D01*
X125685Y73076D01*
X125776Y73036D01*
X125863Y72988D01*
X125921Y72973D01*
X125977Y72949D01*
X126075Y72934D01*
X126170Y72909D01*
X126271Y72903D01*
X126291Y72899D01*
X126303Y72901D01*
X126331Y72899D01*
X134976Y72899D01*
X136538Y71336D01*
X161901Y45974D01*
X162010Y45889D01*
X162117Y45800D01*
X162136Y45792D01*
X162152Y45779D01*
X162280Y45724D01*
X162405Y45665D01*
X162425Y45661D01*
X162444Y45653D01*
X162582Y45631D01*
X162718Y45605D01*
X162738Y45606D01*
X162758Y45603D01*
X162897Y45616D01*
X163035Y45625D01*
X163054Y45631D01*
X163074Y45633D01*
X163206Y45680D01*
X163337Y45723D01*
X163355Y45734D01*
X163374Y45740D01*
X163489Y45819D01*
X163606Y45893D01*
X163620Y45908D01*
X163637Y45919D01*
X163729Y46023D01*
X163824Y46125D01*
X163834Y46142D01*
X163847Y46157D01*
X163911Y46281D01*
X163978Y46403D01*
X163983Y46423D01*
X163992Y46441D01*
X164022Y46577D01*
X164057Y46711D01*
X164059Y46739D01*
X164062Y46751D01*
X164061Y46771D01*
X164067Y46872D01*
X164067Y48824D01*
X165993Y50750D01*
X168715Y50750D01*
X170641Y48824D01*
X170641Y46102D01*
X168715Y44176D01*
X166763Y44176D01*
X166625Y44159D01*
X166486Y44146D01*
X166467Y44139D01*
X166447Y44136D01*
X166318Y44085D01*
X166187Y44038D01*
X166170Y44027D01*
X166151Y44019D01*
X166039Y43938D01*
X165924Y43859D01*
X165910Y43844D01*
X165894Y43833D01*
X165805Y43725D01*
X165713Y43621D01*
X165704Y43603D01*
X165691Y43588D01*
X165632Y43462D01*
X165569Y43338D01*
X165564Y43318D01*
X165556Y43300D01*
X165530Y43164D01*
X165499Y43027D01*
X165500Y43007D01*
X165496Y42988D01*
X165505Y42849D01*
X165509Y42710D01*
X165514Y42690D01*
X165516Y42670D01*
X165558Y42538D01*
X165597Y42404D01*
X165608Y42387D01*
X165614Y42368D01*
X165688Y42250D01*
X165759Y42130D01*
X165777Y42109D01*
X165784Y42099D01*
X165799Y42085D01*
X165865Y42009D01*
X165966Y41908D01*
X166044Y41848D01*
X166117Y41780D01*
X166170Y41751D01*
X166218Y41713D01*
X166309Y41674D01*
X166395Y41626D01*
X166454Y41611D01*
X166510Y41587D01*
X166607Y41572D01*
X166703Y41547D01*
X166803Y41541D01*
X166824Y41537D01*
X166836Y41539D01*
X166864Y41537D01*
X168111Y41537D01*
X170037Y39611D01*
X170037Y37334D01*
X170052Y37216D01*
X170059Y37097D01*
X170072Y37059D01*
X170077Y37018D01*
X170120Y36908D01*
X170157Y36795D01*
X170179Y36760D01*
X170194Y36723D01*
X170263Y36627D01*
X170327Y36526D01*
X170357Y36498D01*
X170380Y36465D01*
X170472Y36389D01*
X170559Y36308D01*
X170594Y36288D01*
X170625Y36263D01*
X170733Y36212D01*
X170837Y36154D01*
X170877Y36144D01*
X170913Y36127D01*
X171030Y36105D01*
X171145Y36075D01*
X171205Y36071D01*
X171225Y36067D01*
X171246Y36069D01*
X171306Y36065D01*
X174944Y36065D01*
X175062Y36080D01*
X175181Y36087D01*
X175219Y36100D01*
X175260Y36105D01*
X175370Y36148D01*
X175483Y36185D01*
X175518Y36207D01*
X175555Y36222D01*
X175651Y36291D01*
X175752Y36355D01*
X175780Y36385D01*
X175813Y36408D01*
X175889Y36500D01*
X175970Y36587D01*
X175990Y36622D01*
X176015Y36653D01*
X176066Y36761D01*
X176124Y36865D01*
X176134Y36905D01*
X176151Y36941D01*
X176173Y37058D01*
X176203Y37173D01*
X176207Y37233D01*
X176211Y37253D01*
X176209Y37274D01*
X176213Y37334D01*
X176213Y39861D01*
X178139Y41787D01*
X180139Y41787D01*
X180277Y41804D01*
X180415Y41817D01*
X180434Y41824D01*
X180454Y41827D01*
X180584Y41878D01*
X180715Y41925D01*
X180731Y41936D01*
X180750Y41944D01*
X180863Y42025D01*
X180978Y42103D01*
X180991Y42119D01*
X181007Y42130D01*
X181096Y42238D01*
X181188Y42342D01*
X181197Y42360D01*
X181210Y42375D01*
X181269Y42501D01*
X181333Y42625D01*
X181337Y42645D01*
X181346Y42663D01*
X181372Y42800D01*
X181402Y42935D01*
X181402Y42956D01*
X181406Y42975D01*
X181397Y43114D01*
X181393Y43253D01*
X181387Y43273D01*
X181386Y43293D01*
X181343Y43425D01*
X181304Y43559D01*
X181294Y43576D01*
X181288Y43595D01*
X181213Y43713D01*
X181143Y43833D01*
X181139Y43837D01*
X181139Y46573D01*
X182933Y48367D01*
X183006Y48462D01*
X183085Y48551D01*
X183103Y48587D01*
X183128Y48619D01*
X183176Y48728D01*
X183230Y48834D01*
X183239Y48873D01*
X183255Y48911D01*
X183273Y49028D01*
X183299Y49144D01*
X183298Y49185D01*
X183304Y49225D01*
X183293Y49343D01*
X183290Y49462D01*
X183278Y49501D01*
X183275Y49541D01*
X183234Y49654D01*
X183201Y49768D01*
X183181Y49802D01*
X183167Y49841D01*
X183100Y49939D01*
X183040Y50042D01*
X183000Y50087D01*
X182988Y50104D01*
X182973Y50117D01*
X182933Y50162D01*
X182387Y50709D01*
X182387Y53431D01*
X184313Y55357D01*
X185944Y55357D01*
X186062Y55372D01*
X186181Y55379D01*
X186219Y55392D01*
X186260Y55397D01*
X186370Y55440D01*
X186483Y55477D01*
X186518Y55499D01*
X186555Y55514D01*
X186651Y55583D01*
X186752Y55647D01*
X186780Y55677D01*
X186813Y55700D01*
X186889Y55792D01*
X186970Y55879D01*
X186990Y55914D01*
X187015Y55945D01*
X187066Y56053D01*
X187124Y56157D01*
X187134Y56197D01*
X187151Y56233D01*
X187173Y56350D01*
X187203Y56465D01*
X187207Y56525D01*
X187211Y56545D01*
X187209Y56566D01*
X187213Y56626D01*
X187213Y59781D01*
X189139Y61707D01*
X191939Y61707D01*
X192030Y61667D01*
X192155Y61608D01*
X192175Y61604D01*
X192194Y61596D01*
X192331Y61575D01*
X192468Y61548D01*
X192488Y61550D01*
X192508Y61547D01*
X192646Y61560D01*
X192785Y61568D01*
X192804Y61574D01*
X192824Y61576D01*
X192955Y61623D01*
X193087Y61666D01*
X193104Y61677D01*
X193124Y61684D01*
X193239Y61762D01*
X193356Y61836D01*
X193370Y61851D01*
X193387Y61862D01*
X193479Y61967D01*
X193574Y62068D01*
X193584Y62086D01*
X193597Y62101D01*
X193661Y62225D01*
X193728Y62346D01*
X193733Y62366D01*
X193742Y62384D01*
X193772Y62520D01*
X193807Y62654D01*
X193809Y62682D01*
X193812Y62694D01*
X193811Y62715D01*
X193817Y62815D01*
X193817Y68105D01*
X193800Y68242D01*
X193787Y68381D01*
X193780Y68400D01*
X193777Y68420D01*
X193726Y68549D01*
X193679Y68681D01*
X193668Y68697D01*
X193660Y68716D01*
X193579Y68829D01*
X193501Y68944D01*
X193485Y68957D01*
X193474Y68973D01*
X193366Y69062D01*
X193262Y69154D01*
X193244Y69163D01*
X193229Y69176D01*
X193103Y69236D01*
X192979Y69299D01*
X192959Y69303D01*
X192941Y69312D01*
X192805Y69338D01*
X192669Y69368D01*
X192648Y69368D01*
X192629Y69372D01*
X192490Y69363D01*
X192351Y69359D01*
X192331Y69353D01*
X192311Y69352D01*
X192179Y69309D01*
X192045Y69270D01*
X192028Y69260D01*
X192009Y69254D01*
X191891Y69179D01*
X191771Y69109D01*
X191750Y69090D01*
X191740Y69084D01*
X191726Y69069D01*
X191651Y69002D01*
X189861Y67213D01*
X187139Y67213D01*
X185213Y69139D01*
X185213Y71861D01*
X187139Y73787D01*
X189861Y73787D01*
X191651Y71998D01*
X191760Y71912D01*
X191867Y71824D01*
X191886Y71815D01*
X191902Y71803D01*
X192030Y71747D01*
X192155Y71688D01*
X192175Y71684D01*
X192194Y71676D01*
X192332Y71654D01*
X192468Y71628D01*
X192488Y71630D01*
X192508Y71626D01*
X192647Y71640D01*
X192785Y71648D01*
X192804Y71654D01*
X192824Y71656D01*
X192956Y71703D01*
X193087Y71746D01*
X193105Y71757D01*
X193124Y71764D01*
X193239Y71842D01*
X193356Y71916D01*
X193370Y71931D01*
X193387Y71942D01*
X193479Y72047D01*
X193574Y72148D01*
X193584Y72166D01*
X193597Y72181D01*
X193661Y72305D01*
X193728Y72426D01*
X193733Y72446D01*
X193742Y72464D01*
X193772Y72600D01*
X193807Y72734D01*
X193809Y72762D01*
X193812Y72774D01*
X193811Y72795D01*
X193817Y72895D01*
X193817Y98568D01*
X193802Y98686D01*
X193795Y98805D01*
X193782Y98843D01*
X193777Y98884D01*
X193734Y98994D01*
X193697Y99107D01*
X193675Y99142D01*
X193660Y99179D01*
X193591Y99275D01*
X193527Y99376D01*
X193497Y99404D01*
X193474Y99437D01*
X193382Y99513D01*
X193295Y99594D01*
X193260Y99614D01*
X193229Y99639D01*
X193121Y99690D01*
X193017Y99748D01*
X192977Y99758D01*
X192941Y99775D01*
X192824Y99797D01*
X192709Y99827D01*
X192649Y99831D01*
X192629Y99835D01*
X192608Y99833D01*
X192548Y99837D01*
X189417Y99837D01*
X187491Y101763D01*
X187491Y103140D01*
X187476Y103258D01*
X187469Y103377D01*
X187456Y103415D01*
X187451Y103456D01*
X187408Y103566D01*
X187371Y103679D01*
X187349Y103714D01*
X187334Y103751D01*
X187265Y103847D01*
X187201Y103948D01*
X187171Y103976D01*
X187148Y104009D01*
X187056Y104085D01*
X186969Y104166D01*
X186934Y104186D01*
X186903Y104211D01*
X186795Y104262D01*
X186691Y104320D01*
X186651Y104330D01*
X186615Y104347D01*
X186498Y104369D01*
X186383Y104399D01*
X186323Y104403D01*
X186303Y104407D01*
X186282Y104405D01*
X186222Y104409D01*
X184329Y104409D01*
X183446Y105292D01*
X183368Y105352D01*
X183296Y105420D01*
X183243Y105449D01*
X183195Y105486D01*
X183104Y105526D01*
X183017Y105574D01*
X182959Y105589D01*
X182903Y105613D01*
X182805Y105628D01*
X182710Y105653D01*
X182609Y105659D01*
X182589Y105663D01*
X182577Y105661D01*
X182549Y105663D01*
X168148Y105663D01*
X168030Y105648D01*
X167911Y105641D01*
X167873Y105628D01*
X167832Y105623D01*
X167722Y105580D01*
X167609Y105543D01*
X167574Y105521D01*
X167537Y105506D01*
X167441Y105437D01*
X167340Y105373D01*
X167312Y105343D01*
X167279Y105320D01*
X167203Y105228D01*
X167122Y105141D01*
X167102Y105106D01*
X167077Y105075D01*
X167026Y104967D01*
X166968Y104863D01*
X166958Y104823D01*
X166941Y104787D01*
X166919Y104670D01*
X166889Y104555D01*
X166885Y104495D01*
X166881Y104475D01*
X166883Y104454D01*
X166879Y104394D01*
X166879Y92122D01*
X157052Y82295D01*
X124553Y82295D01*
X124455Y82283D01*
X124356Y82280D01*
X124298Y82263D01*
X124238Y82255D01*
X124146Y82219D01*
X124050Y82191D01*
X123998Y82161D01*
X123942Y82138D01*
X123862Y82080D01*
X123777Y82030D01*
X123701Y81964D01*
X123685Y81952D01*
X123677Y81942D01*
X123656Y81924D01*
X122773Y81041D01*
X120051Y81041D01*
X118125Y82967D01*
X118125Y85689D01*
X118343Y85907D01*
X118428Y86017D01*
X118517Y86124D01*
X118525Y86142D01*
X118538Y86158D01*
X118593Y86286D01*
X118652Y86412D01*
X118656Y86431D01*
X118664Y86450D01*
X118686Y86588D01*
X118712Y86724D01*
X118711Y86744D01*
X118714Y86764D01*
X118701Y86903D01*
X118692Y87041D01*
X118686Y87061D01*
X118684Y87081D01*
X118637Y87212D01*
X118594Y87344D01*
X118583Y87361D01*
X118577Y87380D01*
X118499Y87495D01*
X118424Y87613D01*
X118409Y87627D01*
X118398Y87643D01*
X118294Y87735D01*
X118193Y87831D01*
X118175Y87840D01*
X118160Y87854D01*
X118036Y87917D01*
X117914Y87984D01*
X117894Y87989D01*
X117876Y87998D01*
X117740Y88029D01*
X117606Y88064D01*
X117578Y88065D01*
X117566Y88068D01*
X117546Y88067D01*
X117445Y88074D01*
X79790Y88074D01*
X79692Y88061D01*
X79593Y88058D01*
X79535Y88042D01*
X79475Y88034D01*
X79383Y87997D01*
X79288Y87970D01*
X79235Y87939D01*
X79179Y87917D01*
X79099Y87859D01*
X79014Y87808D01*
X78938Y87742D01*
X78922Y87730D01*
X78914Y87721D01*
X78893Y87702D01*
X71708Y80517D01*
X63607Y80517D01*
X63470Y80500D01*
X63331Y80487D01*
X63312Y80480D01*
X63292Y80477D01*
X63163Y80426D01*
X63031Y80379D01*
X63015Y80368D01*
X62996Y80360D01*
X62883Y80279D01*
X62768Y80201D01*
X62755Y80185D01*
X62739Y80174D01*
X62650Y80066D01*
X62558Y79962D01*
X62549Y79944D01*
X62536Y79929D01*
X62476Y79803D01*
X62413Y79679D01*
X62409Y79659D01*
X62400Y79641D01*
X62374Y79505D01*
X62344Y79369D01*
X62344Y79348D01*
X62340Y79329D01*
X62349Y79190D01*
X62353Y79051D01*
X62359Y79031D01*
X62360Y79011D01*
X62403Y78879D01*
X62442Y78745D01*
X62452Y78728D01*
X62458Y78709D01*
X62533Y78590D01*
X62603Y78471D01*
X62622Y78450D01*
X62628Y78440D01*
X62643Y78426D01*
X62710Y78351D01*
X64565Y76495D01*
X64565Y73773D01*
X62639Y71847D01*
X59917Y71847D01*
X57991Y73773D01*
X57991Y76495D01*
X59846Y78351D01*
X59932Y78460D01*
X60020Y78567D01*
X60029Y78586D01*
X60041Y78602D01*
X60097Y78730D01*
X60156Y78855D01*
X60160Y78875D01*
X60168Y78894D01*
X60190Y79032D01*
X60216Y79168D01*
X60214Y79188D01*
X60218Y79208D01*
X60204Y79347D01*
X60196Y79485D01*
X60190Y79504D01*
X60188Y79524D01*
X60141Y79656D01*
X60098Y79787D01*
X60087Y79805D01*
X60080Y79824D01*
X60002Y79939D01*
X59928Y80056D01*
X59913Y80070D01*
X59902Y80087D01*
X59797Y80179D01*
X59696Y80274D01*
X59678Y80284D01*
X59663Y80297D01*
X59539Y80361D01*
X59418Y80428D01*
X59398Y80433D01*
X59380Y80442D01*
X59244Y80472D01*
X59110Y80507D01*
X59082Y80509D01*
X59070Y80512D01*
X59049Y80511D01*
X58949Y80517D01*
X29626Y80517D01*
X29528Y80505D01*
X29428Y80502D01*
X29370Y80485D01*
X29310Y80477D01*
X29218Y80441D01*
X29123Y80413D01*
X29071Y80383D01*
X29014Y80360D01*
X28934Y80302D01*
X28849Y80252D01*
X28774Y80186D01*
X28757Y80174D01*
X28749Y80164D01*
X28728Y80146D01*
X23320Y74738D01*
X23260Y74660D01*
X23192Y74587D01*
X23163Y74534D01*
X23126Y74487D01*
X23086Y74396D01*
X23038Y74309D01*
X23023Y74250D01*
X22999Y74195D01*
X22984Y74097D01*
X22959Y74001D01*
X22953Y73901D01*
X22949Y73881D01*
X22951Y73868D01*
X22949Y73840D01*
X22949Y72593D01*
X21023Y70667D01*
X18301Y70667D01*
X16375Y72593D01*
X16375Y75315D01*
X18301Y77241D01*
X19548Y77241D01*
X19646Y77253D01*
X19746Y77256D01*
X19804Y77273D01*
X19864Y77281D01*
X19956Y77317D01*
X20051Y77345D01*
X20103Y77375D01*
X20160Y77398D01*
X20240Y77456D01*
X20325Y77506D01*
X20400Y77572D01*
X20417Y77584D01*
X20425Y77594D01*
X20446Y77612D01*
X25195Y82362D01*
X25268Y82456D01*
X25347Y82545D01*
X25365Y82581D01*
X25390Y82613D01*
X25437Y82722D01*
X25491Y82828D01*
X25500Y82868D01*
X25516Y82905D01*
X25535Y83023D01*
X25561Y83139D01*
X25560Y83179D01*
X25566Y83219D01*
X25555Y83338D01*
X25551Y83456D01*
X25540Y83495D01*
X25536Y83536D01*
X25496Y83648D01*
X25463Y83762D01*
X25442Y83797D01*
X25429Y83835D01*
X25362Y83933D01*
X25301Y84036D01*
X25262Y84081D01*
X25250Y84098D01*
X25235Y84111D01*
X25195Y84157D01*
X24713Y84639D01*
X24713Y87361D01*
X25204Y87853D01*
X25277Y87947D01*
X25356Y88036D01*
X25375Y88072D01*
X25399Y88104D01*
X25447Y88213D01*
X25501Y88319D01*
X25510Y88359D01*
X25526Y88396D01*
X25544Y88513D01*
X25570Y88629D01*
X25569Y88670D01*
X25575Y88710D01*
X25564Y88829D01*
X25561Y88947D01*
X25549Y88986D01*
X25546Y89026D01*
X25505Y89138D01*
X25472Y89253D01*
X25452Y89288D01*
X25438Y89326D01*
X25371Y89424D01*
X25311Y89527D01*
X25271Y89572D01*
X25259Y89589D01*
X25244Y89602D01*
X25213Y89637D01*
X25213Y92641D01*
X25196Y92779D01*
X25183Y92917D01*
X25176Y92936D01*
X25173Y92956D01*
X25122Y93086D01*
X25075Y93217D01*
X25064Y93233D01*
X25056Y93252D01*
X24975Y93365D01*
X24897Y93480D01*
X24881Y93493D01*
X24870Y93509D01*
X24762Y93599D01*
X24658Y93690D01*
X24640Y93699D01*
X24625Y93712D01*
X24499Y93772D01*
X24375Y93835D01*
X24355Y93839D01*
X24337Y93848D01*
X24201Y93874D01*
X24065Y93904D01*
X24044Y93904D01*
X24025Y93908D01*
X23886Y93899D01*
X23747Y93895D01*
X23727Y93889D01*
X23707Y93888D01*
X23575Y93845D01*
X23441Y93806D01*
X23424Y93796D01*
X23405Y93790D01*
X23287Y93715D01*
X23167Y93645D01*
X23146Y93626D01*
X23136Y93620D01*
X23122Y93605D01*
X23046Y93538D01*
X22915Y93407D01*
X20193Y93407D01*
X18267Y95333D01*
X18267Y98055D01*
X20193Y99981D01*
X22915Y99981D01*
X24841Y98055D01*
X24841Y95053D01*
X24858Y94915D01*
X24871Y94777D01*
X24878Y94758D01*
X24881Y94738D01*
X24932Y94608D01*
X24979Y94477D01*
X24990Y94461D01*
X24998Y94442D01*
X25079Y94329D01*
X25157Y94214D01*
X25173Y94201D01*
X25184Y94185D01*
X25292Y94095D01*
X25396Y94004D01*
X25414Y93995D01*
X25429Y93982D01*
X25555Y93922D01*
X25679Y93859D01*
X25699Y93855D01*
X25717Y93846D01*
X25853Y93820D01*
X25989Y93790D01*
X26010Y93790D01*
X26029Y93786D01*
X26168Y93795D01*
X26307Y93799D01*
X26327Y93805D01*
X26347Y93806D01*
X26479Y93849D01*
X26613Y93888D01*
X26630Y93898D01*
X26649Y93904D01*
X26767Y93979D01*
X26887Y94049D01*
X26908Y94068D01*
X26918Y94074D01*
X26932Y94089D01*
X27008Y94156D01*
X27139Y94287D01*
X29861Y94287D01*
X30744Y93405D01*
X30822Y93344D01*
X30894Y93276D01*
X30947Y93247D01*
X30995Y93210D01*
X31086Y93170D01*
X31173Y93122D01*
X31231Y93107D01*
X31287Y93083D01*
X31385Y93068D01*
X31480Y93043D01*
X31580Y93037D01*
X31601Y93033D01*
X31613Y93035D01*
X31641Y93033D01*
X50632Y93033D01*
X50730Y93045D01*
X50829Y93048D01*
X50888Y93065D01*
X50948Y93073D01*
X51040Y93109D01*
X51135Y93137D01*
X51187Y93167D01*
X51243Y93190D01*
X51324Y93248D01*
X51409Y93298D01*
X51484Y93364D01*
X51501Y93376D01*
X51509Y93386D01*
X51530Y93404D01*
X56596Y98470D01*
X56656Y98548D01*
X56724Y98621D01*
X56753Y98674D01*
X56790Y98721D01*
X56830Y98812D01*
X56878Y98899D01*
X56893Y98958D01*
X56917Y99013D01*
X56932Y99111D01*
X56957Y99207D01*
X56963Y99307D01*
X56967Y99327D01*
X56965Y99340D01*
X56967Y99368D01*
X56967Y134342D01*
X58342Y135716D01*
X58402Y135795D01*
X58470Y135867D01*
X58499Y135920D01*
X58536Y135968D01*
X58576Y136058D01*
X58624Y136145D01*
X58639Y136204D01*
X58663Y136259D01*
X58678Y136357D01*
X58703Y136453D01*
X58709Y136553D01*
X58713Y136573D01*
X58711Y136586D01*
X58713Y136614D01*
X58713Y137861D01*
X60604Y139753D01*
X60690Y139862D01*
X60778Y139969D01*
X60787Y139988D01*
X60799Y140004D01*
X60855Y140132D01*
X60914Y140257D01*
X60918Y140277D01*
X60926Y140296D01*
X60948Y140434D01*
X60974Y140570D01*
X60972Y140590D01*
X60976Y140610D01*
X60962Y140749D01*
X60954Y140887D01*
X60948Y140906D01*
X60946Y140926D01*
X60899Y141058D01*
X60856Y141189D01*
X60845Y141207D01*
X60838Y141226D01*
X60760Y141341D01*
X60686Y141458D01*
X60671Y141472D01*
X60660Y141489D01*
X60555Y141581D01*
X60454Y141676D01*
X60436Y141686D01*
X60421Y141699D01*
X60297Y141763D01*
X60176Y141830D01*
X60156Y141835D01*
X60138Y141844D01*
X60002Y141874D01*
X59868Y141909D01*
X59840Y141911D01*
X59828Y141914D01*
X59807Y141913D01*
X59707Y141919D01*
X15387Y141919D01*
X15289Y141907D01*
X15190Y141904D01*
X15132Y141887D01*
X15072Y141879D01*
X14980Y141843D01*
X14884Y141815D01*
X14832Y141785D01*
X14776Y141762D01*
X14696Y141704D01*
X14611Y141654D01*
X14535Y141588D01*
X14519Y141576D01*
X14511Y141566D01*
X14490Y141548D01*
X14323Y141381D01*
X11601Y141381D01*
X9675Y143307D01*
X9675Y146029D01*
X11601Y147955D01*
X14323Y147955D01*
X15922Y146356D01*
X16000Y146296D01*
X16072Y146228D01*
X16125Y146199D01*
X16173Y146162D01*
X16264Y146122D01*
X16351Y146074D01*
X16409Y146059D01*
X16465Y146035D01*
X16563Y146020D01*
X16658Y145995D01*
X16759Y145989D01*
X16779Y145985D01*
X16791Y145987D01*
X16819Y145985D01*
X66564Y145985D01*
X66682Y146000D01*
X66801Y146007D01*
X66839Y146020D01*
X66880Y146025D01*
X66990Y146068D01*
X67103Y146105D01*
X67138Y146127D01*
X67175Y146142D01*
X67271Y146211D01*
X67372Y146275D01*
X67400Y146305D01*
X67433Y146328D01*
X67509Y146420D01*
X67590Y146507D01*
X67610Y146542D01*
X67635Y146573D01*
X67686Y146681D01*
X67744Y146785D01*
X67754Y146825D01*
X67771Y146861D01*
X67793Y146978D01*
X67823Y147093D01*
X67827Y147153D01*
X67831Y147173D01*
X67829Y147194D01*
X67833Y147254D01*
X67833Y148681D01*
X69759Y150607D01*
X72481Y150607D01*
X73264Y149824D01*
X73342Y149764D01*
X73414Y149696D01*
X73467Y149667D01*
X73515Y149630D01*
X73606Y149590D01*
X73693Y149542D01*
X73751Y149527D01*
X73807Y149503D01*
X73905Y149488D01*
X74000Y149463D01*
X74101Y149457D01*
X74121Y149453D01*
X74133Y149455D01*
X74161Y149453D01*
X104201Y149453D01*
X104339Y149470D01*
X104477Y149483D01*
X104496Y149490D01*
X104516Y149493D01*
X104646Y149544D01*
X104777Y149591D01*
X104793Y149602D01*
X104812Y149610D01*
X104924Y149691D01*
X105040Y149769D01*
X105053Y149785D01*
X105069Y149796D01*
X105158Y149904D01*
X105250Y150008D01*
X105259Y150026D01*
X105272Y150041D01*
X105332Y150167D01*
X105395Y150291D01*
X105399Y150311D01*
X105408Y150329D01*
X105434Y150466D01*
X105464Y150601D01*
X105464Y150622D01*
X105468Y150641D01*
X105459Y150780D01*
X105455Y150919D01*
X105449Y150939D01*
X105448Y150959D01*
X105405Y151091D01*
X105366Y151225D01*
X105356Y151242D01*
X105350Y151261D01*
X105275Y151379D01*
X105205Y151499D01*
X105186Y151520D01*
X105180Y151530D01*
X105165Y151544D01*
X105098Y151619D01*
X104663Y152055D01*
X104663Y154777D01*
X105579Y155694D01*
X105652Y155788D01*
X105731Y155877D01*
X105749Y155913D01*
X105774Y155945D01*
X105822Y156054D01*
X105876Y156160D01*
X105885Y156199D01*
X105901Y156237D01*
X105919Y156354D01*
X105945Y156470D01*
X105944Y156511D01*
X105950Y156551D01*
X105939Y156669D01*
X105936Y156788D01*
X105924Y156827D01*
X105921Y156867D01*
X105880Y156979D01*
X105847Y157094D01*
X105827Y157129D01*
X105813Y157167D01*
X105746Y157265D01*
X105686Y157368D01*
X105646Y157413D01*
X105634Y157430D01*
X105619Y157443D01*
X105579Y157489D01*
X104155Y158913D01*
X104155Y161635D01*
X105452Y162932D01*
X105525Y163027D01*
X105604Y163116D01*
X105622Y163152D01*
X105647Y163184D01*
X105695Y163293D01*
X105749Y163399D01*
X105758Y163438D01*
X105774Y163476D01*
X105792Y163593D01*
X105818Y163709D01*
X105817Y163750D01*
X105823Y163790D01*
X105812Y163908D01*
X105809Y164027D01*
X105797Y164066D01*
X105794Y164106D01*
X105753Y164219D01*
X105720Y164333D01*
X105700Y164367D01*
X105686Y164406D01*
X105619Y164504D01*
X105559Y164607D01*
X105519Y164652D01*
X105507Y164669D01*
X105492Y164682D01*
X105452Y164727D01*
X104663Y165517D01*
X104663Y168239D01*
X106589Y170165D01*
X109311Y170165D01*
X111237Y168239D01*
X111237Y165517D01*
X109940Y164219D01*
X109867Y164125D01*
X109788Y164036D01*
X109770Y164000D01*
X109745Y163968D01*
X109697Y163859D01*
X109643Y163753D01*
X109634Y163714D01*
X109618Y163676D01*
X109600Y163559D01*
X109574Y163443D01*
X109575Y163402D01*
X109569Y163362D01*
X109580Y163244D01*
X109583Y163125D01*
X109595Y163086D01*
X109598Y163046D01*
X109639Y162934D01*
X109672Y162819D01*
X109692Y162784D01*
X109706Y162746D01*
X109773Y162648D01*
X109833Y162545D01*
X109873Y162500D01*
X109885Y162483D01*
X109900Y162470D01*
X109940Y162424D01*
X110729Y161635D01*
X110729Y158913D01*
X109813Y157997D01*
X109740Y157902D01*
X109661Y157813D01*
X109642Y157777D01*
X109618Y157745D01*
X109570Y157636D01*
X109516Y157530D01*
X109507Y157491D01*
X109491Y157453D01*
X109473Y157336D01*
X109447Y157220D01*
X109448Y157179D01*
X109442Y157139D01*
X109453Y157021D01*
X109456Y156902D01*
X109468Y156863D01*
X109471Y156823D01*
X109512Y156710D01*
X109545Y156596D01*
X109565Y156562D01*
X109579Y156523D01*
X109646Y156425D01*
X109706Y156322D01*
X109746Y156277D01*
X109758Y156260D01*
X109773Y156247D01*
X109813Y156202D01*
X111237Y154777D01*
X111237Y152055D01*
X110802Y151619D01*
X110717Y151510D01*
X110628Y151403D01*
X110619Y151384D01*
X110607Y151368D01*
X110551Y151240D01*
X110492Y151115D01*
X110488Y151095D01*
X110480Y151076D01*
X110458Y150938D01*
X110432Y150802D01*
X110434Y150782D01*
X110430Y150762D01*
X110444Y150623D01*
X110452Y150485D01*
X110458Y150466D01*
X110460Y150446D01*
X110507Y150315D01*
X110550Y150183D01*
X110561Y150165D01*
X110568Y150146D01*
X110646Y150032D01*
X110720Y149914D01*
X110735Y149900D01*
X110746Y149883D01*
X110851Y149791D01*
X110952Y149696D01*
X110970Y149686D01*
X110985Y149673D01*
X111109Y149610D01*
X111230Y149542D01*
X111250Y149537D01*
X111268Y149528D01*
X111404Y149498D01*
X111538Y149463D01*
X111566Y149461D01*
X111578Y149458D01*
X111599Y149459D01*
X111699Y149453D01*
X146659Y149453D01*
X146757Y149465D01*
X146856Y149468D01*
X146914Y149485D01*
X146974Y149493D01*
X147066Y149529D01*
X147162Y149557D01*
X147214Y149587D01*
X147270Y149610D01*
X147350Y149668D01*
X147435Y149718D01*
X147511Y149784D01*
X147527Y149796D01*
X147535Y149806D01*
X147556Y149824D01*
X148439Y150707D01*
X151161Y150707D01*
X153087Y148781D01*
X153087Y147254D01*
X153102Y147136D01*
X153109Y147017D01*
X153122Y146979D01*
X153127Y146938D01*
X153170Y146828D01*
X153207Y146715D01*
X153229Y146680D01*
X153244Y146643D01*
X153313Y146547D01*
X153377Y146446D01*
X153407Y146418D01*
X153430Y146385D01*
X153522Y146309D01*
X153609Y146228D01*
X153644Y146208D01*
X153675Y146183D01*
X153783Y146132D01*
X153887Y146074D01*
X153927Y146064D01*
X153963Y146047D01*
X154080Y146025D01*
X154195Y145995D01*
X154255Y145991D01*
X154275Y145987D01*
X154296Y145989D01*
X154356Y145985D01*
X158890Y145985D01*
X166470Y138404D01*
X166549Y138344D01*
X166621Y138276D01*
X166674Y138247D01*
X166722Y138210D01*
X166812Y138170D01*
X166899Y138122D01*
X166958Y138107D01*
X167013Y138083D01*
X167111Y138068D01*
X167207Y138043D01*
X167307Y138037D01*
X167327Y138033D01*
X167340Y138035D01*
X167368Y138033D01*
X172859Y138033D01*
X172957Y138045D01*
X173056Y138048D01*
X173114Y138065D01*
X173174Y138073D01*
X173266Y138109D01*
X173362Y138137D01*
X173414Y138167D01*
X173470Y138190D01*
X173550Y138248D01*
X173635Y138298D01*
X173711Y138364D01*
X173727Y138376D01*
X173735Y138386D01*
X173756Y138404D01*
X174639Y139287D01*
X177361Y139287D01*
X179287Y137361D01*
X179287Y134477D01*
X179277Y134459D01*
X179268Y134420D01*
X179252Y134382D01*
X179234Y134265D01*
X179208Y134149D01*
X179209Y134108D01*
X179203Y134068D01*
X179214Y133950D01*
X179217Y133831D01*
X179229Y133792D01*
X179232Y133752D01*
X179273Y133640D01*
X179306Y133525D01*
X179326Y133490D01*
X179340Y133452D01*
X179407Y133354D01*
X179467Y133251D01*
X179507Y133206D01*
X179519Y133189D01*
X179534Y133176D01*
X179574Y133130D01*
X180717Y131987D01*
X180717Y129810D01*
X180732Y129692D01*
X180739Y129573D01*
X180752Y129535D01*
X180757Y129494D01*
X180800Y129384D01*
X180837Y129271D01*
X180859Y129236D01*
X180874Y129199D01*
X180943Y129103D01*
X181007Y129002D01*
X181037Y128974D01*
X181060Y128941D01*
X181152Y128865D01*
X181239Y128784D01*
X181274Y128764D01*
X181305Y128739D01*
X181413Y128688D01*
X181517Y128630D01*
X181557Y128620D01*
X181593Y128603D01*
X181710Y128581D01*
X181825Y128551D01*
X181885Y128547D01*
X181905Y128543D01*
X181926Y128545D01*
X181986Y128541D01*
X183479Y128541D01*
X185405Y126615D01*
X185405Y123893D01*
X183806Y122293D01*
X183720Y122184D01*
X183632Y122077D01*
X183623Y122058D01*
X183611Y122042D01*
X183555Y121914D01*
X183496Y121789D01*
X183492Y121769D01*
X183484Y121750D01*
X183462Y121612D01*
X183436Y121476D01*
X183438Y121456D01*
X183434Y121436D01*
X183448Y121297D01*
X183456Y121159D01*
X183462Y121140D01*
X183464Y121120D01*
X183511Y120988D01*
X183554Y120857D01*
X183565Y120839D01*
X183572Y120820D01*
X183650Y120705D01*
X183724Y120588D01*
X183739Y120574D01*
X183750Y120557D01*
X183855Y120465D01*
X183956Y120370D01*
X183974Y120360D01*
X183989Y120347D01*
X184113Y120283D01*
X184234Y120216D01*
X184254Y120211D01*
X184272Y120202D01*
X184408Y120172D01*
X184542Y120137D01*
X184570Y120135D01*
X184582Y120132D01*
X184603Y120133D01*
X184703Y120127D01*
X186821Y120127D01*
X188747Y118201D01*
X188747Y115816D01*
X188762Y115698D01*
X188769Y115579D01*
X188782Y115541D01*
X188787Y115500D01*
X188830Y115390D01*
X188867Y115277D01*
X188889Y115242D01*
X188904Y115205D01*
X188973Y115109D01*
X189037Y115008D01*
X189067Y114980D01*
X189090Y114947D01*
X189182Y114871D01*
X189269Y114790D01*
X189304Y114770D01*
X189335Y114745D01*
X189443Y114694D01*
X189547Y114636D01*
X189587Y114626D01*
X189623Y114609D01*
X189740Y114587D01*
X189855Y114557D01*
X189877Y114556D01*
X191811Y112621D01*
X191811Y111374D01*
X191823Y111276D01*
X191826Y111177D01*
X191843Y111118D01*
X191851Y111058D01*
X191887Y110966D01*
X191915Y110871D01*
X191945Y110819D01*
X191968Y110763D01*
X192026Y110682D01*
X192076Y110597D01*
X192142Y110522D01*
X192154Y110505D01*
X192164Y110497D01*
X192182Y110476D01*
X197883Y104776D01*
X197883Y49141D01*
X197895Y49043D01*
X197898Y48944D01*
X197915Y48886D01*
X197923Y48826D01*
X197959Y48734D01*
X197987Y48638D01*
X198017Y48586D01*
X198040Y48530D01*
X198098Y48450D01*
X198148Y48365D01*
X198214Y48289D01*
X198226Y48273D01*
X198236Y48265D01*
X198254Y48244D01*
X199137Y47361D01*
X199137Y44639D01*
X197211Y42713D01*
X194489Y42713D01*
X192563Y44639D01*
X192563Y47361D01*
X193446Y48244D01*
X193506Y48322D01*
X193574Y48394D01*
X193603Y48447D01*
X193640Y48495D01*
X193680Y48586D01*
X193728Y48673D01*
X193743Y48731D01*
X193767Y48787D01*
X193782Y48885D01*
X193807Y48980D01*
X193813Y49081D01*
X193817Y49101D01*
X193815Y49113D01*
X193817Y49141D01*
X193817Y54025D01*
X193800Y54161D01*
X193795Y54243D01*
X193791Y54254D01*
X193787Y54301D01*
X193780Y54320D01*
X193777Y54340D01*
X193726Y54470D01*
X193679Y54601D01*
X193668Y54617D01*
X193660Y54636D01*
X193579Y54749D01*
X193501Y54864D01*
X193485Y54877D01*
X193474Y54893D01*
X193366Y54982D01*
X193262Y55074D01*
X193244Y55083D01*
X193229Y55096D01*
X193103Y55156D01*
X192979Y55219D01*
X192959Y55223D01*
X192941Y55232D01*
X192804Y55258D01*
X192669Y55288D01*
X192648Y55288D01*
X192629Y55292D01*
X192490Y55283D01*
X192351Y55279D01*
X192331Y55273D01*
X192311Y55272D01*
X192179Y55229D01*
X192045Y55190D01*
X192028Y55180D01*
X192009Y55174D01*
X191945Y55133D01*
X190230Y55133D01*
X190112Y55118D01*
X189993Y55111D01*
X189955Y55098D01*
X189914Y55093D01*
X189804Y55050D01*
X189691Y55013D01*
X189656Y54991D01*
X189619Y54976D01*
X189523Y54907D01*
X189422Y54843D01*
X189394Y54813D01*
X189361Y54790D01*
X189285Y54698D01*
X189204Y54611D01*
X189184Y54576D01*
X189159Y54545D01*
X189108Y54437D01*
X189050Y54333D01*
X189040Y54293D01*
X189023Y54257D01*
X189001Y54140D01*
X188971Y54025D01*
X188967Y53965D01*
X188963Y53945D01*
X188965Y53924D01*
X188961Y53864D01*
X188961Y50709D01*
X187167Y48914D01*
X187094Y48820D01*
X187015Y48731D01*
X186997Y48695D01*
X186972Y48663D01*
X186924Y48554D01*
X186870Y48448D01*
X186861Y48409D01*
X186845Y48371D01*
X186827Y48254D01*
X186801Y48138D01*
X186802Y48097D01*
X186796Y48057D01*
X186807Y47939D01*
X186810Y47820D01*
X186822Y47781D01*
X186825Y47741D01*
X186866Y47629D01*
X186899Y47514D01*
X186919Y47479D01*
X186933Y47441D01*
X187000Y47343D01*
X187060Y47240D01*
X187100Y47195D01*
X187112Y47178D01*
X187127Y47165D01*
X187167Y47119D01*
X187713Y46573D01*
X187713Y43851D01*
X185787Y41925D01*
X183787Y41925D01*
X183649Y41908D01*
X183511Y41895D01*
X183492Y41888D01*
X183472Y41885D01*
X183342Y41834D01*
X183211Y41787D01*
X183195Y41776D01*
X183176Y41768D01*
X183063Y41687D01*
X182948Y41609D01*
X182935Y41593D01*
X182919Y41582D01*
X182830Y41474D01*
X182738Y41370D01*
X182729Y41352D01*
X182716Y41337D01*
X182657Y41211D01*
X182593Y41087D01*
X182589Y41067D01*
X182580Y41049D01*
X182554Y40912D01*
X182524Y40777D01*
X182524Y40756D01*
X182520Y40737D01*
X182529Y40598D01*
X182533Y40459D01*
X182539Y40439D01*
X182540Y40419D01*
X182583Y40287D01*
X182622Y40153D01*
X182632Y40136D01*
X182638Y40117D01*
X182713Y39999D01*
X182783Y39879D01*
X182787Y39875D01*
X182787Y37334D01*
X182802Y37216D01*
X182809Y37097D01*
X182822Y37059D01*
X182827Y37018D01*
X182870Y36908D01*
X182907Y36795D01*
X182929Y36760D01*
X182944Y36723D01*
X183013Y36627D01*
X183077Y36526D01*
X183107Y36498D01*
X183130Y36465D01*
X183222Y36389D01*
X183309Y36308D01*
X183344Y36288D01*
X183375Y36263D01*
X183483Y36212D01*
X183587Y36154D01*
X183627Y36144D01*
X183663Y36127D01*
X183780Y36105D01*
X183895Y36075D01*
X183955Y36071D01*
X183975Y36067D01*
X183996Y36069D01*
X184056Y36065D01*
X200689Y36065D01*
X200787Y36077D01*
X200886Y36080D01*
X200945Y36097D01*
X201005Y36105D01*
X201097Y36141D01*
X201192Y36169D01*
X201244Y36199D01*
X201300Y36222D01*
X201380Y36280D01*
X201466Y36330D01*
X201541Y36396D01*
X201558Y36408D01*
X201565Y36418D01*
X201587Y36436D01*
X202997Y37847D01*
X205943Y37847D01*
X206147Y37643D01*
X206251Y37562D01*
X206353Y37476D01*
X206377Y37465D01*
X206398Y37448D01*
X206520Y37396D01*
X206639Y37338D01*
X206665Y37333D01*
X206690Y37322D01*
X206821Y37301D01*
X206951Y37275D01*
X206977Y37276D01*
X207004Y37272D01*
X207136Y37285D01*
X207268Y37291D01*
X207294Y37299D01*
X207320Y37302D01*
X207445Y37347D01*
X207572Y37386D01*
X207595Y37401D01*
X207620Y37410D01*
X207729Y37484D01*
X207842Y37554D01*
X207861Y37573D01*
X207883Y37588D01*
X207971Y37688D01*
X208063Y37783D01*
X208083Y37815D01*
X208093Y37827D01*
X208103Y37846D01*
X208150Y37918D01*
X209208Y39797D01*
X211503Y41248D01*
X211580Y41312D01*
X211663Y41368D01*
X211702Y41413D01*
X211748Y41450D01*
X211807Y41531D01*
X211873Y41607D01*
X211900Y41659D01*
X211935Y41707D01*
X211972Y41801D01*
X212018Y41890D01*
X212031Y41948D01*
X212053Y42003D01*
X212066Y42102D01*
X212088Y42200D01*
X212086Y42259D01*
X212093Y42318D01*
X212081Y42418D01*
X212078Y42518D01*
X212061Y42575D01*
X212054Y42634D01*
X212017Y42727D01*
X211990Y42824D01*
X211959Y42875D01*
X211938Y42930D01*
X211879Y43011D01*
X211828Y43097D01*
X211764Y43171D01*
X211751Y43188D01*
X211741Y43196D01*
X211722Y43218D01*
X210327Y44613D01*
X210327Y47335D01*
X212253Y49261D01*
X214975Y49261D01*
X216059Y48178D01*
X216168Y48093D01*
X216275Y48004D01*
X216294Y47995D01*
X216310Y47983D01*
X216437Y47927D01*
X216563Y47868D01*
X216583Y47864D01*
X216602Y47856D01*
X216740Y47834D01*
X216876Y47808D01*
X216896Y47810D01*
X216916Y47806D01*
X217055Y47820D01*
X217193Y47828D01*
X217212Y47834D01*
X217232Y47836D01*
X217364Y47883D01*
X217495Y47926D01*
X217513Y47937D01*
X217532Y47944D01*
X217647Y48022D01*
X217764Y48096D01*
X217778Y48111D01*
X217795Y48122D01*
X217887Y48227D01*
X217982Y48328D01*
X217992Y48346D01*
X218005Y48361D01*
X218069Y48485D01*
X218136Y48606D01*
X218141Y48626D01*
X218150Y48644D01*
X218180Y48780D01*
X218215Y48914D01*
X218217Y48942D01*
X218220Y48954D01*
X218219Y48975D01*
X218225Y49075D01*
X218225Y148797D01*
X218208Y148934D01*
X218195Y149073D01*
X218188Y149092D01*
X218185Y149112D01*
X218134Y149241D01*
X218087Y149373D01*
X218076Y149389D01*
X218068Y149408D01*
X217987Y149521D01*
X217909Y149636D01*
X217893Y149649D01*
X217882Y149665D01*
X217774Y149754D01*
X217670Y149846D01*
X217652Y149855D01*
X217637Y149868D01*
X217511Y149928D01*
X217387Y149991D01*
X217367Y149995D01*
X217349Y150004D01*
X217213Y150030D01*
X217077Y150060D01*
X217056Y150060D01*
X217037Y150064D01*
X216898Y150055D01*
X216759Y150051D01*
X216739Y150045D01*
X216719Y150044D01*
X216587Y150001D01*
X216453Y149962D01*
X216436Y149952D01*
X216417Y149946D01*
X216299Y149871D01*
X216179Y149801D01*
X216158Y149782D01*
X216148Y149776D01*
X216134Y149761D01*
X216059Y149694D01*
X214219Y147855D01*
X211497Y147855D01*
X209571Y149781D01*
X209571Y152503D01*
X211497Y154429D01*
X214219Y154429D01*
X216059Y152590D01*
X216168Y152504D01*
X216275Y152416D01*
X216294Y152407D01*
X216310Y152395D01*
X216438Y152339D01*
X216563Y152280D01*
X216583Y152276D01*
X216602Y152268D01*
X216740Y152246D01*
X216876Y152220D01*
X216896Y152222D01*
X216916Y152218D01*
X217055Y152232D01*
X217193Y152240D01*
X217212Y152246D01*
X217232Y152248D01*
X217364Y152295D01*
X217495Y152338D01*
X217513Y152349D01*
X217532Y152356D01*
X217647Y152434D01*
X217764Y152508D01*
X217778Y152523D01*
X217795Y152534D01*
X217887Y152639D01*
X217982Y152740D01*
X217992Y152758D01*
X218005Y152773D01*
X218069Y152897D01*
X218136Y153018D01*
X218141Y153038D01*
X218150Y153056D01*
X218180Y153192D01*
X218215Y153326D01*
X218217Y153354D01*
X218220Y153366D01*
X218219Y153387D01*
X218225Y153487D01*
X218225Y209932D01*
X218223Y209947D01*
X218225Y209963D01*
X218211Y210123D01*
X217937Y211920D01*
X217937Y211921D01*
X217936Y211923D01*
X217892Y212077D01*
X217850Y212226D01*
X217849Y212227D01*
X217849Y212229D01*
X217776Y212372D01*
X215942Y215491D01*
X215892Y215556D01*
X215850Y215627D01*
X215795Y215682D01*
X215747Y215743D01*
X215683Y215793D01*
X215624Y215851D01*
X215501Y215935D01*
X215496Y215938D01*
X215495Y215939D01*
X215491Y215942D01*
X212372Y217776D01*
X212371Y217777D01*
X212370Y217778D01*
X212223Y217841D01*
X212080Y217902D01*
X212079Y217902D01*
X212077Y217903D01*
X211920Y217937D01*
X210123Y218211D01*
X210108Y218211D01*
X210092Y218215D01*
X209932Y218225D01*
X171044Y218225D01*
X170926Y218210D01*
X170807Y218203D01*
X170769Y218190D01*
X170728Y218185D01*
X170618Y218142D01*
X170505Y218105D01*
X170470Y218083D01*
X170433Y218068D01*
X170337Y217999D01*
X170236Y217935D01*
X170208Y217905D01*
X170175Y217882D01*
X170099Y217790D01*
X170018Y217703D01*
X169998Y217668D01*
X169973Y217637D01*
X169922Y217529D01*
X169864Y217425D01*
X169854Y217385D01*
X169837Y217349D01*
X169815Y217232D01*
X169785Y217117D01*
X169781Y217057D01*
X169777Y217037D01*
X169779Y217016D01*
X169775Y216956D01*
X169775Y216166D01*
X169309Y215042D01*
X169296Y214994D01*
X169275Y214949D01*
X169254Y214841D01*
X169225Y214735D01*
X169224Y214685D01*
X169215Y214636D01*
X169222Y214527D01*
X169220Y214417D01*
X169232Y214369D01*
X169235Y214319D01*
X169269Y214215D01*
X169294Y214108D01*
X169317Y214064D01*
X169333Y214017D01*
X169392Y213924D01*
X169443Y213827D01*
X169476Y213790D01*
X169503Y213748D01*
X169583Y213673D01*
X169657Y213591D01*
X169698Y213564D01*
X169735Y213530D01*
X169831Y213477D01*
X169923Y213417D01*
X169970Y213400D01*
X170013Y213376D01*
X170119Y213349D01*
X170223Y213313D01*
X170273Y213309D01*
X170321Y213297D01*
X170482Y213287D01*
X172851Y213287D01*
X174777Y211361D01*
X174777Y208639D01*
X172851Y206713D01*
X170129Y206713D01*
X168198Y208644D01*
X168104Y208717D01*
X168014Y208796D01*
X167978Y208814D01*
X167946Y208839D01*
X167837Y208886D01*
X167731Y208940D01*
X167692Y208949D01*
X167655Y208965D01*
X167537Y208984D01*
X167421Y209010D01*
X167381Y209009D01*
X167340Y209015D01*
X167222Y209004D01*
X167103Y209000D01*
X167064Y208989D01*
X167024Y208985D01*
X166912Y208945D01*
X166797Y208912D01*
X166763Y208892D01*
X166725Y208878D01*
X166626Y208811D01*
X166524Y208751D01*
X166478Y208711D01*
X166461Y208699D01*
X166448Y208684D01*
X166403Y208644D01*
X161418Y203660D01*
X154278Y200702D01*
X154201Y200695D01*
X154182Y200688D01*
X154162Y200685D01*
X154032Y200634D01*
X153901Y200587D01*
X153885Y200576D01*
X153866Y200568D01*
X153753Y200487D01*
X153638Y200409D01*
X153625Y200393D01*
X153609Y200382D01*
X153520Y200274D01*
X153428Y200170D01*
X153419Y200152D01*
X153406Y200137D01*
X153347Y200011D01*
X153283Y199887D01*
X153279Y199867D01*
X153270Y199849D01*
X153244Y199713D01*
X153214Y199577D01*
X153214Y199556D01*
X153210Y199537D01*
X153219Y199398D01*
X153223Y199259D01*
X153229Y199239D01*
X153230Y199219D01*
X153273Y199087D01*
X153312Y198953D01*
X153322Y198936D01*
X153328Y198917D01*
X153403Y198799D01*
X153473Y198679D01*
X153492Y198658D01*
X153498Y198648D01*
X153513Y198634D01*
X153580Y198558D01*
X153777Y198361D01*
X153777Y195639D01*
X151851Y193713D01*
X149129Y193713D01*
X147203Y195639D01*
X147203Y198361D01*
X147400Y198558D01*
X147486Y198668D01*
X147574Y198775D01*
X147583Y198794D01*
X147595Y198810D01*
X147651Y198937D01*
X147710Y199063D01*
X147714Y199083D01*
X147722Y199102D01*
X147744Y199240D01*
X147770Y199376D01*
X147768Y199396D01*
X147772Y199416D01*
X147758Y199555D01*
X147750Y199693D01*
X147744Y199712D01*
X147742Y199732D01*
X147695Y199863D01*
X147652Y199995D01*
X147641Y200013D01*
X147634Y200032D01*
X147556Y200146D01*
X147482Y200264D01*
X147467Y200278D01*
X147456Y200295D01*
X147351Y200387D01*
X147250Y200482D01*
X147232Y200492D01*
X147217Y200505D01*
X147093Y200568D01*
X146972Y200636D01*
X146952Y200641D01*
X146934Y200650D01*
X146798Y200680D01*
X146735Y200697D01*
X139582Y203660D01*
X134587Y208654D01*
X134493Y208727D01*
X134404Y208806D01*
X134368Y208824D01*
X134336Y208849D01*
X134227Y208896D01*
X134121Y208950D01*
X134081Y208959D01*
X134044Y208975D01*
X133926Y208994D01*
X133810Y209020D01*
X133770Y209019D01*
X133730Y209025D01*
X133611Y209014D01*
X133493Y209010D01*
X133454Y208999D01*
X133413Y208995D01*
X133301Y208955D01*
X133187Y208922D01*
X133152Y208902D01*
X133114Y208888D01*
X133015Y208821D01*
X132913Y208761D01*
X132868Y208721D01*
X132851Y208709D01*
X132838Y208694D01*
X132792Y208654D01*
X130851Y206713D01*
X128129Y206713D01*
X126203Y208639D01*
X126203Y211361D01*
X128129Y213287D01*
X130518Y213287D01*
X130568Y213293D01*
X130617Y213291D01*
X130725Y213313D01*
X130834Y213327D01*
X130880Y213345D01*
X130929Y213355D01*
X131027Y213403D01*
X131130Y213444D01*
X131170Y213473D01*
X131214Y213495D01*
X131298Y213566D01*
X131387Y213630D01*
X131419Y213669D01*
X131456Y213701D01*
X131520Y213791D01*
X131590Y213875D01*
X131611Y213920D01*
X131640Y213961D01*
X131678Y214064D01*
X131725Y214163D01*
X131735Y214212D01*
X131752Y214258D01*
X131764Y214368D01*
X131785Y214475D01*
X131782Y214525D01*
X131787Y214574D01*
X131772Y214683D01*
X131765Y214793D01*
X131750Y214840D01*
X131743Y214889D01*
X131691Y215042D01*
X131225Y216166D01*
X131225Y216956D01*
X131210Y217074D01*
X131203Y217193D01*
X131190Y217231D01*
X131185Y217272D01*
X131142Y217382D01*
X131105Y217495D01*
X131083Y217530D01*
X131068Y217567D01*
X130999Y217663D01*
X130935Y217764D01*
X130905Y217792D01*
X130882Y217825D01*
X130790Y217901D01*
X130703Y217982D01*
X130668Y218002D01*
X130637Y218027D01*
X130529Y218078D01*
X130425Y218136D01*
X130385Y218146D01*
X130349Y218163D01*
X130232Y218185D01*
X130117Y218215D01*
X130057Y218219D01*
X130037Y218223D01*
X130016Y218221D01*
X129956Y218225D01*
X60316Y218225D01*
X60178Y218208D01*
X60040Y218195D01*
X60021Y218188D01*
X60001Y218185D01*
X59871Y218134D01*
X59741Y218087D01*
X59724Y218076D01*
X59705Y218068D01*
X59593Y217987D01*
X59478Y217909D01*
X59464Y217893D01*
X59448Y217882D01*
X59359Y217774D01*
X59267Y217670D01*
X59258Y217652D01*
X59245Y217637D01*
X59186Y217511D01*
X59122Y217387D01*
X59118Y217367D01*
X59109Y217349D01*
X59083Y217213D01*
X59053Y217077D01*
X59053Y217056D01*
X59050Y217037D01*
X59058Y216898D01*
X59063Y216759D01*
X59068Y216739D01*
X59069Y216719D01*
X59112Y216587D01*
X59151Y216453D01*
X59161Y216436D01*
X59167Y216417D01*
X59242Y216299D01*
X59312Y216179D01*
X59331Y216158D01*
X59338Y216148D01*
X59353Y216134D01*
X59419Y216058D01*
X60005Y215473D01*
X60457Y215020D01*
X61642Y213836D01*
X61642Y212956D01*
X61642Y211521D01*
X61642Y210987D01*
X61315Y210661D01*
X61242Y210567D01*
X61164Y210478D01*
X61145Y210442D01*
X61120Y210410D01*
X61073Y210300D01*
X61019Y210194D01*
X61010Y210155D01*
X60994Y210118D01*
X60975Y210000D01*
X60949Y209884D01*
X60950Y209844D01*
X60944Y209804D01*
X60955Y209685D01*
X60959Y209566D01*
X60970Y209527D01*
X60974Y209487D01*
X61014Y209375D01*
X61047Y209261D01*
X61068Y209226D01*
X61082Y209188D01*
X61148Y209089D01*
X61209Y208987D01*
X61249Y208942D01*
X61260Y208925D01*
X61275Y208911D01*
X61315Y208866D01*
X61642Y208540D01*
X61642Y206750D01*
X60377Y205485D01*
X54350Y205485D01*
X53085Y206750D01*
X53085Y208540D01*
X53941Y209396D01*
X54014Y209489D01*
X54093Y209579D01*
X54111Y209615D01*
X54136Y209647D01*
X54183Y209756D01*
X54238Y209862D01*
X54246Y209902D01*
X54263Y209939D01*
X54281Y210056D01*
X54307Y210172D01*
X54306Y210213D01*
X54312Y210253D01*
X54301Y210371D01*
X54298Y210490D01*
X54286Y210529D01*
X54283Y210569D01*
X54242Y210682D01*
X54209Y210796D01*
X54189Y210831D01*
X54175Y210869D01*
X54108Y210967D01*
X54048Y211070D01*
X54008Y211115D01*
X53996Y211132D01*
X53981Y211145D01*
X53941Y211191D01*
X53085Y212047D01*
X53085Y213836D01*
X55308Y216059D01*
X55393Y216168D01*
X55482Y216275D01*
X55491Y216294D01*
X55503Y216310D01*
X55558Y216438D01*
X55617Y216563D01*
X55621Y216583D01*
X55629Y216602D01*
X55651Y216740D01*
X55677Y216876D01*
X55676Y216896D01*
X55679Y216916D01*
X55666Y217055D01*
X55657Y217193D01*
X55651Y217212D01*
X55649Y217232D01*
X55602Y217364D01*
X55559Y217495D01*
X55549Y217513D01*
X55542Y217532D01*
X55464Y217647D01*
X55389Y217764D01*
X55375Y217778D01*
X55363Y217795D01*
X55259Y217887D01*
X55158Y217982D01*
X55140Y217992D01*
X55125Y218005D01*
X55001Y218069D01*
X54879Y218136D01*
X54860Y218141D01*
X54842Y218150D01*
X54706Y218180D01*
X54571Y218215D01*
X54543Y218217D01*
X54531Y218220D01*
X54511Y218219D01*
X54411Y218225D01*
X10068Y218225D01*
X10053Y218223D01*
X10037Y218225D01*
X9877Y218211D01*
X8080Y217937D01*
X8079Y217937D01*
X8077Y217936D01*
X7920Y217891D01*
X7774Y217850D01*
X7773Y217849D01*
X7771Y217849D01*
X7628Y217776D01*
X4509Y215942D01*
X4444Y215892D01*
X4373Y215850D01*
X4318Y215795D01*
X4257Y215747D01*
X4207Y215683D01*
X4149Y215624D01*
X4065Y215501D01*
X4062Y215496D01*
X4061Y215495D01*
X4058Y215491D01*
X2224Y212372D01*
X2223Y212371D01*
X2222Y212370D01*
X2159Y212223D01*
X2098Y212080D01*
X2098Y212079D01*
X2097Y212077D01*
X2063Y211920D01*
X1789Y210123D01*
X1789Y210107D01*
X1785Y210092D01*
X1775Y209932D01*
X1775Y182467D01*
X1792Y182329D01*
X1805Y182191D01*
X1812Y182172D01*
X1815Y182152D01*
X1866Y182022D01*
X1913Y181891D01*
X1924Y181875D01*
X1932Y181856D01*
X2013Y181744D01*
X2091Y181628D01*
X2107Y181615D01*
X2118Y181599D01*
X2225Y181510D01*
X2330Y181418D01*
X2348Y181409D01*
X2363Y181396D01*
X2489Y181337D01*
X2613Y181273D01*
X2633Y181269D01*
X2651Y181260D01*
X2787Y181234D01*
X2923Y181204D01*
X2944Y181204D01*
X2963Y181200D01*
X3102Y181209D01*
X3241Y181213D01*
X3261Y181219D01*
X3281Y181220D01*
X3413Y181263D01*
X3547Y181302D01*
X3564Y181312D01*
X3583Y181318D01*
X3701Y181392D01*
X3821Y181463D01*
X3842Y181482D01*
X3852Y181488D01*
X3866Y181503D01*
X3942Y181570D01*
X3979Y181607D01*
X6701Y181607D01*
X8627Y179681D01*
X8627Y176959D01*
X6701Y175033D01*
X3979Y175033D01*
X3942Y175070D01*
X3832Y175156D01*
X3725Y175244D01*
X3706Y175253D01*
X3690Y175265D01*
X3563Y175321D01*
X3437Y175380D01*
X3417Y175384D01*
X3398Y175392D01*
X3261Y175413D01*
X3124Y175440D01*
X3104Y175438D01*
X3084Y175442D01*
X2945Y175428D01*
X2807Y175420D01*
X2788Y175414D01*
X2768Y175412D01*
X2636Y175365D01*
X2505Y175322D01*
X2488Y175311D01*
X2468Y175304D01*
X2353Y175226D01*
X2236Y175152D01*
X2222Y175137D01*
X2205Y175126D01*
X2113Y175021D01*
X2018Y174920D01*
X2008Y174902D01*
X1995Y174887D01*
X1931Y174763D01*
X1864Y174642D01*
X1859Y174622D01*
X1850Y174604D01*
X1820Y174468D01*
X1785Y174334D01*
X1783Y174306D01*
X1780Y174294D01*
X1781Y174273D01*
X1775Y174173D01*
X1775Y133095D01*
X1792Y132957D01*
X1805Y132819D01*
X1812Y132800D01*
X1815Y132780D01*
X1866Y132650D01*
X1913Y132519D01*
X1924Y132503D01*
X1932Y132484D01*
X2013Y132372D01*
X2091Y132256D01*
X2107Y132243D01*
X2118Y132227D01*
X2226Y132138D01*
X2330Y132046D01*
X2348Y132037D01*
X2363Y132024D01*
X2489Y131964D01*
X2613Y131901D01*
X2633Y131897D01*
X2651Y131888D01*
X2788Y131862D01*
X2923Y131832D01*
X2944Y131832D01*
X2963Y131828D01*
X3102Y131837D01*
X3241Y131841D01*
X3261Y131847D01*
X3281Y131848D01*
X3413Y131891D01*
X3547Y131930D01*
X3564Y131940D01*
X3583Y131946D01*
X3701Y132021D01*
X3821Y132091D01*
X3842Y132110D01*
X3852Y132116D01*
X3866Y132131D01*
X3941Y132198D01*
X4503Y132759D01*
X7225Y132759D01*
X9151Y130833D01*
X9151Y128111D01*
X7225Y126185D01*
X4503Y126185D01*
X3941Y126746D01*
X3832Y126831D01*
X3725Y126920D01*
X3706Y126929D01*
X3690Y126941D01*
X3562Y126997D01*
X3437Y127056D01*
X3417Y127060D01*
X3398Y127068D01*
X3260Y127090D01*
X3124Y127116D01*
X3104Y127114D01*
X3084Y127118D01*
X2945Y127104D01*
X2807Y127096D01*
X2788Y127090D01*
X2768Y127088D01*
X2636Y127041D01*
X2505Y126998D01*
X2487Y126987D01*
X2468Y126980D01*
X2353Y126902D01*
X2236Y126828D01*
X2222Y126813D01*
X2205Y126802D01*
X2113Y126697D01*
X2018Y126596D01*
X2008Y126578D01*
X1995Y126563D01*
X1932Y126439D01*
X1864Y126318D01*
X1859Y126298D01*
X1850Y126280D01*
X1820Y126144D01*
X1785Y126010D01*
X1783Y125982D01*
X1780Y125970D01*
X1781Y125949D01*
X1775Y125849D01*
X1775Y46078D01*
X1777Y46061D01*
X1775Y46043D01*
X1790Y45883D01*
X1910Y45111D01*
X1946Y44984D01*
X1998Y44806D01*
X1998Y44805D01*
X2071Y44661D01*
X2866Y43314D01*
X2915Y43250D01*
X2956Y43181D01*
X3012Y43125D01*
X3060Y43062D01*
X3124Y43013D01*
X3181Y42956D01*
X3309Y42869D01*
X3311Y42867D01*
X3312Y42867D01*
X3314Y42866D01*
X4661Y42071D01*
X4662Y42071D01*
X4662Y42070D01*
X4803Y42010D01*
X4953Y41945D01*
X4954Y41945D01*
X5111Y41910D01*
X5784Y41805D01*
X5806Y41804D01*
X5879Y41794D01*
X6140Y41773D01*
X6158Y41774D01*
X6205Y41770D01*
X6994Y41748D01*
X7016Y41737D01*
X7081Y41725D01*
X7144Y41703D01*
X7303Y41680D01*
X7863Y41636D01*
X10775Y39780D01*
X12479Y36776D01*
X12486Y36544D01*
X12504Y36424D01*
X12516Y36303D01*
X12529Y36267D01*
X12534Y36229D01*
X12582Y36118D01*
X12623Y36004D01*
X12645Y35972D01*
X12660Y35937D01*
X12734Y35841D01*
X12802Y35741D01*
X12830Y35715D01*
X12854Y35685D01*
X12950Y35610D01*
X13040Y35530D01*
X13074Y35513D01*
X13104Y35489D01*
X13216Y35441D01*
X13324Y35386D01*
X13361Y35377D01*
X13396Y35362D01*
X13516Y35342D01*
X13634Y35316D01*
X13672Y35317D01*
X13710Y35311D01*
X13830Y35322D01*
X13952Y35326D01*
X13989Y35336D01*
X14027Y35340D01*
X14141Y35380D01*
X14257Y35414D01*
X14290Y35433D01*
X14326Y35446D01*
X14427Y35514D01*
X14531Y35576D01*
X14573Y35613D01*
X14590Y35624D01*
X14604Y35640D01*
X14652Y35682D01*
X15027Y36057D01*
X17973Y36057D01*
X20057Y33973D01*
X20057Y32686D01*
X20069Y32588D01*
X20072Y32489D01*
X20089Y32431D01*
X20097Y32370D01*
X20133Y32278D01*
X20161Y32183D01*
X20191Y32131D01*
X20214Y32075D01*
X20272Y31995D01*
X20322Y31909D01*
X20388Y31834D01*
X20400Y31817D01*
X20410Y31810D01*
X20428Y31788D01*
X20775Y31442D01*
X20775Y23544D01*
X20790Y23426D01*
X20797Y23307D01*
X20810Y23269D01*
X20815Y23228D01*
X20858Y23118D01*
X20895Y23005D01*
X20917Y22970D01*
X20932Y22933D01*
X21001Y22837D01*
X21065Y22736D01*
X21095Y22708D01*
X21118Y22675D01*
X21210Y22599D01*
X21297Y22518D01*
X21332Y22498D01*
X21363Y22473D01*
X21471Y22422D01*
X21575Y22364D01*
X21615Y22354D01*
X21651Y22337D01*
X21768Y22315D01*
X21883Y22285D01*
X21943Y22281D01*
X21963Y22277D01*
X21984Y22279D01*
X22044Y22275D01*
X118532Y22275D01*
X118630Y22287D01*
G37*
%LPC*%
G36*
X53546Y161559D02*
X53546Y161559D01*
X51319Y163786D01*
X51306Y163890D01*
X51293Y164029D01*
X51286Y164048D01*
X51283Y164068D01*
X51232Y164197D01*
X51185Y164329D01*
X51174Y164345D01*
X51166Y164364D01*
X51085Y164477D01*
X51007Y164592D01*
X50991Y164605D01*
X50980Y164621D01*
X50872Y164710D01*
X50768Y164802D01*
X50750Y164811D01*
X50735Y164824D01*
X50609Y164884D01*
X50485Y164947D01*
X50465Y164951D01*
X50447Y164960D01*
X50311Y164986D01*
X50175Y165016D01*
X50154Y165016D01*
X50135Y165020D01*
X49996Y165011D01*
X49857Y165007D01*
X49837Y165001D01*
X49817Y165000D01*
X49685Y164957D01*
X49551Y164918D01*
X49534Y164908D01*
X49515Y164902D01*
X49397Y164827D01*
X49277Y164757D01*
X49256Y164738D01*
X49246Y164732D01*
X49232Y164717D01*
X49157Y164650D01*
X47335Y162829D01*
X44613Y162829D01*
X42687Y164755D01*
X42687Y167477D01*
X44613Y169403D01*
X47335Y169403D01*
X49415Y167323D01*
X49418Y167316D01*
X49499Y167204D01*
X49577Y167089D01*
X49593Y167075D01*
X49604Y167059D01*
X49712Y166970D01*
X49816Y166878D01*
X49834Y166869D01*
X49849Y166856D01*
X49975Y166797D01*
X50099Y166734D01*
X50119Y166729D01*
X50137Y166721D01*
X50273Y166695D01*
X50409Y166664D01*
X50430Y166665D01*
X50449Y166661D01*
X50588Y166669D01*
X50727Y166674D01*
X50747Y166679D01*
X50767Y166681D01*
X50899Y166723D01*
X51033Y166762D01*
X51050Y166772D01*
X51069Y166779D01*
X51187Y166853D01*
X51307Y166924D01*
X51328Y166942D01*
X51338Y166949D01*
X51352Y166964D01*
X51427Y167030D01*
X53546Y169149D01*
X55134Y169149D01*
X55252Y169164D01*
X55371Y169171D01*
X55409Y169184D01*
X55450Y169189D01*
X55560Y169232D01*
X55673Y169269D01*
X55708Y169291D01*
X55745Y169306D01*
X55841Y169375D01*
X55942Y169439D01*
X55970Y169469D01*
X56003Y169492D01*
X56079Y169584D01*
X56160Y169671D01*
X56180Y169706D01*
X56205Y169737D01*
X56256Y169845D01*
X56314Y169949D01*
X56324Y169989D01*
X56341Y170025D01*
X56363Y170142D01*
X56393Y170257D01*
X56397Y170317D01*
X56401Y170337D01*
X56399Y170358D01*
X56403Y170418D01*
X56403Y172303D01*
X58329Y174229D01*
X61051Y174229D01*
X62977Y172303D01*
X62977Y169581D01*
X61051Y167655D01*
X60182Y167655D01*
X60064Y167640D01*
X59945Y167633D01*
X59907Y167620D01*
X59866Y167615D01*
X59756Y167572D01*
X59643Y167535D01*
X59608Y167513D01*
X59571Y167498D01*
X59475Y167429D01*
X59374Y167365D01*
X59346Y167335D01*
X59313Y167312D01*
X59237Y167220D01*
X59156Y167133D01*
X59136Y167098D01*
X59111Y167067D01*
X59060Y166959D01*
X59002Y166855D01*
X58992Y166815D01*
X58975Y166779D01*
X58953Y166662D01*
X58923Y166547D01*
X58919Y166487D01*
X58915Y166467D01*
X58917Y166446D01*
X58913Y166386D01*
X58913Y163782D01*
X56690Y161559D01*
X53546Y161559D01*
G37*
%LPD*%
%LPC*%
G36*
X41664Y96061D02*
X41664Y96061D01*
X39441Y98284D01*
X39441Y101428D01*
X39534Y101521D01*
X39607Y101615D01*
X39686Y101704D01*
X39704Y101740D01*
X39729Y101772D01*
X39776Y101881D01*
X39831Y101987D01*
X39839Y102027D01*
X39855Y102064D01*
X39874Y102182D01*
X39900Y102298D01*
X39899Y102338D01*
X39905Y102378D01*
X39894Y102496D01*
X39891Y102615D01*
X39879Y102654D01*
X39875Y102695D01*
X39835Y102806D01*
X39802Y102921D01*
X39782Y102956D01*
X39768Y102994D01*
X39701Y103092D01*
X39641Y103195D01*
X39601Y103240D01*
X39589Y103257D01*
X39574Y103270D01*
X39534Y103316D01*
X38673Y104177D01*
X38673Y106899D01*
X40599Y108825D01*
X40683Y108825D01*
X40821Y108842D01*
X40959Y108855D01*
X40978Y108862D01*
X40998Y108865D01*
X41128Y108916D01*
X41259Y108963D01*
X41275Y108974D01*
X41294Y108982D01*
X41407Y109063D01*
X41522Y109141D01*
X41535Y109157D01*
X41551Y109168D01*
X41640Y109276D01*
X41732Y109380D01*
X41741Y109398D01*
X41754Y109413D01*
X41814Y109539D01*
X41877Y109663D01*
X41881Y109683D01*
X41890Y109701D01*
X41916Y109838D01*
X41946Y109973D01*
X41946Y109994D01*
X41950Y110013D01*
X41941Y110152D01*
X41937Y110291D01*
X41931Y110311D01*
X41930Y110331D01*
X41887Y110463D01*
X41848Y110597D01*
X41838Y110614D01*
X41832Y110633D01*
X41757Y110751D01*
X41687Y110871D01*
X41668Y110892D01*
X41662Y110902D01*
X41647Y110916D01*
X41580Y110991D01*
X40333Y112239D01*
X40333Y114961D01*
X42259Y116887D01*
X44981Y116887D01*
X46907Y114961D01*
X46907Y112239D01*
X44981Y110313D01*
X44897Y110313D01*
X44759Y110296D01*
X44621Y110283D01*
X44602Y110276D01*
X44582Y110273D01*
X44452Y110222D01*
X44321Y110175D01*
X44305Y110164D01*
X44286Y110156D01*
X44173Y110075D01*
X44058Y109997D01*
X44045Y109981D01*
X44029Y109970D01*
X43940Y109862D01*
X43848Y109758D01*
X43839Y109740D01*
X43826Y109725D01*
X43766Y109599D01*
X43703Y109475D01*
X43699Y109455D01*
X43690Y109437D01*
X43664Y109300D01*
X43634Y109165D01*
X43634Y109144D01*
X43630Y109125D01*
X43639Y108986D01*
X43643Y108847D01*
X43649Y108827D01*
X43650Y108807D01*
X43693Y108675D01*
X43732Y108541D01*
X43742Y108524D01*
X43748Y108505D01*
X43823Y108387D01*
X43893Y108267D01*
X43912Y108246D01*
X43918Y108236D01*
X43933Y108222D01*
X44000Y108147D01*
X45247Y106899D01*
X45247Y103738D01*
X45259Y103639D01*
X45262Y103540D01*
X45279Y103482D01*
X45287Y103422D01*
X45323Y103330D01*
X45351Y103235D01*
X45381Y103183D01*
X45404Y103126D01*
X45462Y103046D01*
X45512Y102961D01*
X45578Y102886D01*
X45590Y102869D01*
X45600Y102861D01*
X45618Y102840D01*
X47031Y101428D01*
X47031Y98284D01*
X44808Y96061D01*
X41664Y96061D01*
G37*
%LPD*%
%LPC*%
G36*
X84745Y76469D02*
X84745Y76469D01*
X82830Y78384D01*
X82752Y78444D01*
X82680Y78512D01*
X82627Y78541D01*
X82579Y78578D01*
X82488Y78618D01*
X82401Y78666D01*
X82343Y78681D01*
X82287Y78705D01*
X82189Y78720D01*
X82094Y78745D01*
X81994Y78751D01*
X81973Y78755D01*
X81961Y78753D01*
X81933Y78755D01*
X80173Y78755D01*
X78247Y80681D01*
X78247Y83403D01*
X80173Y85329D01*
X82895Y85329D01*
X84810Y83414D01*
X84888Y83354D01*
X84960Y83286D01*
X85013Y83257D01*
X85061Y83220D01*
X85152Y83180D01*
X85239Y83132D01*
X85297Y83117D01*
X85353Y83093D01*
X85451Y83078D01*
X85546Y83053D01*
X85647Y83047D01*
X85667Y83043D01*
X85679Y83045D01*
X85707Y83043D01*
X87566Y83043D01*
X87601Y83027D01*
X87707Y82973D01*
X87746Y82964D01*
X87783Y82948D01*
X87901Y82930D01*
X88017Y82904D01*
X88058Y82905D01*
X88098Y82899D01*
X88216Y82910D01*
X88335Y82913D01*
X88374Y82925D01*
X88414Y82928D01*
X88526Y82969D01*
X88641Y83002D01*
X88675Y83022D01*
X88713Y83036D01*
X88812Y83103D01*
X88915Y83163D01*
X88960Y83203D01*
X88977Y83214D01*
X88990Y83230D01*
X89035Y83270D01*
X90841Y85075D01*
X93563Y85075D01*
X95489Y83149D01*
X95489Y80427D01*
X93563Y78501D01*
X90742Y78501D01*
X90707Y78517D01*
X90601Y78571D01*
X90562Y78580D01*
X90524Y78596D01*
X90407Y78614D01*
X90291Y78640D01*
X90250Y78639D01*
X90210Y78645D01*
X90092Y78634D01*
X89973Y78631D01*
X89934Y78619D01*
X89894Y78616D01*
X89782Y78575D01*
X89667Y78542D01*
X89632Y78522D01*
X89594Y78508D01*
X89496Y78441D01*
X89393Y78381D01*
X89348Y78341D01*
X89331Y78329D01*
X89318Y78314D01*
X89272Y78274D01*
X87467Y76469D01*
X84745Y76469D01*
G37*
%LPD*%
%LPC*%
G36*
X106169Y181733D02*
X106169Y181733D01*
X104422Y183479D01*
X104328Y183552D01*
X104239Y183631D01*
X104203Y183649D01*
X104171Y183674D01*
X104062Y183722D01*
X103956Y183776D01*
X103917Y183785D01*
X103879Y183801D01*
X103762Y183819D01*
X103646Y183845D01*
X103605Y183844D01*
X103565Y183850D01*
X103447Y183839D01*
X103328Y183836D01*
X103289Y183824D01*
X103249Y183821D01*
X103137Y183780D01*
X103022Y183747D01*
X102987Y183727D01*
X102949Y183713D01*
X102851Y183646D01*
X102748Y183586D01*
X102703Y183546D01*
X102686Y183534D01*
X102673Y183519D01*
X102627Y183479D01*
X101361Y182213D01*
X98639Y182213D01*
X96713Y184139D01*
X96713Y186861D01*
X98639Y188787D01*
X101361Y188787D01*
X103107Y187041D01*
X103202Y186968D01*
X103291Y186889D01*
X103327Y186871D01*
X103359Y186846D01*
X103468Y186798D01*
X103574Y186744D01*
X103613Y186735D01*
X103651Y186719D01*
X103768Y186701D01*
X103884Y186675D01*
X103925Y186676D01*
X103965Y186670D01*
X104083Y186681D01*
X104202Y186684D01*
X104241Y186696D01*
X104281Y186699D01*
X104394Y186740D01*
X104508Y186773D01*
X104542Y186793D01*
X104581Y186807D01*
X104679Y186874D01*
X104782Y186934D01*
X104827Y186974D01*
X104844Y186986D01*
X104857Y187001D01*
X104902Y187041D01*
X106169Y188307D01*
X108891Y188307D01*
X110817Y186381D01*
X110817Y183659D01*
X108891Y181733D01*
X106169Y181733D01*
G37*
%LPD*%
%LPC*%
G36*
X87037Y203735D02*
X87037Y203735D01*
X85111Y205661D01*
X85111Y208383D01*
X87037Y210309D01*
X89759Y210309D01*
X91685Y208383D01*
X91685Y205661D01*
X89759Y203735D01*
X87037Y203735D01*
G37*
%LPD*%
%LPC*%
G36*
X29119Y194833D02*
X29119Y194833D01*
X27193Y196759D01*
X27193Y199481D01*
X29119Y201407D01*
X31841Y201407D01*
X33767Y199481D01*
X33767Y196759D01*
X31841Y194833D01*
X29119Y194833D01*
G37*
%LPD*%
%LPC*%
G36*
X48931Y181879D02*
X48931Y181879D01*
X47005Y183805D01*
X47005Y186527D01*
X48931Y188453D01*
X51653Y188453D01*
X53579Y186527D01*
X53579Y183805D01*
X51653Y181879D01*
X48931Y181879D01*
G37*
%LPD*%
%LPC*%
G36*
X117643Y181425D02*
X117643Y181425D01*
X115717Y183351D01*
X115717Y186073D01*
X117643Y187999D01*
X120365Y187999D01*
X122291Y186073D01*
X122291Y183351D01*
X120365Y181425D01*
X117643Y181425D01*
G37*
%LPD*%
%LPC*%
G36*
X153099Y165423D02*
X153099Y165423D01*
X151173Y167349D01*
X151173Y170071D01*
X153099Y171997D01*
X155821Y171997D01*
X157747Y170071D01*
X157747Y167349D01*
X155821Y165423D01*
X153099Y165423D01*
G37*
%LPD*%
%LPC*%
G36*
X96639Y164713D02*
X96639Y164713D01*
X94713Y166639D01*
X94713Y169361D01*
X96639Y171287D01*
X99361Y171287D01*
X101287Y169361D01*
X101287Y166639D01*
X99361Y164713D01*
X96639Y164713D01*
G37*
%LPD*%
%LPC*%
G36*
X175423Y147559D02*
X175423Y147559D01*
X173497Y149485D01*
X173497Y152207D01*
X175423Y154133D01*
X178145Y154133D01*
X180071Y152207D01*
X180071Y149485D01*
X178145Y147559D01*
X175423Y147559D01*
G37*
%LPD*%
%LPC*%
G36*
X42079Y122513D02*
X42079Y122513D01*
X40153Y124439D01*
X40153Y127161D01*
X42079Y129087D01*
X44801Y129087D01*
X46727Y127161D01*
X46727Y124439D01*
X44801Y122513D01*
X42079Y122513D01*
G37*
%LPD*%
%LPC*%
G36*
X166629Y72635D02*
X166629Y72635D01*
X164703Y74561D01*
X164703Y77283D01*
X166629Y79209D01*
X169351Y79209D01*
X171277Y77283D01*
X171277Y74561D01*
X169351Y72635D01*
X166629Y72635D01*
G37*
%LPD*%
%LPC*%
G36*
X174661Y57419D02*
X174661Y57419D01*
X172735Y59345D01*
X172735Y62067D01*
X174661Y63993D01*
X177383Y63993D01*
X179309Y62067D01*
X179309Y59345D01*
X177383Y57419D01*
X174661Y57419D01*
G37*
%LPD*%
%LPC*%
G36*
X45653Y39409D02*
X45653Y39409D01*
X43727Y41335D01*
X43727Y44057D01*
X45653Y45983D01*
X48375Y45983D01*
X50301Y44057D01*
X50301Y41335D01*
X48375Y39409D01*
X45653Y39409D01*
G37*
%LPD*%
D10*
X59482Y207645D02*
X55245Y207645D01*
X59482Y211882D01*
X59482Y212941D01*
X58423Y214000D01*
X56304Y214000D01*
X55245Y212941D01*
D11*
X129490Y210000D03*
X171490Y210000D03*
X150490Y197000D03*
D12*
X82296Y49530D03*
X9350Y96098D03*
X192548Y144740D03*
X187960Y98044D03*
X78740Y153924D03*
X119634Y158282D03*
D11*
X118070Y192930D03*
D12*
X27000Y32500D03*
D11*
X115570Y28210D03*
X143438Y106976D03*
X107950Y153416D03*
X113784Y48330D03*
X62880Y125908D03*
X21554Y96694D03*
X5864Y129472D03*
X5340Y178320D03*
X185928Y29210D03*
X94742Y28718D03*
X43440Y125800D03*
X167990Y75922D03*
X176784Y150846D03*
X88398Y207022D03*
X212858Y151142D03*
X119004Y184712D03*
X14732Y23416D03*
X213614Y45974D03*
X188500Y70500D03*
X205428Y27710D03*
X185690Y107696D03*
D13*
X166624Y107696D01*
X164846Y105918D01*
X164846Y92964D01*
X156210Y84328D01*
D11*
X104140Y36576D03*
X121412Y84328D03*
D13*
X156210Y84328D01*
D11*
X86106Y79756D03*
X146812Y28194D03*
X107950Y166878D03*
X154460Y168710D03*
X12962Y144668D03*
X176000Y136000D03*
D13*
X158048Y143952D02*
X13678Y143952D01*
X12962Y144668D01*
X166000Y136000D02*
X176000Y136000D01*
X166000Y136000D02*
X158048Y143952D01*
D11*
X190778Y103124D03*
X185674Y52070D03*
X19662Y73954D03*
D13*
X28258Y82550D02*
X70866Y82550D01*
X78486Y90170D01*
X155194Y90170D02*
X160274Y95250D01*
D11*
X185460Y116840D03*
D13*
X165100Y116840D01*
X160274Y112014D01*
D14*
X155194Y90170D02*
X78486Y90170D01*
D13*
X28258Y82550D02*
X19662Y73954D01*
X160274Y95250D02*
X160274Y112014D01*
D11*
X98490Y36606D03*
X107442Y160274D03*
X179500Y38500D03*
X175760Y28980D03*
X184426Y45212D03*
X149800Y147420D03*
D13*
X71220Y147420D01*
X71120Y147320D01*
D11*
X71120Y147320D03*
X114808Y36322D03*
X107400Y130800D03*
X68580Y93472D03*
X47014Y42696D03*
X153369Y44149D03*
X157264Y33314D03*
X30480Y198120D03*
X107530Y185020D03*
X152908Y30480D03*
X123190Y70866D03*
X19408Y60992D03*
D13*
X24170Y65754D02*
X118078Y65754D01*
X24170Y65754D02*
X19408Y60992D01*
X118078Y65754D02*
X123190Y70866D01*
D11*
X166750Y38250D03*
D13*
X134134Y70866D01*
X123190Y70866D01*
D11*
X57420Y32814D03*
X61278Y75134D03*
X110310Y73416D03*
X116586Y70866D03*
X81534Y82042D03*
X92202Y81788D03*
X92964Y69342D03*
X98000Y168000D03*
X85582Y36766D03*
X190500Y58420D03*
X182118Y125254D03*
X177430Y130626D03*
X176022Y60706D03*
X118116Y52324D03*
X100000Y185500D03*
X91694Y36746D03*
X41960Y105538D03*
X50292Y185166D03*
X43620Y113600D03*
X45974Y166116D03*
X43236Y99856D03*
X55118Y165354D03*
X57150Y55626D03*
X59690Y170942D03*
X56568Y45662D03*
D13*
X135480Y44876D02*
X135742Y44614D01*
X135480Y44876D02*
X57354Y44876D01*
X56568Y45662D01*
D11*
X135742Y44614D03*
X61568Y40310D03*
D13*
X63668Y42410D01*
D11*
X139978Y42124D03*
D13*
X132088Y42410D02*
X63668Y42410D01*
X138978Y41124D02*
X139978Y42124D01*
X138978Y41124D02*
X133374Y41124D01*
X132088Y42410D01*
D11*
X68834Y101092D03*
X167354Y47463D03*
X149000Y119016D03*
D13*
X86758Y119016D01*
X68834Y101092D01*
D11*
X68580Y121158D03*
X61976Y49554D03*
X28500Y91000D03*
D13*
X52000Y91000D01*
X59000Y98000D01*
D11*
X62000Y136500D03*
D13*
X59000Y133500D01*
X59000Y98000D01*
D11*
X28000Y86000D03*
D13*
X55000Y86000D01*
X64500Y95500D02*
X64500Y111000D01*
D11*
X64500Y111000D03*
D13*
X64500Y95500D02*
X55000Y86000D01*
D11*
X188524Y111260D03*
X195850Y46000D03*
D13*
X195850Y103934D01*
X188524Y111260D01*
D12*
X204470Y34290D03*
X16500Y32500D03*
D15*
X18500Y21500D02*
X20000Y20000D01*
X18500Y30500D02*
X16500Y32500D01*
X18500Y30500D02*
X18500Y21500D01*
X120000Y20000D02*
X122960Y22960D01*
X122960Y29460D01*
X132000Y38500D01*
X120000Y20000D02*
X20000Y20000D01*
X132000Y38500D02*
X159921Y38500D01*
X203970Y33790D02*
X204470Y34290D01*
X203970Y33790D02*
X164631Y33790D01*
X159921Y38500D01*
M02*
