G04 EAGLE Gerber RS-274X export*
G75*
%MOMM*%
%FSLAX34Y34*%
%LPD*%
%INSilkscreen Bottom*%
%IPPOS*%
%AMOC8*
5,1,8,0,0,1.08239X$1,22.5*%
G01*
%ADD10C,0.300000*%
%ADD11C,0.152400*%
%ADD12R,0.200000X0.050000*%
%ADD13R,0.250000X0.050000*%
%ADD14R,0.050000X0.050000*%
%ADD15R,0.100000X0.050000*%
%ADD16R,0.300000X0.050000*%
%ADD17R,0.350000X0.050000*%
%ADD18R,0.400000X0.050000*%
%ADD19R,0.450000X0.050000*%
%ADD20R,0.500000X0.050000*%
%ADD21R,0.550000X0.050000*%
%ADD22R,0.600000X0.050000*%
%ADD23R,0.700000X0.050000*%
%ADD24R,0.800000X0.050000*%
%ADD25R,0.650000X0.050000*%
%ADD26R,0.750000X0.050000*%
%ADD27R,0.850000X0.050000*%
%ADD28R,1.400000X0.050000*%
%ADD29R,0.900000X0.050000*%
%ADD30R,0.950000X0.050000*%
%ADD31R,0.300000X0.060000*%
%ADD32R,0.500000X0.060000*%
%ADD33R,0.350000X0.060000*%
%ADD34R,0.100000X0.060000*%
%ADD35R,0.400000X0.060000*%
%ADD36R,0.450000X0.060000*%
%ADD37R,0.250000X0.060000*%
%ADD38R,0.950000X0.060000*%
%ADD39R,0.550000X0.060000*%
%ADD40R,0.600000X0.060000*%
%ADD41R,0.750000X0.060000*%
%ADD42R,1.000000X0.050000*%
%ADD43R,1.050000X0.050000*%
%ADD44R,1.450000X0.050000*%
%ADD45R,0.700000X0.060000*%
%ADD46R,0.800000X0.060000*%
%ADD47R,1.100000X0.050000*%
%ADD48R,0.150000X0.050000*%
%ADD49R,1.200000X0.060000*%
%ADD50R,1.050000X0.060000*%
%ADD51R,1.200000X0.050000*%
%ADD52R,0.650000X0.060000*%
%ADD53C,0.203200*%

G36*
X205728Y192088D02*
X205728Y192088D01*
X205794Y192093D01*
X205812Y192104D01*
X205833Y192109D01*
X205918Y192169D01*
X205942Y192183D01*
X205945Y192188D01*
X205950Y192192D01*
X208150Y194492D01*
X208158Y194505D01*
X208171Y194515D01*
X208202Y194579D01*
X208238Y194641D01*
X208239Y194657D01*
X208246Y194671D01*
X208245Y194742D01*
X208251Y194813D01*
X208245Y194828D01*
X208244Y194844D01*
X208187Y194969D01*
X208185Y194973D01*
X208185Y194974D01*
X206317Y197589D01*
X206319Y197600D01*
X206328Y197613D01*
X206339Y197671D01*
X206348Y197692D01*
X206348Y197714D01*
X206354Y197747D01*
X206355Y197752D01*
X206355Y197753D01*
X206355Y197754D01*
X206355Y197764D01*
X206388Y197829D01*
X206444Y197886D01*
X206455Y197904D01*
X206467Y197913D01*
X206475Y197932D01*
X206515Y197984D01*
X206588Y198129D01*
X206644Y198186D01*
X206684Y198250D01*
X206728Y198313D01*
X206730Y198325D01*
X206735Y198333D01*
X206739Y198368D01*
X206755Y198454D01*
X206755Y198503D01*
X206784Y198550D01*
X206828Y198613D01*
X206830Y198625D01*
X206835Y198633D01*
X206839Y198668D01*
X206855Y198754D01*
X206855Y198864D01*
X206888Y198929D01*
X206944Y198986D01*
X206984Y199050D01*
X207028Y199113D01*
X207030Y199125D01*
X207035Y199133D01*
X207039Y199168D01*
X207045Y199201D01*
X207048Y199209D01*
X207048Y199217D01*
X207055Y199254D01*
X207055Y199303D01*
X207084Y199350D01*
X207128Y199413D01*
X207130Y199425D01*
X207135Y199433D01*
X207139Y199468D01*
X207155Y199554D01*
X207155Y199664D01*
X207184Y199722D01*
X210440Y200280D01*
X210458Y200287D01*
X210477Y200288D01*
X210537Y200321D01*
X210599Y200347D01*
X210612Y200362D01*
X210629Y200371D01*
X210668Y200427D01*
X210712Y200478D01*
X210717Y200497D01*
X210728Y200513D01*
X210750Y200624D01*
X210755Y200646D01*
X210754Y200650D01*
X210755Y200654D01*
X210755Y203854D01*
X210751Y203873D01*
X210753Y203892D01*
X210742Y203926D01*
X210741Y203933D01*
X210736Y203943D01*
X210731Y203956D01*
X210716Y204022D01*
X210703Y204037D01*
X210697Y204055D01*
X210649Y204103D01*
X210606Y204156D01*
X210588Y204163D01*
X210574Y204177D01*
X210468Y204217D01*
X210448Y204226D01*
X210444Y204226D01*
X210440Y204228D01*
X207228Y204778D01*
X207217Y204817D01*
X207216Y204822D01*
X207215Y204823D01*
X207155Y204943D01*
X207155Y204954D01*
X207152Y204969D01*
X207154Y204985D01*
X207134Y205055D01*
X207134Y205070D01*
X207126Y205084D01*
X207117Y205117D01*
X207116Y205122D01*
X207115Y205123D01*
X207055Y205243D01*
X207055Y205254D01*
X207052Y205269D01*
X207054Y205285D01*
X207017Y205417D01*
X207016Y205422D01*
X207015Y205423D01*
X206855Y205743D01*
X206855Y205754D01*
X206852Y205769D01*
X206854Y205785D01*
X206817Y205917D01*
X206816Y205922D01*
X206815Y205923D01*
X206715Y206123D01*
X206692Y206151D01*
X206655Y206205D01*
X206655Y206254D01*
X206638Y206328D01*
X206624Y206403D01*
X206618Y206413D01*
X206616Y206422D01*
X206593Y206450D01*
X206544Y206522D01*
X206488Y206578D01*
X206415Y206723D01*
X206392Y206751D01*
X206355Y206805D01*
X206355Y206854D01*
X206338Y206928D01*
X206334Y206950D01*
X208188Y209638D01*
X208194Y209654D01*
X208206Y209667D01*
X208226Y209734D01*
X208251Y209799D01*
X208250Y209817D01*
X208255Y209833D01*
X208242Y209902D01*
X208236Y209972D01*
X208227Y209986D01*
X208224Y210003D01*
X208153Y210109D01*
X208146Y210120D01*
X208145Y210120D01*
X208144Y210122D01*
X205944Y212322D01*
X205930Y212331D01*
X205919Y212345D01*
X205857Y212376D01*
X205797Y212413D01*
X205780Y212415D01*
X205765Y212422D01*
X205695Y212423D01*
X205625Y212429D01*
X205609Y212423D01*
X205592Y212423D01*
X205474Y212372D01*
X205463Y212368D01*
X205462Y212367D01*
X205461Y212366D01*
X202762Y210504D01*
X202744Y210522D01*
X202679Y210562D01*
X202617Y210606D01*
X202605Y210608D01*
X202597Y210613D01*
X202562Y210616D01*
X202476Y210633D01*
X202426Y210633D01*
X202414Y210641D01*
X202346Y210693D01*
X202201Y210765D01*
X202144Y210822D01*
X202079Y210862D01*
X202017Y210906D01*
X202005Y210908D01*
X201997Y210913D01*
X201962Y210916D01*
X201876Y210933D01*
X201826Y210933D01*
X201814Y210941D01*
X201746Y210993D01*
X201546Y211093D01*
X201530Y211097D01*
X201517Y211106D01*
X201383Y211132D01*
X201377Y211133D01*
X201376Y211133D01*
X201366Y211133D01*
X201246Y211193D01*
X201230Y211197D01*
X201217Y211206D01*
X201083Y211232D01*
X201077Y211233D01*
X201076Y211233D01*
X201026Y211233D01*
X200979Y211262D01*
X200917Y211306D01*
X200905Y211308D01*
X200897Y211313D01*
X200862Y211316D01*
X200776Y211333D01*
X200666Y211333D01*
X200608Y211362D01*
X200050Y214618D01*
X200042Y214636D01*
X200041Y214655D01*
X200009Y214714D01*
X199982Y214777D01*
X199968Y214790D01*
X199958Y214807D01*
X199903Y214846D01*
X199851Y214890D01*
X199832Y214895D01*
X199817Y214906D01*
X199706Y214927D01*
X199684Y214933D01*
X199680Y214932D01*
X199676Y214933D01*
X196476Y214933D01*
X196457Y214929D01*
X196438Y214931D01*
X196374Y214909D01*
X196308Y214893D01*
X196293Y214881D01*
X196274Y214875D01*
X196227Y214827D01*
X196174Y214783D01*
X196166Y214766D01*
X196153Y214752D01*
X196113Y214646D01*
X196104Y214625D01*
X196104Y214622D01*
X196102Y214618D01*
X195552Y211406D01*
X195513Y211395D01*
X195508Y211393D01*
X195507Y211393D01*
X195506Y211393D01*
X195386Y211333D01*
X195376Y211333D01*
X195360Y211329D01*
X195344Y211332D01*
X195213Y211295D01*
X195208Y211293D01*
X195207Y211293D01*
X195206Y211293D01*
X195086Y211233D01*
X195076Y211233D01*
X195060Y211229D01*
X195044Y211232D01*
X194913Y211195D01*
X194908Y211193D01*
X194907Y211193D01*
X194906Y211193D01*
X194786Y211133D01*
X194676Y211133D01*
X194602Y211116D01*
X194526Y211102D01*
X194517Y211096D01*
X194508Y211093D01*
X194480Y211071D01*
X194408Y211022D01*
X194351Y210965D01*
X194286Y210933D01*
X194276Y210933D01*
X194260Y210929D01*
X194244Y210932D01*
X194113Y210895D01*
X194108Y210893D01*
X194107Y210893D01*
X194106Y210893D01*
X193906Y210793D01*
X193879Y210770D01*
X193808Y210722D01*
X193751Y210665D01*
X193686Y210633D01*
X193676Y210633D01*
X193660Y210629D01*
X193644Y210632D01*
X193513Y210595D01*
X193508Y210593D01*
X193507Y210593D01*
X193506Y210593D01*
X193365Y210522D01*
X190691Y212366D01*
X190679Y212371D01*
X190670Y212380D01*
X190599Y212402D01*
X190530Y212429D01*
X190517Y212428D01*
X190505Y212432D01*
X190432Y212420D01*
X190358Y212414D01*
X190347Y212407D01*
X190334Y212405D01*
X190214Y212328D01*
X187914Y210128D01*
X187900Y210106D01*
X187880Y210090D01*
X187853Y210034D01*
X187819Y209983D01*
X187816Y209957D01*
X187805Y209934D01*
X187806Y209872D01*
X187799Y209811D01*
X187808Y209787D01*
X187808Y209761D01*
X187846Y209681D01*
X187857Y209648D01*
X187864Y209642D01*
X187869Y209631D01*
X189804Y206958D01*
X189764Y206878D01*
X189708Y206822D01*
X189668Y206757D01*
X189624Y206694D01*
X189622Y206683D01*
X189617Y206675D01*
X189613Y206640D01*
X189597Y206554D01*
X189597Y206504D01*
X189589Y206491D01*
X189537Y206423D01*
X189464Y206278D01*
X189408Y206222D01*
X189368Y206157D01*
X189324Y206094D01*
X189322Y206083D01*
X189317Y206075D01*
X189313Y206040D01*
X189297Y205954D01*
X189297Y205904D01*
X189268Y205857D01*
X189224Y205794D01*
X189222Y205783D01*
X189217Y205775D01*
X189213Y205740D01*
X189197Y205654D01*
X189197Y205543D01*
X189164Y205478D01*
X189108Y205422D01*
X189068Y205357D01*
X189024Y205294D01*
X189022Y205283D01*
X189017Y205275D01*
X189013Y205240D01*
X188997Y205154D01*
X188997Y205104D01*
X188968Y205057D01*
X188924Y204994D01*
X188922Y204983D01*
X188917Y204975D01*
X188913Y204940D01*
X188897Y204854D01*
X188897Y204775D01*
X185614Y204228D01*
X185595Y204220D01*
X185575Y204219D01*
X185516Y204187D01*
X185454Y204161D01*
X185441Y204146D01*
X185423Y204136D01*
X185385Y204081D01*
X185341Y204031D01*
X185335Y204011D01*
X185324Y203994D01*
X185308Y203913D01*
X185304Y203903D01*
X185304Y203892D01*
X185303Y203888D01*
X185297Y203863D01*
X185298Y203859D01*
X185297Y203854D01*
X185297Y200654D01*
X185301Y200635D01*
X185299Y200616D01*
X185321Y200551D01*
X185336Y200485D01*
X185349Y200470D01*
X185355Y200452D01*
X185403Y200404D01*
X185446Y200352D01*
X185464Y200344D01*
X185478Y200330D01*
X185584Y200290D01*
X185604Y200281D01*
X185608Y200281D01*
X185612Y200280D01*
X188900Y199716D01*
X188935Y199591D01*
X188936Y199585D01*
X188937Y199585D01*
X188937Y199584D01*
X188997Y199464D01*
X188997Y199454D01*
X189000Y199438D01*
X188998Y199422D01*
X189035Y199291D01*
X189036Y199285D01*
X189037Y199285D01*
X189037Y199284D01*
X189097Y199164D01*
X189097Y199154D01*
X189100Y199138D01*
X189098Y199122D01*
X189135Y198991D01*
X189136Y198985D01*
X189137Y198985D01*
X189137Y198984D01*
X189297Y198664D01*
X189297Y198654D01*
X189300Y198638D01*
X189298Y198622D01*
X189335Y198491D01*
X189336Y198485D01*
X189337Y198485D01*
X189337Y198484D01*
X189437Y198284D01*
X189460Y198256D01*
X189508Y198186D01*
X189564Y198129D01*
X189597Y198064D01*
X189597Y198054D01*
X189600Y198038D01*
X189598Y198022D01*
X189635Y197891D01*
X189636Y197885D01*
X189637Y197885D01*
X189637Y197884D01*
X189737Y197684D01*
X189760Y197656D01*
X189808Y197586D01*
X189818Y197575D01*
X187873Y194981D01*
X187863Y194959D01*
X187846Y194940D01*
X187828Y194880D01*
X187803Y194823D01*
X187804Y194798D01*
X187797Y194774D01*
X187808Y194713D01*
X187811Y194650D01*
X187823Y194628D01*
X187828Y194604D01*
X187879Y194529D01*
X187895Y194499D01*
X187902Y194494D01*
X187908Y194486D01*
X190208Y192186D01*
X190222Y192177D01*
X190233Y192163D01*
X190295Y192131D01*
X190355Y192094D01*
X190372Y192093D01*
X190387Y192085D01*
X190458Y192085D01*
X190527Y192078D01*
X190543Y192084D01*
X190560Y192084D01*
X190678Y192136D01*
X190689Y192140D01*
X190690Y192141D01*
X190691Y192141D01*
X193390Y194003D01*
X193408Y193986D01*
X193473Y193945D01*
X193535Y193901D01*
X193547Y193899D01*
X193555Y193894D01*
X193590Y193891D01*
X193605Y193888D01*
X193608Y193886D01*
X193673Y193845D01*
X193735Y193801D01*
X193747Y193799D01*
X193755Y193794D01*
X193790Y193791D01*
X193876Y193774D01*
X193926Y193774D01*
X193973Y193745D01*
X194035Y193701D01*
X194047Y193699D01*
X194055Y193694D01*
X194090Y193691D01*
X194105Y193688D01*
X194108Y193686D01*
X194173Y193645D01*
X194235Y193601D01*
X194247Y193599D01*
X194255Y193594D01*
X194290Y193591D01*
X194305Y193588D01*
X194308Y193586D01*
X194373Y193545D01*
X194435Y193501D01*
X194447Y193499D01*
X194455Y193494D01*
X194490Y193491D01*
X194519Y193485D01*
X194546Y193452D01*
X194565Y193444D01*
X194580Y193429D01*
X194643Y193409D01*
X194704Y193381D01*
X194725Y193382D01*
X194744Y193376D01*
X194810Y193386D01*
X194877Y193388D01*
X194895Y193398D01*
X194915Y193401D01*
X194970Y193439D01*
X195029Y193471D01*
X195041Y193488D01*
X195057Y193500D01*
X195114Y193592D01*
X195128Y193613D01*
X195129Y193618D01*
X195132Y193622D01*
X197132Y199022D01*
X197136Y199053D01*
X197148Y199081D01*
X197146Y199137D01*
X197153Y199194D01*
X197143Y199223D01*
X197142Y199254D01*
X197115Y199304D01*
X197096Y199357D01*
X197074Y199379D01*
X197059Y199406D01*
X196999Y199452D01*
X196972Y199478D01*
X196959Y199482D01*
X196946Y199493D01*
X196401Y199765D01*
X196244Y199922D01*
X196214Y199941D01*
X196146Y199993D01*
X196001Y200065D01*
X195688Y200378D01*
X195615Y200523D01*
X195592Y200551D01*
X195544Y200622D01*
X195388Y200778D01*
X195327Y200899D01*
X195236Y201174D01*
X195224Y201193D01*
X195215Y201223D01*
X195155Y201343D01*
X195155Y201454D01*
X195147Y201489D01*
X195136Y201574D01*
X195055Y201815D01*
X195055Y202592D01*
X195136Y202834D01*
X195139Y202870D01*
X195155Y202954D01*
X195155Y203139D01*
X195292Y203343D01*
X195305Y203378D01*
X195336Y203434D01*
X195420Y203686D01*
X195771Y204212D01*
X196118Y204559D01*
X196644Y204910D01*
X196896Y204994D01*
X196914Y205005D01*
X196928Y205008D01*
X196941Y205019D01*
X196986Y205038D01*
X197191Y205174D01*
X197376Y205174D01*
X197411Y205183D01*
X197496Y205194D01*
X197738Y205274D01*
X198329Y205274D01*
X198684Y205186D01*
X198720Y205185D01*
X198776Y205174D01*
X198961Y205174D01*
X199166Y205038D01*
X199201Y205025D01*
X199250Y204997D01*
X199252Y204996D01*
X199253Y204996D01*
X199256Y204994D01*
X199508Y204910D01*
X199735Y204759D01*
X199908Y204586D01*
X199934Y204569D01*
X199966Y204538D01*
X200235Y204359D01*
X200381Y204212D01*
X200732Y203686D01*
X201097Y202592D01*
X201097Y202115D01*
X201016Y201874D01*
X201013Y201838D01*
X200997Y201754D01*
X200997Y201543D01*
X200837Y201223D01*
X200831Y201201D01*
X200816Y201174D01*
X200725Y200899D01*
X200564Y200578D01*
X200408Y200422D01*
X200389Y200391D01*
X200337Y200323D01*
X200264Y200178D01*
X200151Y200065D01*
X200006Y199993D01*
X199979Y199970D01*
X199908Y199922D01*
X199751Y199765D01*
X199430Y199605D01*
X199156Y199513D01*
X199107Y199483D01*
X199054Y199461D01*
X199034Y199439D01*
X199009Y199423D01*
X198978Y199374D01*
X198941Y199331D01*
X198933Y199302D01*
X198917Y199276D01*
X198911Y199219D01*
X198897Y199163D01*
X198903Y199129D01*
X198900Y199104D01*
X198912Y199072D01*
X198920Y199022D01*
X200920Y193622D01*
X200946Y193584D01*
X200962Y193541D01*
X200993Y193513D01*
X201016Y193478D01*
X201056Y193455D01*
X201089Y193424D01*
X201129Y193412D01*
X201166Y193391D01*
X201211Y193388D01*
X201255Y193375D01*
X201296Y193382D01*
X201338Y193380D01*
X201381Y193397D01*
X201426Y193405D01*
X201467Y193433D01*
X201498Y193446D01*
X201515Y193466D01*
X201528Y193474D01*
X201576Y193474D01*
X201650Y193492D01*
X201726Y193505D01*
X201735Y193512D01*
X201744Y193514D01*
X201772Y193537D01*
X201844Y193586D01*
X201851Y193592D01*
X201926Y193605D01*
X201935Y193612D01*
X201944Y193614D01*
X201972Y193637D01*
X202044Y193686D01*
X202051Y193692D01*
X202126Y193705D01*
X202135Y193712D01*
X202144Y193714D01*
X202172Y193737D01*
X202244Y193786D01*
X202251Y193792D01*
X202326Y193805D01*
X202335Y193812D01*
X202344Y193814D01*
X202372Y193837D01*
X202444Y193886D01*
X202451Y193892D01*
X202526Y193905D01*
X202535Y193912D01*
X202544Y193914D01*
X202572Y193937D01*
X202644Y193986D01*
X202651Y193992D01*
X202726Y194005D01*
X202735Y194012D01*
X202744Y194014D01*
X202745Y194014D01*
X205461Y192141D01*
X205481Y192134D01*
X205497Y192120D01*
X205560Y192102D01*
X205622Y192078D01*
X205643Y192080D01*
X205664Y192075D01*
X205728Y192088D01*
G37*
G36*
X82742Y79261D02*
X82742Y79261D01*
X82793Y79263D01*
X82825Y79281D01*
X82861Y79289D01*
X82900Y79322D01*
X82945Y79346D01*
X82966Y79376D01*
X82994Y79399D01*
X83015Y79446D01*
X83045Y79488D01*
X83053Y79530D01*
X83065Y79558D01*
X83064Y79588D01*
X83072Y79630D01*
X83072Y92430D01*
X83068Y92448D01*
X83070Y92472D01*
X82870Y94272D01*
X82859Y94303D01*
X82853Y94350D01*
X82653Y94950D01*
X82640Y94970D01*
X82632Y95000D01*
X82332Y95600D01*
X82324Y95610D01*
X82318Y95626D01*
X82018Y96126D01*
X82004Y96140D01*
X81995Y96159D01*
X81918Y96229D01*
X81897Y96250D01*
X81892Y96252D01*
X81888Y96256D01*
X81404Y96546D01*
X81020Y96834D01*
X80985Y96849D01*
X80933Y96883D01*
X79933Y97283D01*
X79900Y97288D01*
X79855Y97305D01*
X79255Y97405D01*
X79228Y97403D01*
X79192Y97410D01*
X78392Y97410D01*
X78356Y97402D01*
X78300Y97399D01*
X77945Y97310D01*
X77792Y97310D01*
X77777Y97307D01*
X77762Y97309D01*
X77630Y97272D01*
X77623Y97271D01*
X77623Y97270D01*
X77622Y97270D01*
X77422Y97170D01*
X77403Y97154D01*
X77379Y97145D01*
X77337Y97099D01*
X77289Y97059D01*
X77279Y97037D01*
X77262Y97018D01*
X77244Y96958D01*
X77218Y96901D01*
X77220Y96876D01*
X77212Y96852D01*
X77223Y96790D01*
X77226Y96728D01*
X77238Y96706D01*
X77242Y96681D01*
X77291Y96608D01*
X77309Y96576D01*
X77317Y96571D01*
X77323Y96561D01*
X77423Y96461D01*
X77455Y96441D01*
X77522Y96390D01*
X77922Y96190D01*
X77945Y96184D01*
X77972Y96169D01*
X78187Y96098D01*
X78497Y95788D01*
X78647Y95562D01*
X78712Y95368D01*
X78712Y95192D01*
X78640Y94976D01*
X78480Y94655D01*
X78250Y94426D01*
X78014Y94268D01*
X77583Y94096D01*
X77154Y94010D01*
X76439Y94010D01*
X75748Y94183D01*
X75252Y94514D01*
X74931Y94915D01*
X74772Y95392D01*
X74772Y95952D01*
X75018Y96525D01*
X75678Y97279D01*
X76476Y98177D01*
X76477Y98179D01*
X76478Y98180D01*
X77178Y98980D01*
X77194Y99009D01*
X77224Y99045D01*
X77724Y99945D01*
X77735Y99983D01*
X77763Y100048D01*
X77963Y100948D01*
X77963Y100981D01*
X77972Y101030D01*
X77972Y101830D01*
X77964Y101867D01*
X77953Y101950D01*
X77653Y102850D01*
X77632Y102884D01*
X77601Y102951D01*
X77101Y103651D01*
X77075Y103674D01*
X77045Y103714D01*
X76145Y104514D01*
X76114Y104531D01*
X76074Y104564D01*
X74974Y105164D01*
X74938Y105174D01*
X74860Y105204D01*
X73760Y105404D01*
X73731Y105403D01*
X73692Y105410D01*
X72692Y105410D01*
X72655Y105402D01*
X72572Y105391D01*
X71672Y105091D01*
X71666Y105087D01*
X71659Y105086D01*
X70859Y104786D01*
X70844Y104776D01*
X70822Y104770D01*
X70656Y104687D01*
X70222Y104470D01*
X70200Y104452D01*
X70164Y104434D01*
X69764Y104134D01*
X69749Y104116D01*
X69723Y104099D01*
X69623Y103999D01*
X69610Y103977D01*
X69590Y103961D01*
X69564Y103904D01*
X69532Y103852D01*
X69529Y103826D01*
X69519Y103802D01*
X69521Y103741D01*
X69515Y103679D01*
X69524Y103655D01*
X69525Y103629D01*
X69555Y103575D01*
X69577Y103517D01*
X69596Y103500D01*
X69608Y103477D01*
X69659Y103442D01*
X69704Y103400D01*
X69729Y103392D01*
X69750Y103377D01*
X69834Y103361D01*
X69870Y103350D01*
X69880Y103352D01*
X69892Y103350D01*
X70192Y103350D01*
X70229Y103358D01*
X70312Y103369D01*
X70554Y103450D01*
X70745Y103450D01*
X71100Y103361D01*
X71108Y103361D01*
X71117Y103357D01*
X71568Y103267D01*
X71891Y103105D01*
X72212Y102865D01*
X72347Y102662D01*
X72431Y102410D01*
X72444Y102390D01*
X72452Y102360D01*
X72540Y102184D01*
X72591Y102030D01*
X72531Y101850D01*
X72530Y101837D01*
X72523Y101822D01*
X72439Y101486D01*
X72276Y101241D01*
X72268Y101221D01*
X72252Y101200D01*
X72080Y100855D01*
X71850Y100626D01*
X71581Y100446D01*
X71574Y100439D01*
X71564Y100434D01*
X71172Y100141D01*
X70901Y99960D01*
X70469Y99744D01*
X70202Y99610D01*
X69654Y99610D01*
X69461Y99675D01*
X69312Y99774D01*
X69172Y100192D01*
X69172Y100930D01*
X69160Y100980D01*
X69160Y101001D01*
X69159Y101025D01*
X69158Y101032D01*
X69141Y101064D01*
X69133Y101099D01*
X69100Y101139D01*
X69075Y101184D01*
X69045Y101205D01*
X69023Y101232D01*
X68975Y101254D01*
X68933Y101283D01*
X68897Y101289D01*
X68864Y101303D01*
X68813Y101301D01*
X68762Y101309D01*
X68721Y101298D01*
X68691Y101297D01*
X68664Y101282D01*
X68622Y101270D01*
X68611Y101265D01*
X67851Y100885D01*
X67822Y100870D01*
X67818Y100867D01*
X67708Y100783D01*
X66908Y99883D01*
X66893Y99855D01*
X66864Y99822D01*
X66164Y98622D01*
X66155Y98593D01*
X66134Y98558D01*
X65634Y97158D01*
X65631Y97132D01*
X65618Y97100D01*
X65318Y95500D01*
X65320Y95464D01*
X65312Y95409D01*
X65412Y93609D01*
X65422Y93577D01*
X65426Y93528D01*
X65926Y91728D01*
X65943Y91697D01*
X65960Y91645D01*
X66960Y89845D01*
X66977Y89827D01*
X66992Y89797D01*
X67692Y88897D01*
X67699Y88891D01*
X67703Y88883D01*
X67713Y88877D01*
X67723Y88861D01*
X68523Y88061D01*
X68533Y88055D01*
X68542Y88044D01*
X69342Y87344D01*
X69367Y87330D01*
X69396Y87304D01*
X70396Y86704D01*
X70421Y86696D01*
X70451Y86677D01*
X71451Y86277D01*
X71470Y86274D01*
X71492Y86263D01*
X72592Y85963D01*
X72609Y85963D01*
X72630Y85955D01*
X73830Y85755D01*
X73856Y85757D01*
X73892Y85750D01*
X75761Y85750D01*
X76258Y85667D01*
X76674Y85417D01*
X77624Y84657D01*
X78100Y84087D01*
X78112Y84077D01*
X78123Y84061D01*
X79401Y82783D01*
X79883Y82109D01*
X79903Y82091D01*
X79923Y82061D01*
X80511Y81473D01*
X81000Y80887D01*
X81012Y80877D01*
X81023Y80861D01*
X81504Y80380D01*
X81788Y80002D01*
X81806Y79987D01*
X81823Y79961D01*
X82097Y79688D01*
X82276Y79419D01*
X82295Y79401D01*
X82308Y79377D01*
X82358Y79342D01*
X82402Y79301D01*
X82428Y79293D01*
X82450Y79277D01*
X82531Y79262D01*
X82568Y79251D01*
X82579Y79252D01*
X82592Y79250D01*
X82692Y79250D01*
X82742Y79261D01*
G37*
G36*
X128431Y53761D02*
X128431Y53761D01*
X128493Y53763D01*
X128515Y53776D01*
X128541Y53780D01*
X128612Y53828D01*
X128645Y53846D01*
X128651Y53854D01*
X128661Y53861D01*
X129546Y54746D01*
X131030Y55933D01*
X131041Y55948D01*
X131061Y55961D01*
X131946Y56846D01*
X132430Y57233D01*
X132436Y57241D01*
X132445Y57246D01*
X132489Y57309D01*
X132537Y57369D01*
X132539Y57379D01*
X132545Y57388D01*
X132560Y57469D01*
X132565Y57480D01*
X132565Y57492D01*
X132572Y57530D01*
X132572Y76030D01*
X132571Y76034D01*
X132572Y76039D01*
X132552Y76119D01*
X132533Y76199D01*
X132530Y76202D01*
X132529Y76207D01*
X132475Y76269D01*
X132423Y76332D01*
X132418Y76334D01*
X132416Y76338D01*
X132284Y76399D01*
X131884Y76499D01*
X131876Y76499D01*
X131867Y76503D01*
X131367Y76603D01*
X131335Y76602D01*
X131292Y76610D01*
X130839Y76610D01*
X130484Y76699D01*
X130476Y76699D01*
X130467Y76703D01*
X129975Y76801D01*
X129584Y76899D01*
X129576Y76899D01*
X129567Y76903D01*
X128567Y77103D01*
X128565Y77103D01*
X128564Y77103D01*
X128480Y77100D01*
X128393Y77097D01*
X128392Y77097D01*
X128391Y77097D01*
X128317Y77056D01*
X128241Y77015D01*
X128240Y77014D01*
X128239Y77014D01*
X128191Y76945D01*
X128140Y76874D01*
X128140Y76873D01*
X128139Y76872D01*
X128112Y76730D01*
X128112Y75948D01*
X127961Y76099D01*
X127945Y76109D01*
X127930Y76127D01*
X127430Y76527D01*
X127409Y76537D01*
X127388Y76556D01*
X126388Y77156D01*
X126375Y77160D01*
X126255Y77205D01*
X125055Y77405D01*
X125028Y77403D01*
X124992Y77410D01*
X124292Y77410D01*
X124281Y77408D01*
X124267Y77409D01*
X122767Y77309D01*
X122730Y77298D01*
X122664Y77288D01*
X121264Y76788D01*
X121235Y76769D01*
X121188Y76751D01*
X120088Y76051D01*
X120061Y76023D01*
X120009Y75984D01*
X119109Y74984D01*
X119096Y74961D01*
X119071Y74934D01*
X118371Y73834D01*
X118359Y73798D01*
X118329Y73742D01*
X117929Y72442D01*
X117928Y72427D01*
X117920Y72410D01*
X117620Y71010D01*
X117621Y70986D01*
X117613Y70955D01*
X117513Y69455D01*
X117516Y69433D01*
X117513Y69403D01*
X117613Y68003D01*
X117620Y67979D01*
X117622Y67945D01*
X117922Y66645D01*
X117934Y66620D01*
X117941Y66584D01*
X118441Y65384D01*
X118451Y65369D01*
X118458Y65348D01*
X119058Y64248D01*
X119084Y64219D01*
X119123Y64161D01*
X120023Y63261D01*
X120045Y63248D01*
X120068Y63222D01*
X121168Y62422D01*
X121204Y62407D01*
X121272Y62369D01*
X122472Y61969D01*
X122502Y61966D01*
X122542Y61953D01*
X124042Y61753D01*
X124081Y61757D01*
X124155Y61755D01*
X125955Y62055D01*
X125991Y62070D01*
X126062Y62090D01*
X126192Y62155D01*
X126662Y62390D01*
X126672Y62398D01*
X126688Y62404D01*
X127688Y63004D01*
X127708Y63024D01*
X127789Y63092D01*
X128012Y63371D01*
X128012Y54130D01*
X128018Y54105D01*
X128015Y54079D01*
X128037Y54022D01*
X128051Y53961D01*
X128068Y53941D01*
X128077Y53917D01*
X128122Y53875D01*
X128161Y53828D01*
X128185Y53817D01*
X128204Y53800D01*
X128263Y53782D01*
X128320Y53757D01*
X128345Y53758D01*
X128370Y53750D01*
X128431Y53761D01*
G37*
G36*
X112422Y61757D02*
X112422Y61757D01*
X112467Y61757D01*
X112930Y61850D01*
X113392Y61850D01*
X113428Y61858D01*
X113484Y61861D01*
X113884Y61961D01*
X113904Y61971D01*
X113933Y61977D01*
X114433Y62177D01*
X114445Y62185D01*
X114462Y62190D01*
X114862Y62390D01*
X114878Y62403D01*
X114903Y62414D01*
X115183Y62601D01*
X115562Y62790D01*
X115591Y62814D01*
X115661Y62861D01*
X115961Y63161D01*
X115977Y63188D01*
X116008Y63219D01*
X116203Y63510D01*
X116496Y63902D01*
X116500Y63911D01*
X116508Y63919D01*
X116708Y64219D01*
X116709Y64220D01*
X116710Y64221D01*
X116765Y64355D01*
X116855Y64806D01*
X117032Y65160D01*
X117036Y65175D01*
X117045Y65188D01*
X117071Y65322D01*
X117072Y65329D01*
X117072Y65330D01*
X117072Y65792D01*
X117165Y66255D01*
X117165Y66265D01*
X117166Y66398D01*
X116966Y67498D01*
X116957Y67520D01*
X116953Y67550D01*
X116653Y68450D01*
X116636Y68477D01*
X116622Y68519D01*
X116222Y69219D01*
X116199Y69243D01*
X116139Y69319D01*
X115439Y69919D01*
X115413Y69933D01*
X115381Y69960D01*
X114681Y70360D01*
X114655Y70368D01*
X114626Y70386D01*
X113826Y70686D01*
X113807Y70689D01*
X113784Y70699D01*
X112984Y70899D01*
X112962Y70899D01*
X112934Y70908D01*
X112034Y71008D01*
X110240Y71207D01*
X109571Y71303D01*
X108905Y71493D01*
X108352Y71678D01*
X107952Y71918D01*
X107772Y72157D01*
X107772Y73040D01*
X108005Y73505D01*
X108061Y73561D01*
X108081Y73593D01*
X108132Y73660D01*
X108175Y73747D01*
X108582Y73950D01*
X108692Y73950D01*
X108707Y73953D01*
X108722Y73951D01*
X108854Y73988D01*
X108861Y73989D01*
X108861Y73990D01*
X108862Y73990D01*
X108982Y74050D01*
X110602Y74050D01*
X111467Y73618D01*
X111780Y73305D01*
X111840Y73184D01*
X111931Y72910D01*
X111944Y72890D01*
X111952Y72860D01*
X112012Y72740D01*
X112012Y72330D01*
X112023Y72280D01*
X112025Y72229D01*
X112043Y72197D01*
X112051Y72161D01*
X112084Y72122D01*
X112108Y72077D01*
X112138Y72056D01*
X112161Y72028D01*
X112208Y72007D01*
X112250Y71977D01*
X112292Y71969D01*
X112320Y71957D01*
X112350Y71958D01*
X112392Y71950D01*
X116292Y71950D01*
X116372Y71968D01*
X116452Y71985D01*
X116456Y71988D01*
X116461Y71989D01*
X116524Y72042D01*
X116588Y72092D01*
X116590Y72096D01*
X116594Y72099D01*
X116628Y72174D01*
X116663Y72248D01*
X116663Y72253D01*
X116665Y72258D01*
X116664Y72285D01*
X116667Y72393D01*
X116467Y73593D01*
X116457Y73616D01*
X116457Y73618D01*
X116456Y73638D01*
X116454Y73643D01*
X116453Y73650D01*
X116253Y74250D01*
X116233Y74282D01*
X116196Y74358D01*
X115908Y74742D01*
X115618Y75226D01*
X115606Y75238D01*
X115596Y75258D01*
X115296Y75658D01*
X115271Y75679D01*
X115264Y75692D01*
X115249Y75703D01*
X115220Y75734D01*
X114820Y76034D01*
X114804Y76041D01*
X114788Y76056D01*
X113788Y76656D01*
X113763Y76664D01*
X113733Y76683D01*
X113233Y76883D01*
X113204Y76887D01*
X113167Y76903D01*
X112690Y76998D01*
X112112Y77191D01*
X112087Y77193D01*
X112055Y77205D01*
X111461Y77304D01*
X110967Y77403D01*
X110935Y77402D01*
X110892Y77410D01*
X108592Y77410D01*
X108562Y77403D01*
X108517Y77403D01*
X108054Y77310D01*
X107492Y77310D01*
X107462Y77303D01*
X107417Y77303D01*
X106917Y77203D01*
X106891Y77191D01*
X106851Y77183D01*
X106383Y76996D01*
X105917Y76903D01*
X105891Y76891D01*
X105851Y76883D01*
X105351Y76683D01*
X105320Y76661D01*
X105264Y76634D01*
X104064Y75734D01*
X104039Y75704D01*
X103988Y75658D01*
X103688Y75258D01*
X103676Y75232D01*
X103652Y75200D01*
X103452Y74800D01*
X103449Y74786D01*
X103439Y74771D01*
X103239Y74271D01*
X103235Y74242D01*
X103219Y74205D01*
X103119Y73705D01*
X103120Y73673D01*
X103112Y73630D01*
X103112Y65020D01*
X103052Y64900D01*
X103048Y64885D01*
X103039Y64872D01*
X103013Y64738D01*
X103012Y64732D01*
X103012Y64731D01*
X103012Y64730D01*
X103012Y63920D01*
X102952Y63800D01*
X102948Y63785D01*
X102939Y63772D01*
X102930Y63726D01*
X102929Y63723D01*
X102929Y63721D01*
X102913Y63638D01*
X102912Y63632D01*
X102912Y63631D01*
X102912Y63630D01*
X102912Y63520D01*
X102852Y63400D01*
X102848Y63385D01*
X102839Y63372D01*
X102813Y63238D01*
X102812Y63232D01*
X102812Y63231D01*
X102812Y63230D01*
X102812Y63020D01*
X102780Y62955D01*
X102723Y62899D01*
X102683Y62834D01*
X102639Y62772D01*
X102637Y62760D01*
X102632Y62752D01*
X102628Y62715D01*
X102612Y62630D01*
X102612Y62530D01*
X102623Y62480D01*
X102625Y62429D01*
X102643Y62397D01*
X102651Y62361D01*
X102684Y62322D01*
X102708Y62277D01*
X102738Y62256D01*
X102761Y62228D01*
X102808Y62207D01*
X102850Y62177D01*
X102892Y62169D01*
X102920Y62157D01*
X102950Y62158D01*
X102992Y62150D01*
X106892Y62150D01*
X106942Y62161D01*
X106993Y62163D01*
X107025Y62181D01*
X107061Y62189D01*
X107100Y62222D01*
X107145Y62246D01*
X107166Y62276D01*
X107194Y62299D01*
X107215Y62346D01*
X107245Y62388D01*
X107253Y62430D01*
X107265Y62458D01*
X107265Y62468D01*
X107301Y62526D01*
X107345Y62588D01*
X107347Y62600D01*
X107352Y62608D01*
X107356Y62645D01*
X107358Y62659D01*
X107361Y62661D01*
X107401Y62726D01*
X107445Y62788D01*
X107447Y62800D01*
X107452Y62808D01*
X107456Y62845D01*
X107472Y62930D01*
X107472Y63079D01*
X107485Y63100D01*
X107623Y62961D01*
X107650Y62945D01*
X107681Y62914D01*
X107981Y62714D01*
X108017Y62700D01*
X108072Y62669D01*
X108324Y62585D01*
X108581Y62414D01*
X108617Y62400D01*
X108672Y62369D01*
X109872Y61969D01*
X109909Y61966D01*
X109992Y61950D01*
X110230Y61950D01*
X110472Y61869D01*
X110509Y61866D01*
X110592Y61850D01*
X110930Y61850D01*
X111172Y61769D01*
X111209Y61766D01*
X111292Y61750D01*
X112392Y61750D01*
X112422Y61757D01*
G37*
G36*
X81424Y62157D02*
X81424Y62157D01*
X81458Y62155D01*
X81508Y62177D01*
X81561Y62189D01*
X81586Y62210D01*
X81617Y62223D01*
X81664Y62275D01*
X81694Y62299D01*
X81701Y62315D01*
X81715Y62330D01*
X85371Y68236D01*
X86412Y67265D01*
X86412Y62530D01*
X86423Y62480D01*
X86425Y62429D01*
X86443Y62397D01*
X86451Y62361D01*
X86484Y62322D01*
X86508Y62277D01*
X86538Y62256D01*
X86561Y62228D01*
X86608Y62207D01*
X86650Y62177D01*
X86692Y62169D01*
X86720Y62157D01*
X86750Y62158D01*
X86792Y62150D01*
X90692Y62150D01*
X90742Y62161D01*
X90793Y62163D01*
X90825Y62181D01*
X90861Y62189D01*
X90900Y62222D01*
X90945Y62246D01*
X90966Y62276D01*
X90994Y62299D01*
X91015Y62346D01*
X91045Y62388D01*
X91053Y62430D01*
X91065Y62458D01*
X91064Y62488D01*
X91072Y62530D01*
X91072Y79930D01*
X91062Y79973D01*
X91062Y80018D01*
X91043Y80057D01*
X91033Y80099D01*
X91004Y80133D01*
X90984Y80173D01*
X90945Y80206D01*
X90923Y80232D01*
X90899Y80243D01*
X90872Y80265D01*
X86972Y82365D01*
X86917Y82380D01*
X86864Y82403D01*
X86834Y82402D01*
X86805Y82410D01*
X86749Y82399D01*
X86691Y82397D01*
X86665Y82382D01*
X86635Y82376D01*
X86590Y82341D01*
X86539Y82314D01*
X86522Y82289D01*
X86498Y82271D01*
X86472Y82219D01*
X86439Y82172D01*
X86433Y82138D01*
X86421Y82115D01*
X86422Y82080D01*
X86412Y82030D01*
X86412Y72575D01*
X82166Y76993D01*
X82099Y77037D01*
X82034Y77083D01*
X82026Y77084D01*
X82021Y77088D01*
X81988Y77092D01*
X81892Y77110D01*
X77292Y77110D01*
X77265Y77104D01*
X77238Y77106D01*
X77182Y77084D01*
X77123Y77071D01*
X77102Y77053D01*
X77076Y77043D01*
X77036Y76999D01*
X76990Y76961D01*
X76978Y76935D01*
X76960Y76915D01*
X76943Y76857D01*
X76919Y76802D01*
X76920Y76775D01*
X76912Y76748D01*
X76923Y76689D01*
X76925Y76629D01*
X76939Y76605D01*
X76944Y76578D01*
X76990Y76511D01*
X77008Y76477D01*
X77018Y76470D01*
X77026Y76459D01*
X82103Y71477D01*
X76374Y62738D01*
X76349Y62669D01*
X76319Y62602D01*
X76319Y62589D01*
X76315Y62576D01*
X76323Y62503D01*
X76325Y62429D01*
X76332Y62417D01*
X76333Y62404D01*
X76373Y62342D01*
X76408Y62277D01*
X76419Y62269D01*
X76427Y62258D01*
X76490Y62220D01*
X76550Y62177D01*
X76565Y62174D01*
X76575Y62168D01*
X76614Y62165D01*
X76692Y62150D01*
X81392Y62150D01*
X81424Y62157D01*
G37*
G36*
X41942Y62161D02*
X41942Y62161D01*
X41993Y62163D01*
X42025Y62181D01*
X42061Y62189D01*
X42100Y62222D01*
X42145Y62246D01*
X42166Y62276D01*
X42194Y62299D01*
X42215Y62346D01*
X42245Y62388D01*
X42253Y62430D01*
X42265Y62458D01*
X42264Y62488D01*
X42272Y62530D01*
X42272Y70506D01*
X42369Y71279D01*
X42468Y71973D01*
X42555Y72496D01*
X42808Y72918D01*
X43052Y73242D01*
X43431Y73470D01*
X43861Y73556D01*
X44400Y73646D01*
X45137Y73554D01*
X45658Y73467D01*
X46038Y73239D01*
X46379Y72812D01*
X46653Y72357D01*
X46920Y71732D01*
X47012Y70909D01*
X47012Y62530D01*
X47023Y62480D01*
X47025Y62429D01*
X47043Y62397D01*
X47051Y62361D01*
X47084Y62322D01*
X47108Y62277D01*
X47138Y62256D01*
X47161Y62228D01*
X47208Y62207D01*
X47250Y62177D01*
X47292Y62169D01*
X47320Y62157D01*
X47350Y62158D01*
X47392Y62150D01*
X51292Y62150D01*
X51342Y62161D01*
X51393Y62163D01*
X51425Y62181D01*
X51461Y62189D01*
X51500Y62222D01*
X51545Y62246D01*
X51566Y62276D01*
X51594Y62299D01*
X51615Y62346D01*
X51645Y62388D01*
X51653Y62430D01*
X51665Y62458D01*
X51664Y62488D01*
X51672Y62530D01*
X51672Y76730D01*
X51661Y76780D01*
X51659Y76831D01*
X51641Y76863D01*
X51633Y76899D01*
X51600Y76938D01*
X51576Y76983D01*
X51546Y77004D01*
X51523Y77032D01*
X51476Y77053D01*
X51434Y77083D01*
X51392Y77091D01*
X51364Y77103D01*
X51334Y77102D01*
X51292Y77110D01*
X47592Y77110D01*
X47542Y77099D01*
X47491Y77097D01*
X47459Y77079D01*
X47423Y77071D01*
X47384Y77038D01*
X47339Y77014D01*
X47318Y76984D01*
X47290Y76961D01*
X47269Y76914D01*
X47239Y76872D01*
X47231Y76830D01*
X47219Y76802D01*
X47220Y76772D01*
X47212Y76730D01*
X47212Y75748D01*
X46961Y75999D01*
X46945Y76009D01*
X46930Y76027D01*
X46430Y76427D01*
X46416Y76433D01*
X46403Y76446D01*
X45803Y76846D01*
X45767Y76860D01*
X45712Y76891D01*
X44512Y77291D01*
X44487Y77293D01*
X44455Y77305D01*
X43855Y77405D01*
X43828Y77403D01*
X43792Y77410D01*
X43192Y77410D01*
X43180Y77407D01*
X43165Y77409D01*
X41765Y77309D01*
X41735Y77300D01*
X41692Y77297D01*
X40592Y76997D01*
X40560Y76980D01*
X40507Y76962D01*
X39607Y76462D01*
X39579Y76436D01*
X39523Y76399D01*
X38823Y75699D01*
X38805Y75669D01*
X38770Y75632D01*
X38270Y74832D01*
X38257Y74795D01*
X38228Y74739D01*
X37928Y73739D01*
X37927Y73720D01*
X37918Y73698D01*
X37718Y72598D01*
X37719Y72581D01*
X37713Y72559D01*
X37613Y71259D01*
X37615Y71246D01*
X37612Y71230D01*
X37612Y62530D01*
X37623Y62480D01*
X37625Y62429D01*
X37643Y62397D01*
X37651Y62361D01*
X37684Y62322D01*
X37708Y62277D01*
X37738Y62256D01*
X37761Y62228D01*
X37808Y62207D01*
X37850Y62177D01*
X37892Y62169D01*
X37920Y62157D01*
X37950Y62158D01*
X37992Y62150D01*
X41892Y62150D01*
X41942Y62161D01*
G37*
G36*
X62919Y61851D02*
X62919Y61851D01*
X62956Y61862D01*
X63022Y61873D01*
X64122Y62273D01*
X64144Y62287D01*
X64177Y62298D01*
X65077Y62798D01*
X65100Y62819D01*
X65139Y62841D01*
X65839Y63441D01*
X65856Y63464D01*
X65924Y63545D01*
X66424Y64445D01*
X66434Y64478D01*
X66456Y64521D01*
X66756Y65521D01*
X66757Y65540D01*
X66766Y65562D01*
X66966Y66662D01*
X66965Y66691D01*
X66972Y66730D01*
X66972Y76730D01*
X66961Y76780D01*
X66959Y76831D01*
X66941Y76863D01*
X66933Y76899D01*
X66900Y76938D01*
X66876Y76983D01*
X66846Y77004D01*
X66823Y77032D01*
X66776Y77053D01*
X66734Y77083D01*
X66692Y77091D01*
X66664Y77103D01*
X66634Y77102D01*
X66592Y77110D01*
X62792Y77110D01*
X62742Y77099D01*
X62691Y77097D01*
X62659Y77079D01*
X62623Y77071D01*
X62584Y77038D01*
X62539Y77014D01*
X62518Y76984D01*
X62490Y76961D01*
X62469Y76914D01*
X62439Y76872D01*
X62431Y76830D01*
X62419Y76802D01*
X62420Y76772D01*
X62412Y76730D01*
X62412Y68754D01*
X62216Y67185D01*
X62132Y66684D01*
X61633Y66018D01*
X61253Y65790D01*
X60823Y65704D01*
X60284Y65614D01*
X59547Y65706D01*
X59026Y65793D01*
X58628Y66032D01*
X58305Y66355D01*
X58037Y66890D01*
X57763Y67530D01*
X57672Y68254D01*
X57672Y76730D01*
X57661Y76780D01*
X57659Y76831D01*
X57641Y76863D01*
X57633Y76899D01*
X57600Y76938D01*
X57576Y76983D01*
X57546Y77004D01*
X57523Y77032D01*
X57476Y77053D01*
X57434Y77083D01*
X57392Y77091D01*
X57364Y77103D01*
X57334Y77102D01*
X57292Y77110D01*
X53392Y77110D01*
X53342Y77099D01*
X53291Y77097D01*
X53259Y77079D01*
X53223Y77071D01*
X53184Y77038D01*
X53139Y77014D01*
X53118Y76984D01*
X53090Y76961D01*
X53069Y76914D01*
X53039Y76872D01*
X53031Y76830D01*
X53019Y76802D01*
X53020Y76772D01*
X53012Y76730D01*
X53012Y62530D01*
X53023Y62480D01*
X53025Y62429D01*
X53043Y62397D01*
X53051Y62361D01*
X53084Y62322D01*
X53108Y62277D01*
X53138Y62256D01*
X53161Y62228D01*
X53208Y62207D01*
X53250Y62177D01*
X53292Y62169D01*
X53320Y62157D01*
X53350Y62158D01*
X53392Y62150D01*
X57092Y62150D01*
X57142Y62161D01*
X57193Y62163D01*
X57225Y62181D01*
X57261Y62189D01*
X57300Y62222D01*
X57345Y62246D01*
X57366Y62276D01*
X57394Y62299D01*
X57415Y62346D01*
X57445Y62388D01*
X57453Y62430D01*
X57465Y62458D01*
X57464Y62488D01*
X57472Y62530D01*
X57472Y63471D01*
X57695Y63192D01*
X57722Y63171D01*
X57754Y63133D01*
X58254Y62733D01*
X58284Y62719D01*
X58322Y62690D01*
X58922Y62390D01*
X58936Y62387D01*
X58951Y62377D01*
X59451Y62177D01*
X59461Y62175D01*
X59472Y62169D01*
X60072Y61969D01*
X60101Y61967D01*
X60138Y61954D01*
X60835Y61854D01*
X61430Y61755D01*
X61465Y61757D01*
X61519Y61751D01*
X62919Y61851D01*
G37*
G36*
X141524Y61851D02*
X141524Y61851D01*
X141537Y61855D01*
X141555Y61855D01*
X142755Y62055D01*
X142770Y62062D01*
X142792Y62063D01*
X143892Y62363D01*
X143920Y62378D01*
X143962Y62390D01*
X144282Y62550D01*
X144962Y62890D01*
X144991Y62914D01*
X145042Y62944D01*
X145842Y63644D01*
X145860Y63669D01*
X145892Y63697D01*
X146592Y64597D01*
X146608Y64632D01*
X146645Y64689D01*
X147045Y65689D01*
X147050Y65723D01*
X147068Y65772D01*
X147268Y67072D01*
X147262Y67152D01*
X147259Y67231D01*
X147255Y67237D01*
X147254Y67245D01*
X147214Y67313D01*
X147176Y67383D01*
X147170Y67387D01*
X147166Y67394D01*
X147099Y67437D01*
X147034Y67483D01*
X147026Y67484D01*
X147020Y67488D01*
X146987Y67492D01*
X146892Y67510D01*
X143192Y67510D01*
X143142Y67499D01*
X143091Y67497D01*
X143059Y67479D01*
X143023Y67471D01*
X142984Y67438D01*
X142939Y67414D01*
X142918Y67384D01*
X142890Y67361D01*
X142869Y67314D01*
X142839Y67272D01*
X142831Y67230D01*
X142819Y67202D01*
X142820Y67172D01*
X142812Y67130D01*
X142812Y66603D01*
X142658Y66218D01*
X142420Y65902D01*
X141738Y65390D01*
X141230Y65305D01*
X141224Y65303D01*
X141217Y65303D01*
X140723Y65204D01*
X140208Y65118D01*
X139884Y65199D01*
X139848Y65199D01*
X139792Y65210D01*
X139439Y65210D01*
X139125Y65289D01*
X138793Y65455D01*
X138442Y65718D01*
X138235Y65924D01*
X138084Y66530D01*
X138151Y66797D01*
X138292Y67080D01*
X138604Y67314D01*
X139052Y67582D01*
X139598Y67765D01*
X141175Y68159D01*
X142167Y68357D01*
X142170Y68359D01*
X142175Y68359D01*
X143075Y68559D01*
X143095Y68569D01*
X143126Y68574D01*
X143926Y68874D01*
X143932Y68878D01*
X143942Y68881D01*
X144642Y69181D01*
X144657Y69192D01*
X144681Y69200D01*
X145381Y69600D01*
X145389Y69608D01*
X145403Y69614D01*
X146003Y70014D01*
X146004Y70015D01*
X146007Y70016D01*
X146108Y70119D01*
X146508Y70719D01*
X146519Y70747D01*
X146542Y70780D01*
X146842Y71480D01*
X146848Y71519D01*
X146854Y71538D01*
X146866Y71564D01*
X146866Y71574D01*
X146870Y71588D01*
X146970Y72488D01*
X146966Y72519D01*
X146971Y72562D01*
X146871Y73762D01*
X146859Y73799D01*
X146845Y73871D01*
X146445Y74871D01*
X146425Y74900D01*
X146378Y74980D01*
X145678Y75780D01*
X145659Y75794D01*
X145639Y75819D01*
X144939Y76419D01*
X144907Y76436D01*
X144862Y76470D01*
X143862Y76970D01*
X143825Y76979D01*
X143767Y77003D01*
X142767Y77203D01*
X142764Y77203D01*
X142760Y77204D01*
X141660Y77404D01*
X141631Y77403D01*
X141592Y77410D01*
X139292Y77410D01*
X139264Y77404D01*
X139224Y77404D01*
X138124Y77204D01*
X138107Y77197D01*
X138083Y77194D01*
X137083Y76894D01*
X137064Y76884D01*
X137038Y76877D01*
X136138Y76477D01*
X136110Y76457D01*
X136064Y76434D01*
X135264Y75834D01*
X135239Y75804D01*
X135188Y75758D01*
X134588Y74958D01*
X134576Y74932D01*
X134552Y74900D01*
X134052Y73900D01*
X134043Y73862D01*
X134017Y73793D01*
X133817Y72593D01*
X133822Y72511D01*
X133825Y72429D01*
X133828Y72425D01*
X133828Y72420D01*
X133869Y72349D01*
X133908Y72277D01*
X133912Y72274D01*
X133915Y72270D01*
X133983Y72224D01*
X134050Y72177D01*
X134055Y72176D01*
X134059Y72174D01*
X134087Y72170D01*
X134192Y72150D01*
X137892Y72150D01*
X137905Y72153D01*
X137919Y72151D01*
X137989Y72172D01*
X138061Y72189D01*
X138071Y72198D01*
X138084Y72202D01*
X138138Y72253D01*
X138194Y72299D01*
X138200Y72312D01*
X138210Y72321D01*
X138265Y72455D01*
X138358Y72921D01*
X138530Y73352D01*
X138666Y73556D01*
X138883Y73701D01*
X139248Y73883D01*
X139665Y74050D01*
X141230Y74050D01*
X141472Y73969D01*
X141485Y73968D01*
X141500Y73961D01*
X141886Y73865D01*
X142048Y73811D01*
X142312Y73415D01*
X142312Y73177D01*
X142242Y72897D01*
X142020Y72602D01*
X141691Y72355D01*
X141146Y72082D01*
X140607Y71903D01*
X139845Y71807D01*
X139826Y71800D01*
X139800Y71799D01*
X137404Y71200D01*
X136510Y71001D01*
X136474Y70984D01*
X136403Y70960D01*
X135003Y70160D01*
X134983Y70141D01*
X134949Y70122D01*
X134349Y69622D01*
X134325Y69591D01*
X134320Y69586D01*
X134319Y69585D01*
X134276Y69541D01*
X133876Y68941D01*
X133865Y68913D01*
X133843Y68880D01*
X133543Y68180D01*
X133536Y68141D01*
X133514Y68072D01*
X133414Y67172D01*
X133419Y67134D01*
X133416Y67072D01*
X133616Y65772D01*
X133628Y65743D01*
X133635Y65700D01*
X134035Y64600D01*
X134056Y64567D01*
X134088Y64502D01*
X134688Y63702D01*
X134713Y63681D01*
X134742Y63644D01*
X135542Y62944D01*
X135575Y62926D01*
X135622Y62890D01*
X136622Y62390D01*
X136652Y62383D01*
X136692Y62363D01*
X137792Y62063D01*
X137809Y62063D01*
X137830Y62055D01*
X139030Y61855D01*
X139044Y61856D01*
X139060Y61851D01*
X140260Y61751D01*
X140287Y61755D01*
X140324Y61751D01*
X141524Y61851D01*
G37*
G36*
X74342Y62161D02*
X74342Y62161D01*
X74393Y62163D01*
X74425Y62181D01*
X74461Y62189D01*
X74500Y62222D01*
X74545Y62246D01*
X74566Y62276D01*
X74594Y62299D01*
X74615Y62346D01*
X74645Y62388D01*
X74653Y62430D01*
X74665Y62458D01*
X74664Y62488D01*
X74672Y62530D01*
X74672Y73750D01*
X78192Y73750D01*
X78243Y73762D01*
X78296Y73764D01*
X78326Y73781D01*
X78361Y73789D01*
X78401Y73823D01*
X78447Y73848D01*
X78467Y73877D01*
X78494Y73899D01*
X78516Y73947D01*
X78546Y73991D01*
X78551Y74025D01*
X78565Y74058D01*
X78563Y74110D01*
X78571Y74162D01*
X78560Y74195D01*
X78559Y74231D01*
X78534Y74277D01*
X78517Y74327D01*
X78490Y74357D01*
X78476Y74383D01*
X78450Y74401D01*
X78420Y74434D01*
X78042Y74718D01*
X76461Y76299D01*
X76441Y76311D01*
X76420Y76334D01*
X76064Y76602D01*
X75796Y76958D01*
X75784Y76969D01*
X75776Y76983D01*
X75718Y77024D01*
X75663Y77069D01*
X75648Y77073D01*
X75634Y77083D01*
X75507Y77107D01*
X75495Y77110D01*
X75494Y77110D01*
X75492Y77110D01*
X74672Y77110D01*
X74672Y78730D01*
X74666Y78756D01*
X74648Y78864D01*
X74348Y79664D01*
X74344Y79670D01*
X74342Y79680D01*
X74042Y80380D01*
X74018Y80411D01*
X73984Y80473D01*
X73484Y81073D01*
X73454Y81096D01*
X73413Y81139D01*
X72713Y81639D01*
X72689Y81649D01*
X72662Y81670D01*
X71862Y82070D01*
X71835Y82077D01*
X71801Y82094D01*
X70801Y82394D01*
X70762Y82397D01*
X70692Y82410D01*
X67792Y82410D01*
X67777Y82407D01*
X67762Y82409D01*
X67630Y82372D01*
X67623Y82371D01*
X67623Y82370D01*
X67622Y82370D01*
X67422Y82270D01*
X67383Y82238D01*
X67339Y82214D01*
X67318Y82183D01*
X67289Y82159D01*
X67268Y82113D01*
X67239Y82072D01*
X67231Y82029D01*
X67218Y82001D01*
X67219Y81985D01*
X67220Y81971D01*
X67212Y81930D01*
X67212Y79130D01*
X67223Y79080D01*
X67225Y79029D01*
X67243Y78997D01*
X67251Y78961D01*
X67284Y78922D01*
X67308Y78877D01*
X67338Y78856D01*
X67361Y78828D01*
X67408Y78807D01*
X67450Y78777D01*
X67492Y78769D01*
X67520Y78757D01*
X67550Y78758D01*
X67592Y78750D01*
X69245Y78750D01*
X69559Y78671D01*
X69832Y78535D01*
X69963Y78339D01*
X70012Y78240D01*
X70012Y77930D01*
X70020Y77894D01*
X70023Y77838D01*
X70112Y77483D01*
X70112Y77110D01*
X67792Y77110D01*
X67742Y77099D01*
X67691Y77097D01*
X67659Y77079D01*
X67623Y77071D01*
X67584Y77038D01*
X67539Y77014D01*
X67518Y76984D01*
X67490Y76961D01*
X67469Y76914D01*
X67439Y76872D01*
X67431Y76830D01*
X67419Y76802D01*
X67420Y76772D01*
X67412Y76730D01*
X67412Y74130D01*
X67423Y74080D01*
X67425Y74029D01*
X67443Y73997D01*
X67451Y73961D01*
X67484Y73922D01*
X67508Y73877D01*
X67538Y73856D01*
X67561Y73828D01*
X67608Y73807D01*
X67650Y73777D01*
X67692Y73769D01*
X67720Y73757D01*
X67750Y73758D01*
X67792Y73750D01*
X70112Y73750D01*
X70112Y62530D01*
X70123Y62480D01*
X70125Y62429D01*
X70143Y62397D01*
X70151Y62361D01*
X70184Y62322D01*
X70208Y62277D01*
X70238Y62256D01*
X70261Y62228D01*
X70308Y62207D01*
X70350Y62177D01*
X70392Y62169D01*
X70420Y62157D01*
X70450Y62158D01*
X70492Y62150D01*
X74292Y62150D01*
X74342Y62161D01*
G37*
G36*
X101342Y62161D02*
X101342Y62161D01*
X101393Y62163D01*
X101425Y62181D01*
X101461Y62189D01*
X101500Y62222D01*
X101545Y62246D01*
X101566Y62276D01*
X101594Y62299D01*
X101615Y62346D01*
X101645Y62388D01*
X101653Y62430D01*
X101665Y62458D01*
X101664Y62488D01*
X101672Y62530D01*
X101672Y76030D01*
X101669Y76043D01*
X101671Y76057D01*
X101650Y76127D01*
X101633Y76199D01*
X101624Y76209D01*
X101620Y76222D01*
X101569Y76276D01*
X101523Y76332D01*
X101510Y76338D01*
X101501Y76348D01*
X101367Y76403D01*
X100875Y76501D01*
X100484Y76599D01*
X100448Y76599D01*
X100392Y76610D01*
X99930Y76610D01*
X99475Y76701D01*
X99084Y76799D01*
X99076Y76799D01*
X99067Y76803D01*
X98075Y77001D01*
X97684Y77099D01*
X97674Y77099D01*
X97664Y77103D01*
X97588Y77100D01*
X97511Y77102D01*
X97502Y77097D01*
X97491Y77097D01*
X97424Y77060D01*
X97355Y77027D01*
X97348Y77019D01*
X97339Y77014D01*
X97295Y76951D01*
X97247Y76891D01*
X97245Y76881D01*
X97239Y76872D01*
X97212Y76730D01*
X97212Y75314D01*
X97089Y75468D01*
X97086Y75470D01*
X97084Y75473D01*
X96584Y76073D01*
X96569Y76085D01*
X96565Y76092D01*
X96551Y76101D01*
X96530Y76127D01*
X96030Y76527D01*
X96006Y76538D01*
X95981Y76560D01*
X95281Y76960D01*
X95251Y76969D01*
X95212Y76991D01*
X94612Y77191D01*
X94605Y77191D01*
X94596Y77196D01*
X93896Y77396D01*
X93858Y77398D01*
X93792Y77410D01*
X92392Y77410D01*
X92318Y77393D01*
X92243Y77380D01*
X92233Y77373D01*
X92223Y77371D01*
X92194Y77347D01*
X92123Y77299D01*
X92122Y77298D01*
X92091Y77297D01*
X92059Y77279D01*
X92023Y77271D01*
X91984Y77238D01*
X91939Y77214D01*
X91918Y77184D01*
X91890Y77161D01*
X91869Y77114D01*
X91839Y77072D01*
X91831Y77030D01*
X91819Y77002D01*
X91820Y76972D01*
X91812Y76930D01*
X91812Y73330D01*
X91823Y73280D01*
X91825Y73229D01*
X91843Y73197D01*
X91851Y73161D01*
X91884Y73122D01*
X91908Y73077D01*
X91938Y73056D01*
X91961Y73028D01*
X92008Y73007D01*
X92050Y72977D01*
X92092Y72969D01*
X92120Y72957D01*
X92150Y72958D01*
X92192Y72950D01*
X92292Y72950D01*
X92307Y72953D01*
X92322Y72951D01*
X92454Y72988D01*
X92461Y72989D01*
X92461Y72990D01*
X92462Y72990D01*
X92582Y73050D01*
X93573Y73050D01*
X94527Y72954D01*
X95249Y72774D01*
X95844Y72434D01*
X96278Y71912D01*
X96639Y71281D01*
X96823Y70636D01*
X97012Y69788D01*
X97012Y62530D01*
X97023Y62480D01*
X97025Y62429D01*
X97043Y62397D01*
X97051Y62361D01*
X97084Y62322D01*
X97108Y62277D01*
X97138Y62256D01*
X97161Y62228D01*
X97208Y62207D01*
X97250Y62177D01*
X97292Y62169D01*
X97320Y62157D01*
X97350Y62158D01*
X97392Y62150D01*
X101292Y62150D01*
X101342Y62161D01*
G37*
%LPC*%
G36*
X124362Y65604D02*
X124362Y65604D01*
X123669Y65778D01*
X123165Y66198D01*
X122821Y66627D01*
X122545Y67272D01*
X122264Y68022D01*
X122172Y68754D01*
X122172Y70406D01*
X122264Y71138D01*
X122545Y71888D01*
X122820Y72529D01*
X123249Y73044D01*
X123774Y73394D01*
X124390Y73658D01*
X125189Y73747D01*
X125900Y73658D01*
X126602Y73395D01*
X127024Y73057D01*
X127464Y72529D01*
X127739Y71888D01*
X128020Y71138D01*
X128112Y70406D01*
X128112Y68777D01*
X127730Y67252D01*
X127471Y66647D01*
X127035Y66211D01*
X126510Y65774D01*
X125918Y65604D01*
X125095Y65513D01*
X124362Y65604D01*
G37*
%LPD*%
%LPC*%
G36*
X110530Y65110D02*
X110530Y65110D01*
X110067Y65203D01*
X110035Y65202D01*
X109992Y65210D01*
X109582Y65210D01*
X109262Y65370D01*
X109229Y65378D01*
X109184Y65399D01*
X108848Y65483D01*
X108634Y65626D01*
X108488Y65772D01*
X108308Y66041D01*
X108286Y66062D01*
X108261Y66099D01*
X108124Y66235D01*
X107953Y66750D01*
X107940Y66770D01*
X107932Y66800D01*
X107844Y66976D01*
X107772Y67192D01*
X107772Y68815D01*
X108022Y68690D01*
X108037Y68686D01*
X108050Y68677D01*
X108184Y68651D01*
X108191Y68650D01*
X108192Y68650D01*
X108302Y68650D01*
X108422Y68590D01*
X108437Y68586D01*
X108450Y68577D01*
X108584Y68551D01*
X108591Y68550D01*
X108592Y68550D01*
X108902Y68550D01*
X109022Y68490D01*
X109037Y68486D01*
X109050Y68477D01*
X109184Y68451D01*
X109191Y68450D01*
X109192Y68450D01*
X109330Y68450D01*
X109572Y68369D01*
X109609Y68366D01*
X109692Y68350D01*
X110030Y68350D01*
X110272Y68269D01*
X110309Y68266D01*
X110392Y68250D01*
X110702Y68250D01*
X110822Y68190D01*
X110837Y68186D01*
X110850Y68177D01*
X110984Y68151D01*
X110991Y68150D01*
X110992Y68150D01*
X111130Y68150D01*
X111346Y68078D01*
X111467Y68018D01*
X111523Y67961D01*
X111555Y67941D01*
X111622Y67890D01*
X111967Y67718D01*
X112023Y67661D01*
X112055Y67641D01*
X112122Y67590D01*
X112209Y67547D01*
X112412Y67140D01*
X112412Y67030D01*
X112415Y67015D01*
X112413Y67000D01*
X112450Y66868D01*
X112451Y66861D01*
X112452Y66861D01*
X112452Y66860D01*
X112512Y66740D01*
X112512Y66392D01*
X112431Y66150D01*
X112428Y66113D01*
X112412Y66030D01*
X112412Y65920D01*
X112380Y65855D01*
X112323Y65799D01*
X112315Y65785D01*
X112312Y65783D01*
X112309Y65775D01*
X112303Y65767D01*
X112252Y65700D01*
X112209Y65613D01*
X112122Y65570D01*
X112093Y65546D01*
X112023Y65499D01*
X111967Y65443D01*
X111702Y65310D01*
X111592Y65310D01*
X111577Y65307D01*
X111562Y65309D01*
X111430Y65272D01*
X111423Y65271D01*
X111423Y65270D01*
X111422Y65270D01*
X111302Y65210D01*
X111192Y65210D01*
X111177Y65207D01*
X111162Y65209D01*
X111030Y65172D01*
X111023Y65171D01*
X111023Y65170D01*
X111022Y65170D01*
X110947Y65133D01*
X110902Y65110D01*
X110530Y65110D01*
G37*
%LPD*%
D10*
X148445Y146380D02*
X148447Y146424D01*
X148453Y146468D01*
X148463Y146511D01*
X148476Y146553D01*
X148493Y146594D01*
X148514Y146633D01*
X148538Y146670D01*
X148565Y146705D01*
X148595Y146737D01*
X148628Y146767D01*
X148664Y146793D01*
X148701Y146817D01*
X148741Y146836D01*
X148782Y146853D01*
X148825Y146865D01*
X148868Y146874D01*
X148912Y146879D01*
X148956Y146880D01*
X149000Y146877D01*
X149044Y146870D01*
X149087Y146859D01*
X149129Y146845D01*
X149169Y146827D01*
X149208Y146805D01*
X149244Y146781D01*
X149278Y146753D01*
X149310Y146722D01*
X149339Y146688D01*
X149365Y146652D01*
X149387Y146614D01*
X149406Y146574D01*
X149421Y146532D01*
X149433Y146490D01*
X149441Y146446D01*
X149445Y146402D01*
X149445Y146358D01*
X149441Y146314D01*
X149433Y146270D01*
X149421Y146228D01*
X149406Y146186D01*
X149387Y146146D01*
X149365Y146108D01*
X149339Y146072D01*
X149310Y146038D01*
X149278Y146007D01*
X149244Y145979D01*
X149208Y145955D01*
X149169Y145933D01*
X149129Y145915D01*
X149087Y145901D01*
X149044Y145890D01*
X149000Y145883D01*
X148956Y145880D01*
X148912Y145881D01*
X148868Y145886D01*
X148825Y145895D01*
X148782Y145907D01*
X148741Y145924D01*
X148701Y145943D01*
X148664Y145967D01*
X148628Y145993D01*
X148595Y146023D01*
X148565Y146055D01*
X148538Y146090D01*
X148514Y146127D01*
X148493Y146166D01*
X148476Y146207D01*
X148463Y146249D01*
X148453Y146292D01*
X148447Y146336D01*
X148445Y146380D01*
D11*
X145570Y145380D02*
X85570Y145380D01*
X85570Y93380D02*
X145570Y93380D01*
D12*
X178370Y55670D03*
D13*
X113120Y55670D03*
D14*
X194120Y55170D03*
D15*
X182870Y55170D03*
D16*
X178370Y55170D03*
D14*
X146120Y55170D03*
D15*
X134870Y55170D03*
D16*
X113370Y55170D03*
X193870Y54670D03*
X182870Y54670D03*
X178370Y54670D03*
X145870Y54670D03*
X134870Y54670D03*
D17*
X113120Y54670D03*
X193620Y54170D03*
X183120Y54170D03*
D16*
X178370Y54170D03*
D17*
X145620Y54170D03*
X135120Y54170D03*
X113120Y54170D03*
X193620Y53670D03*
D18*
X183370Y53670D03*
D16*
X178370Y53670D03*
D17*
X145620Y53670D03*
D18*
X135370Y53670D03*
D17*
X113120Y53670D03*
D18*
X193370Y53170D03*
X183370Y53170D03*
D16*
X178370Y53170D03*
D18*
X145370Y53170D03*
X135370Y53170D03*
D17*
X113120Y53170D03*
D19*
X193120Y52670D03*
X183620Y52670D03*
D15*
X178370Y52670D03*
D19*
X145120Y52670D03*
X135620Y52670D03*
D17*
X113120Y52670D03*
D20*
X192870Y52170D03*
X183870Y52170D03*
X144870Y52170D03*
X135870Y52170D03*
D17*
X113120Y52170D03*
D21*
X192620Y51670D03*
X184120Y51670D03*
D15*
X153370Y51670D03*
D21*
X144620Y51670D03*
X136120Y51670D03*
D15*
X126870Y51670D03*
D17*
X113120Y51670D03*
D21*
X192620Y51170D03*
X184120Y51170D03*
D13*
X178120Y51170D03*
D17*
X170620Y51170D03*
D13*
X164620Y51170D03*
X160620Y51170D03*
D19*
X153620Y51170D03*
D21*
X144620Y51170D03*
X136120Y51170D03*
D19*
X127120Y51170D03*
D16*
X116870Y51170D03*
D17*
X113120Y51170D03*
D22*
X192370Y50670D03*
X184370Y50670D03*
D16*
X178370Y50670D03*
D21*
X170620Y50670D03*
D23*
X162370Y50670D03*
D22*
X153370Y50670D03*
X144370Y50670D03*
X136370Y50670D03*
X126870Y50670D03*
D24*
X115370Y50670D03*
D25*
X192120Y50170D03*
X184620Y50170D03*
D16*
X178370Y50170D03*
D25*
X170620Y50170D03*
D23*
X162370Y50170D03*
D26*
X153620Y50170D03*
D25*
X144120Y50170D03*
X136620Y50170D03*
D26*
X127120Y50170D03*
D27*
X115620Y50170D03*
D28*
X188370Y49670D03*
D16*
X178370Y49670D03*
D26*
X170620Y49670D03*
D23*
X162370Y49670D03*
D24*
X153370Y49670D03*
D28*
X140370Y49670D03*
D24*
X126870Y49670D03*
D29*
X115870Y49670D03*
D28*
X188370Y49170D03*
D16*
X178370Y49170D03*
D24*
X170870Y49170D03*
D23*
X162370Y49170D03*
D27*
X153620Y49170D03*
D28*
X140370Y49170D03*
D27*
X127120Y49170D03*
D29*
X115870Y49170D03*
D16*
X193870Y48670D03*
D23*
X188370Y48670D03*
D16*
X182870Y48670D03*
X178370Y48670D03*
D24*
X171370Y48670D03*
D23*
X162370Y48670D03*
D30*
X153620Y48670D03*
D16*
X145870Y48670D03*
D23*
X140370Y48670D03*
D16*
X134870Y48670D03*
D30*
X127120Y48670D03*
X116120Y48670D03*
D16*
X193870Y48170D03*
D22*
X188370Y48170D03*
D16*
X182870Y48170D03*
X178370Y48170D03*
D19*
X173120Y48170D03*
D13*
X169120Y48170D03*
D17*
X164120Y48170D03*
D14*
X160120Y48170D03*
D18*
X156370Y48170D03*
X150870Y48170D03*
D16*
X145870Y48170D03*
D22*
X140370Y48170D03*
D16*
X134870Y48170D03*
D18*
X129870Y48170D03*
X124370Y48170D03*
D30*
X116120Y48170D03*
D31*
X193870Y47620D03*
D32*
X188370Y47620D03*
D31*
X182870Y47620D03*
X178370Y47620D03*
D33*
X173620Y47620D03*
D34*
X168870Y47620D03*
D31*
X164370Y47620D03*
D33*
X156620Y47620D03*
D35*
X150370Y47620D03*
D31*
X145870Y47620D03*
D32*
X140370Y47620D03*
D31*
X134870Y47620D03*
D33*
X130120Y47620D03*
D35*
X123870Y47620D03*
X119370Y47620D03*
X113370Y47620D03*
D16*
X193870Y47070D03*
D20*
X188370Y47070D03*
D16*
X182870Y47070D03*
X178370Y47070D03*
D17*
X173620Y47070D03*
D16*
X164370Y47070D03*
X156870Y47070D03*
D17*
X150120Y47070D03*
D16*
X145870Y47070D03*
D20*
X140370Y47070D03*
D16*
X134870Y47070D03*
X130370Y47070D03*
D17*
X123620Y47070D03*
X119620Y47070D03*
X113120Y47070D03*
D16*
X193870Y46570D03*
D18*
X188370Y46570D03*
D16*
X182870Y46570D03*
X178370Y46570D03*
D17*
X174120Y46570D03*
D16*
X164370Y46570D03*
D17*
X157120Y46570D03*
X150120Y46570D03*
D16*
X145870Y46570D03*
D18*
X140370Y46570D03*
D16*
X134870Y46570D03*
D17*
X130620Y46570D03*
X123620Y46570D03*
X119620Y46570D03*
X113120Y46570D03*
D16*
X193870Y46170D03*
X188370Y46170D03*
X182870Y46170D03*
X178370Y46170D03*
D17*
X173620Y46170D03*
D16*
X164370Y46170D03*
X156870Y46170D03*
D17*
X150120Y46170D03*
D16*
X145870Y46170D03*
X140370Y46170D03*
X134870Y46170D03*
X130370Y46170D03*
D17*
X123620Y46170D03*
X119620Y46170D03*
X113120Y46170D03*
D16*
X193870Y45670D03*
D12*
X188370Y45670D03*
D16*
X182870Y45670D03*
X178370Y45670D03*
D17*
X173620Y45670D03*
D15*
X168870Y45670D03*
D16*
X164370Y45670D03*
D17*
X156620Y45670D03*
D18*
X150370Y45670D03*
D16*
X145870Y45670D03*
D12*
X140370Y45670D03*
D16*
X134870Y45670D03*
D17*
X130120Y45670D03*
D18*
X123870Y45670D03*
X119370Y45670D03*
X113370Y45670D03*
D31*
X193870Y45120D03*
X182870Y45120D03*
X178370Y45120D03*
D36*
X173120Y45120D03*
D37*
X169120Y45120D03*
D31*
X164370Y45120D03*
D35*
X156370Y45120D03*
X150870Y45120D03*
D31*
X145870Y45120D03*
X134870Y45120D03*
D35*
X129870Y45120D03*
X124370Y45120D03*
D38*
X116120Y45120D03*
D16*
X193870Y44570D03*
X182870Y44570D03*
X178370Y44570D03*
D24*
X171370Y44570D03*
D16*
X164370Y44570D03*
D30*
X153620Y44570D03*
D16*
X145870Y44570D03*
X134870Y44570D03*
D30*
X127120Y44570D03*
X116120Y44570D03*
D16*
X193870Y44070D03*
X182870Y44070D03*
X178370Y44070D03*
D24*
X170870Y44070D03*
D16*
X164370Y44070D03*
D27*
X153620Y44070D03*
D16*
X145870Y44070D03*
X134870Y44070D03*
D27*
X127120Y44070D03*
D29*
X115870Y44070D03*
D16*
X193870Y43670D03*
X182870Y43670D03*
X178370Y43670D03*
D26*
X170620Y43670D03*
D16*
X164370Y43670D03*
D24*
X153370Y43670D03*
D16*
X145870Y43670D03*
X134870Y43670D03*
D24*
X126870Y43670D03*
D29*
X115870Y43670D03*
D16*
X193870Y43170D03*
X182870Y43170D03*
X178370Y43170D03*
D25*
X170620Y43170D03*
D16*
X164370Y43170D03*
D23*
X153370Y43170D03*
D16*
X145870Y43170D03*
X134870Y43170D03*
D23*
X126870Y43170D03*
D27*
X115620Y43170D03*
D31*
X193870Y42620D03*
X182870Y42620D03*
X178370Y42620D03*
D39*
X170620Y42620D03*
D31*
X164370Y42620D03*
D40*
X153370Y42620D03*
D31*
X145870Y42620D03*
X134870Y42620D03*
D40*
X126870Y42620D03*
D41*
X115620Y42620D03*
D13*
X194120Y42070D03*
D12*
X182870Y42070D03*
D13*
X178120Y42070D03*
D17*
X170620Y42070D03*
D13*
X164620Y42070D03*
D19*
X153620Y42070D03*
D13*
X146120Y42070D03*
D12*
X134870Y42070D03*
D19*
X127120Y42070D03*
D16*
X116870Y42070D03*
D13*
X113120Y42070D03*
D14*
X153620Y41570D03*
X127120Y41570D03*
D17*
X90500Y55120D03*
D14*
X79000Y55120D03*
X70000Y55120D03*
X59000Y55120D03*
D19*
X52500Y55120D03*
D21*
X39000Y55120D03*
D14*
X29500Y55120D03*
D21*
X90500Y54620D03*
D13*
X79000Y54620D03*
X70000Y54620D03*
D16*
X59250Y54620D03*
D26*
X52000Y54620D03*
D23*
X38750Y54620D03*
D16*
X29250Y54620D03*
D23*
X90750Y54120D03*
D16*
X79250Y54120D03*
D17*
X70000Y54120D03*
X59000Y54120D03*
D27*
X51500Y54120D03*
D26*
X39000Y54120D03*
D17*
X29500Y54120D03*
D24*
X90750Y53620D03*
D17*
X79000Y53620D03*
D18*
X69750Y53620D03*
X59250Y53620D03*
D29*
X51250Y53620D03*
D26*
X39000Y53620D03*
D18*
X29750Y53620D03*
D27*
X90500Y53120D03*
D18*
X79250Y53120D03*
D19*
X69500Y53120D03*
X59500Y53120D03*
D30*
X51000Y53120D03*
D26*
X39000Y53120D03*
D19*
X30000Y53120D03*
D27*
X91000Y52620D03*
D19*
X79000Y52620D03*
D20*
X69250Y52620D03*
X59750Y52620D03*
D42*
X50750Y52620D03*
D24*
X39250Y52620D03*
D20*
X30250Y52620D03*
D18*
X93250Y52120D03*
D16*
X88250Y52120D03*
D20*
X79250Y52120D03*
X69250Y52120D03*
X59750Y52120D03*
D43*
X50500Y52120D03*
D26*
X39500Y52120D03*
D21*
X30500Y52120D03*
D17*
X93500Y51620D03*
D12*
X88250Y51620D03*
D21*
X79000Y51620D03*
X69000Y51620D03*
X60000Y51620D03*
D16*
X54250Y51620D03*
D19*
X47500Y51620D03*
D17*
X41500Y51620D03*
D22*
X30750Y51620D03*
D17*
X93500Y51120D03*
D22*
X79250Y51120D03*
X68750Y51120D03*
X60250Y51120D03*
D16*
X54250Y51120D03*
D18*
X46750Y51120D03*
D17*
X41500Y51120D03*
D25*
X31000Y51120D03*
D17*
X93500Y50620D03*
D25*
X79000Y50620D03*
X68500Y50620D03*
X60500Y50620D03*
D16*
X54250Y50620D03*
D17*
X46500Y50620D03*
D19*
X41000Y50620D03*
D25*
X31000Y50620D03*
D20*
X92750Y50120D03*
D23*
X79250Y50120D03*
D25*
X68500Y50120D03*
X60500Y50120D03*
D16*
X54250Y50120D03*
D18*
X46250Y50120D03*
D22*
X40250Y50120D03*
D25*
X31000Y50120D03*
X91500Y49620D03*
D26*
X79000Y49620D03*
D23*
X68250Y49620D03*
X60750Y49620D03*
D16*
X54250Y49620D03*
D17*
X46000Y49620D03*
D25*
X40000Y49620D03*
D22*
X30750Y49620D03*
D26*
X91000Y49120D03*
D18*
X81250Y49120D03*
D17*
X77000Y49120D03*
D44*
X64500Y49120D03*
D16*
X54250Y49120D03*
D17*
X46000Y49120D03*
D26*
X39500Y49120D03*
D14*
X32500Y49120D03*
D17*
X29500Y49120D03*
D26*
X90500Y48620D03*
D17*
X81500Y48620D03*
D18*
X76750Y48620D03*
D17*
X70000Y48620D03*
D25*
X64500Y48620D03*
D17*
X59000Y48620D03*
D16*
X54250Y48620D03*
D17*
X46000Y48620D03*
D24*
X39750Y48620D03*
D17*
X29500Y48620D03*
D26*
X90000Y48120D03*
D18*
X81750Y48120D03*
D17*
X76500Y48120D03*
X70000Y48120D03*
D22*
X64750Y48120D03*
D17*
X59000Y48120D03*
D16*
X54250Y48120D03*
D17*
X46000Y48120D03*
D27*
X39500Y48120D03*
D17*
X29500Y48120D03*
D45*
X89250Y47570D03*
D33*
X82000Y47570D03*
X76500Y47570D03*
X70000Y47570D03*
D39*
X64500Y47570D03*
D33*
X59000Y47570D03*
D31*
X54250Y47570D03*
D33*
X46000Y47570D03*
D46*
X39250Y47570D03*
D33*
X29500Y47570D03*
D20*
X88250Y47020D03*
D42*
X79250Y47020D03*
D17*
X70000Y47020D03*
D19*
X64500Y47020D03*
D17*
X59000Y47020D03*
D16*
X54250Y47020D03*
D17*
X46000Y47020D03*
D13*
X41500Y47020D03*
D18*
X36750Y47020D03*
D17*
X29500Y47020D03*
X87500Y46520D03*
D42*
X79250Y46520D03*
D17*
X70000Y46520D03*
X64500Y46520D03*
X59000Y46520D03*
D16*
X54250Y46520D03*
D17*
X46500Y46520D03*
D14*
X41500Y46520D03*
D17*
X36500Y46520D03*
X29500Y46520D03*
D12*
X93750Y46120D03*
D17*
X87500Y46120D03*
D47*
X79250Y46120D03*
D17*
X70000Y46120D03*
X64500Y46120D03*
X59000Y46120D03*
D16*
X54250Y46120D03*
D18*
X46750Y46120D03*
D17*
X36500Y46120D03*
X29500Y46120D03*
D16*
X93750Y45620D03*
D17*
X87500Y45620D03*
D47*
X79250Y45620D03*
D17*
X70000Y45620D03*
D13*
X64500Y45620D03*
D17*
X59000Y45620D03*
D16*
X54250Y45620D03*
D19*
X47000Y45620D03*
D48*
X42000Y45620D03*
D17*
X36500Y45620D03*
X29500Y45620D03*
D33*
X93500Y45070D03*
X87500Y45070D03*
D49*
X79250Y45070D03*
D33*
X70000Y45070D03*
X59000Y45070D03*
D50*
X50500Y45070D03*
D37*
X42000Y45070D03*
D35*
X36750Y45070D03*
D33*
X29500Y45070D03*
D30*
X90500Y44520D03*
D51*
X79250Y44520D03*
D17*
X70000Y44520D03*
X59000Y44520D03*
D42*
X50750Y44520D03*
D27*
X39500Y44520D03*
D17*
X29500Y44520D03*
D29*
X90750Y44020D03*
D18*
X83750Y44020D03*
X74750Y44020D03*
D17*
X70000Y44020D03*
X59000Y44020D03*
D42*
X50750Y44020D03*
D27*
X39500Y44020D03*
D17*
X29500Y44020D03*
D27*
X90500Y43620D03*
D17*
X84000Y43620D03*
X74500Y43620D03*
X70000Y43620D03*
X59000Y43620D03*
D30*
X51000Y43620D03*
D24*
X39750Y43620D03*
D17*
X29500Y43620D03*
D26*
X90500Y43120D03*
D17*
X84000Y43120D03*
D18*
X74250Y43120D03*
D17*
X70000Y43120D03*
X59000Y43120D03*
D27*
X51500Y43120D03*
D26*
X39500Y43120D03*
D17*
X29500Y43120D03*
D52*
X90500Y42570D03*
D31*
X84250Y42570D03*
X74250Y42570D03*
D33*
X70000Y42570D03*
X59000Y42570D03*
D46*
X51750Y42570D03*
D52*
X39500Y42570D03*
D33*
X29500Y42570D03*
D19*
X90500Y42020D03*
D13*
X84000Y42020D03*
X74500Y42020D03*
X70000Y42020D03*
X59000Y42020D03*
D23*
X52250Y42020D03*
D19*
X39500Y42020D03*
D13*
X29500Y42020D03*
D15*
X90750Y41520D03*
D48*
X39500Y41520D03*
D53*
X17680Y87200D02*
X5180Y87200D01*
X5180Y78500D02*
X5180Y60500D01*
X17680Y60500D02*
X17680Y78500D01*
M02*
