G04 EAGLE Gerber RS-274X export*
G75*
%MOMM*%
%FSLAX34Y34*%
%LPD*%
%INTop Copper*%
%IPPOS*%
%AMOC8*
5,1,8,0,0,1.08239X$1,22.5*%
G01*
%ADD10C,0.127000*%
%ADD11R,1.800000X1.000000*%
%ADD12R,0.600000X0.600000*%
%ADD13C,0.635000*%
%ADD14C,0.300000*%
%ADD15R,0.350000X1.450000*%
%ADD16C,0.352400*%
%ADD17C,0.101600*%
%ADD18R,1.000000X0.220000*%
%ADD19R,0.220000X1.000000*%
%ADD20C,0.406400*%
%ADD21C,0.203200*%
%ADD22C,0.200000*%
%ADD23C,0.114300*%
%ADD24C,0.152400*%

G36*
X177507Y213433D02*
X177507Y213433D01*
X177515Y213458D01*
X178235Y217456D01*
X178231Y217495D01*
X178237Y217533D01*
X178224Y217563D01*
X178221Y217595D01*
X178196Y217625D01*
X178180Y217661D01*
X178153Y217679D01*
X178133Y217704D01*
X178096Y217717D01*
X178064Y217738D01*
X178008Y217747D01*
X178001Y217749D01*
X177997Y217748D01*
X177990Y217749D01*
X169990Y217749D01*
X169926Y217731D01*
X169856Y217710D01*
X169855Y217710D01*
X169810Y217658D01*
X169764Y217605D01*
X169764Y217604D01*
X169743Y217533D01*
X169361Y214671D01*
X168542Y211922D01*
X167303Y209336D01*
X165675Y206975D01*
X163697Y204897D01*
X161419Y203155D01*
X158897Y201791D01*
X156191Y200838D01*
X153371Y200320D01*
X150490Y200249D01*
X147609Y200320D01*
X144789Y200838D01*
X142084Y201791D01*
X139561Y203155D01*
X137283Y204897D01*
X135305Y206975D01*
X133677Y209336D01*
X132438Y211922D01*
X131619Y214671D01*
X131237Y217533D01*
X131210Y217595D01*
X131180Y217661D01*
X131120Y217701D01*
X131064Y217738D01*
X130990Y217749D01*
X130478Y217749D01*
X130469Y217764D01*
X130439Y217792D01*
X130416Y217825D01*
X130324Y217901D01*
X130237Y217982D01*
X130202Y218002D01*
X130171Y218027D01*
X130063Y218078D01*
X129959Y218136D01*
X129920Y218146D01*
X129883Y218163D01*
X129766Y218185D01*
X129651Y218215D01*
X129591Y218219D01*
X129571Y218223D01*
X129570Y218223D01*
X129550Y218221D01*
X129490Y218225D01*
X129372Y218210D01*
X129253Y218203D01*
X129214Y218190D01*
X129174Y218185D01*
X129064Y218142D01*
X128950Y218105D01*
X128916Y218083D01*
X128879Y218068D01*
X128782Y217999D01*
X128682Y217935D01*
X128654Y217905D01*
X128621Y217882D01*
X128545Y217790D01*
X128507Y217749D01*
X122990Y217749D01*
X122953Y217739D01*
X122915Y217738D01*
X122888Y217719D01*
X122856Y217710D01*
X122831Y217681D01*
X122799Y217660D01*
X122786Y217630D01*
X122764Y217605D01*
X122758Y217567D01*
X122743Y217532D01*
X122744Y217474D01*
X122743Y217467D01*
X122744Y217464D01*
X122744Y217458D01*
X123438Y213447D01*
X123442Y213438D01*
X123447Y213411D01*
X124152Y211269D01*
X121403Y211269D01*
X121014Y212492D01*
X120369Y215633D01*
X120245Y216895D01*
X120240Y216919D01*
X120240Y216943D01*
X120213Y217077D01*
X120211Y217087D01*
X120210Y217091D01*
X120208Y217100D01*
X120159Y217285D01*
X120116Y217389D01*
X120081Y217495D01*
X120056Y217535D01*
X120038Y217579D01*
X119971Y217669D01*
X119911Y217764D01*
X119877Y217796D01*
X119849Y217834D01*
X119762Y217905D01*
X119680Y217982D01*
X119638Y218005D01*
X119602Y218035D01*
X119500Y218081D01*
X119401Y218136D01*
X119355Y218147D01*
X119313Y218167D01*
X119202Y218187D01*
X119093Y218215D01*
X119021Y218220D01*
X119000Y218223D01*
X118981Y218222D01*
X118933Y218225D01*
X59257Y218225D01*
X59119Y218208D01*
X58981Y218195D01*
X58962Y218188D01*
X58942Y218185D01*
X58812Y218134D01*
X58682Y218087D01*
X58665Y218076D01*
X58646Y218068D01*
X58533Y217987D01*
X58418Y217909D01*
X58405Y217893D01*
X58389Y217882D01*
X58300Y217774D01*
X58208Y217670D01*
X58199Y217652D01*
X58186Y217637D01*
X58127Y217511D01*
X58063Y217387D01*
X58059Y217367D01*
X58050Y217349D01*
X58024Y217212D01*
X57994Y217077D01*
X57994Y217056D01*
X57990Y217037D01*
X57999Y216898D01*
X58003Y216759D01*
X58009Y216739D01*
X58010Y216719D01*
X58053Y216587D01*
X58092Y216453D01*
X58102Y216436D01*
X58108Y216417D01*
X58183Y216299D01*
X58253Y216179D01*
X58272Y216158D01*
X58278Y216148D01*
X58293Y216134D01*
X58360Y216059D01*
X59523Y214895D01*
X59523Y211074D01*
X59538Y210956D01*
X59546Y210837D01*
X59558Y210799D01*
X59563Y210758D01*
X59607Y210648D01*
X59644Y210535D01*
X59665Y210500D01*
X59680Y210463D01*
X59750Y210367D01*
X59814Y210266D01*
X59843Y210238D01*
X59867Y210205D01*
X59959Y210129D01*
X60045Y210048D01*
X60081Y210028D01*
X60112Y210003D01*
X60220Y209952D01*
X60241Y209940D01*
X61642Y208540D01*
X61642Y206750D01*
X60377Y205485D01*
X54350Y205485D01*
X53085Y206750D01*
X53085Y207713D01*
X53068Y207850D01*
X53055Y207989D01*
X53048Y208008D01*
X53045Y208028D01*
X52994Y208157D01*
X52947Y208288D01*
X52936Y208305D01*
X52928Y208324D01*
X52847Y208436D01*
X52769Y208551D01*
X52753Y208565D01*
X52742Y208581D01*
X52634Y208670D01*
X52530Y208762D01*
X52512Y208771D01*
X52497Y208784D01*
X52371Y208843D01*
X52247Y208906D01*
X52227Y208911D01*
X52209Y208920D01*
X52073Y208946D01*
X51937Y208976D01*
X51916Y208975D01*
X51897Y208979D01*
X51758Y208971D01*
X51619Y208966D01*
X51599Y208961D01*
X51579Y208960D01*
X51447Y208917D01*
X51313Y208878D01*
X51296Y208868D01*
X51277Y208862D01*
X51159Y208787D01*
X51039Y208716D01*
X51018Y208698D01*
X51008Y208691D01*
X50994Y208676D01*
X50919Y208610D01*
X48429Y206120D01*
X44535Y206120D01*
X41782Y208873D01*
X41782Y212767D01*
X44535Y215520D01*
X48429Y215520D01*
X51231Y212717D01*
X51325Y212644D01*
X51414Y212566D01*
X51450Y212547D01*
X51482Y212522D01*
X51592Y212475D01*
X51698Y212421D01*
X51737Y212412D01*
X51774Y212396D01*
X51892Y212377D01*
X52008Y212351D01*
X52048Y212353D01*
X52088Y212346D01*
X52207Y212357D01*
X52326Y212361D01*
X52365Y212372D01*
X52405Y212376D01*
X52517Y212416D01*
X52631Y212449D01*
X52666Y212470D01*
X52704Y212484D01*
X52803Y212551D01*
X52905Y212611D01*
X52950Y212651D01*
X52967Y212662D01*
X52981Y212677D01*
X53026Y212717D01*
X54832Y214523D01*
X56367Y216059D01*
X56452Y216168D01*
X56541Y216275D01*
X56550Y216294D01*
X56562Y216310D01*
X56617Y216437D01*
X56677Y216563D01*
X56680Y216583D01*
X56689Y216602D01*
X56710Y216740D01*
X56736Y216876D01*
X56735Y216896D01*
X56738Y216916D01*
X56725Y217055D01*
X56717Y217193D01*
X56711Y217212D01*
X56709Y217232D01*
X56661Y217364D01*
X56619Y217495D01*
X56608Y217513D01*
X56601Y217532D01*
X56523Y217647D01*
X56449Y217764D01*
X56434Y217778D01*
X56422Y217795D01*
X56318Y217887D01*
X56217Y217982D01*
X56199Y217992D01*
X56184Y218005D01*
X56060Y218069D01*
X55938Y218136D01*
X55919Y218141D01*
X55901Y218150D01*
X55765Y218180D01*
X55630Y218215D01*
X55602Y218217D01*
X55590Y218220D01*
X55570Y218219D01*
X55470Y218225D01*
X18281Y218225D01*
X18131Y218206D01*
X17978Y218189D01*
X17972Y218186D01*
X17965Y218185D01*
X17825Y218130D01*
X17682Y218075D01*
X17676Y218071D01*
X17670Y218068D01*
X17547Y217979D01*
X17422Y217891D01*
X17418Y217885D01*
X17412Y217882D01*
X17316Y217765D01*
X17217Y217648D01*
X17214Y217642D01*
X17210Y217637D01*
X17145Y217499D01*
X17078Y217362D01*
X17077Y217355D01*
X17074Y217349D01*
X17046Y217200D01*
X17015Y217050D01*
X17016Y217043D01*
X17014Y217037D01*
X17024Y216885D01*
X17032Y216732D01*
X17034Y216726D01*
X17034Y216719D01*
X17081Y216574D01*
X17126Y216429D01*
X17130Y216423D01*
X17132Y216417D01*
X17215Y216286D01*
X17294Y216158D01*
X17299Y216154D01*
X17302Y216148D01*
X17414Y216042D01*
X17523Y215938D01*
X17529Y215935D01*
X17534Y215930D01*
X17667Y215857D01*
X17800Y215781D01*
X17809Y215779D01*
X17812Y215776D01*
X17823Y215774D01*
X17952Y215730D01*
X18642Y215545D01*
X19563Y215013D01*
X20315Y214261D01*
X20847Y213340D01*
X21123Y212312D01*
X21123Y210779D01*
X14812Y210779D01*
X14694Y210764D01*
X14575Y210757D01*
X14537Y210744D01*
X14497Y210739D01*
X14386Y210696D01*
X14273Y210659D01*
X14239Y210637D01*
X14201Y210622D01*
X14105Y210553D01*
X14004Y210489D01*
X13976Y210459D01*
X13944Y210436D01*
X13868Y210344D01*
X13786Y210257D01*
X13767Y210222D01*
X13741Y210191D01*
X13690Y210083D01*
X13633Y209979D01*
X13623Y209939D01*
X13605Y209903D01*
X13585Y209796D01*
X13581Y209826D01*
X13537Y209936D01*
X13501Y210049D01*
X13479Y210084D01*
X13464Y210121D01*
X13394Y210217D01*
X13331Y210318D01*
X13301Y210346D01*
X13277Y210379D01*
X13186Y210455D01*
X13099Y210536D01*
X13064Y210556D01*
X13032Y210581D01*
X12925Y210632D01*
X12820Y210690D01*
X12781Y210700D01*
X12745Y210717D01*
X12628Y210739D01*
X12512Y210769D01*
X12452Y210773D01*
X12432Y210777D01*
X12412Y210775D01*
X12352Y210779D01*
X6041Y210779D01*
X6041Y212312D01*
X6317Y213340D01*
X6849Y214261D01*
X7234Y214647D01*
X7331Y214771D01*
X7428Y214895D01*
X7428Y214897D01*
X7429Y214898D01*
X7491Y215041D01*
X7555Y215187D01*
X7555Y215188D01*
X7556Y215190D01*
X7582Y215353D01*
X7605Y215501D01*
X7605Y215502D01*
X7606Y215504D01*
X7590Y215664D01*
X7576Y215818D01*
X7576Y215819D01*
X7576Y215821D01*
X7523Y215966D01*
X7470Y216117D01*
X7469Y216119D01*
X7468Y216120D01*
X7383Y216246D01*
X7292Y216381D01*
X7290Y216382D01*
X7290Y216383D01*
X7172Y216487D01*
X7054Y216592D01*
X7052Y216593D01*
X7051Y216594D01*
X6909Y216666D01*
X6771Y216737D01*
X6769Y216737D01*
X6768Y216738D01*
X6614Y216773D01*
X6461Y216808D01*
X6459Y216808D01*
X6458Y216808D01*
X6302Y216803D01*
X6143Y216799D01*
X6141Y216798D01*
X6140Y216798D01*
X5983Y216753D01*
X5837Y216711D01*
X5835Y216710D01*
X5834Y216710D01*
X5831Y216708D01*
X5693Y216638D01*
X4509Y215942D01*
X4444Y215892D01*
X4373Y215850D01*
X4318Y215795D01*
X4257Y215747D01*
X4207Y215683D01*
X4149Y215624D01*
X4065Y215501D01*
X4062Y215496D01*
X4061Y215495D01*
X4058Y215491D01*
X2224Y212372D01*
X2223Y212371D01*
X2222Y212370D01*
X2159Y212223D01*
X2098Y212080D01*
X2098Y212079D01*
X2097Y212077D01*
X2063Y211920D01*
X1789Y210123D01*
X1789Y210107D01*
X1785Y210092D01*
X1775Y209932D01*
X1775Y119721D01*
X1792Y119583D01*
X1805Y119445D01*
X1812Y119426D01*
X1815Y119406D01*
X1866Y119276D01*
X1913Y119146D01*
X1924Y119129D01*
X1932Y119110D01*
X2013Y118998D01*
X2091Y118882D01*
X2107Y118869D01*
X2118Y118853D01*
X2225Y118764D01*
X2330Y118672D01*
X2348Y118663D01*
X2363Y118650D01*
X2489Y118591D01*
X2613Y118527D01*
X2633Y118523D01*
X2651Y118514D01*
X2787Y118488D01*
X2923Y118458D01*
X2944Y118458D01*
X2963Y118455D01*
X3102Y118463D01*
X3241Y118467D01*
X3261Y118473D01*
X3281Y118474D01*
X3413Y118517D01*
X3547Y118556D01*
X3564Y118566D01*
X3583Y118572D01*
X3701Y118647D01*
X3821Y118717D01*
X3842Y118736D01*
X3852Y118743D01*
X3866Y118757D01*
X3942Y118824D01*
X4036Y118919D01*
X11300Y118919D01*
X11417Y118801D01*
X11512Y118728D01*
X11601Y118649D01*
X11637Y118631D01*
X11669Y118606D01*
X11778Y118559D01*
X11884Y118504D01*
X11923Y118496D01*
X11961Y118480D01*
X12078Y118461D01*
X12194Y118435D01*
X12235Y118436D01*
X12275Y118430D01*
X12393Y118441D01*
X12512Y118444D01*
X12551Y118456D01*
X12591Y118459D01*
X12703Y118500D01*
X12818Y118533D01*
X12853Y118553D01*
X12891Y118567D01*
X12989Y118634D01*
X13092Y118694D01*
X13137Y118734D01*
X13154Y118746D01*
X13167Y118761D01*
X13212Y118801D01*
X13436Y119025D01*
X20700Y119025D01*
X20926Y118798D01*
X21021Y118725D01*
X21110Y118646D01*
X21146Y118628D01*
X21178Y118603D01*
X21287Y118556D01*
X21393Y118501D01*
X21432Y118493D01*
X21470Y118477D01*
X21587Y118458D01*
X21703Y118432D01*
X21744Y118433D01*
X21784Y118427D01*
X21902Y118438D01*
X22021Y118441D01*
X22060Y118453D01*
X22100Y118456D01*
X22212Y118497D01*
X22327Y118530D01*
X22362Y118550D01*
X22400Y118564D01*
X22498Y118631D01*
X22601Y118691D01*
X22646Y118731D01*
X22663Y118743D01*
X22676Y118758D01*
X22721Y118798D01*
X22948Y119025D01*
X26986Y119025D01*
X27084Y119037D01*
X27183Y119040D01*
X27241Y119057D01*
X27301Y119065D01*
X27393Y119101D01*
X27489Y119129D01*
X27541Y119159D01*
X27597Y119182D01*
X27677Y119240D01*
X27763Y119290D01*
X27838Y119356D01*
X27854Y119368D01*
X27862Y119378D01*
X27883Y119396D01*
X30168Y121681D01*
X32028Y123541D01*
X33892Y123541D01*
X34010Y123556D01*
X34129Y123563D01*
X34167Y123576D01*
X34208Y123581D01*
X34318Y123624D01*
X34431Y123661D01*
X34466Y123683D01*
X34503Y123698D01*
X34599Y123767D01*
X34700Y123831D01*
X34728Y123861D01*
X34761Y123884D01*
X34837Y123976D01*
X34918Y124063D01*
X34938Y124098D01*
X34963Y124129D01*
X35014Y124237D01*
X35072Y124341D01*
X35082Y124381D01*
X35099Y124417D01*
X35121Y124534D01*
X35151Y124649D01*
X35155Y124709D01*
X35159Y124729D01*
X35157Y124750D01*
X35161Y124810D01*
X35161Y133376D01*
X35146Y133494D01*
X35139Y133613D01*
X35126Y133651D01*
X35121Y133692D01*
X35078Y133802D01*
X35041Y133915D01*
X35019Y133950D01*
X35004Y133987D01*
X34935Y134083D01*
X34871Y134184D01*
X34841Y134212D01*
X34818Y134245D01*
X34726Y134321D01*
X34639Y134402D01*
X34604Y134422D01*
X34573Y134447D01*
X34465Y134498D01*
X34361Y134556D01*
X34321Y134566D01*
X34285Y134583D01*
X34168Y134605D01*
X34053Y134635D01*
X33993Y134639D01*
X33973Y134643D01*
X33952Y134641D01*
X33892Y134645D01*
X29844Y134645D01*
X29726Y134630D01*
X29607Y134623D01*
X29569Y134610D01*
X29528Y134605D01*
X29418Y134562D01*
X29305Y134525D01*
X29270Y134503D01*
X29233Y134488D01*
X29137Y134419D01*
X29036Y134355D01*
X29008Y134325D01*
X28975Y134302D01*
X28899Y134210D01*
X28818Y134123D01*
X28798Y134088D01*
X28773Y134057D01*
X28722Y133949D01*
X28664Y133845D01*
X28654Y133805D01*
X28637Y133769D01*
X28615Y133652D01*
X28585Y133537D01*
X28581Y133477D01*
X28577Y133457D01*
X28579Y133436D01*
X28575Y133376D01*
X28575Y126138D01*
X27682Y125245D01*
X20295Y125245D01*
X20199Y125294D01*
X20160Y125303D01*
X20123Y125319D01*
X20005Y125338D01*
X19889Y125364D01*
X19849Y125363D01*
X19809Y125369D01*
X19690Y125358D01*
X19571Y125354D01*
X19532Y125343D01*
X19492Y125339D01*
X19380Y125299D01*
X19266Y125266D01*
X19231Y125245D01*
X19193Y125232D01*
X19094Y125165D01*
X18992Y125104D01*
X18947Y125064D01*
X18930Y125053D01*
X18916Y125038D01*
X18871Y124998D01*
X18610Y124737D01*
X18031Y124402D01*
X17384Y124229D01*
X15549Y124229D01*
X15549Y129540D01*
X15534Y129658D01*
X15527Y129777D01*
X15525Y129784D01*
X15539Y129840D01*
X15543Y129900D01*
X15547Y129920D01*
X15545Y129940D01*
X15549Y130000D01*
X15549Y135513D01*
X15583Y135537D01*
X15684Y135601D01*
X15712Y135631D01*
X15745Y135654D01*
X15821Y135746D01*
X15902Y135833D01*
X15922Y135868D01*
X15947Y135899D01*
X15998Y136007D01*
X16056Y136111D01*
X16066Y136151D01*
X16083Y136187D01*
X16105Y136304D01*
X16135Y136419D01*
X16139Y136479D01*
X16143Y136499D01*
X16141Y136520D01*
X16145Y136580D01*
X16145Y140139D01*
X16128Y140278D01*
X16115Y140416D01*
X16108Y140435D01*
X16105Y140454D01*
X16054Y140584D01*
X16007Y140715D01*
X15996Y140732D01*
X15988Y140750D01*
X15906Y140863D01*
X15828Y140978D01*
X15813Y140991D01*
X15802Y141007D01*
X15694Y141096D01*
X15590Y141189D01*
X15572Y141198D01*
X15557Y141210D01*
X15430Y141270D01*
X15306Y141333D01*
X15287Y141337D01*
X15269Y141346D01*
X15132Y141372D01*
X14996Y141402D01*
X14976Y141402D01*
X14957Y141406D01*
X14817Y141397D01*
X14678Y141393D01*
X14659Y141387D01*
X14639Y141386D01*
X14625Y141381D01*
X11601Y141381D01*
X9675Y143307D01*
X9675Y146029D01*
X11601Y147955D01*
X14323Y147955D01*
X14913Y147365D01*
X15007Y147292D01*
X15097Y147213D01*
X15133Y147195D01*
X15165Y147170D01*
X15274Y147123D01*
X15380Y147068D01*
X15419Y147060D01*
X15457Y147043D01*
X15574Y147025D01*
X15690Y146999D01*
X15731Y147000D01*
X15771Y146994D01*
X15889Y147005D01*
X16008Y147008D01*
X16047Y147020D01*
X16087Y147023D01*
X16199Y147064D01*
X16314Y147097D01*
X16348Y147117D01*
X16387Y147131D01*
X16485Y147198D01*
X16588Y147258D01*
X16633Y147298D01*
X16650Y147310D01*
X16663Y147325D01*
X16708Y147365D01*
X17038Y147695D01*
X33604Y147695D01*
X33702Y147707D01*
X33801Y147710D01*
X33860Y147727D01*
X33920Y147735D01*
X34012Y147771D01*
X34107Y147799D01*
X34159Y147829D01*
X34215Y147852D01*
X34296Y147910D01*
X34381Y147960D01*
X34456Y148026D01*
X34473Y148038D01*
X34481Y148048D01*
X34502Y148066D01*
X39208Y152773D01*
X39281Y152867D01*
X39360Y152956D01*
X39378Y152992D01*
X39403Y153024D01*
X39450Y153133D01*
X39504Y153239D01*
X39513Y153278D01*
X39529Y153316D01*
X39548Y153433D01*
X39574Y153549D01*
X39573Y153590D01*
X39579Y153630D01*
X39568Y153748D01*
X39564Y153867D01*
X39553Y153906D01*
X39549Y153946D01*
X39509Y154058D01*
X39476Y154173D01*
X39455Y154208D01*
X39442Y154246D01*
X39375Y154344D01*
X39314Y154447D01*
X39274Y154492D01*
X39263Y154509D01*
X39248Y154522D01*
X39208Y154568D01*
X38246Y155530D01*
X34502Y159274D01*
X34424Y159334D01*
X34351Y159402D01*
X34298Y159431D01*
X34251Y159468D01*
X34160Y159508D01*
X34073Y159556D01*
X34014Y159571D01*
X33959Y159595D01*
X33861Y159610D01*
X33765Y159635D01*
X33665Y159641D01*
X33645Y159645D01*
X33632Y159643D01*
X33604Y159645D01*
X17038Y159645D01*
X16145Y160538D01*
X16145Y170260D01*
X16130Y170378D01*
X16123Y170497D01*
X16110Y170535D01*
X16105Y170576D01*
X16062Y170686D01*
X16025Y170799D01*
X16003Y170834D01*
X15988Y170871D01*
X15919Y170967D01*
X15855Y171068D01*
X15825Y171096D01*
X15802Y171129D01*
X15710Y171205D01*
X15623Y171286D01*
X15588Y171306D01*
X15557Y171331D01*
X15549Y171335D01*
X15549Y176840D01*
X15534Y176958D01*
X15527Y177077D01*
X15525Y177084D01*
X15539Y177140D01*
X15543Y177200D01*
X15547Y177220D01*
X15545Y177240D01*
X15549Y177300D01*
X15549Y182611D01*
X17384Y182611D01*
X18031Y182438D01*
X18610Y182103D01*
X18871Y181842D01*
X18965Y181769D01*
X19054Y181690D01*
X19090Y181672D01*
X19122Y181647D01*
X19232Y181600D01*
X19338Y181546D01*
X19377Y181537D01*
X19414Y181521D01*
X19532Y181502D01*
X19648Y181476D01*
X19688Y181477D01*
X19728Y181471D01*
X19847Y181482D01*
X19966Y181486D01*
X20005Y181497D01*
X20045Y181501D01*
X20157Y181541D01*
X20271Y181574D01*
X20306Y181595D01*
X27682Y181595D01*
X28575Y180702D01*
X28575Y173964D01*
X28590Y173846D01*
X28597Y173727D01*
X28610Y173689D01*
X28615Y173648D01*
X28658Y173538D01*
X28695Y173425D01*
X28717Y173390D01*
X28732Y173353D01*
X28801Y173257D01*
X28865Y173156D01*
X28895Y173128D01*
X28918Y173095D01*
X29010Y173019D01*
X29097Y172938D01*
X29132Y172918D01*
X29163Y172893D01*
X29271Y172842D01*
X29375Y172784D01*
X29415Y172774D01*
X29451Y172757D01*
X29568Y172735D01*
X29683Y172705D01*
X29743Y172701D01*
X29763Y172697D01*
X29784Y172699D01*
X29844Y172695D01*
X36302Y172695D01*
X37195Y171802D01*
X37195Y162856D01*
X37207Y162758D01*
X37210Y162658D01*
X37227Y162600D01*
X37235Y162540D01*
X37271Y162448D01*
X37299Y162353D01*
X37329Y162301D01*
X37352Y162244D01*
X37410Y162164D01*
X37460Y162079D01*
X37526Y162004D01*
X37538Y161987D01*
X37548Y161979D01*
X37566Y161958D01*
X41120Y158404D01*
X41199Y158344D01*
X41271Y158276D01*
X41324Y158247D01*
X41372Y158210D01*
X41462Y158170D01*
X41549Y158122D01*
X41608Y158107D01*
X41663Y158083D01*
X41761Y158068D01*
X41857Y158043D01*
X41957Y158037D01*
X41977Y158033D01*
X41990Y158035D01*
X42018Y158033D01*
X45751Y158033D01*
X45849Y158045D01*
X45948Y158048D01*
X46006Y158065D01*
X46066Y158073D01*
X46158Y158109D01*
X46253Y158137D01*
X46306Y158167D01*
X46362Y158190D01*
X46442Y158248D01*
X46527Y158298D01*
X46603Y158364D01*
X46619Y158376D01*
X46627Y158386D01*
X46648Y158404D01*
X46868Y158625D01*
X58132Y158625D01*
X59025Y157732D01*
X59025Y154240D01*
X59002Y154214D01*
X58984Y154178D01*
X58959Y154146D01*
X58911Y154037D01*
X58857Y153931D01*
X58849Y153891D01*
X58833Y153854D01*
X58814Y153736D01*
X58788Y153621D01*
X58789Y153580D01*
X58783Y153540D01*
X58794Y153421D01*
X58797Y153303D01*
X58809Y153264D01*
X58812Y153224D01*
X58853Y153111D01*
X58886Y152997D01*
X58906Y152962D01*
X58920Y152924D01*
X58987Y152826D01*
X59025Y152762D01*
X59025Y149302D01*
X59040Y149184D01*
X59047Y149065D01*
X59060Y149027D01*
X59065Y148986D01*
X59108Y148876D01*
X59145Y148763D01*
X59167Y148728D01*
X59182Y148691D01*
X59251Y148595D01*
X59315Y148494D01*
X59345Y148466D01*
X59368Y148433D01*
X59460Y148357D01*
X59547Y148276D01*
X59582Y148256D01*
X59613Y148231D01*
X59721Y148180D01*
X59825Y148122D01*
X59865Y148112D01*
X59901Y148095D01*
X60018Y148073D01*
X60133Y148043D01*
X60193Y148039D01*
X60213Y148035D01*
X60234Y148037D01*
X60294Y148033D01*
X66659Y148033D01*
X66757Y148045D01*
X66856Y148048D01*
X66914Y148065D01*
X66974Y148073D01*
X67066Y148109D01*
X67162Y148137D01*
X67214Y148167D01*
X67270Y148190D01*
X67350Y148248D01*
X67435Y148298D01*
X67511Y148364D01*
X67527Y148376D01*
X67535Y148386D01*
X67556Y148404D01*
X69759Y150607D01*
X72481Y150607D01*
X74407Y148681D01*
X74407Y145959D01*
X72481Y144033D01*
X71234Y144033D01*
X71136Y144021D01*
X71037Y144018D01*
X70978Y144001D01*
X70918Y143993D01*
X70852Y143967D01*
X60294Y143967D01*
X60176Y143952D01*
X60057Y143945D01*
X60019Y143932D01*
X59978Y143927D01*
X59868Y143884D01*
X59755Y143847D01*
X59720Y143825D01*
X59683Y143810D01*
X59587Y143741D01*
X59486Y143677D01*
X59458Y143647D01*
X59425Y143624D01*
X59349Y143532D01*
X59268Y143445D01*
X59248Y143410D01*
X59223Y143379D01*
X59172Y143271D01*
X59114Y143167D01*
X59104Y143127D01*
X59087Y143091D01*
X59065Y142974D01*
X59035Y142859D01*
X59031Y142799D01*
X59027Y142779D01*
X59029Y142758D01*
X59025Y142698D01*
X59025Y141056D01*
X59040Y140938D01*
X59047Y140819D01*
X59060Y140781D01*
X59065Y140740D01*
X59108Y140630D01*
X59145Y140517D01*
X59167Y140482D01*
X59182Y140445D01*
X59251Y140349D01*
X59315Y140248D01*
X59345Y140220D01*
X59368Y140187D01*
X59460Y140111D01*
X59547Y140030D01*
X59582Y140010D01*
X59613Y139985D01*
X59721Y139934D01*
X59825Y139876D01*
X59865Y139866D01*
X59901Y139849D01*
X60018Y139827D01*
X60133Y139797D01*
X60193Y139793D01*
X60213Y139789D01*
X60234Y139791D01*
X60294Y139787D01*
X63361Y139787D01*
X65287Y137861D01*
X65287Y135121D01*
X65263Y135090D01*
X65174Y134983D01*
X65165Y134964D01*
X65153Y134948D01*
X65097Y134820D01*
X65038Y134695D01*
X65034Y134675D01*
X65026Y134656D01*
X65005Y134519D01*
X64978Y134382D01*
X64980Y134362D01*
X64977Y134342D01*
X64990Y134204D01*
X64998Y134065D01*
X65004Y134046D01*
X65006Y134026D01*
X65053Y133895D01*
X65096Y133763D01*
X65107Y133745D01*
X65114Y133726D01*
X65192Y133611D01*
X65266Y133494D01*
X65281Y133480D01*
X65292Y133463D01*
X65397Y133371D01*
X65498Y133276D01*
X65516Y133266D01*
X65531Y133253D01*
X65655Y133190D01*
X65776Y133122D01*
X65796Y133117D01*
X65814Y133108D01*
X65950Y133078D01*
X66084Y133043D01*
X66112Y133041D01*
X66124Y133038D01*
X66145Y133039D01*
X66245Y133033D01*
X104459Y133033D01*
X104557Y133045D01*
X104656Y133048D01*
X104714Y133065D01*
X104774Y133073D01*
X104866Y133109D01*
X104962Y133137D01*
X105014Y133167D01*
X105070Y133190D01*
X105150Y133248D01*
X105235Y133298D01*
X105311Y133364D01*
X105327Y133376D01*
X105335Y133386D01*
X105356Y133404D01*
X106039Y134087D01*
X108761Y134087D01*
X110687Y132161D01*
X110687Y129439D01*
X108761Y127513D01*
X106039Y127513D01*
X104956Y128596D01*
X104878Y128656D01*
X104806Y128724D01*
X104753Y128753D01*
X104705Y128790D01*
X104614Y128830D01*
X104527Y128878D01*
X104469Y128893D01*
X104413Y128917D01*
X104315Y128932D01*
X104220Y128957D01*
X104119Y128963D01*
X104099Y128967D01*
X104087Y128965D01*
X104059Y128967D01*
X61284Y128967D01*
X61159Y128951D01*
X61034Y128942D01*
X61002Y128932D01*
X60969Y128927D01*
X60852Y128881D01*
X60732Y128841D01*
X60704Y128823D01*
X60673Y128810D01*
X60571Y128737D01*
X60466Y128668D01*
X60443Y128643D01*
X60416Y128624D01*
X60335Y128527D01*
X60250Y128434D01*
X60234Y128405D01*
X60213Y128379D01*
X60159Y128265D01*
X60100Y128154D01*
X60092Y128121D01*
X60077Y128091D01*
X60054Y127968D01*
X60023Y127845D01*
X60024Y127812D01*
X60017Y127779D01*
X60025Y127653D01*
X60026Y127527D01*
X60036Y127479D01*
X60037Y127461D01*
X60041Y127450D01*
X60041Y127269D01*
X52500Y127269D01*
X44959Y127269D01*
X44959Y127434D01*
X45132Y128081D01*
X45467Y128660D01*
X45603Y128797D01*
X45664Y128875D01*
X45732Y128947D01*
X45761Y129000D01*
X45798Y129048D01*
X45838Y129139D01*
X45886Y129225D01*
X45901Y129284D01*
X45925Y129340D01*
X45940Y129437D01*
X45965Y129533D01*
X45971Y129634D01*
X45975Y129654D01*
X45973Y129666D01*
X45975Y129694D01*
X45975Y132760D01*
X45998Y132786D01*
X46016Y132822D01*
X46041Y132854D01*
X46089Y132963D01*
X46143Y133069D01*
X46151Y133109D01*
X46167Y133146D01*
X46186Y133264D01*
X46212Y133379D01*
X46211Y133420D01*
X46217Y133460D01*
X46206Y133579D01*
X46203Y133697D01*
X46191Y133736D01*
X46188Y133776D01*
X46147Y133889D01*
X46114Y134003D01*
X46094Y134038D01*
X46080Y134076D01*
X46013Y134174D01*
X45975Y134238D01*
X45975Y137190D01*
X45960Y137308D01*
X45953Y137427D01*
X45940Y137465D01*
X45935Y137506D01*
X45892Y137616D01*
X45855Y137729D01*
X45833Y137764D01*
X45818Y137801D01*
X45749Y137897D01*
X45685Y137998D01*
X45655Y138026D01*
X45632Y138059D01*
X45540Y138135D01*
X45453Y138216D01*
X45418Y138236D01*
X45387Y138261D01*
X45279Y138312D01*
X45175Y138370D01*
X45135Y138380D01*
X45099Y138397D01*
X44982Y138419D01*
X44867Y138449D01*
X44807Y138453D01*
X44787Y138457D01*
X44766Y138455D01*
X44706Y138459D01*
X42078Y138459D01*
X41980Y138447D01*
X41881Y138444D01*
X41823Y138427D01*
X41763Y138419D01*
X41671Y138383D01*
X41575Y138355D01*
X41523Y138325D01*
X41467Y138302D01*
X41387Y138244D01*
X41302Y138194D01*
X41226Y138128D01*
X41210Y138116D01*
X41202Y138106D01*
X41181Y138088D01*
X40614Y137521D01*
X40554Y137443D01*
X40486Y137371D01*
X40457Y137318D01*
X40420Y137270D01*
X40380Y137179D01*
X40332Y137092D01*
X40317Y137034D01*
X40293Y136978D01*
X40278Y136880D01*
X40253Y136785D01*
X40247Y136684D01*
X40243Y136664D01*
X40245Y136652D01*
X40243Y136624D01*
X40243Y124810D01*
X40258Y124692D01*
X40265Y124573D01*
X40278Y124535D01*
X40283Y124494D01*
X40326Y124384D01*
X40363Y124271D01*
X40385Y124236D01*
X40400Y124199D01*
X40469Y124103D01*
X40533Y124002D01*
X40563Y123974D01*
X40586Y123941D01*
X40678Y123865D01*
X40765Y123784D01*
X40800Y123764D01*
X40831Y123739D01*
X40939Y123688D01*
X41043Y123630D01*
X41083Y123620D01*
X41119Y123603D01*
X41236Y123581D01*
X41351Y123551D01*
X41411Y123547D01*
X41431Y123543D01*
X41452Y123545D01*
X41512Y123541D01*
X43690Y123541D01*
X43808Y123556D01*
X43927Y123563D01*
X43965Y123576D01*
X44006Y123581D01*
X44116Y123624D01*
X44229Y123661D01*
X44264Y123683D01*
X44301Y123698D01*
X44397Y123767D01*
X44498Y123831D01*
X44526Y123861D01*
X44559Y123884D01*
X44635Y123976D01*
X44716Y124063D01*
X44736Y124098D01*
X44761Y124129D01*
X44812Y124237D01*
X44870Y124341D01*
X44880Y124381D01*
X44897Y124417D01*
X44919Y124534D01*
X44949Y124649D01*
X44953Y124709D01*
X44957Y124729D01*
X44957Y124731D01*
X52500Y124731D01*
X60041Y124731D01*
X60041Y124566D01*
X59868Y123919D01*
X59533Y123340D01*
X59397Y123203D01*
X59336Y123125D01*
X59268Y123053D01*
X59239Y123000D01*
X59202Y122952D01*
X59162Y122861D01*
X59114Y122775D01*
X59099Y122716D01*
X59075Y122660D01*
X59060Y122563D01*
X59035Y122467D01*
X59029Y122366D01*
X59025Y122346D01*
X59027Y122334D01*
X59025Y122306D01*
X59025Y119302D01*
X59040Y119184D01*
X59047Y119065D01*
X59060Y119027D01*
X59065Y118986D01*
X59108Y118876D01*
X59145Y118763D01*
X59167Y118728D01*
X59182Y118691D01*
X59251Y118595D01*
X59315Y118494D01*
X59345Y118466D01*
X59368Y118433D01*
X59460Y118357D01*
X59547Y118276D01*
X59582Y118256D01*
X59613Y118231D01*
X59721Y118180D01*
X59825Y118122D01*
X59865Y118112D01*
X59901Y118095D01*
X60018Y118073D01*
X60133Y118043D01*
X60193Y118039D01*
X60213Y118035D01*
X60234Y118037D01*
X60294Y118033D01*
X62054Y118033D01*
X62152Y118045D01*
X62251Y118048D01*
X62310Y118065D01*
X62370Y118073D01*
X62462Y118109D01*
X62557Y118137D01*
X62609Y118167D01*
X62665Y118190D01*
X62746Y118248D01*
X62831Y118298D01*
X62906Y118364D01*
X62923Y118376D01*
X62931Y118386D01*
X62952Y118404D01*
X64922Y120374D01*
X64982Y120453D01*
X65050Y120525D01*
X65079Y120578D01*
X65116Y120626D01*
X65156Y120716D01*
X65204Y120803D01*
X65219Y120862D01*
X65243Y120917D01*
X65258Y121015D01*
X65283Y121111D01*
X65289Y121211D01*
X65293Y121231D01*
X65291Y121244D01*
X65293Y121272D01*
X65293Y122519D01*
X67219Y124445D01*
X69941Y124445D01*
X71867Y122519D01*
X71867Y119797D01*
X69941Y117871D01*
X68694Y117871D01*
X68596Y117859D01*
X68497Y117856D01*
X68438Y117839D01*
X68378Y117831D01*
X68286Y117795D01*
X68191Y117767D01*
X68139Y117737D01*
X68083Y117714D01*
X68002Y117656D01*
X67917Y117606D01*
X67842Y117540D01*
X67825Y117528D01*
X67817Y117518D01*
X67796Y117500D01*
X66120Y115823D01*
X66047Y115729D01*
X65968Y115640D01*
X65950Y115604D01*
X65925Y115572D01*
X65878Y115462D01*
X65824Y115357D01*
X65815Y115317D01*
X65799Y115280D01*
X65780Y115162D01*
X65754Y115046D01*
X65755Y115006D01*
X65749Y114966D01*
X65760Y114847D01*
X65764Y114728D01*
X65775Y114690D01*
X65779Y114649D01*
X65819Y114537D01*
X65852Y114423D01*
X65872Y114388D01*
X65886Y114350D01*
X65953Y114251D01*
X66014Y114149D01*
X66053Y114104D01*
X66065Y114087D01*
X66080Y114073D01*
X66120Y114028D01*
X67787Y112361D01*
X67787Y109302D01*
X67802Y109184D01*
X67809Y109065D01*
X67822Y109027D01*
X67827Y108986D01*
X67870Y108876D01*
X67907Y108763D01*
X67929Y108728D01*
X67944Y108691D01*
X68013Y108595D01*
X68077Y108494D01*
X68107Y108466D01*
X68130Y108433D01*
X68222Y108357D01*
X68309Y108276D01*
X68344Y108256D01*
X68375Y108231D01*
X68483Y108180D01*
X68587Y108122D01*
X68627Y108112D01*
X68663Y108095D01*
X68780Y108073D01*
X68895Y108043D01*
X68955Y108039D01*
X68975Y108035D01*
X68996Y108037D01*
X69056Y108033D01*
X70642Y108033D01*
X72204Y106470D01*
X72970Y105704D01*
X74533Y104142D01*
X74533Y90606D01*
X72970Y89044D01*
X71134Y87208D01*
X71074Y87130D01*
X71006Y87057D01*
X70977Y87004D01*
X70940Y86957D01*
X70900Y86866D01*
X70852Y86779D01*
X70837Y86720D01*
X70813Y86665D01*
X70798Y86567D01*
X70773Y86471D01*
X70767Y86371D01*
X70763Y86351D01*
X70765Y86338D01*
X70763Y86310D01*
X70763Y76953D01*
X70780Y76816D01*
X70793Y76677D01*
X70800Y76658D01*
X70803Y76638D01*
X70854Y76509D01*
X70901Y76378D01*
X70912Y76361D01*
X70920Y76342D01*
X71001Y76230D01*
X71079Y76115D01*
X71095Y76101D01*
X71106Y76085D01*
X71214Y75996D01*
X71318Y75904D01*
X71336Y75895D01*
X71351Y75882D01*
X71477Y75823D01*
X71601Y75760D01*
X71621Y75755D01*
X71639Y75747D01*
X71775Y75721D01*
X71911Y75690D01*
X71932Y75691D01*
X71951Y75687D01*
X72090Y75695D01*
X72229Y75700D01*
X72249Y75705D01*
X72269Y75707D01*
X72401Y75749D01*
X72535Y75788D01*
X72552Y75798D01*
X72571Y75805D01*
X72689Y75879D01*
X72809Y75950D01*
X72830Y75968D01*
X72840Y75975D01*
X72854Y75990D01*
X72929Y76056D01*
X77876Y81002D01*
X77936Y81080D01*
X78004Y81152D01*
X78033Y81205D01*
X78070Y81253D01*
X78110Y81344D01*
X78158Y81431D01*
X78173Y81489D01*
X78197Y81545D01*
X78212Y81643D01*
X78237Y81739D01*
X78243Y81839D01*
X78247Y81859D01*
X78245Y81872D01*
X78247Y81900D01*
X78247Y83403D01*
X80173Y85329D01*
X82895Y85329D01*
X84810Y83414D01*
X84888Y83354D01*
X84960Y83286D01*
X85013Y83257D01*
X85061Y83220D01*
X85152Y83180D01*
X85239Y83132D01*
X85297Y83117D01*
X85353Y83093D01*
X85451Y83078D01*
X85546Y83053D01*
X85647Y83047D01*
X85667Y83043D01*
X85679Y83045D01*
X85707Y83043D01*
X87566Y83043D01*
X87601Y83027D01*
X87707Y82973D01*
X87746Y82964D01*
X87784Y82948D01*
X87901Y82930D01*
X88017Y82904D01*
X88058Y82905D01*
X88098Y82899D01*
X88216Y82910D01*
X88335Y82913D01*
X88374Y82925D01*
X88414Y82928D01*
X88526Y82969D01*
X88641Y83002D01*
X88676Y83022D01*
X88714Y83036D01*
X88812Y83103D01*
X88915Y83163D01*
X88960Y83203D01*
X88977Y83215D01*
X88990Y83230D01*
X89036Y83270D01*
X90841Y85075D01*
X93563Y85075D01*
X95489Y83149D01*
X95489Y80427D01*
X94670Y79608D01*
X94609Y79530D01*
X94541Y79457D01*
X94512Y79404D01*
X94475Y79357D01*
X94446Y79290D01*
X88761Y73605D01*
X88676Y73495D01*
X88588Y73388D01*
X88579Y73370D01*
X88567Y73354D01*
X88511Y73226D01*
X88452Y73100D01*
X88448Y73081D01*
X88440Y73062D01*
X88418Y72924D01*
X88392Y72788D01*
X88394Y72768D01*
X88390Y72748D01*
X88403Y72609D01*
X88412Y72471D01*
X88418Y72451D01*
X88420Y72431D01*
X88467Y72300D01*
X88510Y72168D01*
X88521Y72151D01*
X88528Y72132D01*
X88606Y72017D01*
X88680Y71899D01*
X88695Y71885D01*
X88706Y71869D01*
X88811Y71777D01*
X88912Y71681D01*
X88930Y71672D01*
X88945Y71658D01*
X89069Y71595D01*
X89190Y71528D01*
X89210Y71523D01*
X89228Y71514D01*
X89364Y71483D01*
X89498Y71448D01*
X89526Y71447D01*
X89538Y71444D01*
X89559Y71445D01*
X89659Y71438D01*
X89886Y71438D01*
X89985Y71451D01*
X90084Y71454D01*
X90142Y71470D01*
X90202Y71478D01*
X90294Y71514D01*
X90389Y71542D01*
X90441Y71573D01*
X90498Y71595D01*
X90578Y71653D01*
X90663Y71704D01*
X90738Y71770D01*
X90755Y71782D01*
X90763Y71791D01*
X90784Y71810D01*
X91603Y72629D01*
X94325Y72629D01*
X96251Y70703D01*
X96251Y69810D01*
X96266Y69692D01*
X96273Y69573D01*
X96286Y69535D01*
X96291Y69494D01*
X96334Y69384D01*
X96371Y69271D01*
X96393Y69236D01*
X96408Y69199D01*
X96477Y69103D01*
X96541Y69002D01*
X96571Y68974D01*
X96594Y68941D01*
X96686Y68865D01*
X96773Y68784D01*
X96808Y68764D01*
X96839Y68739D01*
X96947Y68688D01*
X97051Y68630D01*
X97091Y68620D01*
X97127Y68603D01*
X97244Y68581D01*
X97359Y68551D01*
X97419Y68547D01*
X97439Y68543D01*
X97460Y68545D01*
X97520Y68541D01*
X98934Y68541D01*
X99217Y68465D01*
X99322Y68451D01*
X99425Y68428D01*
X99478Y68429D01*
X99532Y68422D01*
X99637Y68434D01*
X99742Y68437D01*
X99794Y68452D01*
X99848Y68458D01*
X99946Y68496D01*
X100048Y68526D01*
X100094Y68553D01*
X100145Y68572D01*
X100231Y68634D01*
X100322Y68687D01*
X100386Y68744D01*
X100404Y68756D01*
X100414Y68768D01*
X100443Y68794D01*
X106144Y74494D01*
X106204Y74573D01*
X106272Y74645D01*
X106301Y74698D01*
X106338Y74746D01*
X106378Y74837D01*
X106395Y74867D01*
X108738Y77211D01*
X111882Y77211D01*
X114248Y74844D01*
X114262Y74811D01*
X114331Y74715D01*
X114395Y74614D01*
X114425Y74586D01*
X114448Y74553D01*
X114540Y74477D01*
X114627Y74396D01*
X114662Y74376D01*
X114693Y74351D01*
X114801Y74300D01*
X114905Y74242D01*
X114945Y74232D01*
X114981Y74215D01*
X115098Y74193D01*
X115213Y74163D01*
X115273Y74159D01*
X115293Y74155D01*
X115314Y74157D01*
X115374Y74153D01*
X117947Y74153D01*
X118991Y73110D01*
X119085Y73037D01*
X119174Y72958D01*
X119210Y72940D01*
X119242Y72915D01*
X119351Y72867D01*
X119457Y72813D01*
X119496Y72804D01*
X119534Y72788D01*
X119651Y72770D01*
X119767Y72744D01*
X119808Y72745D01*
X119848Y72739D01*
X119966Y72750D01*
X120085Y72753D01*
X120124Y72765D01*
X120164Y72768D01*
X120276Y72809D01*
X120391Y72842D01*
X120426Y72862D01*
X120464Y72876D01*
X120562Y72943D01*
X120665Y73003D01*
X120710Y73043D01*
X120727Y73055D01*
X120740Y73070D01*
X120786Y73110D01*
X121829Y74153D01*
X124551Y74153D01*
X126477Y72227D01*
X126477Y69451D01*
X126469Y69440D01*
X126413Y69312D01*
X126354Y69187D01*
X126350Y69167D01*
X126342Y69148D01*
X126321Y69011D01*
X126294Y68874D01*
X126296Y68854D01*
X126293Y68834D01*
X126306Y68696D01*
X126314Y68557D01*
X126320Y68538D01*
X126322Y68518D01*
X126369Y68387D01*
X126412Y68255D01*
X126423Y68237D01*
X126430Y68218D01*
X126508Y68104D01*
X126582Y67986D01*
X126597Y67972D01*
X126608Y67955D01*
X126713Y67863D01*
X126814Y67768D01*
X126832Y67758D01*
X126847Y67745D01*
X126971Y67681D01*
X127092Y67614D01*
X127112Y67609D01*
X127130Y67600D01*
X127266Y67570D01*
X127400Y67535D01*
X127428Y67533D01*
X127440Y67530D01*
X127461Y67531D01*
X127561Y67525D01*
X129260Y67525D01*
X129286Y67502D01*
X129322Y67484D01*
X129354Y67459D01*
X129463Y67411D01*
X129569Y67357D01*
X129609Y67349D01*
X129646Y67333D01*
X129764Y67314D01*
X129879Y67288D01*
X129920Y67289D01*
X129960Y67283D01*
X130079Y67294D01*
X130197Y67297D01*
X130236Y67309D01*
X130276Y67312D01*
X130389Y67353D01*
X130503Y67386D01*
X130538Y67406D01*
X130576Y67420D01*
X130674Y67487D01*
X130738Y67525D01*
X134260Y67525D01*
X134286Y67502D01*
X134322Y67484D01*
X134354Y67459D01*
X134463Y67412D01*
X134569Y67357D01*
X134608Y67349D01*
X134646Y67333D01*
X134763Y67314D01*
X134879Y67288D01*
X134920Y67289D01*
X134960Y67283D01*
X135078Y67294D01*
X135197Y67297D01*
X135236Y67309D01*
X135276Y67312D01*
X135388Y67353D01*
X135503Y67386D01*
X135537Y67406D01*
X135576Y67420D01*
X135674Y67487D01*
X135738Y67525D01*
X139260Y67525D01*
X139286Y67502D01*
X139322Y67484D01*
X139354Y67459D01*
X139463Y67411D01*
X139569Y67357D01*
X139609Y67349D01*
X139646Y67333D01*
X139764Y67314D01*
X139879Y67288D01*
X139920Y67289D01*
X139960Y67283D01*
X140079Y67294D01*
X140197Y67297D01*
X140236Y67309D01*
X140276Y67312D01*
X140389Y67353D01*
X140503Y67386D01*
X140538Y67406D01*
X140576Y67420D01*
X140674Y67487D01*
X140738Y67525D01*
X144260Y67525D01*
X144286Y67502D01*
X144322Y67484D01*
X144354Y67459D01*
X144463Y67412D01*
X144569Y67357D01*
X144608Y67349D01*
X144646Y67333D01*
X144763Y67314D01*
X144879Y67288D01*
X144920Y67289D01*
X144960Y67283D01*
X145078Y67294D01*
X145197Y67297D01*
X145236Y67309D01*
X145276Y67312D01*
X145388Y67353D01*
X145503Y67386D01*
X145537Y67406D01*
X145576Y67420D01*
X145674Y67487D01*
X145738Y67525D01*
X149232Y67525D01*
X149280Y67476D01*
X149390Y67391D01*
X149497Y67302D01*
X149516Y67293D01*
X149532Y67281D01*
X149659Y67226D01*
X149785Y67166D01*
X149805Y67163D01*
X149824Y67155D01*
X149961Y67133D01*
X150098Y67107D01*
X150118Y67108D01*
X150138Y67105D01*
X150277Y67118D01*
X150415Y67126D01*
X150434Y67133D01*
X150454Y67134D01*
X150586Y67182D01*
X150717Y67224D01*
X150734Y67235D01*
X150754Y67242D01*
X150869Y67320D01*
X150986Y67395D01*
X151000Y67409D01*
X151017Y67421D01*
X151109Y67525D01*
X151204Y67626D01*
X151214Y67644D01*
X151227Y67659D01*
X151291Y67783D01*
X151358Y67905D01*
X151363Y67924D01*
X151372Y67942D01*
X151402Y68078D01*
X151437Y68213D01*
X151439Y68241D01*
X151442Y68253D01*
X151441Y68273D01*
X151447Y68373D01*
X151447Y114460D01*
X151432Y114578D01*
X151425Y114697D01*
X151412Y114735D01*
X151407Y114776D01*
X151364Y114886D01*
X151327Y114999D01*
X151305Y115034D01*
X151290Y115071D01*
X151221Y115167D01*
X151157Y115268D01*
X151127Y115296D01*
X151104Y115329D01*
X151012Y115405D01*
X150925Y115486D01*
X150890Y115506D01*
X150859Y115531D01*
X150751Y115582D01*
X150647Y115640D01*
X150607Y115650D01*
X150571Y115667D01*
X150454Y115689D01*
X150339Y115719D01*
X150279Y115723D01*
X150259Y115727D01*
X150238Y115725D01*
X150178Y115729D01*
X147639Y115729D01*
X145713Y117655D01*
X145713Y120377D01*
X147639Y122303D01*
X150178Y122303D01*
X150296Y122318D01*
X150415Y122325D01*
X150453Y122338D01*
X150494Y122343D01*
X150604Y122386D01*
X150717Y122423D01*
X150752Y122445D01*
X150789Y122460D01*
X150885Y122529D01*
X150986Y122593D01*
X151014Y122623D01*
X151047Y122646D01*
X151123Y122738D01*
X151204Y122825D01*
X151224Y122860D01*
X151249Y122891D01*
X151300Y122999D01*
X151358Y123103D01*
X151368Y123143D01*
X151385Y123179D01*
X151407Y123296D01*
X151437Y123411D01*
X151441Y123471D01*
X151445Y123491D01*
X151443Y123512D01*
X151447Y123572D01*
X151447Y142864D01*
X151432Y142982D01*
X151425Y143101D01*
X151412Y143139D01*
X151407Y143180D01*
X151364Y143290D01*
X151327Y143403D01*
X151305Y143438D01*
X151290Y143475D01*
X151221Y143571D01*
X151157Y143672D01*
X151127Y143700D01*
X151104Y143733D01*
X151012Y143809D01*
X150925Y143890D01*
X150890Y143910D01*
X150859Y143935D01*
X150751Y143986D01*
X150647Y144044D01*
X150607Y144054D01*
X150571Y144071D01*
X150454Y144093D01*
X150339Y144123D01*
X150279Y144127D01*
X150259Y144131D01*
X150238Y144129D01*
X150178Y144133D01*
X148439Y144133D01*
X146513Y146059D01*
X146513Y148781D01*
X148439Y150707D01*
X150178Y150707D01*
X150296Y150722D01*
X150415Y150729D01*
X150453Y150742D01*
X150494Y150747D01*
X150604Y150790D01*
X150717Y150827D01*
X150752Y150849D01*
X150789Y150864D01*
X150885Y150933D01*
X150986Y150997D01*
X151014Y151027D01*
X151047Y151050D01*
X151123Y151142D01*
X151204Y151229D01*
X151224Y151264D01*
X151249Y151295D01*
X151300Y151403D01*
X151358Y151507D01*
X151368Y151547D01*
X151385Y151583D01*
X151407Y151700D01*
X151437Y151815D01*
X151441Y151875D01*
X151445Y151895D01*
X151443Y151916D01*
X151447Y151976D01*
X151447Y156452D01*
X151435Y156550D01*
X151432Y156649D01*
X151415Y156708D01*
X151407Y156768D01*
X151371Y156860D01*
X151343Y156955D01*
X151313Y157007D01*
X151290Y157063D01*
X151232Y157144D01*
X151182Y157229D01*
X151116Y157304D01*
X151104Y157321D01*
X151094Y157329D01*
X151076Y157350D01*
X141077Y167348D01*
X140983Y167421D01*
X140894Y167500D01*
X140858Y167518D01*
X140826Y167543D01*
X140717Y167590D01*
X140611Y167644D01*
X140572Y167653D01*
X140534Y167669D01*
X140417Y167688D01*
X140301Y167714D01*
X140260Y167713D01*
X140220Y167719D01*
X140102Y167708D01*
X139983Y167704D01*
X139944Y167693D01*
X139904Y167689D01*
X139792Y167649D01*
X139677Y167616D01*
X139642Y167595D01*
X139604Y167582D01*
X139506Y167515D01*
X139403Y167454D01*
X139358Y167414D01*
X139341Y167403D01*
X139328Y167388D01*
X139282Y167348D01*
X137288Y165353D01*
X115922Y165353D01*
X115824Y165341D01*
X115725Y165338D01*
X115666Y165321D01*
X115606Y165313D01*
X115514Y165277D01*
X115419Y165249D01*
X115367Y165219D01*
X115311Y165196D01*
X115230Y165138D01*
X115145Y165088D01*
X115070Y165022D01*
X115053Y165010D01*
X115045Y165000D01*
X115024Y164982D01*
X111100Y161058D01*
X111040Y160979D01*
X110972Y160907D01*
X110943Y160854D01*
X110906Y160806D01*
X110866Y160716D01*
X110818Y160629D01*
X110803Y160570D01*
X110779Y160515D01*
X110764Y160417D01*
X110739Y160321D01*
X110733Y160221D01*
X110729Y160201D01*
X110731Y160188D01*
X110729Y160160D01*
X110729Y158913D01*
X108803Y156987D01*
X106081Y156987D01*
X104155Y158913D01*
X104155Y161635D01*
X105198Y162679D01*
X105283Y162788D01*
X105372Y162895D01*
X105381Y162914D01*
X105393Y162930D01*
X105449Y163057D01*
X105508Y163183D01*
X105512Y163203D01*
X105520Y163222D01*
X105542Y163360D01*
X105568Y163496D01*
X105566Y163516D01*
X105570Y163536D01*
X105556Y163675D01*
X105548Y163813D01*
X105542Y163832D01*
X105540Y163852D01*
X105493Y163983D01*
X105450Y164115D01*
X105439Y164133D01*
X105432Y164152D01*
X105354Y164267D01*
X105280Y164384D01*
X105265Y164398D01*
X105254Y164415D01*
X105149Y164507D01*
X105048Y164602D01*
X105030Y164612D01*
X105015Y164625D01*
X104891Y164689D01*
X104770Y164756D01*
X104750Y164761D01*
X104732Y164770D01*
X104596Y164800D01*
X104462Y164835D01*
X104434Y164837D01*
X104422Y164840D01*
X104401Y164839D01*
X104301Y164845D01*
X103808Y164845D01*
X102548Y166105D01*
X102454Y166178D01*
X102365Y166257D01*
X102329Y166275D01*
X102297Y166300D01*
X102187Y166347D01*
X102082Y166401D01*
X102042Y166410D01*
X102005Y166426D01*
X101887Y166445D01*
X101771Y166471D01*
X101731Y166470D01*
X101691Y166476D01*
X101572Y166465D01*
X101453Y166461D01*
X101415Y166450D01*
X101374Y166446D01*
X101262Y166406D01*
X101148Y166373D01*
X101113Y166353D01*
X101075Y166339D01*
X100976Y166272D01*
X100874Y166211D01*
X100829Y166172D01*
X100812Y166160D01*
X100798Y166145D01*
X100753Y166105D01*
X99361Y164713D01*
X96639Y164713D01*
X94713Y166639D01*
X94713Y168206D01*
X94698Y168324D01*
X94691Y168443D01*
X94678Y168481D01*
X94673Y168522D01*
X94630Y168632D01*
X94593Y168745D01*
X94571Y168780D01*
X94556Y168817D01*
X94487Y168913D01*
X94423Y169014D01*
X94393Y169042D01*
X94370Y169075D01*
X94278Y169151D01*
X94191Y169232D01*
X94156Y169252D01*
X94125Y169277D01*
X94017Y169328D01*
X93913Y169386D01*
X93873Y169396D01*
X93837Y169413D01*
X93720Y169435D01*
X93605Y169465D01*
X93545Y169469D01*
X93525Y169473D01*
X93504Y169471D01*
X93444Y169475D01*
X90740Y169475D01*
X90714Y169498D01*
X90678Y169516D01*
X90646Y169541D01*
X90537Y169589D01*
X90431Y169643D01*
X90391Y169651D01*
X90354Y169667D01*
X90236Y169686D01*
X90121Y169712D01*
X90080Y169711D01*
X90040Y169717D01*
X89921Y169706D01*
X89803Y169703D01*
X89764Y169691D01*
X89724Y169688D01*
X89611Y169647D01*
X89497Y169614D01*
X89462Y169594D01*
X89424Y169580D01*
X89326Y169513D01*
X89262Y169475D01*
X85740Y169475D01*
X85714Y169498D01*
X85678Y169516D01*
X85646Y169541D01*
X85537Y169588D01*
X85431Y169643D01*
X85392Y169651D01*
X85354Y169667D01*
X85237Y169686D01*
X85121Y169712D01*
X85080Y169711D01*
X85040Y169717D01*
X84922Y169706D01*
X84803Y169703D01*
X84764Y169691D01*
X84724Y169688D01*
X84612Y169647D01*
X84497Y169614D01*
X84463Y169594D01*
X84424Y169580D01*
X84326Y169513D01*
X84262Y169475D01*
X80476Y169475D01*
X80378Y169463D01*
X80279Y169460D01*
X80220Y169443D01*
X80160Y169435D01*
X80068Y169399D01*
X79973Y169371D01*
X79921Y169341D01*
X79865Y169318D01*
X79784Y169260D01*
X79699Y169210D01*
X79624Y169144D01*
X79607Y169132D01*
X79599Y169122D01*
X79578Y169104D01*
X79442Y168967D01*
X75558Y168967D01*
X75422Y169104D01*
X75343Y169164D01*
X75271Y169232D01*
X75218Y169261D01*
X75170Y169298D01*
X75080Y169338D01*
X74993Y169386D01*
X74934Y169401D01*
X74879Y169425D01*
X74781Y169440D01*
X74685Y169465D01*
X74585Y169471D01*
X74565Y169475D01*
X74552Y169473D01*
X74524Y169475D01*
X70768Y169475D01*
X69875Y170368D01*
X69875Y180032D01*
X69860Y180150D01*
X69853Y180269D01*
X69840Y180307D01*
X69835Y180348D01*
X69792Y180458D01*
X69755Y180571D01*
X69733Y180606D01*
X69718Y180643D01*
X69649Y180739D01*
X69585Y180840D01*
X69555Y180868D01*
X69532Y180901D01*
X69440Y180977D01*
X69353Y181058D01*
X69318Y181078D01*
X69287Y181103D01*
X69179Y181154D01*
X69075Y181212D01*
X69035Y181222D01*
X68999Y181239D01*
X68882Y181261D01*
X68767Y181291D01*
X68707Y181295D01*
X68687Y181299D01*
X68666Y181297D01*
X68606Y181301D01*
X66362Y181301D01*
X66264Y181289D01*
X66165Y181286D01*
X66106Y181269D01*
X66046Y181261D01*
X65954Y181225D01*
X65859Y181197D01*
X65807Y181167D01*
X65751Y181144D01*
X65670Y181086D01*
X65585Y181036D01*
X65510Y180970D01*
X65493Y180958D01*
X65485Y180948D01*
X65464Y180930D01*
X62094Y177560D01*
X62034Y177481D01*
X61966Y177409D01*
X61937Y177356D01*
X61900Y177308D01*
X61860Y177218D01*
X61812Y177131D01*
X61797Y177072D01*
X61773Y177017D01*
X61758Y176919D01*
X61733Y176823D01*
X61727Y176723D01*
X61723Y176703D01*
X61725Y176690D01*
X61723Y176662D01*
X61723Y174083D01*
X61735Y173985D01*
X61738Y173886D01*
X61755Y173828D01*
X61763Y173768D01*
X61799Y173676D01*
X61827Y173580D01*
X61857Y173528D01*
X61880Y173472D01*
X61938Y173392D01*
X61988Y173307D01*
X62054Y173231D01*
X62066Y173215D01*
X62076Y173207D01*
X62094Y173186D01*
X62977Y172303D01*
X62977Y169581D01*
X61051Y167655D01*
X60182Y167655D01*
X60064Y167640D01*
X59945Y167633D01*
X59907Y167620D01*
X59866Y167615D01*
X59756Y167572D01*
X59643Y167535D01*
X59608Y167513D01*
X59571Y167498D01*
X59475Y167429D01*
X59374Y167365D01*
X59346Y167335D01*
X59313Y167312D01*
X59237Y167220D01*
X59156Y167133D01*
X59136Y167098D01*
X59111Y167067D01*
X59060Y166959D01*
X59002Y166855D01*
X58992Y166815D01*
X58975Y166779D01*
X58953Y166662D01*
X58923Y166547D01*
X58919Y166486D01*
X58915Y166467D01*
X58917Y166446D01*
X58913Y166386D01*
X58913Y163782D01*
X56690Y161559D01*
X53546Y161559D01*
X51319Y163786D01*
X51306Y163890D01*
X51293Y164029D01*
X51286Y164048D01*
X51283Y164068D01*
X51232Y164197D01*
X51185Y164329D01*
X51174Y164345D01*
X51166Y164364D01*
X51085Y164477D01*
X51007Y164592D01*
X50991Y164605D01*
X50980Y164621D01*
X50872Y164710D01*
X50768Y164802D01*
X50750Y164811D01*
X50735Y164824D01*
X50609Y164884D01*
X50485Y164947D01*
X50465Y164951D01*
X50447Y164960D01*
X50311Y164986D01*
X50175Y165016D01*
X50154Y165016D01*
X50135Y165020D01*
X49996Y165011D01*
X49857Y165007D01*
X49837Y165001D01*
X49817Y165000D01*
X49685Y164957D01*
X49551Y164918D01*
X49534Y164908D01*
X49515Y164902D01*
X49397Y164827D01*
X49277Y164757D01*
X49256Y164738D01*
X49246Y164732D01*
X49232Y164717D01*
X49157Y164650D01*
X47335Y162829D01*
X44613Y162829D01*
X42687Y164755D01*
X42687Y167477D01*
X43570Y168360D01*
X43630Y168438D01*
X43698Y168510D01*
X43727Y168563D01*
X43764Y168611D01*
X43804Y168702D01*
X43852Y168789D01*
X43867Y168847D01*
X43891Y168903D01*
X43906Y169001D01*
X43931Y169096D01*
X43937Y169197D01*
X43941Y169217D01*
X43939Y169229D01*
X43941Y169257D01*
X43941Y175594D01*
X48681Y180334D01*
X48754Y180428D01*
X48833Y180517D01*
X48851Y180553D01*
X48876Y180585D01*
X48923Y180694D01*
X48977Y180800D01*
X48986Y180840D01*
X49002Y180877D01*
X49021Y180995D01*
X49047Y181111D01*
X49046Y181151D01*
X49052Y181191D01*
X49041Y181310D01*
X49037Y181428D01*
X49026Y181467D01*
X49022Y181508D01*
X48982Y181620D01*
X48949Y181734D01*
X48928Y181769D01*
X48915Y181807D01*
X48848Y181905D01*
X48787Y182008D01*
X48748Y182053D01*
X48736Y182070D01*
X48721Y182083D01*
X48681Y182129D01*
X47005Y183805D01*
X47005Y186527D01*
X48931Y188453D01*
X50432Y188453D01*
X50530Y188465D01*
X50629Y188468D01*
X50688Y188485D01*
X50748Y188493D01*
X50840Y188529D01*
X50935Y188557D01*
X50987Y188587D01*
X51043Y188610D01*
X51124Y188668D01*
X51209Y188718D01*
X51284Y188784D01*
X51301Y188796D01*
X51309Y188806D01*
X51330Y188824D01*
X58340Y195835D01*
X78602Y195835D01*
X89233Y185203D01*
X89328Y185130D01*
X89417Y185051D01*
X89453Y185033D01*
X89485Y185008D01*
X89594Y184961D01*
X89700Y184907D01*
X89739Y184898D01*
X89777Y184882D01*
X89894Y184863D01*
X90010Y184837D01*
X90051Y184838D01*
X90091Y184832D01*
X90209Y184843D01*
X90328Y184847D01*
X90367Y184858D01*
X90407Y184862D01*
X90520Y184902D01*
X90634Y184935D01*
X90668Y184956D01*
X90707Y184969D01*
X90805Y185036D01*
X90908Y185097D01*
X90953Y185137D01*
X90970Y185148D01*
X90983Y185163D01*
X91028Y185203D01*
X93358Y187533D01*
X95752Y187533D01*
X95890Y187550D01*
X96028Y187563D01*
X96047Y187570D01*
X96067Y187573D01*
X96197Y187624D01*
X96328Y187671D01*
X96344Y187682D01*
X96363Y187690D01*
X96476Y187771D01*
X96591Y187849D01*
X96604Y187865D01*
X96620Y187876D01*
X96709Y187984D01*
X96801Y188088D01*
X96810Y188106D01*
X96823Y188121D01*
X96883Y188247D01*
X96946Y188371D01*
X96950Y188391D01*
X96959Y188409D01*
X96985Y188546D01*
X97015Y188681D01*
X97015Y188702D01*
X97019Y188721D01*
X97010Y188860D01*
X97006Y188999D01*
X97000Y189019D01*
X96999Y189039D01*
X96956Y189171D01*
X96917Y189305D01*
X96907Y189322D01*
X96901Y189341D01*
X96826Y189459D01*
X96756Y189579D01*
X96737Y189600D01*
X96731Y189610D01*
X96716Y189624D01*
X96649Y189700D01*
X96607Y189742D01*
X96272Y190321D01*
X96099Y190968D01*
X96099Y192803D01*
X101410Y192803D01*
X101528Y192818D01*
X101647Y192825D01*
X101685Y192837D01*
X101725Y192843D01*
X101836Y192886D01*
X101949Y192923D01*
X101983Y192945D01*
X102021Y192960D01*
X102117Y193029D01*
X102218Y193093D01*
X102246Y193123D01*
X102278Y193146D01*
X102354Y193238D01*
X102436Y193325D01*
X102455Y193360D01*
X102481Y193391D01*
X102501Y193435D01*
X102577Y193490D01*
X102678Y193553D01*
X102706Y193583D01*
X102739Y193607D01*
X102815Y193698D01*
X102896Y193785D01*
X102916Y193820D01*
X102941Y193852D01*
X102992Y193959D01*
X103050Y194064D01*
X103060Y194103D01*
X103077Y194139D01*
X103099Y194256D01*
X103129Y194372D01*
X103133Y194432D01*
X103137Y194452D01*
X103135Y194472D01*
X103139Y194532D01*
X103139Y200986D01*
X103141Y201011D01*
X103145Y201031D01*
X103143Y201052D01*
X103147Y201112D01*
X103147Y203606D01*
X103132Y203724D01*
X103125Y203843D01*
X103123Y203850D01*
X103137Y203906D01*
X103141Y203966D01*
X103145Y203986D01*
X103143Y204006D01*
X103147Y204066D01*
X103147Y209377D01*
X104982Y209377D01*
X105629Y209204D01*
X106208Y208869D01*
X106469Y208608D01*
X106563Y208535D01*
X106652Y208456D01*
X106688Y208438D01*
X106720Y208413D01*
X106830Y208366D01*
X106936Y208312D01*
X106975Y208303D01*
X107012Y208287D01*
X107130Y208268D01*
X107246Y208242D01*
X107286Y208243D01*
X107326Y208237D01*
X107445Y208248D01*
X107564Y208252D01*
X107603Y208263D01*
X107643Y208267D01*
X107755Y208307D01*
X107869Y208340D01*
X107904Y208361D01*
X115280Y208361D01*
X116173Y207468D01*
X116173Y205930D01*
X116185Y205832D01*
X116188Y205733D01*
X116205Y205675D01*
X116213Y205615D01*
X116249Y205523D01*
X116277Y205427D01*
X116307Y205375D01*
X116330Y205319D01*
X116388Y205239D01*
X116438Y205154D01*
X116504Y205078D01*
X116516Y205062D01*
X116526Y205054D01*
X116544Y205033D01*
X122329Y199248D01*
X122407Y199188D01*
X122479Y199120D01*
X122532Y199091D01*
X122580Y199054D01*
X122671Y199014D01*
X122758Y198966D01*
X122816Y198951D01*
X122872Y198927D01*
X122970Y198912D01*
X123065Y198887D01*
X123166Y198881D01*
X123186Y198877D01*
X123198Y198879D01*
X123226Y198877D01*
X125888Y198877D01*
X125990Y198890D01*
X126093Y198893D01*
X126147Y198909D01*
X126203Y198917D01*
X126299Y198954D01*
X126398Y198984D01*
X126446Y199013D01*
X126499Y199034D01*
X126582Y199094D01*
X126671Y199147D01*
X126710Y199187D01*
X126756Y199220D01*
X126822Y199300D01*
X126894Y199373D01*
X126923Y199422D01*
X126959Y199465D01*
X127003Y199559D01*
X127055Y199647D01*
X127071Y199702D01*
X127095Y199753D01*
X127114Y199854D01*
X127142Y199953D01*
X127144Y200010D01*
X127154Y200065D01*
X127148Y200168D01*
X127151Y200271D01*
X127138Y200326D01*
X127135Y200383D01*
X127103Y200481D01*
X127080Y200581D01*
X127054Y200632D01*
X127037Y200685D01*
X126982Y200772D01*
X126935Y200864D01*
X126878Y200936D01*
X126867Y200954D01*
X126856Y200964D01*
X126835Y200991D01*
X126729Y201110D01*
X124858Y203714D01*
X123271Y206500D01*
X122294Y208731D01*
X125126Y208731D01*
X126560Y205874D01*
X126567Y205867D01*
X126579Y205843D01*
X128221Y203506D01*
X128221Y200146D01*
X128236Y200028D01*
X128243Y199909D01*
X128255Y199871D01*
X128260Y199830D01*
X128304Y199720D01*
X128341Y199607D01*
X128363Y199572D01*
X128377Y199535D01*
X128447Y199439D01*
X128511Y199338D01*
X128541Y199310D01*
X128564Y199277D01*
X128656Y199201D01*
X128743Y199120D01*
X128778Y199100D01*
X128809Y199075D01*
X128917Y199024D01*
X129021Y198966D01*
X129060Y198956D01*
X129097Y198939D01*
X129214Y198917D01*
X129329Y198887D01*
X129389Y198883D01*
X129409Y198879D01*
X129410Y198879D01*
X129430Y198881D01*
X129490Y198877D01*
X129608Y198892D01*
X129727Y198899D01*
X129765Y198912D01*
X129806Y198917D01*
X129916Y198960D01*
X130030Y198997D01*
X130064Y199019D01*
X130101Y199034D01*
X130198Y199103D01*
X130298Y199167D01*
X130326Y199197D01*
X130359Y199220D01*
X130435Y199312D01*
X130516Y199399D01*
X130536Y199434D01*
X130562Y199465D01*
X130612Y199573D01*
X130670Y199677D01*
X130680Y199717D01*
X130697Y199753D01*
X130719Y199870D01*
X130749Y199985D01*
X130753Y200045D01*
X130757Y200065D01*
X130756Y200086D01*
X130759Y200146D01*
X130759Y200569D01*
X131744Y199532D01*
X131753Y199527D01*
X131771Y199507D01*
X134976Y196998D01*
X134985Y196994D01*
X135007Y196978D01*
X138544Y194965D01*
X138554Y194963D01*
X138577Y194949D01*
X142372Y193477D01*
X142382Y193476D01*
X142407Y193466D01*
X146376Y192566D01*
X146386Y192567D01*
X146413Y192560D01*
X150471Y192251D01*
X150481Y192254D01*
X150511Y192252D01*
X154559Y192588D01*
X154568Y192592D01*
X154595Y192594D01*
X158551Y193514D01*
X158560Y193519D01*
X158586Y193525D01*
X162368Y195009D01*
X162375Y195015D01*
X162400Y195025D01*
X165926Y197042D01*
X165933Y197049D01*
X165957Y197062D01*
X169153Y199569D01*
X169159Y199577D01*
X169180Y199593D01*
X171979Y202537D01*
X171984Y202546D01*
X172002Y202565D01*
X174345Y205884D01*
X174348Y205893D01*
X174364Y205915D01*
X175791Y208731D01*
X178630Y208731D01*
X177652Y206525D01*
X176060Y203752D01*
X174189Y201160D01*
X172060Y198775D01*
X169694Y196625D01*
X167117Y194731D01*
X164359Y193115D01*
X161447Y191794D01*
X158415Y190782D01*
X155293Y190090D01*
X152117Y189726D01*
X151027Y189715D01*
X150979Y189708D01*
X150508Y189709D01*
X150506Y189709D01*
X150504Y189709D01*
X150500Y189709D01*
X150491Y189709D01*
X150062Y189705D01*
X150058Y189705D01*
X149975Y189710D01*
X148880Y189713D01*
X145693Y190057D01*
X144219Y190375D01*
X142559Y190734D01*
X142000Y190917D01*
X141998Y190917D01*
X141997Y190918D01*
X141844Y190947D01*
X141688Y190978D01*
X141686Y190978D01*
X141684Y190978D01*
X141525Y190968D01*
X141371Y190959D01*
X141369Y190958D01*
X141367Y190958D01*
X141218Y190910D01*
X141068Y190862D01*
X141066Y190861D01*
X141065Y190860D01*
X140930Y190775D01*
X140799Y190692D01*
X140798Y190691D01*
X140796Y190690D01*
X140686Y190574D01*
X140580Y190461D01*
X140579Y190460D01*
X140578Y190458D01*
X140502Y190321D01*
X140426Y190183D01*
X140425Y190182D01*
X140424Y190180D01*
X140386Y190031D01*
X140345Y189876D01*
X140345Y189874D01*
X140345Y189872D01*
X140335Y189711D01*
X140335Y187722D01*
X140350Y187604D01*
X140357Y187485D01*
X140370Y187447D01*
X140375Y187406D01*
X140418Y187296D01*
X140455Y187183D01*
X140477Y187148D01*
X140492Y187111D01*
X140561Y187015D01*
X140625Y186914D01*
X140655Y186886D01*
X140678Y186853D01*
X140770Y186777D01*
X140857Y186696D01*
X140892Y186676D01*
X140923Y186651D01*
X141031Y186600D01*
X141135Y186542D01*
X141175Y186532D01*
X141211Y186515D01*
X141328Y186493D01*
X141443Y186463D01*
X141503Y186459D01*
X141523Y186455D01*
X141544Y186457D01*
X141604Y186453D01*
X152222Y186453D01*
X156493Y182182D01*
X156493Y171851D01*
X156505Y171753D01*
X156508Y171654D01*
X156525Y171596D01*
X156533Y171536D01*
X156569Y171444D01*
X156597Y171348D01*
X156627Y171296D01*
X156650Y171240D01*
X156708Y171160D01*
X156758Y171075D01*
X156824Y170999D01*
X156836Y170983D01*
X156846Y170975D01*
X156864Y170954D01*
X157747Y170071D01*
X157747Y167349D01*
X155821Y165423D01*
X155716Y165423D01*
X155578Y165406D01*
X155439Y165393D01*
X155420Y165386D01*
X155400Y165383D01*
X155271Y165332D01*
X155140Y165285D01*
X155123Y165274D01*
X155104Y165266D01*
X154992Y165185D01*
X154877Y165107D01*
X154864Y165091D01*
X154847Y165080D01*
X154758Y164972D01*
X154666Y164868D01*
X154657Y164850D01*
X154644Y164835D01*
X154585Y164709D01*
X154522Y164585D01*
X154517Y164565D01*
X154509Y164547D01*
X154483Y164411D01*
X154452Y164275D01*
X154453Y164254D01*
X154449Y164235D01*
X154458Y164096D01*
X154462Y163957D01*
X154467Y163937D01*
X154469Y163917D01*
X154512Y163785D01*
X154550Y163651D01*
X154561Y163634D01*
X154567Y163615D01*
X154641Y163497D01*
X154712Y163377D01*
X154730Y163356D01*
X154737Y163346D01*
X154752Y163332D01*
X154818Y163257D01*
X157599Y160476D01*
X157599Y153266D01*
X157618Y153115D01*
X157635Y152963D01*
X157638Y152957D01*
X157639Y152950D01*
X157695Y152809D01*
X157749Y152666D01*
X157753Y152661D01*
X157756Y152654D01*
X157846Y152530D01*
X157933Y152407D01*
X157938Y152403D01*
X157942Y152397D01*
X158061Y152299D01*
X158176Y152202D01*
X158182Y152199D01*
X158187Y152194D01*
X158325Y152130D01*
X158462Y152063D01*
X158469Y152062D01*
X158475Y152059D01*
X158624Y152030D01*
X158774Y152000D01*
X158781Y152000D01*
X158787Y151999D01*
X158938Y152008D01*
X159092Y152016D01*
X159098Y152018D01*
X159105Y152019D01*
X159248Y152065D01*
X159395Y152111D01*
X159401Y152115D01*
X159407Y152117D01*
X159536Y152198D01*
X159666Y152278D01*
X159670Y152283D01*
X159676Y152287D01*
X159781Y152398D01*
X159886Y152508D01*
X159889Y152514D01*
X159894Y152519D01*
X159967Y152651D01*
X160043Y152785D01*
X160045Y152793D01*
X160048Y152797D01*
X160050Y152807D01*
X160094Y152937D01*
X160132Y153081D01*
X160467Y153660D01*
X160604Y153797D01*
X160664Y153875D01*
X160732Y153947D01*
X160761Y154000D01*
X160798Y154048D01*
X160838Y154139D01*
X160886Y154226D01*
X160901Y154284D01*
X160925Y154340D01*
X160940Y154438D01*
X160965Y154533D01*
X160971Y154633D01*
X160975Y154654D01*
X160973Y154666D01*
X160975Y154694D01*
X160975Y157732D01*
X161868Y158625D01*
X173289Y158625D01*
X173333Y158613D01*
X173389Y158589D01*
X173487Y158574D01*
X173583Y158549D01*
X173683Y158543D01*
X173703Y158539D01*
X173715Y158541D01*
X173743Y158539D01*
X189050Y158539D01*
X190910Y156679D01*
X191055Y156535D01*
X191133Y156474D01*
X191205Y156406D01*
X191258Y156377D01*
X191306Y156340D01*
X191397Y156300D01*
X191484Y156252D01*
X191542Y156237D01*
X191598Y156213D01*
X191696Y156198D01*
X191791Y156173D01*
X191892Y156167D01*
X191912Y156163D01*
X191924Y156165D01*
X191952Y156163D01*
X196113Y156163D01*
X196209Y156114D01*
X196248Y156105D01*
X196285Y156089D01*
X196403Y156070D01*
X196519Y156044D01*
X196559Y156045D01*
X196599Y156039D01*
X196718Y156050D01*
X196837Y156054D01*
X196876Y156065D01*
X196916Y156069D01*
X197028Y156109D01*
X197142Y156142D01*
X197177Y156163D01*
X197215Y156176D01*
X197314Y156243D01*
X197416Y156304D01*
X197461Y156344D01*
X197478Y156355D01*
X197492Y156370D01*
X197537Y156410D01*
X197798Y156671D01*
X198377Y157006D01*
X199024Y157179D01*
X200859Y157179D01*
X200859Y151868D01*
X200874Y151750D01*
X200881Y151631D01*
X200883Y151624D01*
X200869Y151568D01*
X200865Y151508D01*
X200861Y151488D01*
X200863Y151468D01*
X200859Y151408D01*
X200859Y146097D01*
X199024Y146097D01*
X198377Y146270D01*
X198009Y146483D01*
X197886Y146535D01*
X197767Y146591D01*
X197740Y146596D01*
X197715Y146607D01*
X197584Y146626D01*
X197454Y146651D01*
X197428Y146649D01*
X197401Y146653D01*
X197269Y146639D01*
X197137Y146631D01*
X197111Y146623D01*
X197085Y146620D01*
X196960Y146574D01*
X196835Y146533D01*
X196812Y146519D01*
X196786Y146509D01*
X196678Y146434D01*
X196566Y146363D01*
X196547Y146343D01*
X196525Y146328D01*
X196439Y146228D01*
X196348Y146131D01*
X196335Y146108D01*
X196317Y146087D01*
X196258Y145969D01*
X196194Y145853D01*
X196188Y145827D01*
X196176Y145802D01*
X196148Y145673D01*
X196115Y145545D01*
X196113Y145507D01*
X196109Y145491D01*
X196110Y145469D01*
X196105Y145384D01*
X196105Y143267D01*
X194021Y141183D01*
X192226Y141183D01*
X192088Y141166D01*
X191949Y141153D01*
X191930Y141146D01*
X191910Y141143D01*
X191781Y141092D01*
X191650Y141045D01*
X191633Y141034D01*
X191614Y141026D01*
X191502Y140945D01*
X191387Y140867D01*
X191373Y140851D01*
X191357Y140840D01*
X191268Y140732D01*
X191176Y140628D01*
X191167Y140610D01*
X191154Y140595D01*
X191095Y140469D01*
X191032Y140345D01*
X191027Y140325D01*
X191019Y140307D01*
X190993Y140171D01*
X190962Y140035D01*
X190963Y140014D01*
X190959Y139995D01*
X190968Y139856D01*
X190972Y139717D01*
X190977Y139697D01*
X190979Y139677D01*
X191022Y139545D01*
X191060Y139411D01*
X191071Y139394D01*
X191077Y139375D01*
X191151Y139257D01*
X191222Y139137D01*
X191240Y139116D01*
X191247Y139106D01*
X191262Y139092D01*
X191328Y139017D01*
X203579Y126766D01*
X203579Y42134D01*
X200394Y38950D01*
X200334Y38871D01*
X200266Y38799D01*
X200237Y38746D01*
X200200Y38698D01*
X200160Y38608D01*
X200112Y38521D01*
X200097Y38462D01*
X200073Y38407D01*
X200058Y38309D01*
X200033Y38213D01*
X200027Y38113D01*
X200023Y38093D01*
X200025Y38080D01*
X200023Y38052D01*
X200023Y37937D01*
X200040Y37799D01*
X200053Y37661D01*
X200060Y37642D01*
X200063Y37621D01*
X200114Y37492D01*
X200161Y37361D01*
X200172Y37344D01*
X200180Y37326D01*
X200261Y37213D01*
X200339Y37098D01*
X200355Y37085D01*
X200366Y37068D01*
X200474Y36980D01*
X200578Y36888D01*
X200596Y36878D01*
X200611Y36866D01*
X200737Y36806D01*
X200861Y36743D01*
X200881Y36739D01*
X200899Y36730D01*
X201036Y36704D01*
X201171Y36673D01*
X201192Y36674D01*
X201211Y36670D01*
X201350Y36679D01*
X201489Y36683D01*
X201509Y36689D01*
X201529Y36690D01*
X201661Y36733D01*
X201795Y36771D01*
X201812Y36782D01*
X201831Y36788D01*
X201949Y36862D01*
X202069Y36933D01*
X202090Y36952D01*
X202100Y36958D01*
X202114Y36973D01*
X202189Y37039D01*
X202997Y37847D01*
X205943Y37847D01*
X206147Y37643D01*
X206251Y37562D01*
X206353Y37476D01*
X206377Y37465D01*
X206398Y37448D01*
X206520Y37396D01*
X206639Y37338D01*
X206665Y37333D01*
X206690Y37322D01*
X206821Y37301D01*
X206951Y37275D01*
X206977Y37276D01*
X207004Y37272D01*
X207136Y37285D01*
X207268Y37291D01*
X207294Y37299D01*
X207320Y37302D01*
X207445Y37347D01*
X207572Y37386D01*
X207595Y37401D01*
X207620Y37410D01*
X207729Y37484D01*
X207842Y37554D01*
X207861Y37573D01*
X207883Y37588D01*
X207971Y37688D01*
X208063Y37783D01*
X208083Y37815D01*
X208093Y37827D01*
X208103Y37846D01*
X208150Y37918D01*
X209208Y39797D01*
X212143Y41653D01*
X212696Y41692D01*
X212768Y41706D01*
X212840Y41710D01*
X212923Y41737D01*
X212972Y41747D01*
X213791Y41770D01*
X213806Y41772D01*
X213844Y41772D01*
X213876Y41774D01*
X214081Y41789D01*
X214102Y41793D01*
X214187Y41801D01*
X214889Y41910D01*
X215005Y41943D01*
X215194Y41998D01*
X215195Y41998D01*
X215339Y42071D01*
X216686Y42866D01*
X216750Y42915D01*
X216819Y42956D01*
X216875Y43012D01*
X216938Y43060D01*
X216987Y43124D01*
X217044Y43181D01*
X217131Y43309D01*
X217133Y43311D01*
X217133Y43312D01*
X217134Y43314D01*
X217929Y44661D01*
X217929Y44662D01*
X217930Y44662D01*
X217996Y44816D01*
X218055Y44953D01*
X218055Y44954D01*
X218090Y45111D01*
X218210Y45883D01*
X218211Y45900D01*
X218215Y45917D01*
X218225Y46078D01*
X218225Y52559D01*
X218208Y52697D01*
X218195Y52835D01*
X218188Y52854D01*
X218185Y52874D01*
X218134Y53003D01*
X218087Y53134D01*
X218076Y53151D01*
X218068Y53170D01*
X217987Y53282D01*
X217909Y53397D01*
X217893Y53411D01*
X217882Y53427D01*
X217774Y53516D01*
X217670Y53608D01*
X217652Y53617D01*
X217637Y53630D01*
X217511Y53689D01*
X217387Y53752D01*
X217367Y53757D01*
X217349Y53766D01*
X217212Y53792D01*
X217077Y53822D01*
X217056Y53821D01*
X217037Y53825D01*
X216898Y53817D01*
X216759Y53812D01*
X216739Y53807D01*
X216719Y53806D01*
X216587Y53763D01*
X216453Y53724D01*
X216436Y53714D01*
X216417Y53708D01*
X216299Y53633D01*
X216179Y53562D01*
X216158Y53544D01*
X216148Y53537D01*
X216134Y53522D01*
X216059Y53456D01*
X215053Y52450D01*
X211159Y52450D01*
X208406Y55203D01*
X208406Y59097D01*
X211159Y61850D01*
X215053Y61850D01*
X216059Y60844D01*
X216168Y60759D01*
X216275Y60670D01*
X216294Y60661D01*
X216310Y60649D01*
X216437Y60594D01*
X216563Y60534D01*
X216583Y60531D01*
X216602Y60523D01*
X216740Y60501D01*
X216876Y60475D01*
X216896Y60476D01*
X216916Y60473D01*
X217055Y60486D01*
X217193Y60494D01*
X217212Y60501D01*
X217232Y60503D01*
X217364Y60550D01*
X217495Y60592D01*
X217513Y60603D01*
X217532Y60610D01*
X217647Y60688D01*
X217764Y60763D01*
X217778Y60777D01*
X217795Y60789D01*
X217887Y60893D01*
X217982Y60994D01*
X217992Y61012D01*
X218005Y61027D01*
X218069Y61151D01*
X218136Y61273D01*
X218141Y61292D01*
X218150Y61310D01*
X218180Y61446D01*
X218215Y61581D01*
X218217Y61609D01*
X218220Y61621D01*
X218219Y61641D01*
X218225Y61741D01*
X218225Y209932D01*
X218223Y209947D01*
X218225Y209963D01*
X218211Y210123D01*
X217937Y211920D01*
X217937Y211921D01*
X217936Y211923D01*
X217892Y212077D01*
X217850Y212226D01*
X217849Y212227D01*
X217849Y212229D01*
X217776Y212372D01*
X215942Y215491D01*
X215892Y215556D01*
X215850Y215627D01*
X215795Y215682D01*
X215747Y215743D01*
X215683Y215793D01*
X215624Y215851D01*
X215501Y215935D01*
X215496Y215938D01*
X215495Y215939D01*
X215491Y215942D01*
X212372Y217776D01*
X212371Y217777D01*
X212370Y217778D01*
X212223Y217841D01*
X212080Y217902D01*
X212079Y217902D01*
X212077Y217903D01*
X211920Y217937D01*
X210123Y218211D01*
X210108Y218211D01*
X210092Y218215D01*
X209932Y218225D01*
X182047Y218225D01*
X181936Y218211D01*
X181824Y218205D01*
X181779Y218191D01*
X181732Y218185D01*
X181627Y218144D01*
X181520Y218111D01*
X181480Y218086D01*
X181436Y218068D01*
X181345Y218002D01*
X181250Y217943D01*
X181217Y217909D01*
X181179Y217882D01*
X181107Y217795D01*
X181029Y217714D01*
X181006Y217673D01*
X180976Y217637D01*
X180928Y217535D01*
X180873Y217437D01*
X180850Y217368D01*
X180841Y217349D01*
X180837Y217331D01*
X180821Y217285D01*
X180768Y217085D01*
X180765Y217066D01*
X180759Y217049D01*
X180732Y216890D01*
X180597Y215616D01*
X179933Y212490D01*
X179537Y211269D01*
X176784Y211269D01*
X177506Y213423D01*
X177507Y213433D01*
G37*
G36*
X10589Y40192D02*
X10589Y40192D01*
X10753Y40202D01*
X10754Y40202D01*
X10755Y40202D01*
X10898Y40249D01*
X11056Y40300D01*
X11057Y40300D01*
X11181Y40379D01*
X11325Y40469D01*
X11325Y40470D01*
X11326Y40470D01*
X11431Y40581D01*
X11543Y40701D01*
X11544Y40702D01*
X11619Y40838D01*
X11697Y40979D01*
X11697Y40980D01*
X11698Y40981D01*
X11735Y41125D01*
X11777Y41287D01*
X11777Y41288D01*
X11777Y41289D01*
X11787Y41449D01*
X11787Y68954D01*
X13350Y70516D01*
X16004Y73170D01*
X16064Y73248D01*
X16132Y73321D01*
X16161Y73374D01*
X16198Y73421D01*
X16238Y73512D01*
X16286Y73599D01*
X16301Y73658D01*
X16325Y73713D01*
X16340Y73811D01*
X16365Y73907D01*
X16371Y74007D01*
X16375Y74027D01*
X16373Y74040D01*
X16375Y74068D01*
X16375Y75315D01*
X18301Y77241D01*
X19698Y77241D01*
X19816Y77256D01*
X19935Y77263D01*
X19973Y77276D01*
X20014Y77281D01*
X20124Y77324D01*
X20237Y77361D01*
X20272Y77383D01*
X20309Y77398D01*
X20405Y77467D01*
X20506Y77531D01*
X20534Y77561D01*
X20567Y77584D01*
X20643Y77676D01*
X20724Y77763D01*
X20744Y77798D01*
X20769Y77829D01*
X20820Y77937D01*
X20878Y78041D01*
X20888Y78081D01*
X20905Y78117D01*
X20927Y78234D01*
X20957Y78349D01*
X20961Y78409D01*
X20965Y78429D01*
X20963Y78450D01*
X20967Y78510D01*
X20967Y87342D01*
X24842Y91216D01*
X24902Y91295D01*
X24970Y91367D01*
X24999Y91420D01*
X25036Y91468D01*
X25076Y91558D01*
X25124Y91645D01*
X25139Y91704D01*
X25163Y91759D01*
X25178Y91857D01*
X25203Y91953D01*
X25209Y92053D01*
X25213Y92073D01*
X25211Y92086D01*
X25213Y92114D01*
X25213Y92361D01*
X27139Y94287D01*
X28872Y94287D01*
X28990Y94302D01*
X29109Y94309D01*
X29147Y94322D01*
X29188Y94327D01*
X29298Y94370D01*
X29411Y94407D01*
X29446Y94429D01*
X29483Y94444D01*
X29579Y94513D01*
X29680Y94577D01*
X29708Y94607D01*
X29741Y94630D01*
X29817Y94722D01*
X29898Y94809D01*
X29918Y94844D01*
X29943Y94875D01*
X29994Y94983D01*
X30052Y95087D01*
X30062Y95127D01*
X30079Y95163D01*
X30101Y95280D01*
X30131Y95395D01*
X30135Y95455D01*
X30139Y95475D01*
X30137Y95496D01*
X30141Y95556D01*
X30141Y97690D01*
X30126Y97808D01*
X30119Y97927D01*
X30106Y97965D01*
X30101Y98006D01*
X30058Y98116D01*
X30021Y98229D01*
X29999Y98264D01*
X29984Y98301D01*
X29914Y98398D01*
X29851Y98498D01*
X29821Y98526D01*
X29798Y98559D01*
X29706Y98635D01*
X29619Y98716D01*
X29584Y98736D01*
X29553Y98761D01*
X29445Y98812D01*
X29341Y98870D01*
X29301Y98880D01*
X29265Y98897D01*
X29148Y98919D01*
X29033Y98949D01*
X28973Y98953D01*
X28953Y98957D01*
X28932Y98955D01*
X28872Y98959D01*
X28079Y98959D01*
X28079Y104270D01*
X28064Y104388D01*
X28057Y104507D01*
X28044Y104545D01*
X28039Y104585D01*
X27996Y104696D01*
X27959Y104809D01*
X27937Y104843D01*
X27922Y104881D01*
X27853Y104977D01*
X27789Y105078D01*
X27759Y105106D01*
X27736Y105138D01*
X27644Y105214D01*
X27557Y105296D01*
X27522Y105315D01*
X27491Y105341D01*
X27447Y105361D01*
X27392Y105437D01*
X27329Y105538D01*
X27299Y105566D01*
X27275Y105599D01*
X27184Y105675D01*
X27097Y105756D01*
X27062Y105776D01*
X27030Y105801D01*
X26923Y105852D01*
X26818Y105910D01*
X26779Y105920D01*
X26743Y105937D01*
X26626Y105959D01*
X26510Y105989D01*
X26450Y105993D01*
X26430Y105997D01*
X26410Y105995D01*
X26350Y105999D01*
X17298Y105999D01*
X17180Y105984D01*
X17061Y105977D01*
X17023Y105964D01*
X16983Y105959D01*
X16872Y105916D01*
X16759Y105879D01*
X16725Y105857D01*
X16687Y105842D01*
X16591Y105773D01*
X16490Y105709D01*
X16462Y105679D01*
X16430Y105656D01*
X16354Y105564D01*
X16272Y105477D01*
X16253Y105442D01*
X16227Y105411D01*
X16207Y105368D01*
X16130Y105312D01*
X16030Y105249D01*
X16002Y105219D01*
X15969Y105195D01*
X15893Y105104D01*
X15812Y105017D01*
X15792Y104982D01*
X15767Y104950D01*
X15716Y104843D01*
X15658Y104738D01*
X15648Y104699D01*
X15631Y104663D01*
X15609Y104546D01*
X15579Y104430D01*
X15575Y104370D01*
X15571Y104350D01*
X15573Y104330D01*
X15569Y104270D01*
X15569Y98959D01*
X14176Y98959D01*
X14058Y98944D01*
X13939Y98937D01*
X13901Y98924D01*
X13860Y98919D01*
X13750Y98876D01*
X13637Y98839D01*
X13602Y98817D01*
X13565Y98802D01*
X13469Y98733D01*
X13368Y98669D01*
X13340Y98639D01*
X13307Y98616D01*
X13231Y98524D01*
X13150Y98437D01*
X13130Y98402D01*
X13105Y98371D01*
X13054Y98263D01*
X12996Y98159D01*
X12986Y98119D01*
X12969Y98083D01*
X12947Y97966D01*
X12917Y97851D01*
X12913Y97791D01*
X12909Y97771D01*
X12911Y97750D01*
X12907Y97690D01*
X12907Y94625D01*
X10823Y92541D01*
X7877Y92541D01*
X5793Y94625D01*
X5793Y94851D01*
X5781Y94950D01*
X5778Y95049D01*
X5761Y95107D01*
X5753Y95167D01*
X5717Y95259D01*
X5689Y95354D01*
X5659Y95406D01*
X5636Y95463D01*
X5578Y95543D01*
X5528Y95628D01*
X5462Y95703D01*
X5450Y95720D01*
X5440Y95728D01*
X5422Y95749D01*
X4643Y96527D01*
X4643Y98737D01*
X4631Y98835D01*
X4628Y98934D01*
X4611Y98992D01*
X4603Y99052D01*
X4567Y99144D01*
X4539Y99239D01*
X4509Y99292D01*
X4486Y99348D01*
X4428Y99428D01*
X4378Y99513D01*
X4312Y99589D01*
X4300Y99605D01*
X4290Y99613D01*
X4272Y99634D01*
X3941Y99964D01*
X3861Y100027D01*
X3799Y100085D01*
X3768Y100102D01*
X3725Y100138D01*
X3706Y100147D01*
X3690Y100159D01*
X3571Y100211D01*
X3520Y100239D01*
X3499Y100244D01*
X3437Y100274D01*
X3417Y100277D01*
X3398Y100286D01*
X3260Y100307D01*
X3238Y100312D01*
X3212Y100318D01*
X3199Y100319D01*
X3124Y100333D01*
X3104Y100332D01*
X3084Y100335D01*
X2945Y100322D01*
X2807Y100314D01*
X2788Y100307D01*
X2768Y100306D01*
X2636Y100258D01*
X2505Y100216D01*
X2487Y100205D01*
X2468Y100198D01*
X2353Y100120D01*
X2236Y100045D01*
X2222Y100031D01*
X2205Y100019D01*
X2113Y99915D01*
X2018Y99814D01*
X2008Y99796D01*
X1995Y99781D01*
X1976Y99744D01*
X1973Y99740D01*
X1959Y99710D01*
X1931Y99657D01*
X1864Y99535D01*
X1859Y99516D01*
X1850Y99498D01*
X1843Y99464D01*
X1837Y99452D01*
X1821Y99366D01*
X1820Y99362D01*
X1785Y99227D01*
X1783Y99199D01*
X1780Y99187D01*
X1781Y99167D01*
X1780Y99156D01*
X1777Y99140D01*
X1778Y99123D01*
X1775Y99067D01*
X1775Y46078D01*
X1777Y46061D01*
X1775Y46043D01*
X1790Y45883D01*
X1910Y45111D01*
X1951Y44969D01*
X1998Y44806D01*
X1998Y44805D01*
X2071Y44661D01*
X2866Y43314D01*
X2915Y43250D01*
X2956Y43181D01*
X3012Y43125D01*
X3060Y43062D01*
X3124Y43013D01*
X3181Y42956D01*
X3309Y42869D01*
X3311Y42867D01*
X3312Y42867D01*
X3314Y42866D01*
X4661Y42071D01*
X4662Y42071D01*
X4662Y42070D01*
X4803Y42010D01*
X4953Y41945D01*
X4954Y41945D01*
X5111Y41910D01*
X5784Y41805D01*
X5806Y41804D01*
X5879Y41794D01*
X6140Y41773D01*
X6158Y41774D01*
X6205Y41770D01*
X6994Y41748D01*
X7016Y41737D01*
X7081Y41725D01*
X7144Y41703D01*
X7303Y41680D01*
X7863Y41636D01*
X9836Y40379D01*
X9837Y40378D01*
X9982Y40310D01*
X10124Y40243D01*
X10125Y40242D01*
X10269Y40215D01*
X10436Y40183D01*
X10437Y40183D01*
X10438Y40183D01*
X10589Y40192D01*
G37*
G36*
X181217Y49796D02*
X181217Y49796D01*
X181355Y49805D01*
X181374Y49811D01*
X181394Y49813D01*
X181526Y49860D01*
X181657Y49903D01*
X181675Y49914D01*
X181694Y49920D01*
X181809Y49999D01*
X181926Y50073D01*
X181940Y50088D01*
X181957Y50099D01*
X182049Y50203D01*
X182144Y50305D01*
X182154Y50322D01*
X182167Y50337D01*
X182231Y50461D01*
X182298Y50583D01*
X182303Y50603D01*
X182312Y50621D01*
X182342Y50757D01*
X182377Y50891D01*
X182379Y50919D01*
X182382Y50931D01*
X182381Y50951D01*
X182387Y51052D01*
X182387Y53431D01*
X184313Y55357D01*
X185944Y55357D01*
X186062Y55372D01*
X186181Y55379D01*
X186219Y55392D01*
X186260Y55397D01*
X186370Y55440D01*
X186483Y55477D01*
X186518Y55499D01*
X186555Y55514D01*
X186651Y55583D01*
X186752Y55647D01*
X186780Y55677D01*
X186813Y55700D01*
X186889Y55792D01*
X186970Y55879D01*
X186990Y55914D01*
X187015Y55945D01*
X187066Y56053D01*
X187124Y56157D01*
X187134Y56197D01*
X187151Y56233D01*
X187173Y56350D01*
X187203Y56465D01*
X187207Y56525D01*
X187211Y56545D01*
X187209Y56566D01*
X187213Y56626D01*
X187213Y59781D01*
X189139Y61707D01*
X190386Y61707D01*
X190484Y61719D01*
X190583Y61722D01*
X190642Y61739D01*
X190702Y61747D01*
X190794Y61783D01*
X190889Y61811D01*
X190941Y61841D01*
X190997Y61864D01*
X191078Y61922D01*
X191163Y61972D01*
X191238Y62038D01*
X191255Y62050D01*
X191263Y62060D01*
X191284Y62078D01*
X194446Y65240D01*
X194506Y65319D01*
X194574Y65391D01*
X194603Y65444D01*
X194640Y65492D01*
X194680Y65582D01*
X194728Y65669D01*
X194743Y65728D01*
X194767Y65783D01*
X194782Y65881D01*
X194807Y65977D01*
X194813Y66077D01*
X194817Y66097D01*
X194815Y66110D01*
X194817Y66138D01*
X194817Y73020D01*
X194800Y73158D01*
X194787Y73296D01*
X194780Y73315D01*
X194777Y73335D01*
X194726Y73465D01*
X194679Y73596D01*
X194668Y73612D01*
X194660Y73631D01*
X194579Y73744D01*
X194501Y73859D01*
X194485Y73872D01*
X194474Y73888D01*
X194366Y73977D01*
X194262Y74069D01*
X194244Y74078D01*
X194229Y74091D01*
X194103Y74151D01*
X193979Y74214D01*
X193959Y74218D01*
X193941Y74227D01*
X193804Y74253D01*
X193669Y74283D01*
X193648Y74283D01*
X193629Y74287D01*
X193490Y74278D01*
X193351Y74274D01*
X193331Y74268D01*
X193311Y74267D01*
X193179Y74224D01*
X193045Y74185D01*
X193028Y74175D01*
X193009Y74169D01*
X192891Y74094D01*
X192771Y74024D01*
X192750Y74005D01*
X192740Y73999D01*
X192726Y73984D01*
X192650Y73917D01*
X192520Y73787D01*
X191941Y73452D01*
X191294Y73279D01*
X189459Y73279D01*
X189459Y78590D01*
X189444Y78708D01*
X189437Y78827D01*
X189424Y78865D01*
X189419Y78905D01*
X189376Y79016D01*
X189339Y79129D01*
X189317Y79163D01*
X189302Y79201D01*
X189233Y79297D01*
X189169Y79398D01*
X189139Y79426D01*
X189116Y79458D01*
X189024Y79534D01*
X188937Y79616D01*
X188902Y79635D01*
X188871Y79661D01*
X188827Y79681D01*
X188772Y79757D01*
X188709Y79858D01*
X188679Y79886D01*
X188655Y79919D01*
X188564Y79995D01*
X188477Y80076D01*
X188442Y80096D01*
X188410Y80121D01*
X188303Y80172D01*
X188198Y80230D01*
X188159Y80240D01*
X188123Y80257D01*
X188006Y80279D01*
X187890Y80309D01*
X187830Y80313D01*
X187810Y80317D01*
X187790Y80315D01*
X187730Y80319D01*
X182419Y80319D01*
X182419Y82154D01*
X182541Y82608D01*
X182561Y82753D01*
X182583Y82896D01*
X182582Y82910D01*
X182584Y82923D01*
X182567Y83068D01*
X182554Y83213D01*
X182549Y83226D01*
X182548Y83239D01*
X182495Y83376D01*
X182446Y83512D01*
X182439Y83523D01*
X182434Y83536D01*
X182349Y83655D01*
X182267Y83776D01*
X182257Y83784D01*
X182250Y83795D01*
X182138Y83889D01*
X182029Y83986D01*
X182017Y83992D01*
X182007Y84001D01*
X181875Y84065D01*
X181746Y84131D01*
X181733Y84134D01*
X181721Y84139D01*
X181577Y84168D01*
X181435Y84200D01*
X181422Y84200D01*
X181409Y84203D01*
X181264Y84195D01*
X181118Y84191D01*
X181105Y84187D01*
X181091Y84186D01*
X180953Y84143D01*
X180812Y84102D01*
X180800Y84095D01*
X180788Y84091D01*
X180664Y84015D01*
X180538Y83941D01*
X180524Y83928D01*
X180517Y83924D01*
X180505Y83912D01*
X180417Y83834D01*
X180042Y83459D01*
X176310Y83459D01*
X176192Y83444D01*
X176073Y83437D01*
X176035Y83424D01*
X175994Y83419D01*
X175884Y83376D01*
X175771Y83339D01*
X175736Y83317D01*
X175699Y83302D01*
X175603Y83233D01*
X175502Y83169D01*
X175474Y83139D01*
X175441Y83116D01*
X175365Y83024D01*
X175284Y82937D01*
X175264Y82902D01*
X175239Y82871D01*
X175188Y82763D01*
X175130Y82659D01*
X175120Y82619D01*
X175103Y82583D01*
X175081Y82466D01*
X175051Y82351D01*
X175047Y82291D01*
X175043Y82271D01*
X175043Y82269D01*
X167500Y82269D01*
X167382Y82254D01*
X167263Y82247D01*
X167225Y82235D01*
X167185Y82230D01*
X167074Y82186D01*
X166961Y82149D01*
X166927Y82127D01*
X166889Y82113D01*
X166793Y82043D01*
X166692Y81979D01*
X166692Y81978D01*
X166664Y81949D01*
X166632Y81926D01*
X166632Y81925D01*
X166631Y81925D01*
X166555Y81833D01*
X166474Y81747D01*
X166454Y81711D01*
X166428Y81680D01*
X166378Y81573D01*
X166320Y81468D01*
X166310Y81429D01*
X166293Y81393D01*
X166271Y81276D01*
X166241Y81160D01*
X166237Y81100D01*
X166233Y81080D01*
X166234Y81060D01*
X166231Y81000D01*
X166231Y77359D01*
X163202Y77359D01*
X163084Y77344D01*
X162965Y77337D01*
X162927Y77324D01*
X162886Y77319D01*
X162776Y77276D01*
X162663Y77239D01*
X162628Y77217D01*
X162591Y77202D01*
X162495Y77133D01*
X162394Y77069D01*
X162366Y77039D01*
X162333Y77016D01*
X162257Y76924D01*
X162176Y76837D01*
X162156Y76802D01*
X162131Y76771D01*
X162080Y76663D01*
X162022Y76559D01*
X162012Y76519D01*
X161995Y76483D01*
X161973Y76366D01*
X161943Y76251D01*
X161939Y76191D01*
X161935Y76171D01*
X161937Y76150D01*
X161933Y76090D01*
X161933Y68968D01*
X161945Y68870D01*
X161948Y68771D01*
X161965Y68712D01*
X161973Y68652D01*
X162009Y68560D01*
X162037Y68465D01*
X162067Y68413D01*
X162090Y68357D01*
X162148Y68276D01*
X162198Y68191D01*
X162264Y68116D01*
X162276Y68099D01*
X162286Y68091D01*
X162304Y68070D01*
X170569Y59806D01*
X170678Y59721D01*
X170785Y59632D01*
X170804Y59624D01*
X170820Y59611D01*
X170948Y59556D01*
X171073Y59497D01*
X171093Y59493D01*
X171112Y59485D01*
X171250Y59463D01*
X171386Y59437D01*
X171406Y59438D01*
X171426Y59435D01*
X171565Y59448D01*
X171703Y59457D01*
X171722Y59463D01*
X171742Y59465D01*
X171874Y59512D01*
X172005Y59555D01*
X172023Y59566D01*
X172042Y59572D01*
X172157Y59651D01*
X172274Y59725D01*
X172288Y59740D01*
X172305Y59751D01*
X172397Y59855D01*
X172492Y59957D01*
X172502Y59974D01*
X172515Y59989D01*
X172579Y60114D01*
X172646Y60235D01*
X172651Y60255D01*
X172660Y60273D01*
X172690Y60409D01*
X172725Y60543D01*
X172727Y60571D01*
X172730Y60583D01*
X172729Y60603D01*
X172735Y60704D01*
X172735Y62067D01*
X174661Y63993D01*
X177383Y63993D01*
X179309Y62067D01*
X179309Y59345D01*
X177383Y57419D01*
X176020Y57419D01*
X175882Y57402D01*
X175743Y57389D01*
X175724Y57382D01*
X175704Y57379D01*
X175575Y57328D01*
X175444Y57281D01*
X175427Y57270D01*
X175408Y57262D01*
X175296Y57181D01*
X175181Y57103D01*
X175168Y57087D01*
X175151Y57076D01*
X175062Y56968D01*
X174970Y56864D01*
X174961Y56846D01*
X174948Y56831D01*
X174889Y56705D01*
X174826Y56581D01*
X174821Y56561D01*
X174813Y56543D01*
X174787Y56407D01*
X174756Y56271D01*
X174757Y56250D01*
X174753Y56231D01*
X174762Y56092D01*
X174766Y55953D01*
X174771Y55933D01*
X174773Y55913D01*
X174816Y55781D01*
X174854Y55647D01*
X174865Y55630D01*
X174871Y55611D01*
X174945Y55493D01*
X175016Y55373D01*
X175034Y55352D01*
X175041Y55342D01*
X175056Y55328D01*
X175122Y55253D01*
X180221Y50154D01*
X180330Y50069D01*
X180437Y49980D01*
X180456Y49972D01*
X180472Y49959D01*
X180600Y49904D01*
X180725Y49845D01*
X180745Y49841D01*
X180764Y49833D01*
X180902Y49811D01*
X181038Y49785D01*
X181058Y49786D01*
X181078Y49783D01*
X181217Y49796D01*
G37*
G36*
X188108Y11496D02*
X188108Y11496D01*
X188227Y11503D01*
X188265Y11516D01*
X188306Y11521D01*
X188416Y11565D01*
X188530Y11601D01*
X188564Y11623D01*
X188601Y11638D01*
X188698Y11708D01*
X188798Y11772D01*
X188826Y11801D01*
X188859Y11825D01*
X188935Y11917D01*
X189016Y12003D01*
X189036Y12039D01*
X189062Y12070D01*
X189112Y12177D01*
X189170Y12282D01*
X189180Y12321D01*
X189197Y12357D01*
X189219Y12474D01*
X189249Y12590D01*
X189253Y12650D01*
X189257Y12670D01*
X189256Y12690D01*
X189259Y12750D01*
X189259Y22541D01*
X189688Y22541D01*
X189806Y22556D01*
X189925Y22563D01*
X189963Y22575D01*
X190004Y22581D01*
X190114Y22624D01*
X190227Y22661D01*
X190262Y22683D01*
X190299Y22698D01*
X190395Y22767D01*
X190496Y22831D01*
X190524Y22861D01*
X190557Y22884D01*
X190633Y22976D01*
X190714Y23063D01*
X190734Y23098D01*
X190759Y23129D01*
X190810Y23237D01*
X190868Y23341D01*
X190878Y23381D01*
X190895Y23417D01*
X190917Y23534D01*
X190947Y23649D01*
X190951Y23709D01*
X190955Y23729D01*
X190953Y23750D01*
X190957Y23810D01*
X190957Y38638D01*
X193863Y41544D01*
X193936Y41638D01*
X194015Y41727D01*
X194033Y41763D01*
X194058Y41795D01*
X194105Y41904D01*
X194159Y42010D01*
X194168Y42050D01*
X194184Y42087D01*
X194203Y42205D01*
X194229Y42321D01*
X194228Y42361D01*
X194234Y42401D01*
X194223Y42520D01*
X194219Y42638D01*
X194208Y42677D01*
X194204Y42718D01*
X194164Y42830D01*
X194131Y42944D01*
X194110Y42979D01*
X194097Y43017D01*
X194030Y43115D01*
X193969Y43218D01*
X193930Y43263D01*
X193918Y43280D01*
X193903Y43293D01*
X193863Y43339D01*
X192563Y44639D01*
X192563Y47361D01*
X194489Y49287D01*
X195834Y49287D01*
X195952Y49302D01*
X196071Y49309D01*
X196109Y49322D01*
X196150Y49327D01*
X196260Y49370D01*
X196373Y49407D01*
X196408Y49429D01*
X196445Y49444D01*
X196541Y49513D01*
X196642Y49577D01*
X196670Y49607D01*
X196703Y49630D01*
X196779Y49722D01*
X196860Y49809D01*
X196880Y49844D01*
X196905Y49875D01*
X196956Y49983D01*
X197014Y50087D01*
X197024Y50127D01*
X197041Y50163D01*
X197063Y50280D01*
X197093Y50395D01*
X197097Y50455D01*
X197101Y50475D01*
X197099Y50496D01*
X197103Y50556D01*
X197103Y59084D01*
X197086Y59222D01*
X197073Y59361D01*
X197066Y59380D01*
X197063Y59400D01*
X197012Y59529D01*
X196965Y59660D01*
X196954Y59677D01*
X196946Y59696D01*
X196865Y59808D01*
X196787Y59923D01*
X196771Y59936D01*
X196760Y59953D01*
X196652Y60042D01*
X196548Y60134D01*
X196530Y60143D01*
X196515Y60156D01*
X196389Y60215D01*
X196265Y60278D01*
X196245Y60283D01*
X196227Y60291D01*
X196090Y60317D01*
X195955Y60348D01*
X195934Y60347D01*
X195915Y60351D01*
X195776Y60342D01*
X195637Y60338D01*
X195617Y60333D01*
X195597Y60331D01*
X195465Y60289D01*
X195331Y60250D01*
X195314Y60239D01*
X195295Y60233D01*
X195177Y60159D01*
X195057Y60088D01*
X195036Y60070D01*
X195026Y60063D01*
X195012Y60048D01*
X194937Y59982D01*
X194158Y59204D01*
X194098Y59126D01*
X194030Y59053D01*
X194001Y59000D01*
X193964Y58952D01*
X193924Y58862D01*
X193876Y58775D01*
X193861Y58716D01*
X193837Y58661D01*
X193822Y58563D01*
X193797Y58467D01*
X193791Y58367D01*
X193787Y58347D01*
X193789Y58334D01*
X193787Y58306D01*
X193787Y57059D01*
X191861Y55133D01*
X190230Y55133D01*
X190112Y55118D01*
X189993Y55111D01*
X189955Y55098D01*
X189914Y55093D01*
X189804Y55050D01*
X189691Y55013D01*
X189656Y54991D01*
X189619Y54976D01*
X189523Y54907D01*
X189422Y54843D01*
X189394Y54813D01*
X189361Y54790D01*
X189285Y54698D01*
X189204Y54611D01*
X189184Y54576D01*
X189159Y54545D01*
X189108Y54437D01*
X189050Y54333D01*
X189040Y54293D01*
X189023Y54257D01*
X189001Y54140D01*
X188971Y54025D01*
X188967Y53965D01*
X188963Y53945D01*
X188965Y53924D01*
X188961Y53864D01*
X188961Y50709D01*
X187167Y48914D01*
X187094Y48820D01*
X187015Y48731D01*
X186997Y48695D01*
X186972Y48663D01*
X186924Y48554D01*
X186870Y48448D01*
X186861Y48409D01*
X186845Y48371D01*
X186827Y48254D01*
X186801Y48138D01*
X186802Y48097D01*
X186796Y48057D01*
X186807Y47939D01*
X186810Y47820D01*
X186822Y47781D01*
X186825Y47741D01*
X186866Y47629D01*
X186899Y47514D01*
X186919Y47479D01*
X186933Y47441D01*
X187000Y47343D01*
X187060Y47240D01*
X187100Y47195D01*
X187112Y47178D01*
X187127Y47165D01*
X187167Y47119D01*
X187713Y46573D01*
X187713Y43851D01*
X185787Y41925D01*
X183787Y41925D01*
X183649Y41908D01*
X183511Y41895D01*
X183492Y41888D01*
X183472Y41885D01*
X183342Y41834D01*
X183211Y41787D01*
X183195Y41776D01*
X183176Y41768D01*
X183063Y41687D01*
X182948Y41609D01*
X182935Y41593D01*
X182919Y41582D01*
X182830Y41474D01*
X182738Y41370D01*
X182729Y41352D01*
X182716Y41337D01*
X182657Y41211D01*
X182593Y41087D01*
X182589Y41067D01*
X182580Y41049D01*
X182554Y40912D01*
X182524Y40777D01*
X182524Y40756D01*
X182520Y40737D01*
X182529Y40597D01*
X182533Y40459D01*
X182539Y40439D01*
X182540Y40419D01*
X182583Y40287D01*
X182622Y40153D01*
X182632Y40136D01*
X182638Y40117D01*
X182713Y39999D01*
X182783Y39879D01*
X182787Y39875D01*
X182787Y37139D01*
X180861Y35213D01*
X179062Y35213D01*
X178944Y35198D01*
X178825Y35191D01*
X178787Y35178D01*
X178746Y35173D01*
X178636Y35130D01*
X178523Y35093D01*
X178488Y35071D01*
X178451Y35056D01*
X178355Y34987D01*
X178254Y34923D01*
X178226Y34893D01*
X178193Y34870D01*
X178117Y34778D01*
X178036Y34691D01*
X178016Y34656D01*
X177991Y34625D01*
X177940Y34517D01*
X177882Y34413D01*
X177872Y34373D01*
X177855Y34337D01*
X177833Y34220D01*
X177803Y34105D01*
X177799Y34045D01*
X177795Y34025D01*
X177797Y34004D01*
X177793Y33944D01*
X177793Y32121D01*
X177805Y32023D01*
X177808Y31924D01*
X177825Y31866D01*
X177833Y31806D01*
X177869Y31714D01*
X177897Y31618D01*
X177927Y31566D01*
X177950Y31510D01*
X178008Y31430D01*
X178058Y31345D01*
X178124Y31269D01*
X178136Y31253D01*
X178146Y31245D01*
X178164Y31224D01*
X179047Y30341D01*
X179047Y27619D01*
X177121Y25693D01*
X174399Y25693D01*
X172473Y27619D01*
X172473Y30341D01*
X173356Y31224D01*
X173416Y31302D01*
X173484Y31374D01*
X173513Y31427D01*
X173550Y31475D01*
X173590Y31566D01*
X173638Y31653D01*
X173653Y31711D01*
X173677Y31767D01*
X173692Y31865D01*
X173717Y31960D01*
X173723Y32061D01*
X173727Y32081D01*
X173725Y32093D01*
X173727Y32121D01*
X173727Y45884D01*
X173715Y45982D01*
X173712Y46081D01*
X173695Y46140D01*
X173687Y46200D01*
X173651Y46292D01*
X173623Y46387D01*
X173593Y46439D01*
X173570Y46495D01*
X173512Y46576D01*
X173462Y46661D01*
X173396Y46736D01*
X173384Y46753D01*
X173374Y46761D01*
X173356Y46782D01*
X172808Y47330D01*
X172698Y47415D01*
X172591Y47504D01*
X172572Y47512D01*
X172556Y47525D01*
X172428Y47580D01*
X172303Y47639D01*
X172283Y47643D01*
X172264Y47651D01*
X172126Y47673D01*
X171990Y47699D01*
X171970Y47698D01*
X171950Y47701D01*
X171811Y47688D01*
X171673Y47679D01*
X171654Y47673D01*
X171634Y47671D01*
X171503Y47624D01*
X171371Y47581D01*
X171353Y47570D01*
X171334Y47564D01*
X171220Y47486D01*
X171102Y47411D01*
X171088Y47396D01*
X171071Y47385D01*
X170979Y47281D01*
X170884Y47179D01*
X170874Y47162D01*
X170861Y47147D01*
X170798Y47023D01*
X170730Y46901D01*
X170725Y46881D01*
X170716Y46863D01*
X170686Y46727D01*
X170651Y46593D01*
X170649Y46565D01*
X170646Y46553D01*
X170647Y46533D01*
X170641Y46432D01*
X170641Y46102D01*
X168715Y44176D01*
X166292Y44176D01*
X166174Y44161D01*
X166055Y44154D01*
X166017Y44141D01*
X165976Y44136D01*
X165866Y44093D01*
X165753Y44056D01*
X165718Y44034D01*
X165681Y44019D01*
X165585Y43950D01*
X165484Y43886D01*
X165456Y43856D01*
X165423Y43833D01*
X165347Y43741D01*
X165266Y43654D01*
X165246Y43619D01*
X165221Y43588D01*
X165170Y43480D01*
X165112Y43376D01*
X165102Y43336D01*
X165085Y43300D01*
X165063Y43183D01*
X165033Y43068D01*
X165029Y43008D01*
X165025Y42988D01*
X165027Y42967D01*
X165023Y42907D01*
X165023Y42806D01*
X165038Y42688D01*
X165045Y42569D01*
X165058Y42531D01*
X165063Y42490D01*
X165106Y42380D01*
X165143Y42267D01*
X165165Y42232D01*
X165180Y42195D01*
X165249Y42099D01*
X165313Y41998D01*
X165343Y41970D01*
X165366Y41937D01*
X165458Y41861D01*
X165545Y41780D01*
X165580Y41760D01*
X165611Y41735D01*
X165719Y41684D01*
X165823Y41626D01*
X165863Y41616D01*
X165899Y41599D01*
X166016Y41577D01*
X166131Y41547D01*
X166191Y41543D01*
X166211Y41539D01*
X166232Y41541D01*
X166292Y41537D01*
X168111Y41537D01*
X170037Y39611D01*
X170037Y36889D01*
X168111Y34963D01*
X166292Y34963D01*
X166174Y34948D01*
X166055Y34941D01*
X166017Y34928D01*
X165976Y34923D01*
X165866Y34880D01*
X165753Y34843D01*
X165718Y34821D01*
X165681Y34806D01*
X165585Y34737D01*
X165484Y34673D01*
X165456Y34643D01*
X165423Y34620D01*
X165347Y34528D01*
X165266Y34441D01*
X165246Y34406D01*
X165221Y34375D01*
X165170Y34267D01*
X165112Y34163D01*
X165102Y34123D01*
X165085Y34087D01*
X165063Y33970D01*
X165033Y33855D01*
X165029Y33795D01*
X165025Y33775D01*
X165027Y33754D01*
X165023Y33694D01*
X165023Y22794D01*
X165038Y22676D01*
X165045Y22557D01*
X165058Y22519D01*
X165063Y22478D01*
X165106Y22368D01*
X165143Y22255D01*
X165165Y22220D01*
X165180Y22183D01*
X165249Y22087D01*
X165313Y21986D01*
X165343Y21958D01*
X165366Y21925D01*
X165458Y21849D01*
X165545Y21768D01*
X165580Y21748D01*
X165611Y21723D01*
X165719Y21672D01*
X165823Y21614D01*
X165863Y21604D01*
X165899Y21587D01*
X166016Y21565D01*
X166131Y21535D01*
X166191Y21531D01*
X166211Y21527D01*
X166232Y21529D01*
X166292Y21525D01*
X183646Y21525D01*
X183744Y21537D01*
X183843Y21540D01*
X183901Y21557D01*
X183961Y21565D01*
X184053Y21601D01*
X184149Y21629D01*
X184201Y21659D01*
X184257Y21682D01*
X184337Y21740D01*
X184423Y21790D01*
X184498Y21856D01*
X184514Y21868D01*
X184522Y21878D01*
X184543Y21896D01*
X184680Y22033D01*
X185259Y22368D01*
X185906Y22541D01*
X186721Y22541D01*
X186721Y12750D01*
X186736Y12632D01*
X186743Y12513D01*
X186755Y12475D01*
X186760Y12435D01*
X186804Y12324D01*
X186841Y12211D01*
X186863Y12177D01*
X186877Y12139D01*
X186947Y12043D01*
X187011Y11942D01*
X187041Y11914D01*
X187064Y11882D01*
X187156Y11806D01*
X187243Y11724D01*
X187278Y11705D01*
X187309Y11679D01*
X187417Y11628D01*
X187521Y11571D01*
X187560Y11561D01*
X187597Y11543D01*
X187714Y11521D01*
X187829Y11491D01*
X187889Y11487D01*
X187909Y11484D01*
X187910Y11484D01*
X187930Y11485D01*
X187990Y11481D01*
X188108Y11496D01*
G37*
G36*
X108108Y11496D02*
X108108Y11496D01*
X108227Y11503D01*
X108265Y11516D01*
X108306Y11521D01*
X108416Y11565D01*
X108530Y11601D01*
X108564Y11623D01*
X108601Y11638D01*
X108698Y11708D01*
X108798Y11772D01*
X108826Y11801D01*
X108859Y11825D01*
X108935Y11917D01*
X109016Y12003D01*
X109036Y12039D01*
X109062Y12070D01*
X109112Y12177D01*
X109170Y12282D01*
X109180Y12321D01*
X109197Y12357D01*
X109219Y12474D01*
X109249Y12590D01*
X109253Y12650D01*
X109257Y12670D01*
X109256Y12690D01*
X109259Y12750D01*
X109259Y22541D01*
X110074Y22541D01*
X110721Y22368D01*
X111300Y22033D01*
X111437Y21896D01*
X111515Y21836D01*
X111587Y21768D01*
X111640Y21739D01*
X111688Y21702D01*
X111779Y21662D01*
X111866Y21614D01*
X111924Y21599D01*
X111980Y21575D01*
X112078Y21560D01*
X112173Y21535D01*
X112273Y21529D01*
X112294Y21525D01*
X112306Y21527D01*
X112334Y21525D01*
X118646Y21525D01*
X118744Y21537D01*
X118843Y21540D01*
X118901Y21557D01*
X118961Y21565D01*
X119053Y21601D01*
X119149Y21629D01*
X119201Y21659D01*
X119257Y21682D01*
X119337Y21740D01*
X119423Y21790D01*
X119498Y21856D01*
X119514Y21868D01*
X119522Y21878D01*
X119543Y21896D01*
X119680Y22033D01*
X120259Y22368D01*
X120906Y22541D01*
X121721Y22541D01*
X121721Y12750D01*
X121736Y12632D01*
X121743Y12513D01*
X121755Y12475D01*
X121760Y12435D01*
X121804Y12324D01*
X121841Y12211D01*
X121863Y12177D01*
X121877Y12139D01*
X121947Y12043D01*
X122011Y11942D01*
X122041Y11914D01*
X122064Y11882D01*
X122156Y11806D01*
X122243Y11724D01*
X122278Y11705D01*
X122309Y11679D01*
X122417Y11628D01*
X122521Y11571D01*
X122560Y11561D01*
X122597Y11543D01*
X122714Y11521D01*
X122829Y11491D01*
X122889Y11487D01*
X122909Y11484D01*
X122910Y11484D01*
X122930Y11485D01*
X122990Y11481D01*
X123108Y11496D01*
X123227Y11503D01*
X123265Y11516D01*
X123306Y11521D01*
X123416Y11565D01*
X123530Y11601D01*
X123564Y11623D01*
X123601Y11638D01*
X123698Y11708D01*
X123798Y11772D01*
X123826Y11801D01*
X123859Y11825D01*
X123935Y11917D01*
X124016Y12003D01*
X124036Y12039D01*
X124062Y12070D01*
X124112Y12177D01*
X124170Y12282D01*
X124180Y12321D01*
X124197Y12357D01*
X124219Y12474D01*
X124249Y12590D01*
X124253Y12650D01*
X124257Y12670D01*
X124256Y12690D01*
X124259Y12750D01*
X124259Y22541D01*
X125074Y22541D01*
X125721Y22368D01*
X126313Y22025D01*
X126436Y21974D01*
X126555Y21918D01*
X126582Y21913D01*
X126607Y21902D01*
X126738Y21883D01*
X126868Y21858D01*
X126894Y21860D01*
X126921Y21856D01*
X127053Y21869D01*
X127185Y21878D01*
X127211Y21886D01*
X127237Y21889D01*
X127362Y21935D01*
X127487Y21976D01*
X127510Y21990D01*
X127536Y21999D01*
X127644Y22075D01*
X127756Y22146D01*
X127775Y22165D01*
X127797Y22181D01*
X127883Y22281D01*
X127974Y22377D01*
X127987Y22401D01*
X128005Y22421D01*
X128064Y22540D01*
X128128Y22656D01*
X128134Y22682D01*
X128146Y22706D01*
X128174Y22836D01*
X128207Y22964D01*
X128209Y23002D01*
X128213Y23017D01*
X128212Y23039D01*
X128217Y23125D01*
X128217Y31152D01*
X130370Y34880D01*
X134098Y37033D01*
X137357Y37033D01*
X137494Y37050D01*
X137633Y37063D01*
X137652Y37070D01*
X137672Y37073D01*
X137801Y37124D01*
X137933Y37171D01*
X137949Y37182D01*
X137968Y37190D01*
X138081Y37271D01*
X138196Y37349D01*
X138209Y37365D01*
X138225Y37376D01*
X138314Y37484D01*
X138406Y37588D01*
X138415Y37606D01*
X138428Y37621D01*
X138488Y37747D01*
X138551Y37871D01*
X138555Y37891D01*
X138564Y37909D01*
X138590Y38046D01*
X138620Y38181D01*
X138620Y38202D01*
X138624Y38221D01*
X138615Y38360D01*
X138611Y38499D01*
X138605Y38519D01*
X138604Y38539D01*
X138561Y38671D01*
X138522Y38805D01*
X138512Y38822D01*
X138506Y38841D01*
X138431Y38959D01*
X138361Y39079D01*
X138342Y39100D01*
X138336Y39110D01*
X138321Y39124D01*
X138254Y39199D01*
X136498Y40956D01*
X136420Y41016D01*
X136348Y41084D01*
X136295Y41113D01*
X136247Y41150D01*
X136156Y41190D01*
X136069Y41238D01*
X136011Y41253D01*
X135955Y41277D01*
X135857Y41292D01*
X135762Y41317D01*
X135661Y41323D01*
X135641Y41327D01*
X135629Y41325D01*
X135601Y41327D01*
X134381Y41327D01*
X132455Y43253D01*
X132455Y44500D01*
X132443Y44598D01*
X132440Y44697D01*
X132423Y44756D01*
X132415Y44816D01*
X132379Y44908D01*
X132351Y45003D01*
X132321Y45055D01*
X132298Y45111D01*
X132240Y45192D01*
X132190Y45277D01*
X132124Y45352D01*
X132112Y45369D01*
X132102Y45377D01*
X132084Y45398D01*
X130451Y47030D01*
X130450Y47040D01*
X130437Y47179D01*
X130430Y47198D01*
X130427Y47218D01*
X130376Y47347D01*
X130329Y47478D01*
X130318Y47495D01*
X130310Y47514D01*
X130229Y47626D01*
X130151Y47741D01*
X130135Y47755D01*
X130124Y47771D01*
X130016Y47860D01*
X129912Y47952D01*
X129894Y47961D01*
X129879Y47974D01*
X129753Y48033D01*
X129629Y48096D01*
X129609Y48101D01*
X129591Y48109D01*
X129455Y48135D01*
X129319Y48166D01*
X129298Y48165D01*
X129279Y48169D01*
X129140Y48160D01*
X129001Y48156D01*
X128981Y48151D01*
X128961Y48149D01*
X128829Y48106D01*
X128695Y48068D01*
X128678Y48057D01*
X128659Y48051D01*
X128541Y47977D01*
X128421Y47906D01*
X128400Y47888D01*
X128390Y47881D01*
X128376Y47866D01*
X128301Y47800D01*
X118577Y38076D01*
X118556Y38063D01*
X118528Y38033D01*
X118495Y38010D01*
X118419Y37918D01*
X118338Y37831D01*
X118318Y37796D01*
X118293Y37765D01*
X118242Y37657D01*
X118184Y37553D01*
X118174Y37513D01*
X118157Y37477D01*
X118135Y37360D01*
X118105Y37245D01*
X118101Y37185D01*
X118097Y37165D01*
X118099Y37144D01*
X118095Y37084D01*
X118095Y34961D01*
X116169Y33035D01*
X113792Y33035D01*
X113674Y33020D01*
X113555Y33013D01*
X113517Y33000D01*
X113476Y32995D01*
X113366Y32952D01*
X113253Y32915D01*
X113218Y32893D01*
X113181Y32878D01*
X113085Y32809D01*
X112984Y32745D01*
X112956Y32715D01*
X112923Y32692D01*
X112847Y32600D01*
X112766Y32513D01*
X112746Y32478D01*
X112721Y32447D01*
X112719Y32444D01*
X107707Y27431D01*
X106292Y27431D01*
X106174Y27416D01*
X106055Y27409D01*
X106017Y27396D01*
X105976Y27391D01*
X105866Y27348D01*
X105753Y27311D01*
X105718Y27289D01*
X105681Y27274D01*
X105585Y27205D01*
X105484Y27141D01*
X105456Y27111D01*
X105423Y27088D01*
X105347Y26996D01*
X105266Y26909D01*
X105246Y26874D01*
X105221Y26843D01*
X105170Y26735D01*
X105112Y26631D01*
X105102Y26591D01*
X105085Y26555D01*
X105063Y26438D01*
X105033Y26323D01*
X105029Y26263D01*
X105025Y26243D01*
X105027Y26222D01*
X105023Y26162D01*
X105023Y23810D01*
X105038Y23692D01*
X105045Y23573D01*
X105058Y23535D01*
X105063Y23494D01*
X105106Y23384D01*
X105143Y23271D01*
X105165Y23236D01*
X105180Y23199D01*
X105250Y23102D01*
X105313Y23002D01*
X105343Y22974D01*
X105366Y22941D01*
X105458Y22865D01*
X105545Y22784D01*
X105580Y22764D01*
X105611Y22739D01*
X105719Y22688D01*
X105823Y22630D01*
X105863Y22620D01*
X105899Y22603D01*
X106016Y22581D01*
X106131Y22551D01*
X106191Y22547D01*
X106211Y22543D01*
X106232Y22545D01*
X106292Y22541D01*
X106721Y22541D01*
X106721Y12750D01*
X106736Y12632D01*
X106743Y12513D01*
X106755Y12475D01*
X106760Y12435D01*
X106804Y12324D01*
X106841Y12211D01*
X106863Y12177D01*
X106877Y12139D01*
X106947Y12043D01*
X107011Y11942D01*
X107041Y11914D01*
X107064Y11882D01*
X107156Y11806D01*
X107243Y11724D01*
X107278Y11705D01*
X107309Y11679D01*
X107417Y11628D01*
X107521Y11571D01*
X107560Y11561D01*
X107597Y11543D01*
X107714Y11521D01*
X107829Y11491D01*
X107889Y11487D01*
X107909Y11484D01*
X107910Y11484D01*
X107930Y11485D01*
X107990Y11481D01*
X108108Y11496D01*
G37*
G36*
X81572Y37863D02*
X81572Y37863D01*
X81691Y37867D01*
X81729Y37878D01*
X81770Y37882D01*
X81882Y37922D01*
X81996Y37955D01*
X82031Y37975D01*
X82069Y37989D01*
X82168Y38056D01*
X82270Y38117D01*
X82315Y38156D01*
X82332Y38168D01*
X82346Y38183D01*
X82391Y38223D01*
X84221Y40053D01*
X86943Y40053D01*
X87750Y39246D01*
X87844Y39173D01*
X87934Y39094D01*
X87970Y39075D01*
X88002Y39051D01*
X88111Y39003D01*
X88217Y38949D01*
X88256Y38940D01*
X88294Y38924D01*
X88411Y38906D01*
X88527Y38880D01*
X88568Y38881D01*
X88608Y38875D01*
X88726Y38886D01*
X88845Y38889D01*
X88884Y38901D01*
X88924Y38904D01*
X89037Y38945D01*
X89151Y38978D01*
X89185Y38998D01*
X89224Y39012D01*
X89322Y39079D01*
X89425Y39139D01*
X89470Y39179D01*
X89487Y39191D01*
X89500Y39206D01*
X89545Y39246D01*
X90333Y40033D01*
X93055Y40033D01*
X94265Y38824D01*
X94359Y38751D01*
X94448Y38672D01*
X94484Y38654D01*
X94516Y38629D01*
X94625Y38581D01*
X94731Y38527D01*
X94770Y38518D01*
X94808Y38502D01*
X94925Y38484D01*
X95041Y38458D01*
X95082Y38459D01*
X95122Y38453D01*
X95240Y38464D01*
X95359Y38467D01*
X95398Y38479D01*
X95438Y38482D01*
X95550Y38523D01*
X95665Y38556D01*
X95700Y38576D01*
X95738Y38590D01*
X95836Y38657D01*
X95939Y38717D01*
X95984Y38757D01*
X96001Y38769D01*
X96014Y38784D01*
X96060Y38824D01*
X97129Y39893D01*
X99851Y39893D01*
X100433Y39312D01*
X100527Y39239D01*
X100616Y39160D01*
X100652Y39142D01*
X100684Y39117D01*
X100793Y39069D01*
X100899Y39015D01*
X100938Y39006D01*
X100976Y38990D01*
X101093Y38972D01*
X101209Y38946D01*
X101250Y38947D01*
X101290Y38941D01*
X101408Y38952D01*
X101527Y38955D01*
X101566Y38967D01*
X101606Y38970D01*
X101718Y39011D01*
X101833Y39044D01*
X101868Y39064D01*
X101906Y39078D01*
X102004Y39145D01*
X102107Y39205D01*
X102152Y39245D01*
X102169Y39257D01*
X102182Y39272D01*
X102228Y39312D01*
X102779Y39863D01*
X105526Y39863D01*
X105583Y39813D01*
X105618Y39795D01*
X105650Y39770D01*
X105760Y39723D01*
X105866Y39669D01*
X105905Y39660D01*
X105942Y39644D01*
X106060Y39625D01*
X106176Y39599D01*
X106217Y39600D01*
X106256Y39594D01*
X106375Y39605D01*
X106494Y39609D01*
X106533Y39620D01*
X106573Y39624D01*
X106685Y39664D01*
X106799Y39697D01*
X106834Y39717D01*
X106872Y39731D01*
X106971Y39798D01*
X107073Y39859D01*
X107119Y39898D01*
X107135Y39910D01*
X107149Y39925D01*
X107194Y39965D01*
X111934Y44705D01*
X115128Y44705D01*
X115226Y44717D01*
X115325Y44720D01*
X115384Y44737D01*
X115444Y44745D01*
X115536Y44781D01*
X115631Y44809D01*
X115683Y44839D01*
X115739Y44862D01*
X115820Y44920D01*
X115905Y44970D01*
X115980Y45036D01*
X115997Y45048D01*
X116005Y45058D01*
X116026Y45076D01*
X117820Y46871D01*
X117905Y46980D01*
X117994Y47087D01*
X118002Y47106D01*
X118015Y47122D01*
X118070Y47250D01*
X118129Y47375D01*
X118133Y47395D01*
X118141Y47414D01*
X118163Y47552D01*
X118189Y47688D01*
X118188Y47708D01*
X118191Y47728D01*
X118178Y47867D01*
X118169Y48005D01*
X118163Y48024D01*
X118161Y48044D01*
X118114Y48176D01*
X118071Y48307D01*
X118060Y48325D01*
X118054Y48344D01*
X117975Y48459D01*
X117901Y48576D01*
X117886Y48590D01*
X117875Y48607D01*
X117771Y48699D01*
X117669Y48794D01*
X117652Y48804D01*
X117637Y48817D01*
X117512Y48881D01*
X117391Y48948D01*
X117371Y48953D01*
X117353Y48962D01*
X117217Y48992D01*
X117083Y49027D01*
X117055Y49029D01*
X117043Y49032D01*
X117023Y49031D01*
X116922Y49037D01*
X116755Y49037D01*
X115873Y49920D01*
X115794Y49980D01*
X115722Y50048D01*
X115669Y50077D01*
X115621Y50114D01*
X115530Y50154D01*
X115444Y50202D01*
X115385Y50217D01*
X115330Y50241D01*
X115232Y50256D01*
X115136Y50281D01*
X115036Y50287D01*
X115015Y50291D01*
X115003Y50289D01*
X114975Y50291D01*
X114634Y50291D01*
X110738Y54187D01*
X110644Y54260D01*
X110555Y54339D01*
X110519Y54357D01*
X110487Y54382D01*
X110378Y54429D01*
X110272Y54483D01*
X110232Y54492D01*
X110195Y54508D01*
X110077Y54527D01*
X109961Y54553D01*
X109921Y54552D01*
X109881Y54558D01*
X109762Y54547D01*
X109643Y54543D01*
X109605Y54532D01*
X109564Y54528D01*
X109452Y54488D01*
X109408Y54475D01*
X106336Y54475D01*
X106205Y54459D01*
X106073Y54448D01*
X106047Y54439D01*
X106020Y54435D01*
X105897Y54387D01*
X105772Y54343D01*
X105750Y54328D01*
X105725Y54318D01*
X105618Y54241D01*
X105507Y54167D01*
X105489Y54147D01*
X105467Y54132D01*
X105383Y54030D01*
X105294Y53931D01*
X105282Y53907D01*
X105264Y53887D01*
X105208Y53767D01*
X105147Y53650D01*
X105140Y53623D01*
X105129Y53599D01*
X105104Y53469D01*
X105074Y53340D01*
X105074Y53313D01*
X105069Y53287D01*
X105077Y53155D01*
X105080Y53022D01*
X105087Y52996D01*
X105089Y52969D01*
X105130Y52843D01*
X105165Y52716D01*
X105182Y52681D01*
X105187Y52667D01*
X105199Y52648D01*
X105237Y52571D01*
X105428Y52241D01*
X105601Y51594D01*
X105601Y49759D01*
X100290Y49759D01*
X100172Y49744D01*
X100053Y49737D01*
X100015Y49724D01*
X99975Y49719D01*
X99864Y49676D01*
X99751Y49639D01*
X99717Y49617D01*
X99679Y49602D01*
X99583Y49533D01*
X99482Y49469D01*
X99454Y49439D01*
X99422Y49416D01*
X99346Y49324D01*
X99264Y49237D01*
X99245Y49202D01*
X99219Y49171D01*
X99199Y49128D01*
X99122Y49072D01*
X99022Y49009D01*
X98994Y48979D01*
X98961Y48955D01*
X98885Y48864D01*
X98804Y48777D01*
X98784Y48742D01*
X98759Y48710D01*
X98708Y48603D01*
X98650Y48498D01*
X98640Y48459D01*
X98623Y48423D01*
X98601Y48306D01*
X98571Y48190D01*
X98567Y48130D01*
X98563Y48110D01*
X98565Y48090D01*
X98561Y48030D01*
X98561Y42719D01*
X96726Y42719D01*
X96079Y42892D01*
X95500Y43227D01*
X95239Y43488D01*
X95145Y43561D01*
X95056Y43640D01*
X95020Y43658D01*
X94988Y43683D01*
X94878Y43730D01*
X94772Y43784D01*
X94733Y43793D01*
X94696Y43809D01*
X94578Y43828D01*
X94462Y43854D01*
X94422Y43853D01*
X94382Y43859D01*
X94263Y43848D01*
X94144Y43844D01*
X94105Y43833D01*
X94065Y43829D01*
X93953Y43789D01*
X93839Y43756D01*
X93804Y43735D01*
X86428Y43735D01*
X85535Y44628D01*
X85535Y44704D01*
X85520Y44822D01*
X85513Y44941D01*
X85500Y44979D01*
X85495Y45020D01*
X85452Y45130D01*
X85415Y45243D01*
X85393Y45278D01*
X85378Y45315D01*
X85309Y45411D01*
X85245Y45512D01*
X85215Y45540D01*
X85192Y45573D01*
X85100Y45649D01*
X85013Y45730D01*
X84978Y45750D01*
X84947Y45775D01*
X84839Y45826D01*
X84735Y45884D01*
X84695Y45894D01*
X84659Y45911D01*
X84542Y45933D01*
X84427Y45963D01*
X84367Y45967D01*
X84347Y45971D01*
X84326Y45969D01*
X84266Y45973D01*
X80823Y45973D01*
X78739Y48057D01*
X78739Y51003D01*
X80045Y52309D01*
X80130Y52418D01*
X80218Y52525D01*
X80227Y52544D01*
X80240Y52560D01*
X80295Y52688D01*
X80354Y52813D01*
X80358Y52833D01*
X80366Y52852D01*
X80388Y52990D01*
X80414Y53126D01*
X80413Y53146D01*
X80416Y53166D01*
X80403Y53305D01*
X80394Y53443D01*
X80388Y53462D01*
X80386Y53482D01*
X80339Y53614D01*
X80296Y53745D01*
X80285Y53763D01*
X80278Y53782D01*
X80200Y53897D01*
X80126Y54014D01*
X80111Y54028D01*
X80100Y54045D01*
X79995Y54137D01*
X79894Y54232D01*
X79877Y54242D01*
X79861Y54255D01*
X79737Y54319D01*
X79616Y54386D01*
X79596Y54391D01*
X79578Y54400D01*
X79442Y54430D01*
X79308Y54465D01*
X79280Y54467D01*
X79268Y54470D01*
X79247Y54469D01*
X79147Y54475D01*
X75740Y54475D01*
X75714Y54498D01*
X75678Y54516D01*
X75646Y54541D01*
X75537Y54588D01*
X75431Y54643D01*
X75392Y54651D01*
X75354Y54667D01*
X75237Y54686D01*
X75121Y54712D01*
X75080Y54711D01*
X75040Y54717D01*
X74922Y54706D01*
X74803Y54703D01*
X74764Y54691D01*
X74724Y54688D01*
X74612Y54647D01*
X74497Y54614D01*
X74463Y54594D01*
X74424Y54580D01*
X74326Y54513D01*
X74262Y54475D01*
X72032Y54475D01*
X71914Y54460D01*
X71795Y54453D01*
X71757Y54440D01*
X71716Y54435D01*
X71606Y54392D01*
X71493Y54355D01*
X71458Y54333D01*
X71421Y54318D01*
X71325Y54249D01*
X71224Y54185D01*
X71196Y54155D01*
X71163Y54132D01*
X71087Y54040D01*
X71006Y53953D01*
X70986Y53918D01*
X70961Y53887D01*
X70910Y53779D01*
X70852Y53675D01*
X70842Y53635D01*
X70825Y53599D01*
X70803Y53482D01*
X70773Y53367D01*
X70769Y53307D01*
X70765Y53287D01*
X70767Y53266D01*
X70763Y53206D01*
X70763Y48582D01*
X70775Y48484D01*
X70778Y48385D01*
X70795Y48326D01*
X70803Y48266D01*
X70839Y48174D01*
X70867Y48079D01*
X70897Y48027D01*
X70920Y47971D01*
X70978Y47890D01*
X71028Y47805D01*
X71094Y47730D01*
X71106Y47713D01*
X71116Y47705D01*
X71134Y47684D01*
X80596Y38223D01*
X80690Y38150D01*
X80779Y38071D01*
X80815Y38053D01*
X80847Y38028D01*
X80957Y37981D01*
X81062Y37927D01*
X81102Y37918D01*
X81139Y37902D01*
X81257Y37883D01*
X81373Y37857D01*
X81413Y37858D01*
X81453Y37852D01*
X81572Y37863D01*
G37*
%LPC*%
G36*
X29119Y194833D02*
X29119Y194833D01*
X27193Y196759D01*
X27193Y199481D01*
X27300Y199588D01*
X27386Y199698D01*
X27474Y199805D01*
X27483Y199824D01*
X27495Y199840D01*
X27551Y199968D01*
X27610Y200093D01*
X27614Y200113D01*
X27622Y200132D01*
X27644Y200270D01*
X27670Y200406D01*
X27668Y200426D01*
X27672Y200446D01*
X27658Y200585D01*
X27650Y200723D01*
X27644Y200742D01*
X27642Y200762D01*
X27595Y200893D01*
X27552Y201025D01*
X27541Y201043D01*
X27534Y201062D01*
X27456Y201176D01*
X27382Y201294D01*
X27367Y201308D01*
X27356Y201325D01*
X27252Y201417D01*
X27150Y201512D01*
X27132Y201522D01*
X27117Y201535D01*
X26993Y201599D01*
X26872Y201666D01*
X26852Y201671D01*
X26834Y201680D01*
X26698Y201710D01*
X26564Y201745D01*
X26536Y201747D01*
X26524Y201750D01*
X26503Y201749D01*
X26403Y201755D01*
X26369Y201755D01*
X24597Y203527D01*
X24597Y213033D01*
X26369Y214805D01*
X35875Y214805D01*
X37647Y213033D01*
X37647Y203527D01*
X35875Y201755D01*
X34557Y201755D01*
X34419Y201738D01*
X34281Y201725D01*
X34262Y201718D01*
X34242Y201715D01*
X34112Y201664D01*
X33981Y201617D01*
X33965Y201606D01*
X33946Y201598D01*
X33833Y201517D01*
X33718Y201439D01*
X33705Y201423D01*
X33689Y201412D01*
X33600Y201304D01*
X33508Y201200D01*
X33499Y201182D01*
X33486Y201167D01*
X33427Y201041D01*
X33363Y200917D01*
X33359Y200897D01*
X33350Y200879D01*
X33324Y200743D01*
X33294Y200607D01*
X33294Y200586D01*
X33290Y200567D01*
X33299Y200428D01*
X33303Y200289D01*
X33309Y200269D01*
X33310Y200249D01*
X33353Y200117D01*
X33392Y199983D01*
X33402Y199966D01*
X33408Y199947D01*
X33483Y199829D01*
X33553Y199709D01*
X33572Y199688D01*
X33578Y199678D01*
X33593Y199664D01*
X33660Y199588D01*
X33767Y199481D01*
X33767Y196759D01*
X31841Y194833D01*
X29119Y194833D01*
G37*
%LPD*%
G36*
X93108Y11496D02*
X93108Y11496D01*
X93227Y11503D01*
X93265Y11516D01*
X93306Y11521D01*
X93416Y11565D01*
X93530Y11601D01*
X93564Y11623D01*
X93601Y11638D01*
X93698Y11708D01*
X93798Y11772D01*
X93826Y11801D01*
X93859Y11825D01*
X93935Y11917D01*
X94016Y12003D01*
X94036Y12039D01*
X94062Y12070D01*
X94112Y12177D01*
X94170Y12282D01*
X94180Y12321D01*
X94197Y12357D01*
X94219Y12474D01*
X94249Y12590D01*
X94253Y12650D01*
X94257Y12670D01*
X94256Y12690D01*
X94259Y12750D01*
X94259Y22541D01*
X95074Y22541D01*
X95367Y22462D01*
X95492Y22445D01*
X95616Y22422D01*
X95649Y22424D01*
X95683Y22419D01*
X95808Y22433D01*
X95933Y22441D01*
X95965Y22452D01*
X95998Y22456D01*
X96116Y22501D01*
X96235Y22539D01*
X96264Y22557D01*
X96295Y22569D01*
X96398Y22642D01*
X96504Y22709D01*
X96527Y22734D01*
X96555Y22754D01*
X96636Y22849D01*
X96722Y22941D01*
X96738Y22971D01*
X96760Y22996D01*
X96815Y23110D01*
X96876Y23220D01*
X96884Y23252D01*
X96899Y23283D01*
X96924Y23406D01*
X96955Y23528D01*
X96958Y23576D01*
X96962Y23594D01*
X96961Y23616D01*
X96965Y23688D01*
X96965Y30244D01*
X97874Y31153D01*
X97959Y31262D01*
X98048Y31369D01*
X98056Y31388D01*
X98069Y31404D01*
X98124Y31531D01*
X98183Y31657D01*
X98187Y31677D01*
X98195Y31696D01*
X98217Y31834D01*
X98243Y31970D01*
X98242Y31990D01*
X98245Y32010D01*
X98232Y32149D01*
X98223Y32287D01*
X98217Y32306D01*
X98215Y32326D01*
X98168Y32458D01*
X98125Y32589D01*
X98114Y32607D01*
X98108Y32626D01*
X98029Y32741D01*
X97955Y32858D01*
X97940Y32872D01*
X97929Y32889D01*
X97825Y32981D01*
X97723Y33076D01*
X97706Y33086D01*
X97691Y33099D01*
X97566Y33163D01*
X97445Y33230D01*
X97425Y33235D01*
X97407Y33244D01*
X97271Y33274D01*
X97139Y33308D01*
X95920Y34528D01*
X95825Y34601D01*
X95736Y34680D01*
X95700Y34698D01*
X95668Y34723D01*
X95559Y34771D01*
X95453Y34825D01*
X95414Y34834D01*
X95376Y34850D01*
X95259Y34868D01*
X95143Y34894D01*
X95102Y34893D01*
X95062Y34899D01*
X94944Y34888D01*
X94825Y34885D01*
X94786Y34873D01*
X94746Y34870D01*
X94633Y34829D01*
X94519Y34796D01*
X94485Y34776D01*
X94446Y34762D01*
X94348Y34695D01*
X94245Y34635D01*
X94200Y34595D01*
X94183Y34583D01*
X94170Y34568D01*
X94125Y34528D01*
X93055Y33459D01*
X90333Y33459D01*
X89525Y34266D01*
X89431Y34339D01*
X89342Y34418D01*
X89306Y34436D01*
X89274Y34461D01*
X89165Y34509D01*
X89059Y34563D01*
X89020Y34572D01*
X88982Y34588D01*
X88865Y34606D01*
X88749Y34632D01*
X88708Y34631D01*
X88668Y34637D01*
X88550Y34626D01*
X88431Y34623D01*
X88392Y34611D01*
X88352Y34608D01*
X88239Y34567D01*
X88125Y34534D01*
X88090Y34514D01*
X88052Y34500D01*
X87954Y34433D01*
X87851Y34373D01*
X87806Y34333D01*
X87789Y34321D01*
X87776Y34306D01*
X87730Y34266D01*
X87039Y33575D01*
X86966Y33481D01*
X86887Y33391D01*
X86869Y33356D01*
X86844Y33324D01*
X86797Y33214D01*
X86743Y33108D01*
X86734Y33069D01*
X86718Y33032D01*
X86699Y32914D01*
X86673Y32798D01*
X86674Y32758D01*
X86668Y32718D01*
X86679Y32599D01*
X86683Y32480D01*
X86694Y32441D01*
X86698Y32401D01*
X86738Y32289D01*
X86771Y32175D01*
X86792Y32140D01*
X86805Y32102D01*
X86872Y32003D01*
X86933Y31901D01*
X86972Y31855D01*
X86984Y31839D01*
X86999Y31825D01*
X87039Y31780D01*
X90023Y28796D01*
X90023Y23810D01*
X90038Y23692D01*
X90045Y23573D01*
X90058Y23535D01*
X90063Y23494D01*
X90106Y23384D01*
X90143Y23271D01*
X90165Y23236D01*
X90180Y23199D01*
X90250Y23102D01*
X90313Y23002D01*
X90343Y22974D01*
X90366Y22941D01*
X90458Y22865D01*
X90545Y22784D01*
X90580Y22764D01*
X90611Y22739D01*
X90719Y22688D01*
X90823Y22630D01*
X90863Y22620D01*
X90899Y22603D01*
X91016Y22581D01*
X91131Y22551D01*
X91191Y22547D01*
X91211Y22543D01*
X91232Y22545D01*
X91292Y22541D01*
X91721Y22541D01*
X91721Y12750D01*
X91736Y12632D01*
X91743Y12513D01*
X91755Y12475D01*
X91760Y12435D01*
X91804Y12324D01*
X91841Y12211D01*
X91863Y12177D01*
X91877Y12139D01*
X91947Y12043D01*
X92011Y11942D01*
X92041Y11914D01*
X92064Y11882D01*
X92156Y11806D01*
X92243Y11724D01*
X92278Y11705D01*
X92309Y11679D01*
X92417Y11628D01*
X92521Y11571D01*
X92560Y11561D01*
X92597Y11543D01*
X92714Y11521D01*
X92829Y11491D01*
X92889Y11487D01*
X92909Y11484D01*
X92910Y11484D01*
X92930Y11485D01*
X92990Y11481D01*
X93108Y11496D01*
G37*
G36*
X187821Y143162D02*
X187821Y143162D01*
X187959Y143171D01*
X187978Y143177D01*
X187998Y143179D01*
X188130Y143226D01*
X188261Y143269D01*
X188279Y143280D01*
X188298Y143286D01*
X188413Y143365D01*
X188530Y143439D01*
X188544Y143454D01*
X188561Y143465D01*
X188653Y143569D01*
X188748Y143671D01*
X188758Y143688D01*
X188771Y143703D01*
X188835Y143828D01*
X188902Y143949D01*
X188907Y143969D01*
X188916Y143987D01*
X188946Y144123D01*
X188981Y144257D01*
X188983Y144285D01*
X188986Y144297D01*
X188985Y144317D01*
X188991Y144418D01*
X188991Y146323D01*
X188979Y146421D01*
X188976Y146520D01*
X188959Y146578D01*
X188951Y146638D01*
X188915Y146730D01*
X188887Y146825D01*
X188857Y146878D01*
X188834Y146934D01*
X188776Y147014D01*
X188726Y147099D01*
X188660Y147175D01*
X188648Y147191D01*
X188638Y147199D01*
X188620Y147220D01*
X187833Y148006D01*
X187833Y152044D01*
X187821Y152142D01*
X187818Y152241D01*
X187801Y152299D01*
X187793Y152359D01*
X187757Y152451D01*
X187729Y152547D01*
X187699Y152599D01*
X187676Y152655D01*
X187618Y152735D01*
X187568Y152821D01*
X187502Y152896D01*
X187490Y152912D01*
X187480Y152920D01*
X187461Y152941D01*
X187317Y153086D01*
X187239Y153146D01*
X187167Y153214D01*
X187114Y153243D01*
X187066Y153281D01*
X186975Y153320D01*
X186888Y153368D01*
X186830Y153383D01*
X186774Y153407D01*
X186676Y153422D01*
X186581Y153447D01*
X186480Y153453D01*
X186460Y153457D01*
X186448Y153455D01*
X186420Y153457D01*
X176310Y153457D01*
X176192Y153442D01*
X176073Y153435D01*
X176035Y153422D01*
X175994Y153417D01*
X175884Y153374D01*
X175771Y153337D01*
X175736Y153315D01*
X175699Y153300D01*
X175603Y153231D01*
X175502Y153167D01*
X175474Y153137D01*
X175441Y153114D01*
X175365Y153022D01*
X175284Y152935D01*
X175264Y152900D01*
X175239Y152869D01*
X175188Y152761D01*
X175130Y152657D01*
X175120Y152617D01*
X175103Y152581D01*
X175081Y152464D01*
X175051Y152349D01*
X175047Y152289D01*
X175043Y152269D01*
X167500Y152269D01*
X167382Y152254D01*
X167263Y152247D01*
X167225Y152235D01*
X167185Y152230D01*
X167074Y152186D01*
X166961Y152149D01*
X166927Y152127D01*
X166889Y152113D01*
X166793Y152043D01*
X166692Y151979D01*
X166664Y151949D01*
X166632Y151926D01*
X166556Y151834D01*
X166474Y151747D01*
X166455Y151712D01*
X166429Y151681D01*
X166378Y151573D01*
X166321Y151469D01*
X166311Y151430D01*
X166293Y151393D01*
X166271Y151276D01*
X166241Y151161D01*
X166237Y151101D01*
X166234Y151081D01*
X166234Y151080D01*
X166235Y151060D01*
X166231Y151000D01*
X166246Y150882D01*
X166253Y150763D01*
X166266Y150724D01*
X166271Y150684D01*
X166315Y150574D01*
X166351Y150460D01*
X166373Y150426D01*
X166388Y150389D01*
X166458Y150292D01*
X166522Y150192D01*
X166551Y150164D01*
X166575Y150131D01*
X166667Y150055D01*
X166753Y149974D01*
X166789Y149954D01*
X166820Y149928D01*
X166927Y149878D01*
X167032Y149820D01*
X167071Y149810D01*
X167107Y149793D01*
X167224Y149771D01*
X167340Y149741D01*
X167400Y149737D01*
X167420Y149733D01*
X167440Y149734D01*
X167500Y149731D01*
X175041Y149731D01*
X175041Y149504D01*
X175017Y149382D01*
X175020Y149349D01*
X175015Y149316D01*
X175029Y149190D01*
X175037Y149065D01*
X175048Y149033D01*
X175051Y149000D01*
X175097Y148882D01*
X175135Y148763D01*
X175153Y148734D01*
X175165Y148703D01*
X175238Y148600D01*
X175305Y148494D01*
X175330Y148471D01*
X175349Y148443D01*
X175445Y148362D01*
X175537Y148276D01*
X175567Y148260D01*
X175592Y148238D01*
X175705Y148183D01*
X175816Y148122D01*
X175848Y148114D01*
X175878Y148099D01*
X176002Y148074D01*
X176123Y148043D01*
X176172Y148040D01*
X176190Y148036D01*
X176212Y148037D01*
X176284Y148033D01*
X182312Y148033D01*
X186825Y143520D01*
X186934Y143435D01*
X187041Y143346D01*
X187060Y143338D01*
X187076Y143325D01*
X187204Y143270D01*
X187329Y143211D01*
X187349Y143207D01*
X187368Y143199D01*
X187506Y143177D01*
X187642Y143151D01*
X187662Y143152D01*
X187682Y143149D01*
X187821Y143162D01*
G37*
G36*
X203108Y11496D02*
X203108Y11496D01*
X203227Y11503D01*
X203265Y11516D01*
X203306Y11521D01*
X203416Y11565D01*
X203530Y11601D01*
X203564Y11623D01*
X203601Y11638D01*
X203698Y11708D01*
X203798Y11772D01*
X203826Y11801D01*
X203859Y11825D01*
X203935Y11917D01*
X204016Y12003D01*
X204036Y12039D01*
X204062Y12070D01*
X204112Y12177D01*
X204170Y12282D01*
X204180Y12321D01*
X204197Y12357D01*
X204219Y12474D01*
X204249Y12590D01*
X204253Y12650D01*
X204257Y12670D01*
X204256Y12690D01*
X204259Y12750D01*
X204259Y22541D01*
X205074Y22541D01*
X205873Y22327D01*
X205998Y22309D01*
X206122Y22286D01*
X206155Y22288D01*
X206189Y22283D01*
X206314Y22298D01*
X206439Y22306D01*
X206471Y22316D01*
X206504Y22320D01*
X206622Y22365D01*
X206741Y22404D01*
X206770Y22422D01*
X206801Y22434D01*
X206904Y22507D01*
X207010Y22574D01*
X207033Y22598D01*
X207061Y22618D01*
X207142Y22714D01*
X207228Y22805D01*
X207244Y22835D01*
X207266Y22861D01*
X207321Y22974D01*
X207382Y23084D01*
X207390Y23117D01*
X207405Y23147D01*
X207430Y23270D01*
X207461Y23392D01*
X207464Y23441D01*
X207468Y23459D01*
X207467Y23480D01*
X207471Y23553D01*
X207471Y29464D01*
X207456Y29582D01*
X207449Y29701D01*
X207436Y29739D01*
X207431Y29780D01*
X207388Y29890D01*
X207351Y30003D01*
X207329Y30038D01*
X207314Y30075D01*
X207245Y30171D01*
X207181Y30272D01*
X207151Y30300D01*
X207128Y30333D01*
X207036Y30409D01*
X206949Y30490D01*
X206914Y30510D01*
X206883Y30535D01*
X206775Y30586D01*
X206671Y30644D01*
X206631Y30654D01*
X206595Y30671D01*
X206478Y30693D01*
X206363Y30723D01*
X206303Y30727D01*
X206283Y30731D01*
X206262Y30729D01*
X206202Y30733D01*
X202997Y30733D01*
X202189Y31541D01*
X202080Y31625D01*
X201973Y31714D01*
X201954Y31723D01*
X201938Y31735D01*
X201811Y31791D01*
X201685Y31850D01*
X201665Y31854D01*
X201646Y31862D01*
X201508Y31884D01*
X201372Y31910D01*
X201352Y31909D01*
X201332Y31912D01*
X201193Y31899D01*
X201055Y31890D01*
X201036Y31884D01*
X201016Y31882D01*
X200884Y31835D01*
X200753Y31792D01*
X200735Y31781D01*
X200716Y31774D01*
X200601Y31696D01*
X200484Y31622D01*
X200470Y31607D01*
X200453Y31596D01*
X200361Y31492D01*
X200266Y31390D01*
X200256Y31372D01*
X200243Y31357D01*
X200180Y31234D01*
X200112Y31112D01*
X200107Y31092D01*
X200098Y31074D01*
X200068Y30938D01*
X200033Y30804D01*
X200031Y30776D01*
X200028Y30764D01*
X200029Y30743D01*
X200023Y30643D01*
X200023Y23810D01*
X200038Y23692D01*
X200045Y23573D01*
X200058Y23535D01*
X200063Y23494D01*
X200106Y23384D01*
X200143Y23271D01*
X200165Y23236D01*
X200180Y23199D01*
X200250Y23102D01*
X200313Y23002D01*
X200343Y22974D01*
X200366Y22941D01*
X200458Y22865D01*
X200545Y22784D01*
X200580Y22764D01*
X200611Y22739D01*
X200719Y22688D01*
X200823Y22630D01*
X200863Y22620D01*
X200899Y22603D01*
X201016Y22581D01*
X201131Y22551D01*
X201191Y22547D01*
X201211Y22543D01*
X201232Y22545D01*
X201292Y22541D01*
X201721Y22541D01*
X201721Y12750D01*
X201736Y12632D01*
X201743Y12513D01*
X201755Y12475D01*
X201760Y12435D01*
X201804Y12324D01*
X201841Y12211D01*
X201863Y12177D01*
X201877Y12139D01*
X201947Y12043D01*
X202011Y11942D01*
X202041Y11914D01*
X202064Y11882D01*
X202156Y11806D01*
X202243Y11724D01*
X202278Y11705D01*
X202309Y11679D01*
X202417Y11628D01*
X202521Y11571D01*
X202560Y11561D01*
X202597Y11543D01*
X202714Y11521D01*
X202829Y11491D01*
X202889Y11487D01*
X202909Y11484D01*
X202910Y11484D01*
X202930Y11485D01*
X202990Y11481D01*
X203108Y11496D01*
G37*
G36*
X18108Y11496D02*
X18108Y11496D01*
X18227Y11503D01*
X18265Y11516D01*
X18306Y11521D01*
X18416Y11565D01*
X18530Y11601D01*
X18564Y11623D01*
X18601Y11638D01*
X18698Y11708D01*
X18798Y11772D01*
X18826Y11801D01*
X18859Y11825D01*
X18935Y11917D01*
X19016Y12003D01*
X19036Y12039D01*
X19062Y12070D01*
X19112Y12177D01*
X19170Y12282D01*
X19180Y12321D01*
X19197Y12357D01*
X19219Y12474D01*
X19249Y12590D01*
X19253Y12650D01*
X19257Y12670D01*
X19256Y12690D01*
X19259Y12750D01*
X19259Y22541D01*
X19688Y22541D01*
X19806Y22556D01*
X19925Y22563D01*
X19963Y22575D01*
X20004Y22581D01*
X20114Y22624D01*
X20227Y22661D01*
X20262Y22683D01*
X20299Y22698D01*
X20395Y22767D01*
X20496Y22831D01*
X20524Y22861D01*
X20557Y22884D01*
X20633Y22976D01*
X20714Y23063D01*
X20734Y23098D01*
X20759Y23129D01*
X20810Y23237D01*
X20868Y23341D01*
X20878Y23381D01*
X20895Y23417D01*
X20917Y23534D01*
X20947Y23649D01*
X20951Y23709D01*
X20955Y23729D01*
X20953Y23750D01*
X20957Y23810D01*
X20957Y28863D01*
X20940Y29001D01*
X20927Y29139D01*
X20920Y29158D01*
X20917Y29179D01*
X20866Y29308D01*
X20819Y29439D01*
X20808Y29456D01*
X20800Y29474D01*
X20719Y29587D01*
X20641Y29702D01*
X20625Y29715D01*
X20614Y29732D01*
X20506Y29820D01*
X20402Y29912D01*
X20384Y29922D01*
X20369Y29934D01*
X20243Y29994D01*
X20119Y30057D01*
X20099Y30061D01*
X20081Y30070D01*
X19944Y30096D01*
X19809Y30127D01*
X19788Y30126D01*
X19769Y30130D01*
X19630Y30121D01*
X19491Y30117D01*
X19471Y30111D01*
X19451Y30110D01*
X19319Y30067D01*
X19185Y30029D01*
X19168Y30018D01*
X19149Y30012D01*
X19031Y29938D01*
X18911Y29867D01*
X18890Y29848D01*
X18880Y29842D01*
X18866Y29827D01*
X18791Y29761D01*
X17973Y28943D01*
X15027Y28943D01*
X14695Y29275D01*
X14586Y29360D01*
X14479Y29448D01*
X14460Y29457D01*
X14444Y29469D01*
X14316Y29525D01*
X14191Y29584D01*
X14171Y29588D01*
X14152Y29596D01*
X14014Y29618D01*
X13878Y29644D01*
X13858Y29643D01*
X13838Y29646D01*
X13699Y29633D01*
X13561Y29624D01*
X13542Y29618D01*
X13522Y29616D01*
X13391Y29569D01*
X13259Y29526D01*
X13241Y29515D01*
X13222Y29508D01*
X13108Y29430D01*
X12990Y29356D01*
X12976Y29341D01*
X12959Y29330D01*
X12867Y29226D01*
X12772Y29124D01*
X12762Y29106D01*
X12749Y29091D01*
X12686Y28968D01*
X12618Y28846D01*
X12613Y28826D01*
X12604Y28808D01*
X12574Y28672D01*
X12539Y28538D01*
X12537Y28510D01*
X12534Y28498D01*
X12535Y28477D01*
X12529Y28377D01*
X12529Y22946D01*
X12546Y22808D01*
X12559Y22670D01*
X12566Y22651D01*
X12569Y22631D01*
X12620Y22501D01*
X12667Y22370D01*
X12678Y22354D01*
X12686Y22335D01*
X12767Y22222D01*
X12846Y22107D01*
X12861Y22094D01*
X12872Y22078D01*
X12980Y21988D01*
X13084Y21897D01*
X13102Y21888D01*
X13117Y21875D01*
X13243Y21815D01*
X13367Y21752D01*
X13387Y21748D01*
X13405Y21739D01*
X13541Y21713D01*
X13678Y21683D01*
X13698Y21683D01*
X13717Y21679D01*
X13856Y21688D01*
X13995Y21692D01*
X14015Y21698D01*
X14035Y21699D01*
X14167Y21742D01*
X14301Y21781D01*
X14318Y21791D01*
X14337Y21797D01*
X14455Y21871D01*
X14575Y21942D01*
X14596Y21961D01*
X14606Y21967D01*
X14620Y21982D01*
X14674Y22030D01*
X15259Y22368D01*
X15906Y22541D01*
X16721Y22541D01*
X16721Y12750D01*
X16736Y12632D01*
X16743Y12513D01*
X16755Y12475D01*
X16760Y12435D01*
X16804Y12324D01*
X16841Y12211D01*
X16863Y12177D01*
X16877Y12139D01*
X16947Y12043D01*
X17011Y11942D01*
X17041Y11914D01*
X17064Y11882D01*
X17156Y11806D01*
X17243Y11724D01*
X17278Y11705D01*
X17309Y11679D01*
X17417Y11628D01*
X17521Y11571D01*
X17560Y11561D01*
X17597Y11543D01*
X17714Y11521D01*
X17829Y11491D01*
X17889Y11487D01*
X17909Y11484D01*
X17910Y11484D01*
X17930Y11485D01*
X17990Y11481D01*
X18108Y11496D01*
G37*
%LPC*%
G36*
X118161Y154725D02*
X118161Y154725D01*
X116077Y156809D01*
X116077Y159755D01*
X118161Y161839D01*
X121107Y161839D01*
X123191Y159755D01*
X123191Y156809D01*
X121107Y154725D01*
X118161Y154725D01*
G37*
%LPD*%
%LPC*%
G36*
X77267Y150367D02*
X77267Y150367D01*
X75183Y152451D01*
X75183Y155397D01*
X77267Y157481D01*
X80213Y157481D01*
X82297Y155397D01*
X82297Y152451D01*
X80213Y150367D01*
X77267Y150367D01*
G37*
%LPD*%
%LPC*%
G36*
X120051Y81041D02*
X120051Y81041D01*
X118125Y82967D01*
X118125Y85689D01*
X120051Y87615D01*
X122773Y87615D01*
X124699Y85689D01*
X124699Y82967D01*
X122773Y81041D01*
X120051Y81041D01*
G37*
%LPD*%
%LPC*%
G36*
X96099Y195801D02*
X96099Y195801D01*
X96099Y197636D01*
X96272Y198283D01*
X96364Y198441D01*
X96405Y198539D01*
X96454Y198632D01*
X96466Y198685D01*
X96487Y198734D01*
X96503Y198839D01*
X96527Y198942D01*
X96526Y198996D01*
X96534Y199049D01*
X96523Y199154D01*
X96521Y199260D01*
X96506Y199312D01*
X96501Y199365D01*
X96464Y199464D01*
X96435Y199566D01*
X96397Y199643D01*
X96390Y199663D01*
X96381Y199676D01*
X96364Y199711D01*
X96280Y199855D01*
X96107Y200502D01*
X96107Y202337D01*
X100149Y202337D01*
X100149Y197152D01*
X100147Y197127D01*
X100143Y197107D01*
X100145Y197086D01*
X100141Y197026D01*
X100141Y195801D01*
X96099Y195801D01*
G37*
%LPD*%
%LPC*%
G36*
X23246Y98959D02*
X23246Y98959D01*
X22599Y99132D01*
X22459Y99214D01*
X22361Y99255D01*
X22267Y99304D01*
X22215Y99316D01*
X22165Y99337D01*
X22061Y99352D01*
X21958Y99377D01*
X21904Y99376D01*
X21851Y99383D01*
X21746Y99372D01*
X21640Y99370D01*
X21588Y99356D01*
X21535Y99350D01*
X21436Y99313D01*
X21334Y99285D01*
X21257Y99247D01*
X21236Y99240D01*
X21224Y99231D01*
X21189Y99214D01*
X21049Y99132D01*
X20402Y98959D01*
X18567Y98959D01*
X18567Y103001D01*
X25081Y103001D01*
X25081Y98959D01*
X23246Y98959D01*
G37*
%LPD*%
%LPC*%
G36*
X16081Y200739D02*
X16081Y200739D01*
X16081Y205781D01*
X21123Y205781D01*
X21123Y204248D01*
X20847Y203220D01*
X20315Y202299D01*
X19563Y201547D01*
X18642Y201015D01*
X17614Y200739D01*
X16081Y200739D01*
G37*
%LPD*%
%LPC*%
G36*
X9550Y200739D02*
X9550Y200739D01*
X8522Y201015D01*
X7601Y201547D01*
X6849Y202299D01*
X6317Y203220D01*
X6041Y204248D01*
X6041Y205781D01*
X11083Y205781D01*
X11083Y200739D01*
X9550Y200739D01*
G37*
%LPD*%
%LPC*%
G36*
X203857Y153137D02*
X203857Y153137D01*
X203857Y157179D01*
X205692Y157179D01*
X206339Y157006D01*
X206918Y156671D01*
X207391Y156198D01*
X207726Y155619D01*
X207899Y154972D01*
X207899Y153137D01*
X203857Y153137D01*
G37*
%LPD*%
%LPC*%
G36*
X96107Y205335D02*
X96107Y205335D01*
X96107Y207170D01*
X96280Y207817D01*
X96615Y208396D01*
X97088Y208869D01*
X97667Y209204D01*
X98314Y209377D01*
X100149Y209377D01*
X100149Y205335D01*
X96107Y205335D01*
G37*
%LPD*%
%LPC*%
G36*
X8509Y178569D02*
X8509Y178569D01*
X8509Y180404D01*
X8682Y181051D01*
X9017Y181630D01*
X9490Y182103D01*
X10069Y182438D01*
X10716Y182611D01*
X12551Y182611D01*
X12551Y178569D01*
X8509Y178569D01*
G37*
%LPD*%
%LPC*%
G36*
X8509Y131269D02*
X8509Y131269D01*
X8509Y133104D01*
X8682Y133751D01*
X9017Y134330D01*
X9490Y134803D01*
X10069Y135138D01*
X10716Y135311D01*
X12551Y135311D01*
X12551Y131269D01*
X8509Y131269D01*
G37*
%LPD*%
%LPC*%
G36*
X203857Y146097D02*
X203857Y146097D01*
X203857Y150139D01*
X207899Y150139D01*
X207899Y148304D01*
X207726Y147657D01*
X207391Y147078D01*
X206918Y146605D01*
X206339Y146270D01*
X205692Y146097D01*
X203857Y146097D01*
G37*
%LPD*%
%LPC*%
G36*
X101559Y42719D02*
X101559Y42719D01*
X101559Y46761D01*
X105601Y46761D01*
X105601Y44926D01*
X105428Y44279D01*
X105093Y43700D01*
X104620Y43227D01*
X104041Y42892D01*
X103394Y42719D01*
X101559Y42719D01*
G37*
%LPD*%
%LPC*%
G36*
X184626Y73279D02*
X184626Y73279D01*
X183979Y73452D01*
X183400Y73787D01*
X182927Y74260D01*
X182592Y74839D01*
X182419Y75486D01*
X182419Y77321D01*
X186461Y77321D01*
X186461Y73279D01*
X184626Y73279D01*
G37*
%LPD*%
%LPC*%
G36*
X10716Y171529D02*
X10716Y171529D01*
X10069Y171702D01*
X9490Y172037D01*
X9017Y172510D01*
X8682Y173089D01*
X8509Y173736D01*
X8509Y175571D01*
X12551Y175571D01*
X12551Y171529D01*
X10716Y171529D01*
G37*
%LPD*%
%LPC*%
G36*
X10716Y124229D02*
X10716Y124229D01*
X10069Y124402D01*
X9490Y124737D01*
X9017Y125210D01*
X8682Y125789D01*
X8509Y126436D01*
X8509Y128271D01*
X12551Y128271D01*
X12551Y124229D01*
X10716Y124229D01*
G37*
%LPD*%
G36*
X118904Y182537D02*
X118904Y182537D01*
X119003Y182540D01*
X119061Y182557D01*
X119121Y182565D01*
X119213Y182601D01*
X119309Y182629D01*
X119361Y182659D01*
X119417Y182682D01*
X119497Y182740D01*
X119583Y182790D01*
X119658Y182856D01*
X119674Y182868D01*
X119682Y182878D01*
X119703Y182896D01*
X119840Y183033D01*
X120039Y183148D01*
X120134Y183220D01*
X120233Y183286D01*
X120260Y183316D01*
X120292Y183340D01*
X120366Y183434D01*
X120446Y183522D01*
X120465Y183558D01*
X120490Y183589D01*
X120538Y183698D01*
X120593Y183804D01*
X120603Y183843D01*
X120619Y183880D01*
X120639Y183997D01*
X120666Y184113D01*
X120666Y184153D01*
X120672Y184193D01*
X120662Y184312D01*
X120660Y184431D01*
X120649Y184470D01*
X120646Y184510D01*
X120607Y184623D01*
X120575Y184737D01*
X120548Y184791D01*
X120541Y184811D01*
X120530Y184828D01*
X120503Y184882D01*
X120442Y184987D01*
X120245Y185725D01*
X120239Y185788D01*
X120232Y185807D01*
X120229Y185827D01*
X120178Y185956D01*
X120131Y186088D01*
X120120Y186104D01*
X120112Y186123D01*
X120031Y186235D01*
X119953Y186351D01*
X119937Y186364D01*
X119926Y186380D01*
X119818Y186469D01*
X119714Y186561D01*
X119696Y186570D01*
X119681Y186583D01*
X119555Y186642D01*
X119431Y186706D01*
X119411Y186710D01*
X119393Y186719D01*
X119257Y186745D01*
X119121Y186775D01*
X119100Y186775D01*
X119081Y186779D01*
X118942Y186770D01*
X118803Y186766D01*
X118783Y186760D01*
X118763Y186759D01*
X118631Y186716D01*
X118497Y186677D01*
X118480Y186667D01*
X118461Y186661D01*
X118343Y186586D01*
X118223Y186516D01*
X118202Y186497D01*
X118192Y186491D01*
X118178Y186476D01*
X118103Y186409D01*
X116385Y184691D01*
X116299Y184582D01*
X116211Y184475D01*
X116202Y184456D01*
X116190Y184440D01*
X116134Y184312D01*
X116075Y184187D01*
X116071Y184167D01*
X116063Y184148D01*
X116041Y184010D01*
X116015Y183874D01*
X116017Y183854D01*
X116013Y183834D01*
X116027Y183695D01*
X116035Y183557D01*
X116041Y183538D01*
X116043Y183518D01*
X116090Y183386D01*
X116133Y183255D01*
X116144Y183237D01*
X116151Y183218D01*
X116229Y183103D01*
X116303Y182986D01*
X116318Y182972D01*
X116329Y182955D01*
X116434Y182863D01*
X116535Y182768D01*
X116553Y182758D01*
X116568Y182745D01*
X116692Y182681D01*
X116813Y182614D01*
X116833Y182609D01*
X116851Y182600D01*
X116987Y182570D01*
X117121Y182535D01*
X117149Y182533D01*
X117161Y182530D01*
X117182Y182531D01*
X117282Y182525D01*
X118806Y182525D01*
X118904Y182537D01*
G37*
%LPC*%
G36*
X168769Y77359D02*
X168769Y77359D01*
X168769Y79731D01*
X175041Y79731D01*
X175041Y79566D01*
X174868Y78919D01*
X174533Y78340D01*
X174060Y77867D01*
X173481Y77532D01*
X172834Y77359D01*
X168769Y77359D01*
G37*
%LPD*%
D10*
X55245Y211882D02*
X57363Y214000D01*
X57363Y207645D01*
X55245Y207645D02*
X59482Y207645D01*
D11*
X26670Y166170D03*
X26670Y141170D03*
D12*
X24050Y177070D03*
X14050Y177070D03*
X24050Y129770D03*
X14050Y129770D03*
D13*
X46482Y210820D03*
X213106Y57150D03*
D14*
X17082Y204780D02*
X17082Y211780D01*
X17082Y204780D02*
X10082Y204780D01*
X10082Y211780D01*
X17082Y211780D01*
X17082Y207630D02*
X10082Y207630D01*
X10082Y210480D02*
X17082Y210480D01*
X34622Y211780D02*
X34622Y204780D01*
X27622Y204780D01*
X27622Y211780D01*
X34622Y211780D01*
X34622Y207630D02*
X27622Y207630D01*
X27622Y210480D02*
X34622Y210480D01*
D15*
X202990Y12750D03*
X197990Y12750D03*
X192990Y12750D03*
X187990Y12750D03*
X182990Y12750D03*
X177990Y12750D03*
X172990Y12750D03*
X167990Y12750D03*
X162990Y12750D03*
X157990Y12750D03*
X152990Y12750D03*
X147990Y12750D03*
X122990Y12750D03*
X117990Y12750D03*
X112990Y12750D03*
X107990Y12750D03*
X102990Y12750D03*
X97990Y12750D03*
X92990Y12750D03*
X87990Y12750D03*
X82990Y12750D03*
X77990Y12750D03*
X72990Y12750D03*
X67990Y12750D03*
X62990Y12750D03*
X57990Y12750D03*
X52990Y12750D03*
X47990Y12750D03*
X42990Y12750D03*
X37990Y12750D03*
X32990Y12750D03*
X27990Y12750D03*
X22990Y12750D03*
X17990Y12750D03*
D16*
X129490Y210000D03*
X171490Y210000D03*
X150490Y197000D03*
D17*
X129490Y210000D02*
X120490Y210000D01*
X129490Y210000D02*
X129490Y199000D01*
X150490Y197000D02*
X150490Y190000D01*
X171490Y199000D02*
X171490Y210000D01*
X180490Y210000D01*
D12*
X90060Y48260D03*
X100060Y48260D03*
X26580Y114500D03*
X26580Y104500D03*
X192358Y151638D03*
X202358Y151638D03*
X111640Y194302D03*
X101640Y194302D03*
X187960Y88820D03*
X187960Y78820D03*
X7668Y104394D03*
X7668Y114394D03*
X17068Y114500D03*
X17068Y104500D03*
X111648Y203836D03*
X101648Y203836D03*
X135810Y188968D03*
X125810Y188968D03*
D18*
X52500Y121000D03*
X52500Y116000D03*
X52500Y131000D03*
X52500Y141000D03*
X52500Y151000D03*
X52500Y126000D03*
X52500Y136000D03*
X52500Y146000D03*
X52500Y156000D03*
X52500Y106000D03*
X52500Y96000D03*
X52500Y86000D03*
X52500Y81000D03*
X52500Y91000D03*
X52500Y101000D03*
X52500Y111000D03*
D19*
X107500Y61000D03*
X112500Y61000D03*
X97500Y61000D03*
X87500Y61000D03*
X77500Y61000D03*
X102500Y61000D03*
X92500Y61000D03*
X82500Y61000D03*
X72500Y61000D03*
X122500Y61000D03*
X132500Y61000D03*
X142500Y61000D03*
X147500Y61000D03*
X137500Y61000D03*
X127500Y61000D03*
X117500Y61000D03*
D18*
X167500Y116000D03*
X167500Y121000D03*
X167500Y106000D03*
X167500Y96000D03*
X167500Y86000D03*
X167500Y111000D03*
X167500Y101000D03*
X167500Y91000D03*
X167500Y81000D03*
X167500Y131000D03*
X167500Y141000D03*
X167500Y151000D03*
X167500Y156000D03*
X167500Y146000D03*
X167500Y136000D03*
X167500Y126000D03*
D19*
X112500Y176000D03*
X107500Y176000D03*
X122500Y176000D03*
X132500Y176000D03*
X142500Y176000D03*
X117500Y176000D03*
X127500Y176000D03*
X137500Y176000D03*
X147500Y176000D03*
X97500Y176000D03*
X87500Y176000D03*
X77500Y176000D03*
X72500Y176000D03*
X82500Y176000D03*
X92500Y176000D03*
X102500Y176000D03*
D20*
X82296Y49530D03*
X9350Y96098D03*
X192548Y144740D03*
D21*
X187960Y98044D02*
X187960Y88820D01*
D20*
X187960Y98044D03*
X78740Y153924D03*
X119634Y158282D03*
D21*
X167500Y86000D02*
X178990Y86000D01*
X167502Y155998D02*
X167500Y156000D01*
X112500Y176000D02*
X112500Y184400D01*
X118070Y189970D01*
X187998Y155998D02*
X192358Y151638D01*
X187998Y155998D02*
X167502Y155998D01*
X192358Y144930D02*
X192548Y144740D01*
X192358Y144930D02*
X192358Y151638D01*
X92500Y61000D02*
X92500Y50700D01*
X90060Y48260D01*
X88790Y49530D01*
X82296Y49530D01*
X181810Y88820D02*
X187960Y88820D01*
X181810Y88820D02*
X178990Y86000D01*
D16*
X118070Y192930D03*
D21*
X118070Y189970D01*
X116698Y194302D02*
X111640Y194302D01*
X116698Y194302D02*
X118070Y192930D01*
D14*
X7668Y104394D02*
X7668Y97780D01*
X9350Y96098D01*
D20*
X27000Y32500D03*
D16*
X115570Y28210D03*
X143438Y106976D03*
X107950Y153416D03*
X113784Y48330D03*
X62880Y125908D03*
X21554Y96694D03*
X5864Y129472D03*
X5340Y178320D03*
X185928Y29210D03*
X94742Y28718D03*
X43440Y125800D03*
X167990Y75922D03*
X176784Y150846D03*
X88398Y207022D03*
X212858Y151142D03*
X119004Y184712D03*
X14732Y23416D03*
X213614Y45974D03*
D22*
X122500Y176000D02*
X122500Y184500D01*
X122500Y185658D01*
X125810Y188968D01*
X122288Y184712D02*
X119004Y184712D01*
X122288Y184712D02*
X122500Y184500D01*
D16*
X188500Y70500D03*
D21*
X97500Y61000D02*
X97500Y50820D01*
X100060Y48260D01*
D16*
X205428Y27710D03*
X185690Y107696D03*
X104140Y36576D03*
X121412Y84328D03*
D17*
X167500Y106000D02*
X183994Y106000D01*
X185690Y107696D01*
D16*
X86106Y79756D03*
D23*
X77500Y71150D02*
X77500Y61000D01*
X77500Y71150D02*
X86106Y79756D01*
D17*
X192990Y37796D02*
X192990Y12750D01*
X192990Y37796D02*
X199136Y43942D01*
X199136Y124968D01*
X183118Y140986D01*
X180000Y140986D01*
X173876Y140986D01*
X167514Y140986D01*
X167500Y141000D01*
X201546Y125924D02*
X201546Y42976D01*
X197990Y39420D01*
X197990Y12750D01*
X181470Y146000D02*
X167500Y146000D01*
X181470Y146000D02*
X201546Y125924D01*
D21*
X135810Y188968D02*
X135810Y192460D01*
X131934Y196336D01*
X121648Y196336D01*
X114148Y203836D01*
X111648Y203836D01*
X135810Y188968D02*
X135810Y188870D01*
X127500Y180560D02*
X127500Y176000D01*
X127500Y180560D02*
X135810Y188870D01*
X52500Y141000D02*
X40500Y141000D01*
X37702Y138202D01*
X37500Y121000D02*
X52500Y121000D01*
X37500Y121000D02*
X33080Y121000D01*
D14*
X7774Y114500D02*
X7668Y114394D01*
X7774Y114500D02*
X17068Y114500D01*
X26580Y114500D01*
D21*
X33080Y121000D01*
X37500Y121000D02*
X37702Y121202D01*
X37702Y138202D01*
D17*
X40650Y156000D02*
X30480Y166170D01*
X26670Y166170D01*
X40650Y156000D02*
X52500Y156000D01*
D14*
X26670Y166170D02*
X24050Y168790D01*
X24050Y177070D01*
D17*
X40310Y151000D02*
X30480Y141170D01*
X26670Y141170D01*
X40310Y151000D02*
X52500Y151000D01*
D14*
X26670Y141170D02*
X24050Y138550D01*
X24050Y129770D01*
D17*
X147990Y27016D02*
X147990Y12750D01*
X147990Y27016D02*
X146812Y28194D01*
D16*
X146812Y28194D03*
X107950Y166878D03*
D17*
X102500Y169028D02*
X102500Y176000D01*
X104650Y166878D02*
X107950Y166878D01*
X104650Y166878D02*
X102500Y169028D01*
D16*
X154460Y168710D03*
D17*
X132500Y176000D02*
X132500Y181600D01*
X135320Y184420D01*
X154460Y181340D02*
X154460Y168710D01*
X151380Y184420D02*
X135320Y184420D01*
X151380Y184420D02*
X154460Y181340D01*
D16*
X12962Y144668D03*
D17*
X167500Y136000D02*
X176000Y136000D01*
D16*
X176000Y136000D03*
X190778Y103124D03*
X185674Y52070D03*
D17*
X184954Y101000D02*
X167500Y101000D01*
X187078Y103124D02*
X190778Y103124D01*
X187078Y103124D02*
X184954Y101000D01*
X22990Y33628D02*
X22990Y12750D01*
X13820Y68112D02*
X19662Y73954D01*
X13820Y68112D02*
X13820Y42798D01*
D16*
X19662Y73954D03*
D17*
X13820Y42798D02*
X22990Y33628D01*
D16*
X185460Y116840D03*
D17*
X184620Y116000D01*
X167500Y116000D01*
D16*
X98490Y36606D03*
X107442Y160274D03*
D17*
X114554Y167386D01*
X136446Y167386D01*
X137500Y168440D02*
X137500Y176000D01*
X137500Y168440D02*
X136446Y167386D01*
X159900Y87400D02*
X159900Y67600D01*
X179000Y48500D02*
X179000Y38500D01*
X179500Y38500D01*
D16*
X179500Y38500D03*
D17*
X179000Y48500D02*
X159900Y67600D01*
X159900Y87400D02*
X163500Y91000D01*
X167500Y91000D01*
X175760Y47252D02*
X175760Y28980D01*
D16*
X175760Y28980D03*
D17*
X157806Y65206D02*
X157806Y92126D01*
X157806Y65206D02*
X175760Y47252D01*
X167500Y96000D02*
X161680Y96000D01*
X157806Y92126D01*
D16*
X184426Y45212D03*
X149800Y147420D03*
X71120Y147320D03*
D17*
X69800Y146000D01*
X52500Y146000D01*
D16*
X114808Y36322D03*
X107400Y130800D03*
D17*
X107200Y131000D02*
X52500Y131000D01*
X107200Y131000D02*
X107400Y130800D01*
D16*
X68580Y93472D03*
D17*
X66052Y96000D02*
X52500Y96000D01*
X66052Y96000D02*
X68580Y93472D01*
X44930Y91000D02*
X41442Y87512D01*
D16*
X47014Y42696D03*
D17*
X41442Y48268D01*
X41442Y87512D01*
X44930Y91000D02*
X52500Y91000D01*
D16*
X153369Y44149D03*
D17*
X145969Y44149D01*
X142500Y47617D02*
X142500Y61000D01*
X142500Y47617D02*
X145969Y44149D01*
D16*
X157264Y33314D03*
D17*
X156834Y33744D01*
X156834Y46028D01*
X154831Y48031D01*
X151069Y48031D01*
X147500Y51600D02*
X147500Y61000D01*
X147500Y51600D02*
X151069Y48031D01*
X162990Y56720D02*
X162990Y12750D01*
X155566Y64144D02*
X155566Y159634D01*
X155566Y64144D02*
X162990Y56720D01*
X155566Y159634D02*
X147500Y167700D01*
X147500Y176000D01*
X157990Y22608D02*
X157990Y12750D01*
X157990Y22608D02*
X160704Y25322D01*
X160704Y55773D02*
X153480Y62997D01*
X153480Y157820D01*
X160704Y55773D02*
X160704Y25322D01*
X153480Y157820D02*
X142500Y168800D01*
X142500Y176000D01*
X31122Y201302D02*
X31122Y208280D01*
X31122Y201302D02*
X30480Y200660D01*
X30480Y198120D01*
D16*
X30480Y198120D03*
X107530Y185020D03*
X152908Y30480D03*
D17*
X152990Y30398D02*
X152990Y12750D01*
X152990Y30398D02*
X152908Y30480D01*
D23*
X107500Y176000D02*
X107500Y184990D01*
X107530Y185020D01*
D16*
X123190Y70866D03*
X19408Y60992D03*
D17*
X117500Y61000D02*
X117500Y65176D01*
X123190Y70866D01*
X32990Y31550D02*
X32990Y12750D01*
X32990Y31550D02*
X19408Y45132D01*
X19408Y60992D01*
D16*
X166750Y38250D03*
X57420Y32814D03*
D17*
X44798Y84278D02*
X46500Y85980D01*
X44798Y84278D02*
X44798Y52484D01*
X51816Y45466D02*
X51816Y38418D01*
X57420Y32814D01*
X51816Y45466D02*
X44798Y52484D01*
X52480Y85980D02*
X52500Y86000D01*
X52480Y85980D02*
X46500Y85980D01*
D16*
X61278Y75134D03*
D17*
X61278Y78722D01*
X59000Y81000D02*
X52500Y81000D01*
X59000Y81000D02*
X61278Y78722D01*
D16*
X110310Y73416D03*
D23*
X102500Y67168D02*
X102500Y61000D01*
X108748Y73416D02*
X110310Y73416D01*
X108748Y73416D02*
X102500Y67168D01*
X112386Y69342D02*
X115062Y69342D01*
X116586Y70866D01*
D16*
X116586Y70866D03*
D23*
X107500Y64456D02*
X107500Y61000D01*
X107500Y64456D02*
X112386Y69342D01*
D16*
X81534Y82042D03*
D23*
X81534Y81696D01*
X72500Y72662D02*
X72500Y61000D01*
X72500Y72662D02*
X81534Y81696D01*
D16*
X92202Y81788D03*
D23*
X92202Y80010D01*
X82500Y70308D02*
X82500Y61000D01*
X82500Y70308D02*
X92202Y80010D01*
D16*
X92964Y69342D03*
D23*
X87500Y67548D02*
X87500Y61000D01*
X89294Y69342D02*
X92964Y69342D01*
X89294Y69342D02*
X87500Y67548D01*
D16*
X98000Y168000D03*
X85582Y36766D03*
D17*
X97500Y168500D02*
X97500Y176000D01*
X97500Y168500D02*
X98000Y168000D01*
D16*
X190500Y58420D03*
D17*
X196850Y64770D01*
X196850Y110610D01*
X186460Y121000D01*
X167500Y121000D01*
D16*
X182118Y125254D03*
D17*
X181372Y126000D02*
X167500Y126000D01*
X181372Y126000D02*
X182118Y125254D01*
D16*
X177430Y130626D03*
X176022Y60706D03*
D17*
X177056Y131000D02*
X167500Y131000D01*
X177056Y131000D02*
X177430Y130626D01*
D16*
X118116Y52324D03*
D17*
X115476Y52324D01*
X112500Y55300D02*
X112500Y61000D01*
X112500Y55300D02*
X115476Y52324D01*
D16*
X100000Y185500D03*
X91694Y36746D03*
D17*
X92500Y176000D02*
X92500Y183800D01*
X94200Y185500D02*
X100000Y185500D01*
X94200Y185500D02*
X92500Y183800D01*
X98998Y13758D02*
X97990Y12750D01*
X116496Y42672D02*
X122612Y48788D01*
X105918Y31750D02*
X101346Y31750D01*
X105918Y31750D02*
X108204Y34036D01*
X108204Y38100D01*
X98998Y29402D02*
X98998Y13758D01*
X98998Y29402D02*
X101346Y31750D01*
X108204Y38100D02*
X112776Y42672D01*
X116496Y42672D01*
X122612Y60888D02*
X122500Y61000D01*
X122612Y60888D02*
X122612Y48788D01*
X104394Y29464D02*
X102990Y28060D01*
X104394Y29464D02*
X106865Y29464D01*
X110490Y33089D02*
X110490Y36899D01*
X113977Y40386D01*
X102990Y28060D02*
X102990Y12750D01*
X106865Y29464D02*
X110490Y33089D01*
X113977Y40386D02*
X118012Y40386D01*
X127500Y49874D02*
X127500Y61000D01*
X127500Y49874D02*
X118012Y40386D01*
X58244Y20750D02*
X58244Y13004D01*
X57990Y12750D01*
X58244Y20750D02*
X34514Y44480D01*
X59182Y193802D02*
X77760Y193802D01*
X59182Y193802D02*
X50546Y185166D01*
X40644Y105538D02*
X34514Y99408D01*
X40644Y105538D02*
X41960Y105538D01*
X34514Y99408D02*
X34514Y44480D01*
D16*
X41960Y105538D03*
X50292Y185166D03*
D17*
X50546Y185166D01*
X87500Y184062D02*
X87500Y176000D01*
X87500Y184062D02*
X77760Y193802D01*
X52990Y21432D02*
X52990Y12750D01*
X52990Y21432D02*
X32174Y42248D01*
X42920Y113600D02*
X43620Y113600D01*
X42920Y113600D02*
X32174Y102854D01*
D16*
X43620Y113600D03*
D17*
X32174Y102854D02*
X32174Y42248D01*
X61214Y189992D02*
X76126Y189992D01*
D16*
X45974Y166116D03*
D17*
X45974Y174752D01*
X61214Y189992D01*
X82500Y183618D02*
X82500Y176000D01*
X82500Y183618D02*
X76126Y189992D01*
X62990Y20576D02*
X62990Y12750D01*
X55118Y178538D02*
X63224Y186644D01*
X38078Y45488D02*
X62990Y20576D01*
X38078Y45488D02*
X38078Y95044D01*
X42890Y99856D02*
X43236Y99856D01*
X42890Y99856D02*
X38078Y95044D01*
D16*
X43236Y99856D03*
X55118Y165354D03*
D17*
X55118Y178538D01*
X73818Y186644D02*
X77470Y182992D01*
X73818Y186644D02*
X63224Y186644D01*
X77470Y176030D02*
X77500Y176000D01*
X77470Y176030D02*
X77470Y182992D01*
D16*
X57150Y55626D03*
D17*
X63246Y55626D01*
X82990Y28448D02*
X82990Y12750D01*
X59690Y170942D02*
X59690Y178030D01*
D16*
X59690Y170942D03*
D17*
X64994Y183334D02*
X71616Y183334D01*
X64994Y183334D02*
X59690Y178030D01*
X63246Y55626D02*
X66040Y52832D01*
X66040Y45398D02*
X82990Y28448D01*
X66040Y45398D02*
X66040Y52832D01*
X72500Y176000D02*
X72500Y182450D01*
X71616Y183334D01*
X68730Y87678D02*
X68730Y47214D01*
X87990Y27954D02*
X87990Y12750D01*
X87990Y27954D02*
X68730Y47214D01*
X72500Y91448D02*
X72500Y103300D01*
X69800Y106000D01*
X52500Y106000D01*
X68730Y87678D02*
X72500Y91448D01*
D16*
X56568Y45662D03*
D17*
X56568Y40328D02*
X67990Y28906D01*
X56568Y40328D02*
X56568Y45662D01*
X67990Y28906D02*
X67990Y12750D01*
D16*
X135742Y44614D03*
D17*
X132500Y47856D01*
X132500Y61000D01*
X72736Y29142D02*
X61568Y40310D01*
X72736Y29142D02*
X72736Y13004D01*
D24*
X72990Y12750D01*
D16*
X61568Y40310D03*
X139978Y42124D03*
D17*
X140800Y42946D01*
X137500Y49400D02*
X137500Y61000D01*
X140800Y46100D02*
X140800Y42946D01*
X140800Y46100D02*
X137500Y49400D01*
D16*
X68834Y101092D03*
X167354Y47463D03*
X149000Y119016D03*
D17*
X68834Y101092D02*
X68742Y101000D01*
X52500Y101000D01*
X77990Y29794D02*
X77990Y12750D01*
X77990Y29794D02*
X61976Y45808D01*
X61976Y49554D01*
D16*
X68580Y121158D03*
X61976Y49554D03*
D17*
X63422Y116000D02*
X52500Y116000D01*
X63422Y116000D02*
X68580Y121158D01*
X42990Y25010D02*
X42990Y12750D01*
X42990Y25010D02*
X23000Y45000D01*
X23000Y86500D01*
X27500Y91000D02*
X28500Y91000D01*
X27500Y91000D02*
X23000Y86500D01*
D16*
X28500Y91000D03*
D17*
X52500Y136000D02*
X61500Y136000D01*
X62000Y136500D01*
D16*
X62000Y136500D03*
D17*
X47990Y23510D02*
X47990Y12750D01*
X47990Y23510D02*
X26000Y45500D01*
D16*
X28000Y86000D03*
X64500Y111000D03*
D17*
X28000Y86000D02*
X26000Y84000D01*
X26000Y45500D01*
X52500Y111000D02*
X64500Y111000D01*
X187784Y111000D02*
X188044Y111260D01*
X188524Y111260D01*
D16*
X188524Y111260D03*
D17*
X187784Y111000D02*
X167500Y111000D01*
D16*
X195850Y46000D03*
D20*
X204470Y34290D03*
X16500Y32500D03*
M02*
