G04 EAGLE Gerber RS-274X export*
G75*
%MOMM*%
%FSLAX34Y34*%
%LPD*%
%INSilkscreen Top*%
%IPPOS*%
%AMOC8*
5,1,8,0,0,1.08239X$1,22.5*%
G01*
%ADD10C,0.203200*%
%ADD11R,0.640000X0.040000*%
%ADD12R,0.800000X0.040000*%
%ADD13R,0.840000X0.040000*%
%ADD14R,0.280000X0.040000*%
%ADD15R,0.600000X0.040000*%
%ADD16R,0.680000X0.040000*%
%ADD17R,0.760000X0.040000*%
%ADD18R,0.050000X0.350000*%
%ADD19R,0.050000X0.050000*%
%ADD20R,0.050000X0.450000*%
%ADD21R,0.050000X0.550000*%
%ADD22R,0.050000X0.250000*%
%ADD23R,0.050000X0.300000*%
%ADD24R,0.050000X0.750000*%
%ADD25R,0.050000X0.700000*%
%ADD26R,0.050000X0.850000*%
%ADD27R,0.050000X0.800000*%
%ADD28R,0.050000X0.400000*%
%ADD29R,0.050000X0.900000*%
%ADD30R,0.050000X0.950000*%
%ADD31R,0.050000X0.500000*%
%ADD32R,0.050000X1.000000*%
%ADD33R,0.050000X1.050000*%
%ADD34R,0.050000X0.200000*%
%ADD35R,0.050000X0.600000*%
%ADD36R,0.050000X0.650000*%
%ADD37R,0.050000X1.450000*%
%ADD38R,0.060000X0.700000*%
%ADD39R,0.060000X0.350000*%
%ADD40R,0.060000X0.550000*%
%ADD41R,0.060000X0.300000*%
%ADD42R,0.060000X0.800000*%
%ADD43R,0.050000X1.100000*%
%ADD44R,0.050000X0.150000*%
%ADD45R,0.060000X1.200000*%
%ADD46R,0.060000X1.050000*%
%ADD47R,0.060000X0.250000*%
%ADD48R,0.060000X0.400000*%
%ADD49R,0.050000X1.200000*%
%ADD50R,0.060000X0.650000*%
%ADD51R,0.050000X0.100000*%
%ADD52R,0.210000X0.030000*%
%ADD53R,0.660000X0.030000*%
%ADD54R,0.030000X0.030000*%
%ADD55R,0.330000X0.040000*%
%ADD56R,0.750000X0.040000*%
%ADD57R,0.150000X0.040000*%
%ADD58R,0.780000X0.040000*%
%ADD59R,0.420000X0.030000*%
%ADD60R,0.780000X0.030000*%
%ADD61R,0.180000X0.030000*%
%ADD62R,0.450000X0.030000*%
%ADD63R,0.510000X0.030000*%
%ADD64R,0.750000X0.030000*%
%ADD65R,0.240000X0.030000*%
%ADD66R,0.480000X0.040000*%
%ADD67R,0.720000X0.040000*%
%ADD68R,0.270000X0.040000*%
%ADD69R,0.300000X0.030000*%
%ADD70R,0.120000X0.030000*%
%ADD71R,0.330000X0.030000*%
%ADD72R,0.360000X0.030000*%
%ADD73R,0.240000X0.040000*%
%ADD74R,0.210000X0.040000*%
%ADD75R,0.390000X0.040000*%
%ADD76R,0.180000X0.040000*%
%ADD77R,0.390000X0.030000*%
%ADD78R,0.600000X0.030000*%
%ADD79R,0.630000X0.040000*%
%ADD80R,0.090000X0.030000*%
%ADD81R,0.150000X0.030000*%
%ADD82R,0.690000X0.030000*%
%ADD83R,0.720000X0.030000*%
%ADD84R,0.570000X0.040000*%
%ADD85R,0.540000X0.030000*%
%ADD86R,0.270000X0.030000*%

G36*
X6859Y47371D02*
X6859Y47371D01*
X6921Y47373D01*
X6943Y47386D01*
X6969Y47390D01*
X7040Y47438D01*
X7073Y47456D01*
X7079Y47464D01*
X7089Y47471D01*
X7589Y47971D01*
X7608Y48002D01*
X7646Y48044D01*
X7922Y48504D01*
X8389Y48971D01*
X8397Y48984D01*
X8412Y48997D01*
X8901Y49583D01*
X10089Y50771D01*
X10096Y50782D01*
X10109Y50793D01*
X11299Y52182D01*
X12256Y53138D01*
X13154Y53677D01*
X13651Y53760D01*
X15520Y53760D01*
X15546Y53766D01*
X15583Y53765D01*
X16783Y53965D01*
X16798Y53972D01*
X16820Y53973D01*
X17920Y54273D01*
X17937Y54282D01*
X17961Y54287D01*
X18961Y54687D01*
X18983Y54702D01*
X19016Y54714D01*
X20016Y55314D01*
X20036Y55334D01*
X20070Y55354D01*
X20870Y56054D01*
X20877Y56063D01*
X20889Y56071D01*
X21689Y56871D01*
X21700Y56889D01*
X21720Y56907D01*
X22420Y57807D01*
X22431Y57830D01*
X22452Y57855D01*
X23452Y59655D01*
X23463Y59691D01*
X23488Y59743D01*
X23988Y61643D01*
X23989Y61675D01*
X24000Y61718D01*
X24100Y63418D01*
X24093Y63454D01*
X24094Y63510D01*
X23794Y65110D01*
X23785Y65131D01*
X23781Y65160D01*
X23281Y66660D01*
X23262Y66691D01*
X23241Y66744D01*
X22541Y67844D01*
X22522Y67863D01*
X22504Y67893D01*
X22279Y68146D01*
X21941Y68526D01*
X21704Y68793D01*
X21672Y68815D01*
X21622Y68862D01*
X20822Y69362D01*
X20792Y69373D01*
X20772Y69387D01*
X20737Y69393D01*
X20692Y69413D01*
X20675Y69413D01*
X20658Y69418D01*
X20626Y69414D01*
X20620Y69414D01*
X20612Y69412D01*
X20589Y69409D01*
X20519Y69407D01*
X20504Y69398D01*
X20486Y69396D01*
X20456Y69376D01*
X20451Y69375D01*
X20437Y69363D01*
X20428Y69357D01*
X20367Y69324D01*
X20357Y69309D01*
X20342Y69299D01*
X20326Y69271D01*
X20318Y69265D01*
X20304Y69234D01*
X20267Y69182D01*
X20264Y69163D01*
X20256Y69149D01*
X20254Y69123D01*
X20247Y69106D01*
X20248Y69081D01*
X20240Y69040D01*
X20240Y68202D01*
X20168Y67986D01*
X20108Y67865D01*
X19915Y67672D01*
X19758Y67620D01*
X19567Y67620D01*
X18853Y67799D01*
X18511Y67970D01*
X18240Y68151D01*
X17870Y68428D01*
X17316Y68982D01*
X16973Y69496D01*
X16900Y69787D01*
X16900Y70278D01*
X16972Y70494D01*
X17050Y70649D01*
X17200Y70875D01*
X17521Y71115D01*
X17844Y71277D01*
X18295Y71367D01*
X18302Y71371D01*
X18312Y71371D01*
X18667Y71460D01*
X19130Y71460D01*
X19250Y71400D01*
X19265Y71396D01*
X19278Y71387D01*
X19412Y71361D01*
X19419Y71360D01*
X19420Y71360D01*
X19520Y71360D01*
X19545Y71366D01*
X19571Y71363D01*
X19629Y71385D01*
X19689Y71399D01*
X19709Y71416D01*
X19733Y71425D01*
X19775Y71470D01*
X19822Y71509D01*
X19833Y71533D01*
X19850Y71552D01*
X19868Y71611D01*
X19893Y71668D01*
X19892Y71693D01*
X19900Y71718D01*
X19889Y71779D01*
X19887Y71841D01*
X19874Y71863D01*
X19870Y71889D01*
X19822Y71960D01*
X19804Y71993D01*
X19796Y71999D01*
X19789Y72009D01*
X19689Y72109D01*
X19669Y72121D01*
X19648Y72144D01*
X19248Y72444D01*
X19222Y72456D01*
X19190Y72480D01*
X17790Y73180D01*
X17778Y73183D01*
X17769Y73189D01*
X17740Y73195D01*
X17703Y73211D01*
X16803Y73411D01*
X16769Y73411D01*
X16720Y73420D01*
X15720Y73420D01*
X15692Y73414D01*
X15652Y73414D01*
X14552Y73214D01*
X14517Y73199D01*
X14460Y73181D01*
X14445Y73177D01*
X14442Y73175D01*
X14438Y73174D01*
X13338Y72574D01*
X13318Y72556D01*
X13287Y72540D01*
X12387Y71840D01*
X12367Y71816D01*
X12298Y71742D01*
X11798Y70942D01*
X11786Y70908D01*
X11759Y70860D01*
X11459Y69960D01*
X11456Y69923D01*
X11440Y69840D01*
X11440Y69040D01*
X11447Y69007D01*
X11449Y68958D01*
X11649Y68058D01*
X11666Y68022D01*
X11688Y67955D01*
X12188Y67055D01*
X12210Y67031D01*
X12234Y66990D01*
X12934Y66190D01*
X12935Y66189D01*
X12936Y66187D01*
X13736Y65287D01*
X13744Y65282D01*
X13751Y65271D01*
X14393Y64629D01*
X14640Y63971D01*
X14640Y63402D01*
X14481Y62925D01*
X14160Y62524D01*
X13664Y62193D01*
X12973Y62020D01*
X12258Y62020D01*
X11829Y62106D01*
X11434Y62264D01*
X10916Y62782D01*
X10765Y63009D01*
X10700Y63202D01*
X10700Y63478D01*
X10752Y63635D01*
X11225Y64108D01*
X11440Y64179D01*
X11460Y64192D01*
X11490Y64200D01*
X11890Y64400D01*
X11919Y64424D01*
X11989Y64471D01*
X12089Y64571D01*
X12102Y64592D01*
X12121Y64608D01*
X12147Y64665D01*
X12180Y64718D01*
X12183Y64743D01*
X12193Y64766D01*
X12191Y64829D01*
X12197Y64891D01*
X12188Y64914D01*
X12187Y64939D01*
X12157Y64994D01*
X12135Y65053D01*
X12117Y65070D01*
X12105Y65092D01*
X12035Y65146D01*
X12008Y65170D01*
X11999Y65173D01*
X11990Y65180D01*
X11590Y65380D01*
X11575Y65384D01*
X11562Y65393D01*
X11428Y65419D01*
X11422Y65420D01*
X11421Y65420D01*
X11420Y65420D01*
X10220Y65420D01*
X10194Y65414D01*
X10158Y65415D01*
X9558Y65315D01*
X9552Y65313D01*
X9545Y65313D01*
X9045Y65213D01*
X9019Y65201D01*
X8979Y65193D01*
X8479Y64993D01*
X8448Y64971D01*
X8392Y64944D01*
X7992Y64644D01*
X7988Y64640D01*
X7982Y64637D01*
X7482Y64237D01*
X7465Y64214D01*
X7394Y64136D01*
X6794Y63136D01*
X6782Y63100D01*
X6754Y63044D01*
X6554Y62344D01*
X6553Y62319D01*
X6543Y62287D01*
X6443Y61487D01*
X6445Y61466D01*
X6440Y61440D01*
X6440Y47740D01*
X6446Y47715D01*
X6443Y47689D01*
X6465Y47632D01*
X6479Y47571D01*
X6496Y47551D01*
X6505Y47527D01*
X6550Y47485D01*
X6589Y47438D01*
X6613Y47427D01*
X6632Y47410D01*
X6691Y47392D01*
X6748Y47367D01*
X6773Y47368D01*
X6798Y47360D01*
X6859Y47371D01*
G37*
G36*
X203749Y64517D02*
X203749Y64517D01*
X203750Y64516D01*
X203751Y64517D01*
X203761Y64517D01*
X203763Y64514D01*
X212146Y64520D01*
X212164Y64534D01*
X212177Y64531D01*
X212570Y64841D01*
X212577Y64869D01*
X212589Y64876D01*
X212631Y65394D01*
X212629Y65397D01*
X212631Y65398D01*
X212631Y66970D01*
X212621Y66983D01*
X212626Y66993D01*
X212397Y67440D01*
X212368Y67454D01*
X212362Y67466D01*
X211857Y67560D01*
X211851Y67557D01*
X211848Y67561D01*
X206085Y67559D01*
X206084Y67559D01*
X203989Y67534D01*
X203978Y67526D01*
X203971Y67535D01*
X203273Y67518D01*
X201681Y67473D01*
X200090Y67408D01*
X200089Y67407D01*
X200089Y67408D01*
X199249Y67356D01*
X199425Y67452D01*
X200974Y67789D01*
X200975Y67790D01*
X200975Y67789D01*
X203560Y68390D01*
X203577Y68411D01*
X203579Y68411D01*
X203591Y68413D01*
X203594Y68416D01*
X203604Y68408D01*
X204189Y68555D01*
X207803Y69445D01*
X210894Y70237D01*
X211922Y70509D01*
X211925Y70512D01*
X211927Y70511D01*
X212418Y70699D01*
X212433Y70723D01*
X212446Y70727D01*
X212629Y71204D01*
X212625Y71217D01*
X212632Y71222D01*
X212632Y72817D01*
X212630Y72819D01*
X212632Y72821D01*
X212589Y73346D01*
X212570Y73368D01*
X212570Y73381D01*
X212164Y73696D01*
X212151Y73696D01*
X212148Y73704D01*
X208068Y74909D01*
X208067Y74908D01*
X208067Y74909D01*
X203967Y76043D01*
X203963Y76041D01*
X201062Y76772D01*
X201061Y76772D01*
X199520Y77133D01*
X199284Y77226D01*
X199540Y77244D01*
X201652Y77192D01*
X203763Y77165D01*
X203765Y77167D01*
X211893Y77143D01*
X211900Y77149D01*
X211905Y77145D01*
X212405Y77268D01*
X212426Y77294D01*
X212439Y77297D01*
X212629Y77769D01*
X212629Y77770D01*
X212626Y77783D01*
X212633Y77788D01*
X212633Y79375D01*
X212632Y79376D01*
X212633Y79377D01*
X212612Y79904D01*
X212596Y79924D01*
X212598Y79937D01*
X212242Y80298D01*
X212222Y80301D01*
X212216Y80312D01*
X211741Y80408D01*
X211633Y80865D01*
X211633Y82446D01*
X211630Y82450D01*
X211633Y82451D01*
X211579Y82974D01*
X211563Y82991D01*
X211565Y83004D01*
X211198Y83366D01*
X211175Y83369D01*
X211168Y83380D01*
X210646Y83431D01*
X210643Y83429D01*
X210641Y83431D01*
X204291Y83431D01*
X204291Y83430D01*
X204290Y83431D01*
X203762Y83417D01*
X203755Y83411D01*
X203752Y83414D01*
X203747Y83409D01*
X203742Y83415D01*
X201457Y83411D01*
X201444Y83401D01*
X201434Y83405D01*
X200980Y83162D01*
X200969Y83138D01*
X200956Y83133D01*
X200803Y82640D01*
X200807Y82630D01*
X200801Y82625D01*
X200791Y80540D01*
X200417Y80323D01*
X199993Y80458D01*
X199947Y80943D01*
X199947Y82526D01*
X199943Y82532D01*
X199946Y82535D01*
X199850Y83047D01*
X199831Y83064D01*
X199831Y83077D01*
X199419Y83385D01*
X199397Y83385D01*
X199390Y83395D01*
X198335Y83416D01*
X198323Y83408D01*
X198315Y83412D01*
X197839Y83213D01*
X197826Y83190D01*
X197813Y83186D01*
X197616Y82710D01*
X197620Y82696D01*
X197612Y82691D01*
X197611Y80599D01*
X197276Y80311D01*
X196827Y80089D01*
X196816Y80068D01*
X196807Y80061D01*
X196809Y80058D01*
X196800Y80054D01*
X196706Y79545D01*
X196709Y79539D01*
X196705Y79536D01*
X196705Y76364D01*
X196707Y76362D01*
X196706Y76361D01*
X196742Y75837D01*
X196760Y75816D01*
X196759Y75803D01*
X197151Y75475D01*
X197165Y75475D01*
X197168Y75466D01*
X200195Y74519D01*
X200195Y74518D01*
X202724Y73750D01*
X202727Y73751D01*
X202728Y73749D01*
X203192Y73648D01*
X203193Y73648D01*
X203703Y73548D01*
X203732Y73562D01*
X203747Y73541D01*
X203749Y73537D01*
X204238Y73372D01*
X204240Y73373D01*
X204241Y73371D01*
X206290Y72802D01*
X206291Y72802D01*
X207323Y72543D01*
X207324Y72543D01*
X207325Y72542D01*
X208145Y72369D01*
X205295Y71722D01*
X205294Y71722D01*
X204261Y71469D01*
X204259Y71468D01*
X204258Y71469D01*
X203749Y71316D01*
X203732Y71292D01*
X203729Y71295D01*
X203720Y71286D01*
X203710Y71294D01*
X200994Y70582D01*
X200994Y70581D01*
X198438Y69867D01*
X198437Y69866D01*
X197419Y69566D01*
X197415Y69561D01*
X197411Y69563D01*
X196945Y69330D01*
X196934Y69307D01*
X196930Y69304D01*
X196931Y69303D01*
X196919Y69297D01*
X196795Y68797D01*
X196799Y68789D01*
X196794Y68786D01*
X196797Y65070D01*
X196808Y65055D01*
X196804Y65045D01*
X197060Y64607D01*
X197089Y64595D01*
X197096Y64583D01*
X197614Y64514D01*
X197618Y64516D01*
X197621Y64514D01*
X203749Y64517D01*
G37*
D10*
X35170Y158670D02*
X35170Y148670D01*
X18170Y148670D02*
X18170Y158670D01*
X6477Y203518D02*
X6477Y213043D01*
D11*
X153300Y36950D03*
D12*
X153300Y36550D03*
D13*
X153100Y36150D03*
X153100Y35750D03*
X153100Y35350D03*
X153100Y34950D03*
D12*
X152900Y34550D03*
D14*
X150300Y34150D03*
X150300Y33750D03*
X150300Y33350D03*
D15*
X151900Y32950D03*
D16*
X152300Y32550D03*
X152300Y32150D03*
X152300Y31750D03*
X152300Y31350D03*
X152300Y30950D03*
D11*
X152100Y30550D03*
D14*
X150300Y30150D03*
X150300Y29750D03*
X150300Y29350D03*
D17*
X152700Y28950D03*
D13*
X153100Y28550D03*
X153100Y28150D03*
X153100Y27750D03*
X153100Y27350D03*
X153100Y26950D03*
D17*
X153100Y26550D03*
D18*
X199190Y95490D03*
D19*
X199190Y106990D03*
X199190Y115990D03*
X199190Y126990D03*
D20*
X199190Y133490D03*
D21*
X199190Y146990D03*
D19*
X199190Y156490D03*
D21*
X199690Y95490D03*
D22*
X199690Y106990D03*
X199690Y115990D03*
D23*
X199690Y126740D03*
D24*
X199690Y133990D03*
D25*
X199690Y147240D03*
D23*
X199690Y156740D03*
D25*
X200190Y95240D03*
D23*
X200190Y106740D03*
D18*
X200190Y115990D03*
X200190Y126990D03*
D26*
X200190Y134490D03*
D24*
X200190Y146990D03*
D18*
X200190Y156490D03*
D27*
X200690Y95240D03*
D18*
X200690Y106990D03*
D28*
X200690Y116240D03*
X200690Y126740D03*
D29*
X200690Y134740D03*
D24*
X200690Y146990D03*
D28*
X200690Y156240D03*
D26*
X201190Y95490D03*
D28*
X201190Y106740D03*
D20*
X201190Y116490D03*
X201190Y126490D03*
D30*
X201190Y134990D03*
D24*
X201190Y146990D03*
D20*
X201190Y155990D03*
D26*
X201690Y94990D03*
D20*
X201690Y106990D03*
D31*
X201690Y116740D03*
X201690Y126240D03*
D32*
X201690Y135240D03*
D27*
X201690Y146740D03*
D31*
X201690Y155740D03*
D28*
X202190Y92740D03*
D23*
X202190Y97740D03*
D31*
X202190Y106740D03*
X202190Y116740D03*
X202190Y126240D03*
D33*
X202190Y135490D03*
D24*
X202190Y146490D03*
D21*
X202190Y155490D03*
D18*
X202690Y92490D03*
D34*
X202690Y97740D03*
D21*
X202690Y106990D03*
X202690Y116990D03*
X202690Y125990D03*
D23*
X202690Y131740D03*
D20*
X202690Y138490D03*
D18*
X202690Y144490D03*
D35*
X202690Y155240D03*
D18*
X203190Y92490D03*
D35*
X203190Y106740D03*
X203190Y117240D03*
X203190Y125740D03*
D23*
X203190Y131740D03*
D28*
X203190Y139240D03*
D18*
X203190Y144490D03*
D36*
X203190Y154990D03*
D18*
X203690Y92490D03*
D36*
X203690Y106990D03*
X203690Y117490D03*
X203690Y125490D03*
D23*
X203690Y131740D03*
D18*
X203690Y139490D03*
D20*
X203690Y144990D03*
D36*
X203690Y154990D03*
D31*
X204190Y93240D03*
D25*
X204190Y106740D03*
D36*
X204190Y117490D03*
X204190Y125490D03*
D23*
X204190Y131740D03*
D28*
X204190Y139740D03*
D35*
X204190Y145740D03*
D36*
X204190Y154990D03*
X204690Y94490D03*
D24*
X204690Y106990D03*
D25*
X204690Y117740D03*
X204690Y125240D03*
D23*
X204690Y131740D03*
D18*
X204690Y139990D03*
D36*
X204690Y145990D03*
D35*
X204690Y155240D03*
D24*
X205190Y94990D03*
D28*
X205190Y104740D03*
D18*
X205190Y108990D03*
D37*
X205190Y121490D03*
D23*
X205190Y131740D03*
D18*
X205190Y139990D03*
D24*
X205190Y146490D03*
D19*
X205190Y153490D03*
D18*
X205190Y156490D03*
D24*
X205690Y95490D03*
D18*
X205690Y104490D03*
D28*
X205690Y109240D03*
D18*
X205690Y115990D03*
D36*
X205690Y121490D03*
D18*
X205690Y126990D03*
D23*
X205690Y131740D03*
D18*
X205690Y139990D03*
D27*
X205690Y146240D03*
D18*
X205690Y156490D03*
D24*
X206190Y95990D03*
D28*
X206190Y104240D03*
D18*
X206190Y109490D03*
X206190Y115990D03*
D35*
X206190Y121240D03*
D18*
X206190Y126990D03*
D23*
X206190Y131740D03*
D18*
X206190Y139990D03*
D26*
X206190Y146490D03*
D18*
X206190Y156490D03*
D38*
X206740Y96740D03*
D39*
X206740Y103990D03*
X206740Y109490D03*
X206740Y115990D03*
D40*
X206740Y121490D03*
D39*
X206740Y126990D03*
D41*
X206740Y131740D03*
D39*
X206740Y139990D03*
D42*
X206740Y146740D03*
D39*
X206740Y156490D03*
D31*
X207290Y97740D03*
D32*
X207290Y106740D03*
D18*
X207290Y115990D03*
D20*
X207290Y121490D03*
D18*
X207290Y126990D03*
D23*
X207290Y131740D03*
D18*
X207290Y139990D03*
D22*
X207290Y144490D03*
D28*
X207290Y149240D03*
D18*
X207290Y156490D03*
X207790Y98490D03*
D32*
X207790Y106740D03*
D18*
X207790Y115990D03*
X207790Y121490D03*
X207790Y126990D03*
D23*
X207790Y131740D03*
D18*
X207790Y139490D03*
D19*
X207790Y144490D03*
D18*
X207790Y149490D03*
X207790Y156490D03*
D34*
X208190Y92240D03*
D18*
X208190Y98490D03*
D43*
X208190Y106740D03*
D18*
X208190Y115990D03*
X208190Y121490D03*
X208190Y126990D03*
D23*
X208190Y131740D03*
D28*
X208190Y139240D03*
D18*
X208190Y149490D03*
X208190Y156490D03*
D23*
X208690Y92240D03*
D18*
X208690Y98490D03*
D43*
X208690Y106740D03*
D18*
X208690Y115990D03*
D22*
X208690Y121490D03*
D18*
X208690Y126990D03*
D23*
X208690Y131740D03*
D20*
X208690Y138990D03*
D44*
X208690Y143990D03*
D18*
X208690Y149490D03*
X208690Y156490D03*
D39*
X209240Y92490D03*
X209240Y98490D03*
D45*
X209240Y106740D03*
D39*
X209240Y115990D03*
X209240Y126990D03*
D46*
X209240Y135490D03*
D47*
X209240Y143990D03*
D48*
X209240Y149240D03*
D39*
X209240Y156490D03*
D30*
X209790Y95490D03*
D49*
X209790Y106740D03*
D18*
X209790Y115990D03*
X209790Y126990D03*
D32*
X209790Y135240D03*
D26*
X209790Y146490D03*
D18*
X209790Y156490D03*
D29*
X210290Y95240D03*
D28*
X210290Y102240D03*
X210290Y111240D03*
D18*
X210290Y115990D03*
X210290Y126990D03*
D32*
X210290Y135240D03*
D26*
X210290Y146490D03*
D18*
X210290Y156490D03*
D26*
X210690Y95490D03*
D18*
X210690Y101990D03*
X210690Y111490D03*
X210690Y115990D03*
X210690Y126990D03*
D30*
X210690Y134990D03*
D27*
X210690Y146240D03*
D18*
X210690Y156490D03*
D24*
X211190Y95490D03*
D18*
X211190Y101990D03*
D28*
X211190Y111740D03*
D18*
X211190Y115990D03*
X211190Y126990D03*
D26*
X211190Y134490D03*
D24*
X211190Y146490D03*
D18*
X211190Y156490D03*
D50*
X211740Y95490D03*
D41*
X211740Y101740D03*
X211740Y111740D03*
D39*
X211740Y115990D03*
X211740Y126990D03*
D42*
X211740Y134240D03*
D50*
X211740Y146490D03*
D39*
X211740Y156490D03*
D20*
X212290Y95490D03*
D22*
X212290Y101990D03*
X212290Y111490D03*
X212290Y115990D03*
X212290Y126990D03*
D25*
X212290Y133740D03*
D20*
X212290Y146490D03*
D22*
X212290Y156490D03*
D51*
X212790Y95240D03*
D44*
X212790Y146490D03*
D52*
X11320Y200800D03*
D53*
X17770Y200800D03*
D54*
X24220Y200800D03*
D53*
X30370Y200800D03*
D55*
X11320Y200450D03*
D56*
X17920Y200450D03*
D57*
X24220Y200450D03*
D58*
X30370Y200450D03*
D59*
X11470Y200100D03*
D60*
X17770Y200100D03*
D61*
X24370Y200100D03*
D60*
X30370Y200100D03*
D62*
X11320Y199900D03*
D60*
X17770Y199900D03*
D52*
X24220Y199900D03*
D60*
X30370Y199900D03*
D63*
X11320Y199600D03*
D64*
X17920Y199600D03*
D65*
X24370Y199600D03*
D60*
X30370Y199600D03*
D66*
X11170Y199250D03*
D67*
X17770Y199250D03*
D68*
X24220Y199250D03*
D67*
X30370Y199250D03*
D65*
X9670Y198900D03*
D61*
X12670Y198900D03*
D52*
X17920Y198900D03*
D69*
X24370Y198900D03*
D61*
X30370Y198900D03*
D52*
X9520Y198700D03*
D70*
X12670Y198700D03*
D52*
X17920Y198700D03*
D71*
X24220Y198700D03*
D61*
X30370Y198700D03*
D52*
X9520Y198400D03*
X17920Y198400D03*
D72*
X24370Y198400D03*
D61*
X30370Y198400D03*
D73*
X9670Y198050D03*
D74*
X17920Y198050D03*
D75*
X24220Y198050D03*
D76*
X30370Y198050D03*
D69*
X9970Y197700D03*
D52*
X17920Y197700D03*
D59*
X24370Y197700D03*
D61*
X30370Y197700D03*
D77*
X10720Y197400D03*
D52*
X17920Y197400D03*
D62*
X24220Y197400D03*
D61*
X30370Y197400D03*
D62*
X11020Y197200D03*
D52*
X17920Y197200D03*
X23020Y197200D03*
D65*
X25570Y197200D03*
D61*
X30370Y197200D03*
D66*
X11470Y196850D03*
D74*
X17920Y196850D03*
D73*
X22870Y196850D03*
D74*
X25720Y196850D03*
D76*
X30370Y196850D03*
D59*
X11770Y196500D03*
D52*
X17920Y196500D03*
X22720Y196500D03*
D65*
X25870Y196500D03*
D61*
X30370Y196500D03*
D77*
X12220Y196300D03*
D52*
X17920Y196300D03*
D65*
X22570Y196300D03*
D52*
X26020Y196300D03*
D61*
X30370Y196300D03*
D69*
X12670Y196000D03*
D52*
X17920Y196000D03*
D78*
X24370Y196000D03*
D61*
X30370Y196000D03*
D74*
X13120Y195650D03*
X17920Y195650D03*
D79*
X24220Y195650D03*
D76*
X30370Y195650D03*
D80*
X9520Y195300D03*
D52*
X13120Y195300D03*
X17920Y195300D03*
D53*
X24370Y195300D03*
D61*
X30370Y195300D03*
D81*
X9520Y195000D03*
D52*
X13120Y195000D03*
X17920Y195000D03*
D82*
X24220Y195000D03*
D61*
X30370Y195000D03*
D52*
X9520Y194800D03*
X13120Y194800D03*
X17920Y194800D03*
D83*
X24370Y194800D03*
D61*
X30370Y194800D03*
D84*
X11320Y194450D03*
D74*
X17920Y194450D03*
D56*
X24220Y194450D03*
D76*
X30370Y194450D03*
D85*
X11170Y194100D03*
D52*
X17920Y194100D03*
X21520Y194100D03*
D65*
X27070Y194100D03*
D61*
X30370Y194100D03*
D63*
X11320Y193900D03*
D52*
X17920Y193900D03*
X21520Y193900D03*
X27220Y193900D03*
D61*
X30370Y193900D03*
D62*
X11320Y193600D03*
D61*
X17770Y193600D03*
D52*
X21220Y193600D03*
X27220Y193600D03*
D61*
X30370Y193600D03*
D75*
X11320Y193250D03*
D76*
X17770Y193250D03*
X21370Y193250D03*
X27370Y193250D03*
X30370Y193250D03*
D86*
X11320Y192900D03*
D81*
X17920Y192900D03*
D70*
X21370Y192900D03*
D81*
X27220Y192900D03*
D70*
X30370Y192900D03*
D54*
X11320Y192600D03*
D10*
X151000Y169500D02*
X161000Y169500D01*
X161000Y159500D01*
X161000Y77500D02*
X161000Y67500D01*
X151000Y67500D01*
X59000Y159500D02*
X69000Y169500D01*
X59000Y77500D02*
X59000Y67500D01*
X69000Y67500D01*
X54374Y173110D02*
X54376Y173173D01*
X54382Y173236D01*
X54392Y173299D01*
X54405Y173360D01*
X54423Y173421D01*
X54444Y173480D01*
X54469Y173539D01*
X54497Y173595D01*
X54529Y173650D01*
X54564Y173702D01*
X54603Y173752D01*
X54644Y173800D01*
X54689Y173845D01*
X54736Y173887D01*
X54785Y173926D01*
X54837Y173962D01*
X54891Y173995D01*
X54947Y174024D01*
X55005Y174050D01*
X55064Y174072D01*
X55124Y174091D01*
X55186Y174105D01*
X55248Y174116D01*
X55311Y174123D01*
X55374Y174126D01*
X55437Y174125D01*
X55500Y174120D01*
X55563Y174111D01*
X55625Y174098D01*
X55686Y174082D01*
X55746Y174062D01*
X55804Y174038D01*
X55861Y174010D01*
X55916Y173979D01*
X55969Y173945D01*
X56020Y173907D01*
X56068Y173866D01*
X56114Y173823D01*
X56157Y173776D01*
X56197Y173727D01*
X56234Y173676D01*
X56267Y173623D01*
X56297Y173567D01*
X56324Y173510D01*
X56347Y173451D01*
X56366Y173391D01*
X56382Y173329D01*
X56394Y173267D01*
X56402Y173205D01*
X56406Y173142D01*
X56406Y173078D01*
X56402Y173015D01*
X56394Y172953D01*
X56382Y172891D01*
X56366Y172829D01*
X56347Y172769D01*
X56324Y172710D01*
X56297Y172653D01*
X56267Y172597D01*
X56234Y172544D01*
X56197Y172493D01*
X56157Y172444D01*
X56114Y172397D01*
X56068Y172354D01*
X56020Y172313D01*
X55969Y172275D01*
X55916Y172241D01*
X55861Y172210D01*
X55804Y172182D01*
X55746Y172158D01*
X55686Y172138D01*
X55625Y172122D01*
X55563Y172109D01*
X55500Y172100D01*
X55437Y172095D01*
X55374Y172094D01*
X55311Y172097D01*
X55248Y172104D01*
X55186Y172115D01*
X55124Y172129D01*
X55064Y172148D01*
X55005Y172170D01*
X54947Y172196D01*
X54891Y172225D01*
X54837Y172258D01*
X54785Y172294D01*
X54736Y172333D01*
X54689Y172375D01*
X54644Y172420D01*
X54603Y172468D01*
X54564Y172518D01*
X54529Y172570D01*
X54497Y172625D01*
X54469Y172681D01*
X54444Y172740D01*
X54423Y172799D01*
X54405Y172860D01*
X54392Y172921D01*
X54382Y172984D01*
X54376Y173047D01*
X54374Y173110D01*
M02*
