G04 EAGLE Gerber RS-274X export*
G75*
%MOMM*%
%FSLAX34Y34*%
%LPD*%
%IN*%
%IPPOS*%
%AMOC8*
5,1,8,0,0,1.08239X$1,22.5*%
G01*
%ADD10C,0.050000*%
%ADD11C,0.050800*%
%ADD12C,0.101600*%
%ADD13C,0.127000*%
%ADD14C,0.025400*%
%ADD15C,0.254000*%


D10*
X0Y46000D02*
X0Y210000D01*
X220000Y210000D02*
X220000Y46000D01*
X220000Y210000D02*
X219991Y210248D01*
X219976Y210495D01*
X219955Y210742D01*
X219928Y210988D01*
X219895Y211233D01*
X219856Y211478D01*
X219812Y211722D01*
X219761Y211964D01*
X219705Y212205D01*
X219642Y212445D01*
X219574Y212683D01*
X219501Y212920D01*
X219421Y213154D01*
X219336Y213387D01*
X219246Y213617D01*
X219149Y213846D01*
X219048Y214072D01*
X218941Y214295D01*
X218828Y214516D01*
X218710Y214734D01*
X218587Y214949D01*
X218459Y215160D01*
X218326Y215369D01*
X218188Y215575D01*
X218045Y215777D01*
X217897Y215976D01*
X217744Y216171D01*
X217586Y216362D01*
X217424Y216549D01*
X217258Y216733D01*
X217087Y216912D01*
X216912Y217087D01*
X216733Y217258D01*
X216549Y217424D01*
X216362Y217586D01*
X216171Y217744D01*
X215976Y217897D01*
X215777Y218045D01*
X215575Y218188D01*
X215369Y218326D01*
X215160Y218459D01*
X214949Y218587D01*
X214734Y218710D01*
X214516Y218828D01*
X214295Y218941D01*
X214072Y219048D01*
X213846Y219149D01*
X213617Y219246D01*
X213387Y219336D01*
X213154Y219421D01*
X212920Y219501D01*
X212683Y219574D01*
X212445Y219642D01*
X212205Y219705D01*
X211964Y219761D01*
X211722Y219812D01*
X211478Y219856D01*
X211233Y219895D01*
X210988Y219928D01*
X210742Y219955D01*
X210495Y219976D01*
X210248Y219991D01*
X210000Y220000D01*
X10000Y220000D02*
X9752Y219991D01*
X9505Y219976D01*
X9258Y219955D01*
X9012Y219928D01*
X8767Y219895D01*
X8522Y219856D01*
X8278Y219812D01*
X8036Y219761D01*
X7795Y219705D01*
X7555Y219642D01*
X7317Y219574D01*
X7080Y219501D01*
X6846Y219421D01*
X6613Y219336D01*
X6383Y219246D01*
X6154Y219149D01*
X5928Y219048D01*
X5705Y218941D01*
X5484Y218828D01*
X5266Y218710D01*
X5051Y218587D01*
X4840Y218459D01*
X4631Y218326D01*
X4425Y218188D01*
X4223Y218045D01*
X4024Y217897D01*
X3829Y217744D01*
X3638Y217586D01*
X3451Y217424D01*
X3267Y217258D01*
X3088Y217087D01*
X2913Y216912D01*
X2742Y216733D01*
X2576Y216549D01*
X2414Y216362D01*
X2256Y216171D01*
X2103Y215976D01*
X1955Y215777D01*
X1812Y215575D01*
X1674Y215369D01*
X1541Y215160D01*
X1413Y214949D01*
X1290Y214734D01*
X1172Y214516D01*
X1059Y214295D01*
X952Y214072D01*
X851Y213846D01*
X754Y213617D01*
X664Y213387D01*
X579Y213154D01*
X499Y212920D01*
X426Y212683D01*
X358Y212445D01*
X295Y212205D01*
X239Y211964D01*
X188Y211722D01*
X144Y211478D01*
X105Y211233D01*
X72Y210988D01*
X45Y210742D01*
X24Y210495D01*
X9Y210248D01*
X0Y210000D01*
X-1Y46000D02*
X6Y45844D01*
X16Y45688D01*
X30Y45533D01*
X48Y45378D01*
X70Y45224D01*
X96Y45070D01*
X126Y44917D01*
X160Y44765D01*
X197Y44614D01*
X238Y44463D01*
X283Y44314D01*
X332Y44166D01*
X385Y44019D01*
X441Y43874D01*
X501Y43730D01*
X564Y43587D01*
X631Y43447D01*
X702Y43308D01*
X776Y43170D01*
X854Y43035D01*
X934Y42902D01*
X1019Y42771D01*
X1106Y42642D01*
X1197Y42515D01*
X1291Y42390D01*
X1388Y42268D01*
X1488Y42149D01*
X1591Y42032D01*
X1697Y41918D01*
X1806Y41806D01*
X1918Y41697D01*
X2032Y41591D01*
X2149Y41488D01*
X2268Y41388D01*
X2390Y41291D01*
X2515Y41197D01*
X2642Y41106D01*
X2771Y41019D01*
X2902Y40934D01*
X3035Y40854D01*
X3170Y40776D01*
X3308Y40702D01*
X3447Y40631D01*
X3587Y40564D01*
X3730Y40501D01*
X3874Y40441D01*
X4019Y40385D01*
X4166Y40332D01*
X4314Y40283D01*
X4463Y40238D01*
X4614Y40197D01*
X4765Y40160D01*
X4917Y40126D01*
X5070Y40096D01*
X5224Y40070D01*
X5378Y40048D01*
X5533Y40030D01*
X5688Y40016D01*
X5844Y40006D01*
X6000Y39999D01*
X214000Y39999D02*
X214156Y40006D01*
X214312Y40016D01*
X214467Y40030D01*
X214622Y40048D01*
X214776Y40070D01*
X214930Y40096D01*
X215083Y40126D01*
X215235Y40160D01*
X215386Y40197D01*
X215537Y40238D01*
X215686Y40283D01*
X215834Y40332D01*
X215981Y40385D01*
X216126Y40441D01*
X216270Y40501D01*
X216413Y40564D01*
X216553Y40631D01*
X216692Y40702D01*
X216830Y40776D01*
X216965Y40854D01*
X217098Y40934D01*
X217229Y41019D01*
X217358Y41106D01*
X217485Y41197D01*
X217610Y41291D01*
X217732Y41388D01*
X217851Y41488D01*
X217968Y41591D01*
X218082Y41697D01*
X218194Y41806D01*
X218303Y41918D01*
X218409Y42032D01*
X218512Y42149D01*
X218612Y42268D01*
X218709Y42390D01*
X218803Y42515D01*
X218894Y42642D01*
X218981Y42771D01*
X219066Y42902D01*
X219146Y43035D01*
X219224Y43170D01*
X219298Y43308D01*
X219369Y43447D01*
X219436Y43587D01*
X219499Y43730D01*
X219559Y43874D01*
X219615Y44019D01*
X219668Y44166D01*
X219717Y44314D01*
X219762Y44463D01*
X219803Y44614D01*
X219840Y44765D01*
X219874Y44917D01*
X219904Y45070D01*
X219930Y45224D01*
X219952Y45378D01*
X219970Y45533D01*
X219984Y45688D01*
X219994Y45844D01*
X220001Y46000D01*
D11*
X209250Y0D02*
X142250Y0D01*
X130250Y0D02*
X10750Y0D01*
X10750Y35000D01*
X209250Y35000D02*
X209250Y0D01*
X209250Y35000D02*
X209254Y35140D01*
X209263Y35280D01*
X209275Y35420D01*
X209291Y35559D01*
X209311Y35698D01*
X209334Y35836D01*
X209362Y35974D01*
X209393Y36110D01*
X209428Y36246D01*
X209467Y36381D01*
X209509Y36515D01*
X209555Y36647D01*
X209605Y36778D01*
X209658Y36908D01*
X209715Y37036D01*
X209775Y37163D01*
X209838Y37288D01*
X209906Y37411D01*
X209976Y37532D01*
X210050Y37651D01*
X210127Y37769D01*
X210207Y37884D01*
X210290Y37996D01*
X210377Y38107D01*
X210466Y38215D01*
X210558Y38320D01*
X210653Y38423D01*
X210751Y38524D01*
X210852Y38621D01*
X210955Y38716D01*
X211061Y38808D01*
X211170Y38897D01*
X211280Y38983D01*
X211393Y39066D01*
X211509Y39146D01*
X211626Y39222D01*
X211746Y39296D01*
X211867Y39366D01*
X211991Y39432D01*
X212116Y39495D01*
X212243Y39555D01*
X212371Y39611D01*
X212501Y39664D01*
X212632Y39713D01*
X212765Y39759D01*
X212899Y39801D01*
X213034Y39839D01*
X213170Y39873D01*
X213306Y39904D01*
X213444Y39931D01*
X213582Y39954D01*
X213721Y39973D01*
X213861Y39989D01*
X214000Y40001D01*
X10750Y35000D02*
X10744Y35142D01*
X10734Y35285D01*
X10720Y35426D01*
X10702Y35568D01*
X10681Y35709D01*
X10655Y35849D01*
X10626Y35988D01*
X10593Y36127D01*
X10556Y36264D01*
X10515Y36401D01*
X10470Y36536D01*
X10422Y36670D01*
X10370Y36803D01*
X10314Y36934D01*
X10255Y37064D01*
X10192Y37192D01*
X10126Y37318D01*
X10056Y37442D01*
X9983Y37564D01*
X9907Y37684D01*
X9827Y37802D01*
X9744Y37918D01*
X9658Y38032D01*
X9569Y38143D01*
X9476Y38251D01*
X9381Y38357D01*
X9283Y38461D01*
X9182Y38561D01*
X9078Y38659D01*
X8972Y38754D01*
X8863Y38846D01*
X8752Y38934D01*
X8638Y39020D01*
X8522Y39103D01*
X8403Y39182D01*
X8283Y39258D01*
X8160Y39331D01*
X8036Y39400D01*
X7909Y39466D01*
X7781Y39528D01*
X7651Y39587D01*
X7520Y39642D01*
X7387Y39693D01*
X7253Y39741D01*
X7117Y39785D01*
X6981Y39825D01*
X6843Y39862D01*
X6704Y39894D01*
X6565Y39923D01*
X6424Y39948D01*
X6284Y39969D01*
X6142Y39986D01*
X6000Y40000D01*
D12*
X142250Y29000D02*
X142250Y0D01*
X130250Y0D02*
X130250Y29000D01*
X130252Y29153D01*
X130258Y29306D01*
X130268Y29459D01*
X130281Y29612D01*
X130299Y29764D01*
X130320Y29916D01*
X130346Y30067D01*
X130375Y30217D01*
X130408Y30367D01*
X130445Y30516D01*
X130485Y30664D01*
X130530Y30810D01*
X130578Y30956D01*
X130630Y31100D01*
X130685Y31243D01*
X130744Y31384D01*
X130807Y31524D01*
X130873Y31662D01*
X130943Y31799D01*
X131016Y31933D01*
X131093Y32066D01*
X131173Y32197D01*
X131256Y32325D01*
X131342Y32452D01*
X131432Y32576D01*
X131525Y32698D01*
X131621Y32817D01*
X131720Y32934D01*
X131822Y33049D01*
X131927Y33161D01*
X132035Y33270D01*
X132145Y33376D01*
X132258Y33479D01*
X132374Y33580D01*
X132492Y33677D01*
X132613Y33772D01*
X132736Y33863D01*
X132861Y33951D01*
X132989Y34036D01*
X133118Y34118D01*
X133250Y34196D01*
X133384Y34271D01*
X133519Y34343D01*
X133657Y34411D01*
X133796Y34475D01*
X133936Y34536D01*
X134078Y34593D01*
X134222Y34647D01*
X134367Y34697D01*
X134513Y34743D01*
X134660Y34786D01*
X134808Y34824D01*
X134958Y34859D01*
X135108Y34890D01*
X135258Y34918D01*
X135410Y34941D01*
X135562Y34960D01*
X135714Y34976D01*
X135867Y34988D01*
X136020Y34996D01*
X136173Y35000D01*
X136327Y35000D01*
X136480Y34996D01*
X136633Y34988D01*
X136786Y34976D01*
X136938Y34960D01*
X137090Y34941D01*
X137242Y34918D01*
X137392Y34890D01*
X137542Y34859D01*
X137692Y34824D01*
X137840Y34786D01*
X137987Y34743D01*
X138133Y34697D01*
X138278Y34647D01*
X138422Y34593D01*
X138564Y34536D01*
X138704Y34475D01*
X138843Y34411D01*
X138981Y34343D01*
X139116Y34271D01*
X139250Y34196D01*
X139382Y34118D01*
X139511Y34036D01*
X139639Y33951D01*
X139764Y33863D01*
X139887Y33772D01*
X140008Y33677D01*
X140126Y33580D01*
X140242Y33479D01*
X140355Y33376D01*
X140465Y33270D01*
X140573Y33161D01*
X140678Y33049D01*
X140780Y32934D01*
X140879Y32817D01*
X140975Y32698D01*
X141068Y32576D01*
X141158Y32452D01*
X141244Y32325D01*
X141327Y32197D01*
X141407Y32066D01*
X141484Y31933D01*
X141557Y31799D01*
X141627Y31662D01*
X141693Y31524D01*
X141756Y31384D01*
X141815Y31243D01*
X141870Y31100D01*
X141922Y30956D01*
X141970Y30810D01*
X142015Y30664D01*
X142055Y30516D01*
X142092Y30367D01*
X142125Y30217D01*
X142154Y30067D01*
X142180Y29916D01*
X142201Y29764D01*
X142219Y29612D01*
X142232Y29459D01*
X142242Y29306D01*
X142248Y29153D01*
X142250Y29000D01*
D10*
X214000Y39999D02*
X214156Y40006D01*
X214312Y40016D01*
X214467Y40030D01*
X214622Y40048D01*
X214776Y40070D01*
X214930Y40096D01*
X215083Y40126D01*
X215235Y40160D01*
X215386Y40197D01*
X215537Y40238D01*
X215686Y40283D01*
X215834Y40332D01*
X215981Y40385D01*
X216126Y40441D01*
X216270Y40501D01*
X216413Y40564D01*
X216553Y40631D01*
X216692Y40702D01*
X216830Y40776D01*
X216965Y40854D01*
X217098Y40934D01*
X217229Y41019D01*
X217358Y41106D01*
X217485Y41197D01*
X217610Y41291D01*
X217732Y41388D01*
X217851Y41488D01*
X217968Y41591D01*
X218082Y41697D01*
X218194Y41806D01*
X218303Y41918D01*
X218409Y42032D01*
X218512Y42149D01*
X218612Y42268D01*
X218709Y42390D01*
X218803Y42515D01*
X218894Y42642D01*
X218981Y42771D01*
X219066Y42902D01*
X219146Y43035D01*
X219224Y43170D01*
X219298Y43308D01*
X219369Y43447D01*
X219436Y43587D01*
X219499Y43730D01*
X219559Y43874D01*
X219615Y44019D01*
X219668Y44166D01*
X219717Y44314D01*
X219762Y44463D01*
X219803Y44614D01*
X219840Y44765D01*
X219874Y44917D01*
X219904Y45070D01*
X219930Y45224D01*
X219952Y45378D01*
X219970Y45533D01*
X219984Y45688D01*
X219994Y45844D01*
X220001Y46000D01*
X6000Y39999D02*
X5844Y40006D01*
X5688Y40016D01*
X5533Y40030D01*
X5378Y40048D01*
X5224Y40070D01*
X5070Y40096D01*
X4917Y40126D01*
X4765Y40160D01*
X4614Y40197D01*
X4463Y40238D01*
X4314Y40283D01*
X4166Y40332D01*
X4019Y40385D01*
X3874Y40441D01*
X3730Y40501D01*
X3587Y40564D01*
X3447Y40631D01*
X3308Y40702D01*
X3170Y40776D01*
X3035Y40854D01*
X2902Y40934D01*
X2771Y41019D01*
X2642Y41106D01*
X2515Y41197D01*
X2390Y41291D01*
X2268Y41388D01*
X2149Y41488D01*
X2032Y41591D01*
X1918Y41697D01*
X1806Y41806D01*
X1697Y41918D01*
X1591Y42032D01*
X1488Y42149D01*
X1388Y42268D01*
X1291Y42390D01*
X1197Y42515D01*
X1106Y42642D01*
X1019Y42771D01*
X934Y42902D01*
X854Y43035D01*
X776Y43170D01*
X702Y43308D01*
X631Y43447D01*
X564Y43587D01*
X501Y43730D01*
X441Y43874D01*
X385Y44019D01*
X332Y44166D01*
X283Y44314D01*
X238Y44463D01*
X197Y44614D01*
X160Y44765D01*
X126Y44917D01*
X96Y45070D01*
X70Y45224D01*
X48Y45378D01*
X30Y45533D01*
X16Y45688D01*
X6Y45844D01*
X-1Y46000D01*
X10000Y220000D02*
X133000Y220000D01*
X168000Y220000D02*
X210000Y220000D01*
X150500Y202500D02*
X150077Y202505D01*
X149655Y202520D01*
X149232Y202546D01*
X148811Y202582D01*
X148391Y202628D01*
X147971Y202684D01*
X147554Y202750D01*
X147138Y202826D01*
X146724Y202912D01*
X146312Y203009D01*
X145903Y203115D01*
X145496Y203231D01*
X145092Y203357D01*
X144692Y203492D01*
X144294Y203637D01*
X143901Y203792D01*
X143511Y203956D01*
X143125Y204130D01*
X142744Y204313D01*
X142367Y204505D01*
X141995Y204706D01*
X141628Y204916D01*
X141266Y205134D01*
X140910Y205362D01*
X140559Y205598D01*
X140214Y205842D01*
X139875Y206095D01*
X139542Y206356D01*
X139215Y206624D01*
X138895Y206901D01*
X138582Y207185D01*
X138276Y207477D01*
X137977Y207776D01*
X137685Y208082D01*
X137401Y208395D01*
X137124Y208715D01*
X136856Y209042D01*
X136595Y209375D01*
X136342Y209714D01*
X136098Y210059D01*
X135862Y210410D01*
X135634Y210766D01*
X135416Y211128D01*
X135206Y211495D01*
X135005Y211867D01*
X134813Y212244D01*
X134630Y212625D01*
X134456Y213011D01*
X134292Y213401D01*
X134137Y213794D01*
X133992Y214192D01*
X133857Y214592D01*
X133731Y214996D01*
X133615Y215403D01*
X133509Y215812D01*
X133412Y216224D01*
X133326Y216638D01*
X133250Y217054D01*
X133184Y217471D01*
X133128Y217891D01*
X133082Y218311D01*
X133046Y218732D01*
X133020Y219155D01*
X133005Y219577D01*
X133000Y220000D01*
X150500Y202500D02*
X150923Y202505D01*
X151345Y202520D01*
X151768Y202546D01*
X152189Y202582D01*
X152609Y202628D01*
X153029Y202684D01*
X153446Y202750D01*
X153862Y202826D01*
X154276Y202912D01*
X154688Y203009D01*
X155097Y203115D01*
X155504Y203231D01*
X155908Y203357D01*
X156308Y203492D01*
X156706Y203637D01*
X157099Y203792D01*
X157489Y203956D01*
X157875Y204130D01*
X158256Y204313D01*
X158633Y204505D01*
X159005Y204706D01*
X159372Y204916D01*
X159734Y205134D01*
X160090Y205362D01*
X160441Y205598D01*
X160786Y205842D01*
X161125Y206095D01*
X161458Y206356D01*
X161785Y206624D01*
X162105Y206901D01*
X162418Y207185D01*
X162724Y207477D01*
X163023Y207776D01*
X163315Y208082D01*
X163599Y208395D01*
X163876Y208715D01*
X164144Y209042D01*
X164405Y209375D01*
X164658Y209714D01*
X164902Y210059D01*
X165138Y210410D01*
X165366Y210766D01*
X165584Y211128D01*
X165794Y211495D01*
X165995Y211867D01*
X166187Y212244D01*
X166370Y212625D01*
X166544Y213011D01*
X166708Y213401D01*
X166863Y213794D01*
X167008Y214192D01*
X167143Y214592D01*
X167269Y214996D01*
X167385Y215403D01*
X167491Y215812D01*
X167588Y216224D01*
X167674Y216638D01*
X167750Y217054D01*
X167816Y217471D01*
X167872Y217891D01*
X167918Y218311D01*
X167954Y218732D01*
X167980Y219155D01*
X167995Y219577D01*
X168000Y220000D01*
D13*
X66742Y-6820D02*
X67801Y-7879D01*
X66742Y-6820D02*
X64624Y-6820D01*
X63564Y-7879D01*
X63564Y-12116D01*
X64624Y-13175D01*
X66742Y-13175D01*
X67801Y-12116D01*
X70581Y-13175D02*
X70581Y-6820D01*
X71640Y-8938D02*
X70581Y-9997D01*
X71640Y-8938D02*
X73758Y-8938D01*
X74818Y-9997D01*
X74818Y-13175D01*
X78656Y-8938D02*
X80775Y-8938D01*
X81834Y-9997D01*
X81834Y-13175D01*
X78656Y-13175D01*
X77597Y-12116D01*
X78656Y-11057D01*
X81834Y-11057D01*
X84613Y-13175D02*
X84613Y-8938D01*
X85673Y-8938D01*
X86732Y-9997D01*
X86732Y-13175D01*
X86732Y-9997D02*
X87791Y-8938D01*
X88850Y-9997D01*
X88850Y-13175D01*
X92689Y-13175D02*
X92689Y-7879D01*
X93748Y-6820D01*
X93748Y-9997D02*
X91630Y-9997D01*
X97367Y-13175D02*
X99485Y-13175D01*
X97367Y-13175D02*
X96307Y-12116D01*
X96307Y-9997D01*
X97367Y-8938D01*
X99485Y-8938D01*
X100544Y-9997D01*
X100544Y-11057D01*
X96307Y-11057D01*
X103324Y-13175D02*
X103324Y-8938D01*
X105442Y-8938D02*
X103324Y-11057D01*
X105442Y-8938D02*
X106501Y-8938D01*
X110230Y-13175D02*
X112348Y-13175D01*
X110230Y-13175D02*
X109171Y-12116D01*
X109171Y-9997D01*
X110230Y-8938D01*
X112348Y-8938D01*
X113408Y-9997D01*
X113408Y-11057D01*
X109171Y-11057D01*
X120424Y-13175D02*
X120424Y-6820D01*
X120424Y-13175D02*
X117246Y-13175D01*
X116187Y-12116D01*
X116187Y-9997D01*
X117246Y-8938D01*
X120424Y-8938D01*
X130220Y-6820D02*
X134457Y-6820D01*
X130220Y-6820D02*
X130220Y-13175D01*
X134457Y-13175D01*
X132338Y-9997D02*
X130220Y-9997D01*
X141473Y-6820D02*
X141473Y-13175D01*
X138295Y-13175D01*
X137236Y-12116D01*
X137236Y-9997D01*
X138295Y-8938D01*
X141473Y-8938D01*
X146371Y-15293D02*
X147430Y-15293D01*
X148490Y-14234D01*
X148490Y-8938D01*
X145312Y-8938D01*
X144253Y-9997D01*
X144253Y-12116D01*
X145312Y-13175D01*
X148490Y-13175D01*
X152328Y-13175D02*
X154447Y-13175D01*
X152328Y-13175D02*
X151269Y-12116D01*
X151269Y-9997D01*
X152328Y-8938D01*
X154447Y-8938D01*
X155506Y-9997D01*
X155506Y-11057D01*
X151269Y-11057D01*
D12*
X210290Y-2000D02*
X216290Y-8000D01*
X210290Y-6000D02*
X210290Y-2000D01*
X214290Y-2000D01*
X10290Y-2000D02*
X4290Y-8000D01*
X6290Y-2000D02*
X10290Y-2000D01*
X10290Y-6000D01*
D13*
X81105Y-20579D02*
X81105Y-24816D01*
X81105Y-20579D02*
X82165Y-19520D01*
X84283Y-19520D01*
X85342Y-20579D01*
X85342Y-24816D01*
X84283Y-25875D01*
X82165Y-25875D01*
X81105Y-24816D01*
X85342Y-20579D01*
X88122Y-24816D02*
X88122Y-25875D01*
X88122Y-24816D02*
X89181Y-24816D01*
X89181Y-25875D01*
X88122Y-25875D01*
X91630Y-20579D02*
X92689Y-19520D01*
X94808Y-19520D01*
X95867Y-20579D01*
X95867Y-21638D01*
X94808Y-22697D01*
X95867Y-23757D01*
X95867Y-24816D01*
X94808Y-25875D01*
X92689Y-25875D01*
X91630Y-24816D01*
X91630Y-23757D01*
X92689Y-22697D01*
X91630Y-21638D01*
X91630Y-20579D01*
X92689Y-22697D02*
X94808Y-22697D01*
X98646Y-21638D02*
X98646Y-25875D01*
X98646Y-21638D02*
X99705Y-21638D01*
X100765Y-22697D01*
X100765Y-25875D01*
X100765Y-22697D02*
X101824Y-21638D01*
X102883Y-22697D01*
X102883Y-25875D01*
X105663Y-25875D02*
X105663Y-21638D01*
X106722Y-21638D01*
X107781Y-22697D01*
X107781Y-25875D01*
X107781Y-22697D02*
X108840Y-21638D01*
X109900Y-22697D01*
X109900Y-25875D01*
X119695Y-25875D02*
X119695Y-19520D01*
X122873Y-19520D01*
X123932Y-20579D01*
X123932Y-22697D01*
X122873Y-23757D01*
X119695Y-23757D01*
X129889Y-19520D02*
X130949Y-20579D01*
X129889Y-19520D02*
X127771Y-19520D01*
X126712Y-20579D01*
X126712Y-24816D01*
X127771Y-25875D01*
X129889Y-25875D01*
X130949Y-24816D01*
X133728Y-25875D02*
X133728Y-19520D01*
X136906Y-19520D01*
X137965Y-20579D01*
X137965Y-21638D01*
X136906Y-22697D01*
X137965Y-23757D01*
X137965Y-24816D01*
X136906Y-25875D01*
X133728Y-25875D01*
X133728Y-22697D02*
X136906Y-22697D01*
D14*
X144172Y213877D02*
X144172Y216625D01*
X145546Y216625D01*
X146004Y216167D01*
X146004Y215251D01*
X145546Y214793D01*
X144172Y214793D01*
X145088Y214793D02*
X146004Y213877D01*
X147392Y213877D02*
X148308Y213877D01*
X148766Y214335D01*
X148766Y215251D01*
X148308Y215709D01*
X147392Y215709D01*
X146934Y215251D01*
X146934Y214335D01*
X147392Y213877D01*
X149696Y214335D02*
X149696Y215709D01*
X149696Y214335D02*
X150154Y213877D01*
X151528Y213877D01*
X151528Y215709D01*
X152917Y216167D02*
X152917Y214335D01*
X153375Y213877D01*
X153375Y215709D02*
X152459Y215709D01*
X154758Y213877D02*
X155674Y213877D01*
X154758Y213877D02*
X154300Y214335D01*
X154300Y215251D01*
X154758Y215709D01*
X155674Y215709D01*
X156132Y215251D01*
X156132Y214793D01*
X154300Y214793D01*
X148308Y212125D02*
X147392Y212125D01*
X146934Y211667D01*
X146934Y209835D01*
X147392Y209377D01*
X148308Y209377D01*
X148766Y209835D01*
X148766Y211667D01*
X148308Y212125D01*
X149696Y211209D02*
X149696Y209835D01*
X150154Y209377D01*
X151528Y209377D01*
X151528Y211209D01*
X152917Y211667D02*
X152917Y209835D01*
X153375Y209377D01*
X153375Y211209D02*
X152459Y211209D01*
D15*
X0Y46000D02*
X8Y45808D01*
X64Y45272D01*
X166Y44743D01*
X313Y44225D01*
X505Y43721D01*
X740Y43237D01*
X1017Y42774D01*
X1333Y42338D01*
X1686Y41931D01*
X2072Y41556D01*
X2491Y41216D01*
X2937Y40914D01*
X3407Y40652D01*
X3899Y40432D01*
X4408Y40255D01*
X4931Y40124D01*
X5463Y40039D01*
X6000Y40000D01*
X6342Y39961D01*
X6784Y39876D01*
X7217Y39753D01*
X7638Y39593D01*
X8043Y39396D01*
X8430Y39165D01*
X8795Y38901D01*
X9135Y38606D01*
X9449Y38283D01*
X9733Y37933D01*
X9986Y37561D01*
X10205Y37167D01*
X10389Y36756D01*
X10536Y36331D01*
X10646Y35894D01*
X10718Y35449D01*
X10750Y35000D01*
X10750Y0D01*
X130250Y0D01*
X130250Y29000D01*
X130273Y29523D01*
X130341Y30042D01*
X130454Y30553D01*
X130612Y31052D01*
X130812Y31536D01*
X131054Y32000D01*
X131335Y32441D01*
X131654Y32857D01*
X132007Y33243D01*
X132393Y33596D01*
X132809Y33915D01*
X133250Y34196D01*
X133714Y34438D01*
X134198Y34638D01*
X134697Y34796D01*
X135208Y34909D01*
X135727Y34977D01*
X136250Y35000D01*
X136773Y34977D01*
X137292Y34909D01*
X137803Y34796D01*
X138302Y34638D01*
X138786Y34438D01*
X139250Y34196D01*
X139691Y33915D01*
X140107Y33596D01*
X140493Y33243D01*
X140846Y32857D01*
X141165Y32441D01*
X141446Y32000D01*
X141688Y31536D01*
X141888Y31052D01*
X142046Y30553D01*
X142159Y30042D01*
X142227Y29523D01*
X142250Y29000D01*
X142250Y0D01*
X209250Y0D01*
X209250Y35000D01*
X209277Y35440D01*
X209343Y35881D01*
X209447Y36314D01*
X209588Y36736D01*
X209766Y37145D01*
X209979Y37536D01*
X210225Y37908D01*
X210502Y38256D01*
X210809Y38580D01*
X211142Y38875D01*
X211501Y39140D01*
X211880Y39372D01*
X212279Y39571D01*
X212694Y39734D01*
X213121Y39861D01*
X213557Y39950D01*
X214000Y40000D01*
X214192Y40008D01*
X214728Y40064D01*
X215257Y40166D01*
X215775Y40313D01*
X216279Y40505D01*
X216763Y40740D01*
X217226Y41017D01*
X217662Y41333D01*
X218069Y41686D01*
X218444Y42072D01*
X218784Y42491D01*
X219086Y42937D01*
X219348Y43407D01*
X219568Y43899D01*
X219745Y44408D01*
X219876Y44931D01*
X219961Y45463D01*
X220000Y46000D01*
X220000Y210000D01*
X219983Y210394D01*
X219888Y211284D01*
X219715Y212161D01*
X219467Y213021D01*
X219145Y213855D01*
X218752Y214659D01*
X218290Y215424D01*
X217763Y216147D01*
X217175Y216821D01*
X216530Y217441D01*
X215834Y218003D01*
X215092Y218502D01*
X214308Y218934D01*
X213491Y219296D01*
X212644Y219586D01*
X211776Y219801D01*
X210892Y219939D01*
X210000Y220000D01*
X168000Y220000D01*
X167933Y218475D01*
X167734Y216961D01*
X167404Y215471D01*
X166945Y214015D01*
X166360Y212604D01*
X165655Y211250D01*
X164835Y209962D01*
X163906Y208751D01*
X162874Y207626D01*
X161749Y206594D01*
X160538Y205665D01*
X159250Y204845D01*
X157896Y204140D01*
X156485Y203555D01*
X155029Y203096D01*
X153539Y202766D01*
X152025Y202567D01*
X150500Y202500D01*
X148975Y202567D01*
X147461Y202766D01*
X145971Y203096D01*
X144515Y203555D01*
X143104Y204140D01*
X141750Y204845D01*
X140462Y205665D01*
X139251Y206594D01*
X138126Y207626D01*
X137094Y208751D01*
X136165Y209962D01*
X135345Y211250D01*
X134640Y212604D01*
X134055Y214015D01*
X133596Y215471D01*
X133266Y216961D01*
X133067Y218475D01*
X133000Y220000D01*
X10000Y220000D01*
X9606Y219983D01*
X8716Y219888D01*
X7839Y219715D01*
X6979Y219467D01*
X6145Y219145D01*
X5342Y218752D01*
X4576Y218290D01*
X3853Y217763D01*
X3179Y217175D01*
X2559Y216530D01*
X1997Y215834D01*
X1498Y215092D01*
X1066Y214308D01*
X704Y213491D01*
X414Y212644D01*
X199Y211776D01*
X61Y210892D01*
X0Y210000D01*
X0Y46000D01*
M02*
