G04 EAGLE Gerber RS-274X export*
G75*
%MOMM*%
%FSLAX34Y34*%
%LPD*%
%INSolderpaste Top*%
%IPPOS*%
%AMOC8*
5,1,8,0,0,1.08239X$1,22.5*%
G01*
%ADD10R,1.800000X1.000000*%
%ADD11R,0.600000X0.600000*%
%ADD12C,0.300000*%
%ADD13R,1.000000X0.220000*%
%ADD14R,0.220000X1.000000*%


D10*
X26670Y166170D03*
X26670Y141170D03*
D11*
X24050Y177070D03*
X14050Y177070D03*
X24050Y129770D03*
X14050Y129770D03*
D12*
X17082Y204780D02*
X17082Y211780D01*
X17082Y204780D02*
X10082Y204780D01*
X10082Y211780D01*
X17082Y211780D01*
X17082Y207630D02*
X10082Y207630D01*
X10082Y210480D02*
X17082Y210480D01*
X34622Y211780D02*
X34622Y204780D01*
X27622Y204780D01*
X27622Y211780D01*
X34622Y211780D01*
X34622Y207630D02*
X27622Y207630D01*
X27622Y210480D02*
X34622Y210480D01*
D11*
X90060Y48260D03*
X100060Y48260D03*
X26580Y114500D03*
X26580Y104500D03*
X192358Y151638D03*
X202358Y151638D03*
X111640Y194302D03*
X101640Y194302D03*
X187960Y88820D03*
X187960Y78820D03*
X7668Y104394D03*
X7668Y114394D03*
X17068Y114500D03*
X17068Y104500D03*
X111648Y203836D03*
X101648Y203836D03*
X135810Y188968D03*
X125810Y188968D03*
D13*
X52500Y121000D03*
X52500Y116000D03*
X52500Y131000D03*
X52500Y141000D03*
X52500Y151000D03*
X52500Y126000D03*
X52500Y136000D03*
X52500Y146000D03*
X52500Y156000D03*
X52500Y106000D03*
X52500Y96000D03*
X52500Y86000D03*
X52500Y81000D03*
X52500Y91000D03*
X52500Y101000D03*
X52500Y111000D03*
D14*
X107500Y61000D03*
X112500Y61000D03*
X97500Y61000D03*
X87500Y61000D03*
X77500Y61000D03*
X102500Y61000D03*
X92500Y61000D03*
X82500Y61000D03*
X72500Y61000D03*
X122500Y61000D03*
X132500Y61000D03*
X142500Y61000D03*
X147500Y61000D03*
X137500Y61000D03*
X127500Y61000D03*
X117500Y61000D03*
D13*
X167500Y116000D03*
X167500Y121000D03*
X167500Y106000D03*
X167500Y96000D03*
X167500Y86000D03*
X167500Y111000D03*
X167500Y101000D03*
X167500Y91000D03*
X167500Y81000D03*
X167500Y131000D03*
X167500Y141000D03*
X167500Y151000D03*
X167500Y156000D03*
X167500Y146000D03*
X167500Y136000D03*
X167500Y126000D03*
D14*
X112500Y176000D03*
X107500Y176000D03*
X122500Y176000D03*
X132500Y176000D03*
X142500Y176000D03*
X117500Y176000D03*
X127500Y176000D03*
X137500Y176000D03*
X147500Y176000D03*
X97500Y176000D03*
X87500Y176000D03*
X77500Y176000D03*
X72500Y176000D03*
X82500Y176000D03*
X92500Y176000D03*
X102500Y176000D03*
M02*
