G04 EAGLE Gerber RS-274X export*
G75*
%MOMM*%
%FSLAX34Y34*%
%LPD*%
%INSolderpaste Bottom*%
%IPPOS*%
%AMOC8*
5,1,8,0,0,1.08239X$1,22.5*%
G01*
%ADD10R,0.600000X0.600000*%
%ADD11R,0.850000X0.500000*%
%ADD12R,0.830000X0.630000*%


D10*
X138350Y161410D03*
X128350Y161410D03*
X27098Y208280D03*
X17098Y208280D03*
D11*
X143320Y138430D03*
X143320Y125730D03*
X143320Y113030D03*
X143320Y100330D03*
X87820Y113030D03*
X87820Y100330D03*
X87820Y125730D03*
X87820Y138430D03*
D10*
X103310Y203360D03*
X103310Y193360D03*
X87710Y153670D03*
X97710Y153670D03*
X138350Y152170D03*
X128350Y152170D03*
D12*
X11430Y81000D03*
X11430Y58000D03*
D10*
X363419Y161410D03*
X353419Y161410D03*
X252167Y208280D03*
X242167Y208280D03*
D11*
X368389Y138430D03*
X368389Y125730D03*
X368389Y113030D03*
X368389Y100330D03*
X312889Y113030D03*
X312889Y100330D03*
X312889Y125730D03*
X312889Y138430D03*
D10*
X328379Y203360D03*
X328379Y193360D03*
X312779Y153670D03*
X322779Y153670D03*
X363419Y152170D03*
X353419Y152170D03*
D12*
X236499Y81000D03*
X236499Y58000D03*
D10*
X588514Y161410D03*
X578514Y161410D03*
X477262Y208280D03*
X467262Y208280D03*
D11*
X593484Y138430D03*
X593484Y125730D03*
X593484Y113030D03*
X593484Y100330D03*
X537984Y113030D03*
X537984Y100330D03*
X537984Y125730D03*
X537984Y138430D03*
D10*
X553474Y203360D03*
X553474Y193360D03*
X537874Y153670D03*
X547874Y153670D03*
X588514Y152170D03*
X578514Y152170D03*
D12*
X461594Y81000D03*
X461594Y58000D03*
D10*
X813584Y161410D03*
X803584Y161410D03*
X702332Y208280D03*
X692332Y208280D03*
D11*
X818554Y138430D03*
X818554Y125730D03*
X818554Y113030D03*
X818554Y100330D03*
X763054Y113030D03*
X763054Y100330D03*
X763054Y125730D03*
X763054Y138430D03*
D10*
X778544Y203360D03*
X778544Y193360D03*
X762944Y153670D03*
X772944Y153670D03*
X813584Y152170D03*
X803584Y152170D03*
D12*
X686664Y81000D03*
X686664Y58000D03*
D10*
X1038678Y161410D03*
X1028678Y161410D03*
X927426Y208280D03*
X917426Y208280D03*
D11*
X1043648Y138430D03*
X1043648Y125730D03*
X1043648Y113030D03*
X1043648Y100330D03*
X988148Y113030D03*
X988148Y100330D03*
X988148Y125730D03*
X988148Y138430D03*
D10*
X1003638Y203360D03*
X1003638Y193360D03*
X988038Y153670D03*
X998038Y153670D03*
X1038678Y152170D03*
X1028678Y152170D03*
D12*
X911758Y81000D03*
X911758Y58000D03*
D10*
X1263748Y161410D03*
X1253748Y161410D03*
X1152496Y208280D03*
X1142496Y208280D03*
D11*
X1268718Y138430D03*
X1268718Y125730D03*
X1268718Y113030D03*
X1268718Y100330D03*
X1213218Y113030D03*
X1213218Y100330D03*
X1213218Y125730D03*
X1213218Y138430D03*
D10*
X1228708Y203360D03*
X1228708Y193360D03*
X1213108Y153670D03*
X1223108Y153670D03*
X1263748Y152170D03*
X1253748Y152170D03*
D12*
X1136828Y81000D03*
X1136828Y58000D03*
D10*
X1488843Y161410D03*
X1478843Y161410D03*
X1377591Y208280D03*
X1367591Y208280D03*
D11*
X1493813Y138430D03*
X1493813Y125730D03*
X1493813Y113030D03*
X1493813Y100330D03*
X1438313Y113030D03*
X1438313Y100330D03*
X1438313Y125730D03*
X1438313Y138430D03*
D10*
X1453803Y203360D03*
X1453803Y193360D03*
X1438203Y153670D03*
X1448203Y153670D03*
X1488843Y152170D03*
X1478843Y152170D03*
D12*
X1361923Y81000D03*
X1361923Y58000D03*
D10*
X1713912Y161410D03*
X1703912Y161410D03*
X1602660Y208280D03*
X1592660Y208280D03*
D11*
X1718882Y138430D03*
X1718882Y125730D03*
X1718882Y113030D03*
X1718882Y100330D03*
X1663382Y113030D03*
X1663382Y100330D03*
X1663382Y125730D03*
X1663382Y138430D03*
D10*
X1678872Y203360D03*
X1678872Y193360D03*
X1663272Y153670D03*
X1673272Y153670D03*
X1713912Y152170D03*
X1703912Y152170D03*
D12*
X1586992Y81000D03*
X1586992Y58000D03*
D10*
X81639Y537090D03*
X91639Y537090D03*
X192891Y490220D03*
X202891Y490220D03*
D11*
X76669Y560070D03*
X76669Y572770D03*
X76669Y585470D03*
X76669Y598170D03*
X132169Y585470D03*
X132169Y598170D03*
X132169Y572770D03*
X132169Y560070D03*
D10*
X116679Y495140D03*
X116679Y505140D03*
X132279Y544830D03*
X122279Y544830D03*
X81639Y546330D03*
X91639Y546330D03*
D12*
X208559Y617500D03*
X208559Y640500D03*
D10*
X306734Y537090D03*
X316734Y537090D03*
X417986Y490220D03*
X427986Y490220D03*
D11*
X301764Y560070D03*
X301764Y572770D03*
X301764Y585470D03*
X301764Y598170D03*
X357264Y585470D03*
X357264Y598170D03*
X357264Y572770D03*
X357264Y560070D03*
D10*
X341774Y495140D03*
X341774Y505140D03*
X357374Y544830D03*
X347374Y544830D03*
X306734Y546330D03*
X316734Y546330D03*
D12*
X433654Y617500D03*
X433654Y640500D03*
D10*
X531804Y537090D03*
X541804Y537090D03*
X643056Y490220D03*
X653056Y490220D03*
D11*
X526834Y560070D03*
X526834Y572770D03*
X526834Y585470D03*
X526834Y598170D03*
X582334Y585470D03*
X582334Y598170D03*
X582334Y572770D03*
X582334Y560070D03*
D10*
X566844Y495140D03*
X566844Y505140D03*
X582444Y544830D03*
X572444Y544830D03*
X531804Y546330D03*
X541804Y546330D03*
D12*
X658724Y617500D03*
X658724Y640500D03*
D10*
X756898Y537090D03*
X766898Y537090D03*
X868150Y490220D03*
X878150Y490220D03*
D11*
X751928Y560070D03*
X751928Y572770D03*
X751928Y585470D03*
X751928Y598170D03*
X807428Y585470D03*
X807428Y598170D03*
X807428Y572770D03*
X807428Y560070D03*
D10*
X791938Y495140D03*
X791938Y505140D03*
X807538Y544830D03*
X797538Y544830D03*
X756898Y546330D03*
X766898Y546330D03*
D12*
X883818Y617500D03*
X883818Y640500D03*
D10*
X981968Y537090D03*
X991968Y537090D03*
X1093220Y490220D03*
X1103220Y490220D03*
D11*
X976998Y560070D03*
X976998Y572770D03*
X976998Y585470D03*
X976998Y598170D03*
X1032498Y585470D03*
X1032498Y598170D03*
X1032498Y572770D03*
X1032498Y560070D03*
D10*
X1017008Y495140D03*
X1017008Y505140D03*
X1032608Y544830D03*
X1022608Y544830D03*
X981968Y546330D03*
X991968Y546330D03*
D12*
X1108888Y617500D03*
X1108888Y640500D03*
D10*
X1207063Y537090D03*
X1217063Y537090D03*
X1318315Y490220D03*
X1328315Y490220D03*
D11*
X1202093Y560070D03*
X1202093Y572770D03*
X1202093Y585470D03*
X1202093Y598170D03*
X1257593Y585470D03*
X1257593Y598170D03*
X1257593Y572770D03*
X1257593Y560070D03*
D10*
X1242103Y495140D03*
X1242103Y505140D03*
X1257703Y544830D03*
X1247703Y544830D03*
X1207063Y546330D03*
X1217063Y546330D03*
D12*
X1333983Y617500D03*
X1333983Y640500D03*
D10*
X1432132Y537090D03*
X1442132Y537090D03*
X1543384Y490220D03*
X1553384Y490220D03*
D11*
X1427162Y560070D03*
X1427162Y572770D03*
X1427162Y585470D03*
X1427162Y598170D03*
X1482662Y585470D03*
X1482662Y598170D03*
X1482662Y572770D03*
X1482662Y560070D03*
D10*
X1467172Y495140D03*
X1467172Y505140D03*
X1482772Y544830D03*
X1472772Y544830D03*
X1432132Y546330D03*
X1442132Y546330D03*
D12*
X1559052Y617500D03*
X1559052Y640500D03*
D10*
X1657201Y537090D03*
X1667201Y537090D03*
X1768453Y490220D03*
X1778453Y490220D03*
D11*
X1652231Y560070D03*
X1652231Y572770D03*
X1652231Y585470D03*
X1652231Y598170D03*
X1707731Y585470D03*
X1707731Y598170D03*
X1707731Y572770D03*
X1707731Y560070D03*
D10*
X1692241Y495140D03*
X1692241Y505140D03*
X1707841Y544830D03*
X1697841Y544830D03*
X1657201Y546330D03*
X1667201Y546330D03*
D12*
X1784121Y617500D03*
X1784121Y640500D03*
M02*
