M48
;GenerationSoftware,Autodesk,EAGLE,9.5.2*%
;CreationDate,2020-05-21T15:05:07Z*%
FMAT,2
ICI,OFF
METRIC,TZ,000.000
T2C0.200
T1C0.254
%
G90
M71
T1
X8230Y4953
X935Y9610
X18546Y15953
X18796Y9804
X7874Y15392
X11963Y15828
X2700Y3250
X20447Y3429
X1650Y3250
T2
X14344Y10698
X10795Y15342
X11378Y4833
X6288Y12591
X2155Y9669
X586Y12947
X534Y17832
X18593Y2921
X9474Y2872
X4344Y12580
X16799Y7592
X17678Y15085
X8840Y20702
X21286Y15114
X11900Y18471
X1473Y2342
X21361Y4597
X18850Y7050
X20543Y2771
X18569Y10770
X10414Y3658
X12141Y8433
X8611Y7976
X14681Y2819
X10795Y16688
X15446Y16871
X1296Y14467
X17600Y13600
X19078Y10312
X18567Y5207
X1966Y7395
X18546Y11684
X9849Y3661
X10744Y16027
X17950Y3850
X17576Y2898
X18443Y4521
X14980Y14742
X7112Y14732
X11481Y3632
X10740Y13080
X6858Y9347
X4701Y4270
X15337Y4415
X15726Y3331
X3048Y19812
X10753Y18502
X15291Y3048
X12319Y7087
X1941Y6099
X16675Y3825
X5742Y3281
X6128Y7513
X11031Y7342
X11659Y7087
X8153Y8204
X9220Y8179
X9296Y6934
X9800Y16800
X8558Y3677
X19050Y5842
X18212Y12525
X17743Y13063
X17602Y6071
X11812Y5232
X10000Y18550
X9169Y3675
X4196Y10554
X5029Y18517
X4362Y11360
X4597Y16612
X4324Y9986
X5512Y16535
X5715Y5563
X5969Y17094
X5657Y4566
X13574Y4461
X6157Y4031
X13998Y4212
X6883Y10109
X16735Y4746
X14900Y11902
X6858Y12116
X6198Y4955
X2850Y9100
X6200Y13650
X2800Y8600
X6450Y11100
X18852Y11126
X19585Y4600
X11807Y19293
X11557Y2821
X12949Y21000
X17149Y21000
X15049Y19700
M30