M48
;GenerationSoftware,Autodesk,EAGLE,9.6.2*%
;CreationDate,2021-12-16T19:40:49Z*%
FMAT,2
ICI,OFF
METRIC,TZ,000.000
T2C0.200
T1C0.254
%
G90
M71
T1
X8390Y4853
X935Y9610
X18546Y15953
X18976Y8584
X7874Y15392
X12043Y15178
X2630Y2820
X69173Y3250
X131086Y15953
X131516Y8584
X120414Y15392
X124583Y15178
X115170Y2820
X9956Y54672
X19369Y67030
X13609Y64997
X110607Y3810
X43081Y3810
X24157Y3250
X91683Y3250
X21064Y60240
X165946Y4853
X158491Y9610
X176102Y15953
X176532Y8584
X165430Y15392
X169600Y15178
X20574Y3810
X1650Y3250
X65590Y3810
X46666Y3250
X143439Y4853
X133114Y3810
X114190Y3250
X135984Y9610
X153595Y15953
X154025Y8584
X142923Y15392
X98422Y4853
X90968Y9610
X108579Y15953
X109009Y8584
X97907Y15392
X102076Y15178
X92663Y2820
X53406Y4853
X45951Y9610
X63562Y15953
X63992Y8584
X52890Y15392
X57060Y15178
X47646Y2820
X147093Y15178
X30897Y4853
X23442Y9610
X41053Y15953
X41483Y8584
X30381Y15392
X34550Y15178
X25137Y2820
X137679Y2820
X160186Y2820
X3453Y53897
X155623Y3810
X136699Y3250
X3023Y61266
X178130Y3810
X159206Y3250
X14125Y54458
X75913Y4853
X68458Y9610
X86069Y15953
X86499Y8584
X75397Y15392
X79567Y15178
X70153Y2820
X120929Y4853
X113475Y9610
X88097Y3810
X1425Y66040
X20349Y66600
X36119Y64997
X43573Y60240
X25962Y53897
X25532Y61266
X36634Y54458
X32465Y54672
X41878Y67030
X23934Y66040
X42858Y66600
X58626Y64997
X66080Y60240
X48469Y53897
X48039Y61266
X59141Y54458
X54972Y54672
X64385Y67030
X46441Y66040
X65365Y66600
X81135Y64997
X88590Y60240
X70979Y53897
X70549Y61266
X81651Y54458
X77481Y54672
X86895Y67030
X68951Y66040
X87875Y66600
X103642Y64997
X111097Y60240
X93486Y53897
X93056Y61266
X104158Y54458
X99988Y54672
X109402Y67030
X91458Y66040
X110382Y66600
X126152Y64997
X133606Y60240
X115995Y53897
X115565Y61266
X126667Y54458
X122498Y54672
X131911Y67030
X113967Y66040
X132891Y66600
X148659Y64997
X156113Y60240
X138502Y53897
X138072Y61266
X149174Y54458
X145005Y54672
X154418Y67030
X136474Y66040
X155398Y66600
X171166Y64997
X178620Y60240
X161009Y53897
X160579Y61266
X171681Y54458
X167512Y54672
X176925Y67030
X158981Y66040
X177905Y66600
T2
X14990Y9060
X3048Y19812
X10453Y18452
X15731Y4788
X10450Y21050
X18250Y12090
X17562Y12575
X17743Y13063
X18600Y11040
X9048Y3170
X9090Y9380
X7780Y7330
X8250Y7330
X8500Y12000
X7210Y7440
X7080Y15180
X6300Y6690
X5457Y4546
X13244Y4611
X5717Y4151
X13758Y4202
X15742Y4303
X12565Y3805
X12500Y9000
X6700Y15490
X5930Y6300
X19500Y10500
X8730Y7530
X14770Y11940
X14760Y18500
X13640Y13090
X14260Y18490
X9540Y3200
X9520Y10200
X8690Y3450
X10680Y9040
X2590Y8660
X11100Y8660
X3000Y8250
X11440Y8240
X3340Y7770
X15740Y11430
X15420Y15660
X13760Y16800
X18260Y4500
X14050Y8100
X3700Y3640
X4490Y7510
X14340Y7690
X4140Y2910
X5000Y7630
X33757Y18450
X34064Y2821
X36851Y10698
X33302Y15342
X33235Y4833
X28795Y12591
X24662Y9669
X23093Y12947
X23041Y17832
X41220Y2941
X26851Y12580
X39506Y7642
X40185Y15085
X31397Y19642
X40293Y18114
X23980Y2342
X43868Y4597
X43050Y2771
X30854Y3131
X43523Y13534
X43543Y9034
X35697Y19142
X33797Y21192
X30412Y10529
X35682Y11039
X35182Y13039
X30122Y13989
X27992Y6069
X30492Y12109
X31142Y9439
X37062Y8109
X41492Y5359
X24632Y8909
X37762Y18409
X37972Y15139
X32292Y20989
X30042Y14939
X25112Y7839
X40191Y13577
X28126Y5068
X41106Y11588
X32414Y3893
X32417Y9820
X37778Y4799
X33302Y16688
X35757Y16800
X23803Y14467
X38197Y13600
X33159Y2808
X32779Y10098
X40457Y3850
X40083Y2898
X34507Y3500
X34637Y9410
X33558Y3102
X33557Y13500
X28575Y9537
X27367Y2870
X27118Y4370
X27020Y3192
X33617Y9620
X41107Y5020
X33167Y9830
X39197Y4480
X37487Y7910
X37497Y9060
X25555Y19812
X32960Y18452
X38238Y4788
X32957Y21050
X40757Y12090
X40069Y12575
X40250Y13063
X41107Y11040
X31555Y3170
X31597Y9380
X30287Y7330
X30757Y7330
X31007Y12000
X29717Y7440
X29587Y15180
X28807Y6690
X27964Y4546
X35751Y4611
X28224Y4151
X36265Y4202
X38249Y4303
X35072Y3805
X35007Y9000
X29207Y15490
X28437Y6300
X42007Y10500
X31237Y7530
X37277Y11940
X37267Y18500
X36147Y13090
X36767Y18490
X32047Y3200
X32027Y10200
X31197Y3450
X33187Y9040
X25097Y8660
X33607Y8660
X25507Y8250
X33947Y8240
X25847Y7770
X38247Y11430
X37927Y15660
X36267Y16800
X40767Y4500
X36557Y8100
X26207Y3640
X26997Y7510
X36847Y7690
X26647Y2910
X27507Y7630
X56266Y18450
X56573Y2821
X59360Y10698
X55811Y15342
X55745Y4833
X51304Y12591
X47172Y9669
X45603Y12947
X45550Y17832
X63729Y2941
X49360Y12580
X62015Y7642
X62695Y15085
X53906Y19642
X62802Y18114
X46490Y2342
X66378Y4597
X65559Y2771
X53363Y3131
X66032Y13534
X66052Y9034
X58206Y19142
X56306Y21192
X52922Y10529
X58192Y11039
X57692Y13039
X52632Y13989
X50502Y6069
X53002Y12109
X53652Y9439
X59572Y8109
X64002Y5359
X47142Y8909
X60272Y18409
X60482Y15139
X54802Y20989
X52552Y14939
X47622Y7839
X62701Y13577
X50636Y5068
X63616Y11588
X54924Y3893
X54926Y9820
X60288Y4799
X55811Y16688
X58266Y16800
X46313Y14467
X60706Y13600
X55668Y2808
X55288Y10098
X62966Y3850
X62592Y2898
X57016Y3500
X57146Y9410
X56067Y3102
X56066Y13500
X51084Y9537
X49876Y2870
X49628Y4370
X49530Y3192
X56126Y9620
X63616Y5020
X55676Y9830
X61706Y4480
X59996Y7910
X60006Y9060
X48064Y19812
X55469Y18452
X60747Y4788
X55466Y21050
X63266Y12090
X62578Y12575
X62759Y13063
X63616Y11040
X54064Y3170
X54106Y9380
X52796Y7330
X53266Y7330
X53516Y12000
X52226Y7440
X52096Y15180
X51316Y6690
X50473Y4546
X58261Y4611
X50733Y4151
X58774Y4202
X60758Y4303
X57581Y3805
X57516Y9000
X51716Y15490
X50946Y6300
X64516Y10500
X53746Y7530
X59786Y11940
X59776Y18500
X58656Y13090
X59276Y18490
X54556Y3200
X54536Y10200
X53706Y3450
X55696Y9040
X47606Y8660
X56116Y8660
X48016Y8250
X56456Y8240
X48356Y7770
X60756Y11430
X60436Y15660
X58776Y16800
X63276Y4500
X59066Y8100
X48716Y3640
X49506Y7510
X59356Y7690
X49156Y2910
X50016Y7630
X78773Y18450
X79080Y2821
X81867Y10698
X78318Y15342
X78252Y4833
X73811Y12591
X69679Y9669
X68110Y12947
X68057Y17832
X86236Y2941
X71867Y12580
X84522Y7642
X85202Y15085
X76413Y19642
X85309Y18114
X68997Y2342
X88885Y4597
X88066Y2771
X75870Y3131
X88539Y13534
X88559Y9034
X80713Y19142
X78813Y21192
X75429Y10529
X80699Y11039
X80199Y13039
X75139Y13989
X73009Y6069
X75509Y12109
X76159Y9439
X82079Y8109
X86509Y5359
X69649Y8909
X82779Y18409
X82989Y15139
X77309Y20989
X75059Y14939
X70129Y7839
X85208Y13577
X73143Y5068
X86123Y11588
X77431Y3893
X77433Y9820
X82795Y4799
X78318Y16688
X80773Y16800
X68820Y14467
X83213Y13600
X78175Y2808
X77795Y10098
X85473Y3850
X85099Y2898
X79523Y3500
X79653Y9410
X78574Y3102
X78573Y13500
X73591Y9537
X72383Y2870
X72135Y4370
X72037Y3192
X78633Y9620
X86123Y5020
X78183Y9830
X84213Y4480
X82503Y7910
X82513Y9060
X70571Y19812
X77976Y18452
X83254Y4788
X77973Y21050
X85773Y12090
X85085Y12575
X85266Y13063
X86123Y11040
X76571Y3170
X76613Y9380
X75303Y7330
X75773Y7330
X76023Y12000
X74733Y7440
X74603Y15180
X73823Y6690
X72980Y4546
X80768Y4611
X73240Y4151
X81281Y4202
X83265Y4303
X80088Y3805
X80023Y9000
X74223Y15490
X73453Y6300
X87023Y10500
X76253Y7530
X82293Y11940
X82283Y18500
X81163Y13090
X81783Y18490
X77063Y3200
X77043Y10200
X76213Y3450
X78203Y9040
X70113Y8660
X78623Y8660
X70523Y8250
X78963Y8240
X70863Y7770
X83263Y11430
X82943Y15660
X81283Y16800
X85783Y4500
X81573Y8100
X71223Y3640
X72013Y7510
X81863Y7690
X71663Y2910
X72523Y7630
X101283Y18450
X101590Y2821
X104377Y10698
X100828Y15342
X100761Y4833
X96321Y12591
X92188Y9669
X90619Y12947
X90567Y17832
X108746Y2941
X94377Y12580
X107032Y7642
X107711Y15085
X98923Y19642
X107819Y18114
X91506Y2342
X111394Y4597
X110576Y2771
X98380Y3131
X111049Y13534
X111069Y9034
X103223Y19142
X101323Y21192
X97938Y10529
X103208Y11039
X102708Y13039
X97648Y13989
X95518Y6069
X98018Y12109
X98668Y9439
X104588Y8109
X109018Y5359
X92158Y8909
X105288Y18409
X105498Y15139
X99818Y20989
X97568Y14939
X92638Y7839
X107717Y13577
X95652Y5068
X108632Y11588
X99940Y3893
X99943Y9820
X105304Y4799
X100828Y16688
X103283Y16800
X91329Y14467
X105723Y13600
X100685Y2808
X100305Y10098
X107983Y3850
X107609Y2898
X102033Y3500
X102163Y9410
X101084Y3102
X101083Y13500
X96101Y9537
X94893Y2870
X94644Y4370
X94546Y3192
X101143Y9620
X108633Y5020
X100693Y9830
X106723Y4480
X105013Y7910
X105023Y9060
X93081Y19812
X100486Y18452
X105764Y4788
X100483Y21050
X108283Y12090
X107595Y12575
X107776Y13063
X108633Y11040
X99081Y3170
X99123Y9380
X97813Y7330
X98283Y7330
X98533Y12000
X97243Y7440
X97113Y15180
X96333Y6690
X95490Y4546
X103277Y4611
X95750Y4151
X103791Y4202
X105775Y4303
X102598Y3805
X102533Y9000
X96733Y15490
X95963Y6300
X109533Y10500
X98763Y7530
X104803Y11940
X104793Y18500
X103673Y13090
X104293Y18490
X99573Y3200
X99553Y10200
X98723Y3450
X100713Y9040
X92623Y8660
X101133Y8660
X93033Y8250
X101473Y8240
X93373Y7770
X105773Y11430
X105453Y15660
X103793Y16800
X108293Y4500
X104083Y8100
X93733Y3640
X94523Y7510
X104373Y7690
X94173Y2910
X95033Y7630
X123790Y18450
X124097Y2821
X126884Y10698
X123335Y15342
X123268Y4833
X118828Y12591
X114695Y9669
X113126Y12947
X113074Y17832
X131253Y2941
X116884Y12580
X129539Y7642
X130218Y15085
X121430Y19642
X130326Y18114
X114013Y2342
X133901Y4597
X133083Y2771
X120887Y3131
X133556Y13534
X133576Y9034
X125730Y19142
X123830Y21192
X120445Y10529
X125715Y11039
X125215Y13039
X120155Y13989
X118025Y6069
X120525Y12109
X121175Y9439
X127095Y8109
X131525Y5359
X114665Y8909
X127795Y18409
X128005Y15139
X122325Y20989
X120075Y14939
X115145Y7839
X130224Y13577
X118159Y5068
X131139Y11588
X122447Y3893
X122450Y9820
X127811Y4799
X123335Y16688
X125790Y16800
X113836Y14467
X128230Y13600
X123192Y2808
X122812Y10098
X130490Y3850
X130116Y2898
X124540Y3500
X124670Y9410
X123591Y3102
X123590Y13500
X118608Y9537
X117400Y2870
X117151Y4370
X117053Y3192
X123650Y9620
X131140Y5020
X123200Y9830
X129230Y4480
X127520Y7910
X127530Y9060
X115588Y19812
X122993Y18452
X128271Y4788
X122990Y21050
X130790Y12090
X130102Y12575
X130283Y13063
X131140Y11040
X121588Y3170
X121630Y9380
X120320Y7330
X120790Y7330
X121040Y12000
X119750Y7440
X119620Y15180
X118840Y6690
X117997Y4546
X125784Y4611
X118257Y4151
X126298Y4202
X128282Y4303
X125105Y3805
X125040Y9000
X119240Y15490
X118470Y6300
X132040Y10500
X121270Y7530
X127310Y11940
X127300Y18500
X126180Y13090
X126800Y18490
X122080Y3200
X122060Y10200
X121230Y3450
X123220Y9040
X115130Y8660
X123640Y8660
X115540Y8250
X123980Y8240
X115880Y7770
X128280Y11430
X127960Y15660
X126300Y16800
X130800Y4500
X126590Y8100
X116240Y3640
X117030Y7510
X126880Y7690
X116680Y2910
X117540Y7630
X146299Y18450
X146606Y2821
X149393Y10698
X145844Y15342
X145778Y4833
X141337Y12591
X137205Y9669
X135636Y12947
X135583Y17832
X153762Y2941
X139393Y12580
X152048Y7642
X152728Y15085
X143939Y19642
X152835Y18114
X136522Y2342
X156411Y4597
X155592Y2771
X143396Y3131
X156065Y13534
X156085Y9034
X148239Y19142
X146339Y21192
X142955Y10529
X148225Y11039
X147725Y13039
X142665Y13989
X140535Y6069
X143035Y12109
X143685Y9439
X149605Y8109
X154035Y5359
X137175Y8909
X150305Y18409
X150515Y15139
X144835Y20989
X142585Y14939
X137655Y7839
X152734Y13577
X140669Y5068
X153649Y11588
X144957Y3893
X144959Y9820
X150320Y4799
X145844Y16688
X148299Y16800
X136345Y14467
X150739Y13600
X145701Y2808
X145321Y10098
X152999Y3850
X152625Y2898
X147049Y3500
X147179Y9410
X146100Y3102
X146099Y13500
X141117Y9537
X139909Y2870
X139661Y4370
X139562Y3192
X146159Y9620
X153649Y5020
X145709Y9830
X151739Y4480
X150029Y7910
X150039Y9060
X138097Y19812
X145502Y18452
X150780Y4788
X145499Y21050
X153299Y12090
X152611Y12575
X152792Y13063
X153649Y11040
X144097Y3170
X144139Y9380
X142829Y7330
X143299Y7330
X143549Y12000
X142259Y7440
X142129Y15180
X141349Y6690
X140506Y4546
X148293Y4611
X140766Y4151
X148807Y4202
X150791Y4303
X147614Y3805
X147549Y9000
X141749Y15490
X140979Y6300
X154549Y10500
X143779Y7530
X149819Y11940
X149809Y18500
X148689Y13090
X149309Y18490
X144589Y3200
X144569Y10200
X143739Y3450
X145729Y9040
X137639Y8660
X146149Y8660
X138049Y8250
X146489Y8240
X138389Y7770
X150789Y11430
X150469Y15660
X148809Y16800
X153309Y4500
X149099Y8100
X138749Y3640
X139539Y7510
X149389Y7690
X139189Y2910
X140049Y7630
X168806Y18450
X169113Y2821
X171900Y10698
X168351Y15342
X168285Y4833
X163844Y12591
X159712Y9669
X158143Y12947
X158090Y17832
X176269Y2941
X161900Y12580
X174555Y7642
X175235Y15085
X166446Y19642
X175342Y18114
X159029Y2342
X178918Y4597
X178099Y2771
X165903Y3131
X178572Y13534
X178592Y9034
X170746Y19142
X168846Y21192
X165462Y10529
X170732Y11039
X170232Y13039
X165172Y13989
X163042Y6069
X165542Y12109
X166192Y9439
X172112Y8109
X176542Y5359
X159682Y8909
X172812Y18409
X173022Y15139
X167342Y20989
X165092Y14939
X160162Y7839
X175241Y13577
X163176Y5068
X176156Y11588
X167464Y3893
X167466Y9820
X172827Y4799
X168351Y16688
X170806Y16800
X158852Y14467
X173246Y13600
X168208Y2808
X167828Y10098
X175506Y3850
X175132Y2898
X169556Y3500
X169686Y9410
X168607Y3102
X168606Y13500
X163624Y9537
X162416Y2870
X162168Y4370
X162069Y3192
X168666Y9620
X176156Y5020
X168216Y9830
X174246Y4480
X172536Y7910
X172546Y9060
X160604Y19812
X168009Y18452
X173287Y4788
X168006Y21050
X175806Y12090
X175118Y12575
X175299Y13063
X176156Y11040
X166604Y3170
X166646Y9380
X165336Y7330
X165806Y7330
X166056Y12000
X164766Y7440
X164636Y15180
X163856Y6690
X163013Y4546
X170800Y4611
X163273Y4151
X171314Y4202
X173298Y4303
X170121Y3805
X170056Y9000
X164256Y15490
X163486Y6300
X177056Y10500
X166286Y7530
X172326Y11940
X172316Y18500
X171196Y13090
X171816Y18490
X167096Y3200
X167076Y10200
X166246Y3450
X168236Y9040
X160146Y8660
X168656Y8660
X160556Y8250
X168996Y8240
X160896Y7770
X173296Y11430
X172976Y15660
X171316Y16800
X175816Y4500
X171606Y8100
X161256Y3640
X162046Y7510
X171896Y7690
X161696Y2910
X162556Y7630
X10749Y51400
X10442Y67029
X7655Y59152
X11204Y54508
X11271Y65017
X15711Y57259
X19844Y60181
X21413Y56903
X21465Y52018
X3286Y66909
X17655Y57270
X5000Y62208
X4321Y54765
X13109Y50208
X4213Y51736
X20526Y67508
X638Y65253
X1456Y67079
X13652Y66719
X983Y56316
X963Y60816
X8809Y50708
X10709Y48658
X14094Y59321
X8824Y58811
X9324Y56811
X14384Y55861
X16514Y63781
X14014Y57741
X13364Y60411
X7444Y61741
X3014Y64491
X19874Y60941
X6744Y51441
X6534Y54711
X12214Y48861
X14464Y54911
X19394Y62011
X4315Y56273
X16380Y64782
X3400Y58262
X12091Y65957
X12089Y60030
X6728Y65051
X11204Y53162
X8749Y53050
X20703Y55383
X6309Y56250
X11347Y67042
X11727Y59752
X4049Y66000
X4423Y66952
X9999Y66350
X9869Y60440
X10948Y66748
X10949Y56350
X15931Y60313
X17139Y66980
X17388Y65480
X17486Y66658
X10889Y60230
X3399Y64830
X11339Y60020
X5309Y65370
X7019Y61940
X7009Y60790
X18951Y50038
X11546Y51398
X6268Y65062
X11549Y48800
X3749Y57760
X4437Y57275
X4256Y56787
X3399Y58810
X12951Y66680
X12909Y60470
X14219Y62520
X13749Y62520
X13499Y57850
X14789Y62410
X14919Y54670
X15699Y63160
X16542Y65304
X8755Y65239
X16282Y65699
X8241Y65648
X6257Y65547
X9434Y66045
X9499Y60850
X15299Y54360
X16069Y63550
X2499Y59350
X11250Y18450
X11557Y2821
X13269Y62320
X7229Y57910
X7239Y51350
X8359Y56760
X7739Y51360
X12459Y66650
X12479Y59650
X13309Y66400
X11319Y60810
X19409Y61190
X10899Y61190
X18999Y61600
X10559Y61610
X18659Y62080
X6259Y58420
X6579Y54190
X8239Y53050
X3739Y65350
X7949Y61750
X18299Y66210
X17509Y62340
X7659Y62160
X17859Y66940
X16999Y62220
X14344Y10698
X10795Y15342
X10728Y4833
X6288Y12591
X2155Y9669
X586Y12947
X534Y17832
X33258Y51400
X32951Y67029
X30165Y59152
X33713Y54508
X33780Y65017
X38220Y57259
X42353Y60181
X43922Y56903
X43974Y52018
X25796Y66909
X40164Y57270
X27509Y62208
X26830Y54765
X35619Y50208
X26723Y51736
X43035Y67508
X23147Y65253
X23966Y67079
X36161Y66719
X23493Y56316
X23473Y60816
X31319Y50708
X33219Y48658
X36603Y59321
X31333Y58811
X31833Y56811
X36893Y55861
X39023Y63781
X36523Y57741
X35873Y60411
X29953Y61741
X25523Y64491
X42383Y60941
X29253Y51441
X29043Y54711
X34723Y48861
X36973Y54911
X41903Y62011
X26824Y56273
X38889Y64782
X25909Y58262
X34601Y65957
X34598Y60030
X29237Y65051
X33713Y53162
X31258Y53050
X43212Y55383
X28818Y56250
X33857Y67042
X34237Y59752
X26558Y66000
X26932Y66952
X32508Y66350
X32378Y60440
X33458Y66748
X33458Y56350
X38440Y60313
X39648Y66980
X39897Y65480
X39995Y66658
X33398Y60230
X25908Y64830
X33848Y60020
X27818Y65370
X29528Y61940
X29518Y60790
X41460Y50038
X34055Y51398
X28778Y65062
X34058Y48800
X26258Y57760
X26947Y57275
X26765Y56787
X25908Y58810
X35460Y66680
X35418Y60470
X36728Y62520
X36258Y62520
X36008Y57850
X37298Y62410
X37428Y54670
X38208Y63160
X39052Y65304
X31264Y65239
X38792Y65699
X30751Y65648
X28767Y65547
X31943Y66045
X32008Y60850
X37808Y54360
X38578Y63550
X25008Y59350
X18713Y2941
X4344Y12580
X35778Y62320
X29738Y57910
X29748Y51350
X30868Y56760
X30248Y51360
X34968Y66650
X34988Y59650
X35818Y66400
X33828Y60810
X41918Y61190
X33408Y61190
X41508Y61600
X33068Y61610
X41168Y62080
X28768Y58420
X29088Y54190
X30748Y53050
X26248Y65350
X30458Y61750
X40808Y66210
X40018Y62340
X30168Y62160
X40368Y66940
X39508Y62220
X16999Y7642
X17678Y15085
X8890Y19642
X17786Y18114
X1473Y2342
X21361Y4597
X20543Y2771
X55765Y51400
X55458Y67029
X52672Y59152
X56220Y54508
X56287Y65017
X60727Y57259
X64860Y60181
X66429Y56903
X66481Y52018
X48303Y66909
X62671Y57270
X50016Y62208
X49337Y54765
X58126Y50208
X49230Y51736
X65542Y67508
X45654Y65253
X46473Y67079
X58668Y66719
X46000Y56316
X45980Y60816
X53826Y50708
X55726Y48658
X59110Y59321
X53840Y58811
X54340Y56811
X59400Y55861
X61530Y63781
X59030Y57741
X58380Y60411
X52460Y61741
X48030Y64491
X64890Y60941
X51760Y51441
X51550Y54711
X57230Y48861
X59480Y54911
X64410Y62011
X49331Y56273
X61396Y64782
X48416Y58262
X57108Y65957
X57105Y60030
X51744Y65051
X56220Y53162
X53765Y53050
X65719Y55383
X51325Y56250
X56363Y67042
X56743Y59752
X49065Y66000
X49439Y66952
X55015Y66350
X54885Y60440
X55965Y66748
X55965Y56350
X60947Y60313
X62155Y66980
X62404Y65480
X62502Y66658
X55905Y60230
X48415Y64830
X56355Y60020
X50325Y65370
X52035Y61940
X52025Y60790
X63967Y50038
X56562Y51398
X51285Y65062
X56565Y48800
X48765Y57760
X49454Y57275
X49272Y56787
X48415Y58810
X57967Y66680
X57925Y60470
X59235Y62520
X58765Y62520
X58515Y57850
X59805Y62410
X59935Y54670
X60715Y63160
X61559Y65304
X53771Y65239
X61299Y65699
X53258Y65648
X51274Y65547
X54450Y66045
X54515Y60850
X60315Y54360
X61085Y63550
X47515Y59350
X8347Y3131
X21016Y13534
X58285Y62320
X52245Y57910
X52255Y51350
X53375Y56760
X52755Y51360
X57475Y66650
X57495Y59650
X58325Y66400
X56335Y60810
X64425Y61190
X55915Y61190
X64015Y61600
X55575Y61610
X63675Y62080
X51275Y58420
X51595Y54190
X53255Y53050
X48755Y65350
X52965Y61750
X63315Y66210
X62525Y62340
X52675Y62160
X62875Y66940
X62015Y62220
X21036Y9034
X13190Y19142
X11290Y21192
X7905Y10529
X13175Y11039
X12675Y13039
X7615Y13989
X78275Y51400
X77968Y67029
X75181Y59152
X78730Y54508
X78796Y65017
X83237Y57259
X87369Y60181
X88938Y56903
X88991Y52018
X70812Y66909
X85181Y57270
X72526Y62208
X71846Y54765
X80635Y50208
X71739Y51736
X88052Y67508
X68163Y65253
X68982Y67079
X81178Y66719
X68509Y56316
X68489Y60816
X76335Y50708
X78235Y48658
X81619Y59321
X76349Y58811
X76849Y56811
X81909Y55861
X84039Y63781
X81539Y57741
X80889Y60411
X74969Y61741
X70539Y64491
X87399Y60941
X74269Y51441
X74059Y54711
X79739Y48861
X81989Y54911
X86919Y62011
X71840Y56273
X83905Y64782
X70925Y58262
X79617Y65957
X79615Y60030
X74254Y65051
X78730Y53162
X76275Y53050
X88229Y55383
X73835Y56250
X78873Y67042
X79253Y59752
X71575Y66000
X71949Y66952
X77525Y66350
X77395Y60440
X78474Y66748
X78475Y56350
X83457Y60313
X84665Y66980
X84913Y65480
X85012Y66658
X78415Y60230
X70925Y64830
X78865Y60020
X72835Y65370
X74545Y61940
X74535Y60790
X86477Y50038
X79072Y51398
X73794Y65062
X79075Y48800
X71275Y57760
X71963Y57275
X71782Y56787
X70925Y58810
X80477Y66680
X80435Y60470
X81745Y62520
X81275Y62520
X81025Y57850
X82315Y62410
X82445Y54670
X83225Y63160
X84068Y65304
X76281Y65239
X83808Y65699
X75767Y65648
X73783Y65547
X76960Y66045
X77025Y60850
X82825Y54360
X83595Y63550
X70025Y59350
X5485Y6069
X7985Y12109
X80795Y62320
X74755Y57910
X74765Y51350
X75885Y56760
X75265Y51360
X79985Y66650
X80005Y59650
X80835Y66400
X78845Y60810
X86935Y61190
X78425Y61190
X86525Y61600
X78085Y61610
X86185Y62080
X73785Y58420
X74105Y54190
X75765Y53050
X71265Y65350
X75475Y61750
X85825Y66210
X85035Y62340
X75185Y62160
X85385Y66940
X84525Y62220
X8635Y9439
X14555Y8109
X18985Y5359
X2125Y8909
X15255Y18409
X15465Y15139
X9785Y20989
X100782Y51400
X100475Y67029
X97688Y59152
X101237Y54508
X101303Y65017
X105744Y57259
X109876Y60181
X111445Y56903
X111498Y52018
X93319Y66909
X107688Y57270
X95033Y62208
X94353Y54765
X103142Y50208
X94246Y51736
X110559Y67508
X90670Y65253
X91489Y67079
X103685Y66719
X91016Y56316
X90996Y60816
X98842Y50708
X100742Y48658
X104126Y59321
X98856Y58811
X99356Y56811
X104416Y55861
X106546Y63781
X104046Y57741
X103396Y60411
X97476Y61741
X93046Y64491
X109906Y60941
X96776Y51441
X96566Y54711
X102246Y48861
X104496Y54911
X109426Y62011
X94347Y56273
X106412Y64782
X93432Y58262
X102124Y65957
X102122Y60030
X96761Y65051
X101237Y53162
X98782Y53050
X110736Y55383
X96342Y56250
X101380Y67042
X101760Y59752
X94082Y66000
X94456Y66952
X100032Y66350
X99902Y60440
X100981Y66748
X100982Y56350
X105964Y60313
X107172Y66980
X107420Y65480
X107519Y66658
X100922Y60230
X93432Y64830
X101372Y60020
X95342Y65370
X97052Y61940
X97042Y60790
X108984Y50038
X101579Y51398
X96301Y65062
X101582Y48800
X93782Y57760
X94470Y57275
X94289Y56787
X93432Y58810
X102984Y66680
X102942Y60470
X104252Y62520
X103782Y62520
X103532Y57850
X104822Y62410
X104952Y54670
X105732Y63160
X106575Y65304
X98788Y65239
X106315Y65699
X98274Y65648
X96290Y65547
X99467Y66045
X99532Y60850
X105332Y54360
X106102Y63550
X92532Y59350
X7535Y14939
X2605Y7839
X103302Y62320
X97262Y57910
X97272Y51350
X98392Y56760
X97772Y51360
X102492Y66650
X102512Y59650
X103342Y66400
X101352Y60810
X109442Y61190
X100932Y61190
X109032Y61600
X100592Y61610
X108692Y62080
X96292Y58420
X96612Y54190
X98272Y53050
X93772Y65350
X97982Y61750
X108332Y66210
X107542Y62340
X97692Y62160
X107892Y66940
X107032Y62220
X17684Y13577
X5619Y5068
X18599Y11588
X9907Y3893
X9910Y9820
X15271Y4799
X10795Y16688
X123291Y51400
X122984Y67029
X120197Y59152
X123746Y54508
X123813Y65017
X128253Y57259
X132386Y60181
X133955Y56903
X134007Y52018
X115828Y66909
X130197Y57270
X117542Y62208
X116863Y54765
X125651Y50208
X116755Y51736
X133068Y67508
X113180Y65253
X113998Y67079
X126194Y66719
X113525Y56316
X113505Y60816
X121351Y50708
X123251Y48658
X126636Y59321
X121366Y58811
X121866Y56811
X126926Y55861
X129056Y63781
X126556Y57741
X125906Y60411
X119986Y61741
X115556Y64491
X132416Y60941
X119286Y51441
X119076Y54711
X124756Y48861
X127006Y54911
X131936Y62011
X116857Y56273
X128922Y64782
X115942Y58262
X124634Y65957
X124631Y60030
X119270Y65051
X123746Y53162
X121291Y53050
X133245Y55383
X118851Y56250
X123889Y67042
X124269Y59752
X116591Y66000
X116965Y66952
X122541Y66350
X122411Y60440
X123490Y66748
X123491Y56350
X128473Y60313
X129681Y66980
X129930Y65480
X130028Y66658
X123431Y60230
X115941Y64830
X123881Y60020
X117851Y65370
X119561Y61940
X119551Y60790
X131493Y50038
X124088Y51398
X118810Y65062
X124091Y48800
X116291Y57760
X116979Y57275
X116798Y56787
X115941Y58810
X125493Y66680
X125451Y60470
X126761Y62520
X126291Y62520
X126041Y57850
X127331Y62410
X127461Y54670
X128241Y63160
X129084Y65304
X121297Y65239
X128824Y65699
X120783Y65648
X118799Y65547
X121976Y66045
X122041Y60850
X127841Y54360
X128611Y63550
X115041Y59350
X13250Y16800
X1296Y14467
X125811Y62320
X119771Y57910
X119781Y51350
X120901Y56760
X120281Y51360
X125001Y66650
X125021Y59650
X125851Y66400
X123861Y60810
X131951Y61190
X123441Y61190
X131541Y61600
X123101Y61610
X131201Y62080
X118801Y58420
X119121Y54190
X120781Y53050
X116281Y65350
X120491Y61750
X130841Y66210
X130051Y62340
X120201Y62160
X130401Y66940
X129541Y62220
X15690Y13600
X10652Y2808
X10272Y10098
X17950Y3850
X17576Y2898
X12000Y3500
X12130Y9410
X145798Y51400
X145491Y67029
X142704Y59152
X146253Y54508
X146320Y65017
X150760Y57259
X154893Y60181
X156462Y56903
X156514Y52018
X138335Y66909
X152704Y57270
X140049Y62208
X139370Y54765
X148158Y50208
X139262Y51736
X155575Y67508
X135687Y65253
X136505Y67079
X148701Y66719
X136032Y56316
X136012Y60816
X143858Y50708
X145758Y48658
X149143Y59321
X143873Y58811
X144373Y56811
X149433Y55861
X151563Y63781
X149063Y57741
X148413Y60411
X142493Y61741
X138063Y64491
X154923Y60941
X141793Y51441
X141583Y54711
X147263Y48861
X149513Y54911
X154443Y62011
X139364Y56273
X151429Y64782
X138449Y58262
X147141Y65957
X147138Y60030
X141777Y65051
X146253Y53162
X143798Y53050
X155752Y55383
X141358Y56250
X146396Y67042
X146776Y59752
X139098Y66000
X139472Y66952
X145048Y66350
X144918Y60440
X145997Y66748
X145998Y56350
X150980Y60313
X152188Y66980
X152437Y65480
X152535Y66658
X145938Y60230
X138448Y64830
X146388Y60020
X140358Y65370
X142068Y61940
X142058Y60790
X154000Y50038
X146595Y51398
X141317Y65062
X146598Y48800
X138798Y57760
X139486Y57275
X139305Y56787
X138448Y58810
X148000Y66680
X147958Y60470
X149268Y62520
X148798Y62520
X148548Y57850
X149838Y62410
X149968Y54670
X150748Y63160
X151591Y65304
X143804Y65239
X151331Y65699
X143290Y65648
X141306Y65547
X144483Y66045
X144548Y60850
X150348Y54360
X151118Y63550
X137548Y59350
X11051Y3102
X11050Y13500
X148318Y62320
X142278Y57910
X142288Y51350
X143408Y56760
X142788Y51360
X147508Y66650
X147528Y59650
X148358Y66400
X146368Y60810
X154458Y61190
X145948Y61190
X154048Y61600
X145608Y61610
X153708Y62080
X141308Y58420
X141628Y54190
X143288Y53050
X138788Y65350
X142998Y61750
X153348Y66210
X152558Y62340
X142708Y62160
X152908Y66940
X152048Y62220
X6068Y9537
X4860Y2870
X4611Y4370
X4513Y3192
X11110Y9620
X18600Y5020
X10660Y9830
X168305Y51400
X167998Y67029
X165211Y59152
X168760Y54508
X168827Y65017
X173267Y57259
X177400Y60181
X178969Y56903
X179021Y52018
X160842Y66909
X175211Y57270
X162556Y62208
X161877Y54765
X170665Y50208
X161769Y51736
X178082Y67508
X158194Y65253
X159012Y67079
X171208Y66719
X158539Y56316
X158519Y60816
X166365Y50708
X168265Y48658
X171650Y59321
X166380Y58811
X166880Y56811
X171940Y55861
X174070Y63781
X171570Y57741
X170920Y60411
X165000Y61741
X160570Y64491
X177430Y60941
X164300Y51441
X164090Y54711
X169770Y48861
X172020Y54911
X176950Y62011
X161871Y56273
X173936Y64782
X160956Y58262
X169648Y65957
X169645Y60030
X164284Y65051
X168760Y53162
X166305Y53050
X178259Y55383
X163865Y56250
X168903Y67042
X169283Y59752
X161605Y66000
X161979Y66952
X167555Y66350
X167425Y60440
X168504Y66748
X168505Y56350
X173487Y60313
X174695Y66980
X174944Y65480
X175042Y66658
X168445Y60230
X160955Y64830
X168895Y60020
X162865Y65370
X164575Y61940
X164565Y60790
X176507Y50038
X169102Y51398
X163824Y65062
X169105Y48800
X161305Y57760
X161993Y57275
X161812Y56787
X160955Y58810
X170507Y66680
X170465Y60470
X171775Y62520
X171305Y62520
X171055Y57850
X172345Y62410
X172475Y54670
X173255Y63160
X174098Y65304
X166311Y65239
X173838Y65699
X165797Y65648
X163813Y65547
X166990Y66045
X167055Y60850
X172855Y54360
X173625Y63550
X160055Y59350
X16690Y4480
X14980Y7910
X170825Y62320
X164785Y57910
X164795Y51350
X165915Y56760
X165295Y51360
X170015Y66650
X170035Y59650
X170865Y66400
X168875Y60810
X176965Y61190
X168455Y61190
X176555Y61600
X168115Y61610
X176215Y62080
X163815Y58420
X164135Y54190
X165795Y53050
X161295Y65350
X165505Y61750
X175855Y66210
X175065Y62340
X165215Y62160
X175415Y66940
X174555Y62220
X12949Y21000
X17149Y21000
X15049Y19700
X35456Y21000
X39656Y21000
X37556Y19700
X57965Y21000
X62165Y21000
X60065Y19700
X80472Y21000
X84672Y21000
X82572Y19700
X102982Y21000
X107182Y21000
X105082Y19700
X125489Y21000
X129689Y21000
X127589Y19700
X147998Y21000
X152198Y21000
X150098Y19700
X170505Y21000
X174705Y21000
X172605Y19700
X9050Y48850
X4850Y48850
X6950Y50150
X31559Y48850
X27359Y48850
X29459Y50150
X54066Y48850
X49866Y48850
X51966Y50150
X76576Y48850
X72376Y48850
X74476Y50150
X99083Y48850
X94883Y48850
X96983Y50150
X121592Y48850
X117392Y48850
X119492Y50150
X144099Y48850
X139899Y48850
X141999Y50150
X166606Y48850
X162406Y48850
X164506Y50150
M30