G04 EAGLE Gerber RS-274X export*
G75*
%MOMM*%
%FSLAX34Y34*%
%LPD*%
%INSoldermask Bottom*%
%IPPOS*%
%AMOC8*
5,1,8,0,0,1.08239X$1,22.5*%
G01*
%ADD10R,0.803200X0.803200*%
%ADD11C,0.838200*%
%ADD12R,0.553200X2.153200*%
%ADD13C,0.555600*%
%ADD14R,1.053200X0.703200*%
%ADD15R,1.033200X0.833200*%

G36*
X154421Y192531D02*
X154421Y192531D01*
X154431Y192535D01*
X154457Y192536D01*
X158291Y193370D01*
X158299Y193375D01*
X158325Y193380D01*
X162001Y194752D01*
X162009Y194757D01*
X162033Y194766D01*
X165477Y196647D01*
X165484Y196654D01*
X165507Y196666D01*
X168648Y199017D01*
X168654Y199025D01*
X168675Y199041D01*
X171449Y201815D01*
X171454Y201824D01*
X171473Y201842D01*
X173824Y204983D01*
X173827Y204992D01*
X173843Y205013D01*
X175724Y208457D01*
X175726Y208466D01*
X175738Y208489D01*
X177110Y212165D01*
X177110Y212175D01*
X177120Y212199D01*
X177954Y216033D01*
X177953Y216043D01*
X177959Y216069D01*
X178239Y219982D01*
X178233Y220008D01*
X178237Y220033D01*
X178219Y220075D01*
X178209Y220119D01*
X178191Y220137D01*
X178180Y220161D01*
X178142Y220186D01*
X178111Y220218D01*
X178085Y220224D01*
X178064Y220238D01*
X177990Y220249D01*
X167990Y220249D01*
X167983Y220247D01*
X167976Y220249D01*
X167917Y220228D01*
X167856Y220210D01*
X167851Y220205D01*
X167844Y220202D01*
X167806Y220152D01*
X167764Y220105D01*
X167763Y220098D01*
X167758Y220092D01*
X167742Y220020D01*
X167528Y217302D01*
X166896Y214669D01*
X165860Y212169D01*
X164446Y209861D01*
X162688Y207802D01*
X160629Y206044D01*
X158321Y204630D01*
X155821Y203594D01*
X153188Y202962D01*
X150490Y202750D01*
X147792Y202962D01*
X145159Y203594D01*
X142659Y204630D01*
X140351Y206044D01*
X138292Y207802D01*
X138239Y207865D01*
X137813Y208364D01*
X137600Y208613D01*
X137387Y208862D01*
X137174Y209112D01*
X136749Y209610D01*
X136748Y209610D01*
X136536Y209859D01*
X136534Y209861D01*
X135120Y212169D01*
X134084Y214669D01*
X133452Y217302D01*
X133238Y220020D01*
X133236Y220026D01*
X133237Y220033D01*
X133211Y220091D01*
X133189Y220150D01*
X133183Y220155D01*
X133180Y220161D01*
X133127Y220196D01*
X133077Y220234D01*
X133070Y220234D01*
X133064Y220238D01*
X132990Y220249D01*
X122990Y220249D01*
X122965Y220242D01*
X122939Y220244D01*
X122899Y220223D01*
X122856Y220210D01*
X122839Y220190D01*
X122816Y220178D01*
X122794Y220139D01*
X122764Y220105D01*
X122760Y220079D01*
X122747Y220056D01*
X122741Y219982D01*
X123021Y216069D01*
X123025Y216059D01*
X123026Y216033D01*
X123860Y212199D01*
X123865Y212191D01*
X123870Y212165D01*
X125242Y208489D01*
X125247Y208481D01*
X125256Y208457D01*
X127137Y205013D01*
X127144Y205006D01*
X127156Y204983D01*
X129507Y201842D01*
X129515Y201836D01*
X129531Y201815D01*
X132305Y199041D01*
X132314Y199036D01*
X132332Y199017D01*
X135473Y196666D01*
X135482Y196663D01*
X135503Y196647D01*
X138947Y194766D01*
X138956Y194764D01*
X138979Y194752D01*
X142655Y193380D01*
X142665Y193380D01*
X142689Y193370D01*
X146523Y192536D01*
X146533Y192537D01*
X146559Y192531D01*
X150472Y192251D01*
X150482Y192253D01*
X150508Y192251D01*
X154421Y192531D01*
G37*
D10*
X138350Y162910D03*
X128350Y162910D03*
D11*
X46482Y210820D03*
X213106Y57150D03*
D10*
X27098Y208280D03*
X17098Y208280D03*
D12*
X200490Y15250D03*
X195490Y15250D03*
X190490Y15250D03*
X185490Y15250D03*
X180490Y15250D03*
X175490Y15250D03*
X170490Y15250D03*
X165490Y15250D03*
X160490Y15250D03*
X155490Y15250D03*
X150490Y15250D03*
X125490Y15250D03*
X120490Y15250D03*
X115490Y15250D03*
X110490Y15250D03*
X105490Y15250D03*
X100490Y15250D03*
X95490Y15250D03*
X90490Y15250D03*
X85490Y15250D03*
X80490Y15250D03*
X75490Y15250D03*
X70490Y15250D03*
X65490Y15250D03*
X60490Y15250D03*
X55490Y15250D03*
X50490Y15250D03*
X45490Y15250D03*
X40490Y15250D03*
X35490Y15250D03*
X30490Y15250D03*
X25490Y15250D03*
X20490Y15250D03*
D13*
X129490Y210000D03*
X171490Y210000D03*
X150490Y197000D03*
D14*
X143320Y138430D03*
X143320Y125730D03*
X143320Y113030D03*
X143320Y100330D03*
X87820Y113030D03*
X87820Y100330D03*
X87820Y125730D03*
X87820Y138430D03*
D10*
X101640Y194310D03*
X111640Y194310D03*
X87710Y153670D03*
X97710Y153670D03*
X138350Y153670D03*
X128350Y153670D03*
D15*
X11430Y81000D03*
X11430Y58000D03*
M02*
