G04 EAGLE Gerber RS-274X export*
G75*
%MOMM*%
%FSLAX34Y34*%
%LPD*%
%INSoldermask Bottom*%
%IPPOS*%
%AMOC8*
5,1,8,0,0,1.08239X$1,22.5*%
G01*
%ADD10R,0.803200X0.803200*%
%ADD11C,0.838200*%
%ADD12R,0.553200X2.153200*%
%ADD13C,0.555600*%
%ADD14R,1.053200X0.703200*%
%ADD15R,1.033200X0.833200*%
%ADD16C,1.203200*%
%ADD17C,1.270000*%
%ADD18C,1.703200*%

G36*
X1729983Y192531D02*
X1729983Y192531D01*
X1729993Y192535D01*
X1730019Y192536D01*
X1733853Y193370D01*
X1733861Y193375D01*
X1733887Y193380D01*
X1737563Y194752D01*
X1737571Y194757D01*
X1737595Y194766D01*
X1741039Y196647D01*
X1741046Y196654D01*
X1741069Y196666D01*
X1744210Y199017D01*
X1744216Y199025D01*
X1744237Y199041D01*
X1747011Y201815D01*
X1747016Y201824D01*
X1747035Y201842D01*
X1749386Y204983D01*
X1749389Y204992D01*
X1749405Y205013D01*
X1751286Y208457D01*
X1751288Y208466D01*
X1751300Y208489D01*
X1752672Y212165D01*
X1752672Y212175D01*
X1752682Y212199D01*
X1753516Y216033D01*
X1753515Y216043D01*
X1753521Y216069D01*
X1753801Y219982D01*
X1753795Y220008D01*
X1753799Y220033D01*
X1753781Y220075D01*
X1753771Y220119D01*
X1753753Y220137D01*
X1753742Y220161D01*
X1753704Y220186D01*
X1753673Y220218D01*
X1753647Y220224D01*
X1753626Y220238D01*
X1753552Y220249D01*
X1743552Y220249D01*
X1743545Y220247D01*
X1743538Y220249D01*
X1743479Y220228D01*
X1743418Y220210D01*
X1743413Y220205D01*
X1743406Y220202D01*
X1743368Y220152D01*
X1743326Y220105D01*
X1743325Y220098D01*
X1743320Y220092D01*
X1743304Y220020D01*
X1743090Y217302D01*
X1742458Y214669D01*
X1741422Y212169D01*
X1740008Y209861D01*
X1738250Y207802D01*
X1736191Y206044D01*
X1733883Y204630D01*
X1731383Y203594D01*
X1728750Y202962D01*
X1726052Y202750D01*
X1723354Y202962D01*
X1720721Y203594D01*
X1718221Y204630D01*
X1715913Y206044D01*
X1713854Y207802D01*
X1713801Y207865D01*
X1713375Y208364D01*
X1713162Y208613D01*
X1712949Y208862D01*
X1712736Y209112D01*
X1712311Y209610D01*
X1712310Y209610D01*
X1712098Y209859D01*
X1712096Y209861D01*
X1710682Y212169D01*
X1709646Y214669D01*
X1709014Y217302D01*
X1708800Y220020D01*
X1708798Y220026D01*
X1708799Y220033D01*
X1708773Y220091D01*
X1708751Y220150D01*
X1708745Y220155D01*
X1708742Y220161D01*
X1708689Y220196D01*
X1708639Y220234D01*
X1708632Y220234D01*
X1708626Y220238D01*
X1708552Y220249D01*
X1698552Y220249D01*
X1698527Y220242D01*
X1698501Y220244D01*
X1698461Y220223D01*
X1698418Y220210D01*
X1698401Y220190D01*
X1698378Y220178D01*
X1698356Y220139D01*
X1698326Y220105D01*
X1698322Y220079D01*
X1698309Y220056D01*
X1698303Y219982D01*
X1698583Y216069D01*
X1698587Y216059D01*
X1698588Y216033D01*
X1699422Y212199D01*
X1699427Y212191D01*
X1699432Y212165D01*
X1700804Y208489D01*
X1700809Y208481D01*
X1700818Y208457D01*
X1702699Y205013D01*
X1702706Y205006D01*
X1702718Y204983D01*
X1705069Y201842D01*
X1705077Y201836D01*
X1705093Y201815D01*
X1707867Y199041D01*
X1707876Y199036D01*
X1707894Y199017D01*
X1711035Y196666D01*
X1711044Y196663D01*
X1711065Y196647D01*
X1714509Y194766D01*
X1714518Y194764D01*
X1714541Y194752D01*
X1718217Y193380D01*
X1718227Y193380D01*
X1718251Y193370D01*
X1722085Y192536D01*
X1722095Y192537D01*
X1722121Y192531D01*
X1726034Y192251D01*
X1726044Y192253D01*
X1726070Y192251D01*
X1729983Y192531D01*
G37*
G36*
X1054750Y192531D02*
X1054750Y192531D01*
X1054759Y192535D01*
X1054785Y192536D01*
X1058619Y193370D01*
X1058628Y193375D01*
X1058653Y193380D01*
X1062329Y194752D01*
X1062337Y194757D01*
X1062362Y194766D01*
X1065805Y196647D01*
X1065812Y196654D01*
X1065835Y196666D01*
X1068976Y199017D01*
X1068982Y199025D01*
X1069003Y199041D01*
X1071778Y201815D01*
X1071782Y201824D01*
X1071801Y201842D01*
X1074152Y204983D01*
X1074156Y204992D01*
X1074172Y205013D01*
X1076052Y208457D01*
X1076054Y208466D01*
X1076067Y208489D01*
X1077438Y212165D01*
X1077439Y212175D01*
X1077448Y212199D01*
X1078282Y216033D01*
X1078281Y216043D01*
X1078287Y216069D01*
X1078567Y219982D01*
X1078562Y220008D01*
X1078565Y220033D01*
X1078547Y220075D01*
X1078538Y220119D01*
X1078519Y220137D01*
X1078509Y220161D01*
X1078471Y220186D01*
X1078439Y220218D01*
X1078414Y220224D01*
X1078392Y220238D01*
X1078318Y220249D01*
X1068318Y220249D01*
X1068311Y220247D01*
X1068304Y220249D01*
X1068245Y220228D01*
X1068184Y220210D01*
X1068179Y220205D01*
X1068173Y220202D01*
X1068134Y220152D01*
X1068092Y220105D01*
X1068091Y220098D01*
X1068087Y220092D01*
X1068070Y220020D01*
X1067856Y217302D01*
X1067224Y214669D01*
X1066188Y212169D01*
X1064774Y209861D01*
X1063016Y207802D01*
X1060958Y206044D01*
X1058650Y204630D01*
X1056149Y203594D01*
X1053517Y202962D01*
X1050818Y202750D01*
X1048120Y202962D01*
X1045488Y203594D01*
X1042987Y204630D01*
X1040679Y206044D01*
X1038621Y207802D01*
X1038567Y207865D01*
X1038141Y208364D01*
X1037928Y208613D01*
X1037716Y208862D01*
X1037715Y208862D01*
X1037503Y209112D01*
X1037077Y209610D01*
X1036864Y209859D01*
X1036863Y209861D01*
X1035449Y212169D01*
X1034413Y214669D01*
X1033781Y217302D01*
X1033567Y220020D01*
X1033564Y220026D01*
X1033565Y220033D01*
X1033540Y220091D01*
X1033517Y220150D01*
X1033512Y220155D01*
X1033509Y220161D01*
X1033456Y220196D01*
X1033405Y220234D01*
X1033398Y220234D01*
X1033392Y220238D01*
X1033318Y220249D01*
X1023318Y220249D01*
X1023293Y220242D01*
X1023267Y220244D01*
X1023228Y220223D01*
X1023184Y220210D01*
X1023167Y220190D01*
X1023144Y220178D01*
X1023122Y220139D01*
X1023092Y220105D01*
X1023088Y220079D01*
X1023076Y220056D01*
X1023070Y219982D01*
X1023350Y216069D01*
X1023353Y216059D01*
X1023355Y216033D01*
X1024189Y212199D01*
X1024193Y212191D01*
X1024199Y212165D01*
X1025570Y208489D01*
X1025576Y208481D01*
X1025585Y208457D01*
X1027465Y205013D01*
X1027472Y205006D01*
X1027484Y204983D01*
X1029836Y201842D01*
X1029844Y201836D01*
X1029859Y201815D01*
X1032634Y199041D01*
X1032642Y199036D01*
X1032660Y199017D01*
X1035801Y196666D01*
X1035811Y196663D01*
X1035831Y196647D01*
X1039275Y194766D01*
X1039284Y194764D01*
X1039307Y194752D01*
X1042984Y193380D01*
X1042993Y193380D01*
X1043018Y193370D01*
X1046852Y192536D01*
X1046861Y192537D01*
X1046887Y192531D01*
X1050801Y192251D01*
X1050810Y192253D01*
X1050836Y192251D01*
X1054750Y192531D01*
G37*
G36*
X829655Y192531D02*
X829655Y192531D01*
X829664Y192535D01*
X829690Y192536D01*
X833524Y193370D01*
X833533Y193375D01*
X833558Y193380D01*
X837235Y194752D01*
X837242Y194757D01*
X837267Y194766D01*
X840711Y196647D01*
X840717Y196654D01*
X840741Y196666D01*
X843882Y199017D01*
X843887Y199025D01*
X843909Y199041D01*
X846683Y201815D01*
X846688Y201824D01*
X846706Y201842D01*
X849058Y204983D01*
X849061Y204992D01*
X849077Y205013D01*
X850957Y208457D01*
X850959Y208466D01*
X850972Y208489D01*
X852343Y212165D01*
X852344Y212175D01*
X852353Y212199D01*
X853187Y216033D01*
X853187Y216043D01*
X853192Y216069D01*
X853472Y219982D01*
X853467Y220008D01*
X853471Y220033D01*
X853452Y220075D01*
X853443Y220119D01*
X853424Y220137D01*
X853414Y220161D01*
X853376Y220186D01*
X853344Y220218D01*
X853319Y220224D01*
X853297Y220238D01*
X853224Y220249D01*
X843224Y220249D01*
X843217Y220247D01*
X843210Y220249D01*
X843150Y220228D01*
X843089Y220210D01*
X843085Y220205D01*
X843078Y220202D01*
X843039Y220152D01*
X842997Y220105D01*
X842996Y220098D01*
X842992Y220092D01*
X842975Y220020D01*
X842761Y217302D01*
X842129Y214669D01*
X841093Y212169D01*
X839679Y209861D01*
X837921Y207802D01*
X835863Y206044D01*
X833555Y204630D01*
X831054Y203594D01*
X828422Y202962D01*
X825724Y202750D01*
X823025Y202962D01*
X820393Y203594D01*
X817892Y204630D01*
X815584Y206044D01*
X813526Y207802D01*
X813472Y207865D01*
X813047Y208364D01*
X813046Y208364D01*
X812834Y208613D01*
X812621Y208862D01*
X812408Y209112D01*
X811982Y209610D01*
X811769Y209859D01*
X811768Y209861D01*
X810354Y212169D01*
X809318Y214669D01*
X808686Y217302D01*
X808472Y220020D01*
X808470Y220026D01*
X808471Y220033D01*
X808445Y220091D01*
X808422Y220150D01*
X808417Y220155D01*
X808414Y220161D01*
X808361Y220196D01*
X808310Y220234D01*
X808303Y220234D01*
X808297Y220238D01*
X808224Y220249D01*
X798224Y220249D01*
X798199Y220242D01*
X798173Y220244D01*
X798133Y220223D01*
X798089Y220210D01*
X798072Y220190D01*
X798049Y220178D01*
X798027Y220139D01*
X797997Y220105D01*
X797994Y220079D01*
X797981Y220056D01*
X797975Y219982D01*
X798255Y216069D01*
X798258Y216059D01*
X798260Y216033D01*
X799094Y212199D01*
X799099Y212191D01*
X799104Y212165D01*
X800475Y208489D01*
X800481Y208481D01*
X800490Y208457D01*
X802370Y205013D01*
X802377Y205006D01*
X802390Y204983D01*
X804741Y201842D01*
X804749Y201836D01*
X804764Y201815D01*
X807539Y199041D01*
X807547Y199036D01*
X807566Y199017D01*
X810707Y196666D01*
X810716Y196663D01*
X810737Y196647D01*
X814180Y194766D01*
X814190Y194764D01*
X814213Y194752D01*
X817889Y193380D01*
X817899Y193380D01*
X817923Y193370D01*
X821757Y192536D01*
X821767Y192537D01*
X821792Y192531D01*
X825706Y192251D01*
X825715Y192253D01*
X825741Y192251D01*
X829655Y192531D01*
G37*
G36*
X1279819Y192531D02*
X1279819Y192531D01*
X1279828Y192535D01*
X1279854Y192536D01*
X1283688Y193370D01*
X1283697Y193375D01*
X1283723Y193380D01*
X1287399Y194752D01*
X1287407Y194757D01*
X1287431Y194766D01*
X1290875Y196647D01*
X1290882Y196654D01*
X1290905Y196666D01*
X1294046Y199017D01*
X1294052Y199025D01*
X1294073Y199041D01*
X1296847Y201815D01*
X1296852Y201824D01*
X1296870Y201842D01*
X1299222Y204983D01*
X1299225Y204992D01*
X1299241Y205013D01*
X1301121Y208457D01*
X1301124Y208466D01*
X1301136Y208489D01*
X1302507Y212165D01*
X1302508Y212175D01*
X1302517Y212199D01*
X1303351Y216033D01*
X1303351Y216043D01*
X1303357Y216069D01*
X1303636Y219982D01*
X1303631Y220008D01*
X1303635Y220033D01*
X1303616Y220075D01*
X1303607Y220119D01*
X1303589Y220137D01*
X1303578Y220161D01*
X1303540Y220186D01*
X1303508Y220218D01*
X1303483Y220224D01*
X1303461Y220238D01*
X1303388Y220249D01*
X1293388Y220249D01*
X1293381Y220247D01*
X1293374Y220249D01*
X1293315Y220228D01*
X1293254Y220210D01*
X1293249Y220205D01*
X1293242Y220202D01*
X1293203Y220152D01*
X1293162Y220105D01*
X1293161Y220098D01*
X1293156Y220092D01*
X1293139Y220020D01*
X1292925Y217302D01*
X1292294Y214669D01*
X1291258Y212169D01*
X1289843Y209861D01*
X1288085Y207802D01*
X1286027Y206044D01*
X1283719Y204630D01*
X1281218Y203594D01*
X1278586Y202962D01*
X1275888Y202750D01*
X1273189Y202962D01*
X1270557Y203594D01*
X1268056Y204630D01*
X1265749Y206044D01*
X1263690Y207802D01*
X1263637Y207865D01*
X1263636Y207865D01*
X1263211Y208364D01*
X1262998Y208613D01*
X1262785Y208862D01*
X1262572Y209112D01*
X1262146Y209610D01*
X1261933Y209859D01*
X1261932Y209861D01*
X1260518Y212169D01*
X1259482Y214669D01*
X1258850Y217302D01*
X1258636Y220020D01*
X1258634Y220026D01*
X1258635Y220033D01*
X1258609Y220091D01*
X1258587Y220150D01*
X1258581Y220155D01*
X1258578Y220161D01*
X1258525Y220196D01*
X1258475Y220234D01*
X1258467Y220234D01*
X1258461Y220238D01*
X1258388Y220249D01*
X1248388Y220249D01*
X1248363Y220242D01*
X1248337Y220244D01*
X1248297Y220223D01*
X1248254Y220210D01*
X1248236Y220190D01*
X1248214Y220178D01*
X1248191Y220139D01*
X1248162Y220105D01*
X1248158Y220079D01*
X1248145Y220056D01*
X1248139Y219982D01*
X1248419Y216069D01*
X1248422Y216059D01*
X1248424Y216033D01*
X1249258Y212199D01*
X1249263Y212191D01*
X1249268Y212165D01*
X1250639Y208489D01*
X1250645Y208481D01*
X1250654Y208457D01*
X1252535Y205013D01*
X1252541Y205006D01*
X1252554Y204983D01*
X1254905Y201842D01*
X1254913Y201836D01*
X1254928Y201815D01*
X1257703Y199041D01*
X1257711Y199036D01*
X1257730Y199017D01*
X1260871Y196666D01*
X1260880Y196663D01*
X1260901Y196647D01*
X1264344Y194766D01*
X1264354Y194764D01*
X1264377Y194752D01*
X1268053Y193380D01*
X1268063Y193380D01*
X1268087Y193370D01*
X1271921Y192536D01*
X1271931Y192537D01*
X1271956Y192531D01*
X1275870Y192251D01*
X1275880Y192253D01*
X1275906Y192251D01*
X1279819Y192531D01*
G37*
G36*
X1504914Y192531D02*
X1504914Y192531D01*
X1504923Y192535D01*
X1504949Y192536D01*
X1508783Y193370D01*
X1508792Y193375D01*
X1508817Y193380D01*
X1512494Y194752D01*
X1512501Y194757D01*
X1512526Y194766D01*
X1515970Y196647D01*
X1515976Y196654D01*
X1516000Y196666D01*
X1519141Y199017D01*
X1519146Y199025D01*
X1519168Y199041D01*
X1521942Y201815D01*
X1521947Y201824D01*
X1521965Y201842D01*
X1524317Y204983D01*
X1524320Y204992D01*
X1524336Y205013D01*
X1526216Y208457D01*
X1526218Y208466D01*
X1526231Y208489D01*
X1527602Y212165D01*
X1527603Y212175D01*
X1527612Y212199D01*
X1528446Y216033D01*
X1528446Y216043D01*
X1528451Y216069D01*
X1528731Y219982D01*
X1528726Y220008D01*
X1528730Y220033D01*
X1528711Y220075D01*
X1528702Y220119D01*
X1528683Y220137D01*
X1528673Y220161D01*
X1528635Y220186D01*
X1528603Y220218D01*
X1528578Y220224D01*
X1528556Y220238D01*
X1528483Y220249D01*
X1518483Y220249D01*
X1518476Y220247D01*
X1518469Y220249D01*
X1518409Y220228D01*
X1518348Y220210D01*
X1518344Y220205D01*
X1518337Y220202D01*
X1518298Y220152D01*
X1518256Y220105D01*
X1518255Y220098D01*
X1518251Y220092D01*
X1518234Y220020D01*
X1518020Y217302D01*
X1517388Y214669D01*
X1516352Y212169D01*
X1514938Y209861D01*
X1513180Y207802D01*
X1511122Y206044D01*
X1508814Y204630D01*
X1506313Y203594D01*
X1503681Y202962D01*
X1500983Y202750D01*
X1498284Y202962D01*
X1495652Y203594D01*
X1493151Y204630D01*
X1490843Y206044D01*
X1488785Y207802D01*
X1488731Y207865D01*
X1488306Y208364D01*
X1488305Y208364D01*
X1488093Y208613D01*
X1487880Y208862D01*
X1487667Y209112D01*
X1487241Y209610D01*
X1487028Y209859D01*
X1487027Y209861D01*
X1485613Y212169D01*
X1484577Y214669D01*
X1483945Y217302D01*
X1483731Y220020D01*
X1483729Y220026D01*
X1483730Y220033D01*
X1483704Y220091D01*
X1483681Y220150D01*
X1483676Y220155D01*
X1483673Y220161D01*
X1483620Y220196D01*
X1483569Y220234D01*
X1483562Y220234D01*
X1483556Y220238D01*
X1483483Y220249D01*
X1473483Y220249D01*
X1473458Y220242D01*
X1473432Y220244D01*
X1473392Y220223D01*
X1473348Y220210D01*
X1473331Y220190D01*
X1473308Y220178D01*
X1473286Y220139D01*
X1473256Y220105D01*
X1473253Y220079D01*
X1473240Y220056D01*
X1473234Y219982D01*
X1473514Y216069D01*
X1473517Y216059D01*
X1473519Y216033D01*
X1474353Y212199D01*
X1474358Y212191D01*
X1474363Y212165D01*
X1475734Y208489D01*
X1475740Y208481D01*
X1475749Y208457D01*
X1477629Y205013D01*
X1477636Y205006D01*
X1477649Y204983D01*
X1480000Y201842D01*
X1480008Y201836D01*
X1480023Y201815D01*
X1482798Y199041D01*
X1482806Y199036D01*
X1482825Y199017D01*
X1485966Y196666D01*
X1485975Y196663D01*
X1485996Y196647D01*
X1489439Y194766D01*
X1489449Y194764D01*
X1489472Y194752D01*
X1493148Y193380D01*
X1493158Y193380D01*
X1493182Y193370D01*
X1497016Y192536D01*
X1497026Y192537D01*
X1497051Y192531D01*
X1500965Y192251D01*
X1500974Y192253D01*
X1501000Y192251D01*
X1504914Y192531D01*
G37*
G36*
X604586Y192531D02*
X604586Y192531D01*
X604595Y192535D01*
X604621Y192536D01*
X608455Y193370D01*
X608463Y193375D01*
X608489Y193380D01*
X612165Y194752D01*
X612173Y194757D01*
X612198Y194766D01*
X615641Y196647D01*
X615648Y196654D01*
X615671Y196666D01*
X618812Y199017D01*
X618818Y199025D01*
X618839Y199041D01*
X621614Y201815D01*
X621618Y201824D01*
X621637Y201842D01*
X623988Y204983D01*
X623992Y204992D01*
X624007Y205013D01*
X625888Y208457D01*
X625890Y208466D01*
X625903Y208489D01*
X627274Y212165D01*
X627274Y212175D01*
X627284Y212199D01*
X628118Y216033D01*
X628117Y216043D01*
X628123Y216069D01*
X628403Y219982D01*
X628397Y220008D01*
X628401Y220033D01*
X628383Y220075D01*
X628373Y220119D01*
X628355Y220137D01*
X628344Y220161D01*
X628307Y220186D01*
X628275Y220218D01*
X628249Y220224D01*
X628228Y220238D01*
X628154Y220249D01*
X618154Y220249D01*
X618147Y220247D01*
X618140Y220249D01*
X618081Y220228D01*
X618020Y220210D01*
X618015Y220205D01*
X618008Y220202D01*
X617970Y220152D01*
X617928Y220105D01*
X617927Y220098D01*
X617923Y220092D01*
X617906Y220020D01*
X617692Y217302D01*
X617060Y214669D01*
X616024Y212169D01*
X614610Y209861D01*
X612852Y207802D01*
X610794Y206044D01*
X608486Y204630D01*
X605985Y203594D01*
X603353Y202962D01*
X600654Y202750D01*
X597956Y202962D01*
X595324Y203594D01*
X592823Y204630D01*
X590515Y206044D01*
X588457Y207802D01*
X588403Y207865D01*
X587977Y208364D01*
X587764Y208613D01*
X587551Y208862D01*
X587338Y209112D01*
X586913Y209610D01*
X586700Y209859D01*
X586699Y209861D01*
X585284Y212169D01*
X584249Y214669D01*
X583617Y217302D01*
X583403Y220020D01*
X583400Y220026D01*
X583401Y220033D01*
X583375Y220091D01*
X583353Y220150D01*
X583347Y220155D01*
X583344Y220161D01*
X583292Y220196D01*
X583241Y220234D01*
X583234Y220234D01*
X583228Y220238D01*
X583154Y220249D01*
X573154Y220249D01*
X573129Y220242D01*
X573103Y220244D01*
X573063Y220223D01*
X573020Y220210D01*
X573003Y220190D01*
X572980Y220178D01*
X572958Y220139D01*
X572928Y220105D01*
X572924Y220079D01*
X572911Y220056D01*
X572906Y219982D01*
X573185Y216069D01*
X573189Y216059D01*
X573191Y216033D01*
X574025Y212199D01*
X574029Y212191D01*
X574035Y212165D01*
X575406Y208489D01*
X575412Y208481D01*
X575421Y208457D01*
X577301Y205013D01*
X577308Y205006D01*
X577320Y204983D01*
X579672Y201842D01*
X579679Y201836D01*
X579695Y201815D01*
X582469Y199041D01*
X582478Y199036D01*
X582496Y199017D01*
X585637Y196666D01*
X585646Y196663D01*
X585667Y196647D01*
X589111Y194766D01*
X589120Y194764D01*
X589143Y194752D01*
X592819Y193380D01*
X592829Y193380D01*
X592854Y193370D01*
X596688Y192536D01*
X596697Y192537D01*
X596723Y192531D01*
X600636Y192251D01*
X600646Y192253D01*
X600672Y192251D01*
X604586Y192531D01*
G37*
G36*
X379491Y192531D02*
X379491Y192531D01*
X379500Y192535D01*
X379526Y192536D01*
X383360Y193370D01*
X383369Y193375D01*
X383394Y193380D01*
X387070Y194752D01*
X387078Y194757D01*
X387103Y194766D01*
X390546Y196647D01*
X390553Y196654D01*
X390576Y196666D01*
X393717Y199017D01*
X393723Y199025D01*
X393744Y199041D01*
X396519Y201815D01*
X396523Y201824D01*
X396542Y201842D01*
X398893Y204983D01*
X398897Y204992D01*
X398913Y205013D01*
X400793Y208457D01*
X400795Y208466D01*
X400808Y208489D01*
X402179Y212165D01*
X402180Y212175D01*
X402189Y212199D01*
X403023Y216033D01*
X403022Y216043D01*
X403028Y216069D01*
X403308Y219982D01*
X403303Y220008D01*
X403306Y220033D01*
X403288Y220075D01*
X403279Y220119D01*
X403260Y220137D01*
X403250Y220161D01*
X403212Y220186D01*
X403180Y220218D01*
X403155Y220224D01*
X403133Y220238D01*
X403059Y220249D01*
X393059Y220249D01*
X393052Y220247D01*
X393045Y220249D01*
X392986Y220228D01*
X392925Y220210D01*
X392920Y220205D01*
X392914Y220202D01*
X392875Y220152D01*
X392833Y220105D01*
X392832Y220098D01*
X392828Y220092D01*
X392811Y220020D01*
X392597Y217302D01*
X391965Y214669D01*
X390929Y212169D01*
X389515Y209861D01*
X387757Y207802D01*
X385699Y206044D01*
X383391Y204630D01*
X380890Y203594D01*
X378258Y202962D01*
X375559Y202750D01*
X372861Y202962D01*
X370229Y203594D01*
X367728Y204630D01*
X365420Y206044D01*
X363362Y207802D01*
X363308Y207865D01*
X362882Y208364D01*
X362669Y208613D01*
X362457Y208862D01*
X362456Y208862D01*
X362244Y209112D01*
X361818Y209610D01*
X361605Y209859D01*
X361604Y209861D01*
X360190Y212169D01*
X359154Y214669D01*
X358522Y217302D01*
X358308Y220020D01*
X358305Y220026D01*
X358306Y220033D01*
X358281Y220091D01*
X358258Y220150D01*
X358253Y220155D01*
X358250Y220161D01*
X358197Y220196D01*
X358146Y220234D01*
X358139Y220234D01*
X358133Y220238D01*
X358059Y220249D01*
X348059Y220249D01*
X348034Y220242D01*
X348008Y220244D01*
X347969Y220223D01*
X347925Y220210D01*
X347908Y220190D01*
X347885Y220178D01*
X347863Y220139D01*
X347833Y220105D01*
X347829Y220079D01*
X347817Y220056D01*
X347811Y219982D01*
X348091Y216069D01*
X348094Y216059D01*
X348096Y216033D01*
X348930Y212199D01*
X348934Y212191D01*
X348940Y212165D01*
X350311Y208489D01*
X350317Y208481D01*
X350326Y208457D01*
X352206Y205013D01*
X352213Y205006D01*
X352225Y204983D01*
X354577Y201842D01*
X354585Y201836D01*
X354600Y201815D01*
X357375Y199041D01*
X357383Y199036D01*
X357401Y199017D01*
X360542Y196666D01*
X360552Y196663D01*
X360572Y196647D01*
X364016Y194766D01*
X364025Y194764D01*
X364048Y194752D01*
X367725Y193380D01*
X367734Y193380D01*
X367759Y193370D01*
X371593Y192536D01*
X371602Y192537D01*
X371628Y192531D01*
X375542Y192251D01*
X375551Y192253D01*
X375577Y192251D01*
X379491Y192531D01*
G37*
G36*
X154421Y192531D02*
X154421Y192531D01*
X154431Y192535D01*
X154457Y192536D01*
X158291Y193370D01*
X158299Y193375D01*
X158325Y193380D01*
X162001Y194752D01*
X162009Y194757D01*
X162033Y194766D01*
X165477Y196647D01*
X165484Y196654D01*
X165507Y196666D01*
X168648Y199017D01*
X168654Y199025D01*
X168675Y199041D01*
X171449Y201815D01*
X171454Y201824D01*
X171473Y201842D01*
X173824Y204983D01*
X173827Y204992D01*
X173843Y205013D01*
X175724Y208457D01*
X175726Y208466D01*
X175738Y208489D01*
X177110Y212165D01*
X177110Y212175D01*
X177120Y212199D01*
X177954Y216033D01*
X177953Y216043D01*
X177959Y216069D01*
X178239Y219982D01*
X178233Y220008D01*
X178237Y220033D01*
X178219Y220075D01*
X178209Y220119D01*
X178191Y220137D01*
X178180Y220161D01*
X178142Y220186D01*
X178111Y220218D01*
X178085Y220224D01*
X178064Y220238D01*
X177990Y220249D01*
X167990Y220249D01*
X167983Y220247D01*
X167976Y220249D01*
X167917Y220228D01*
X167856Y220210D01*
X167851Y220205D01*
X167844Y220202D01*
X167806Y220152D01*
X167764Y220105D01*
X167763Y220098D01*
X167758Y220092D01*
X167742Y220020D01*
X167528Y217302D01*
X166896Y214669D01*
X165860Y212169D01*
X164446Y209861D01*
X162688Y207802D01*
X160629Y206044D01*
X158321Y204630D01*
X155821Y203594D01*
X153188Y202962D01*
X150490Y202750D01*
X147792Y202962D01*
X145159Y203594D01*
X142659Y204630D01*
X140351Y206044D01*
X138292Y207802D01*
X138239Y207865D01*
X137813Y208364D01*
X137600Y208613D01*
X137387Y208862D01*
X137174Y209112D01*
X136749Y209610D01*
X136748Y209610D01*
X136536Y209859D01*
X136534Y209861D01*
X135120Y212169D01*
X134084Y214669D01*
X133452Y217302D01*
X133238Y220020D01*
X133236Y220026D01*
X133237Y220033D01*
X133211Y220091D01*
X133189Y220150D01*
X133183Y220155D01*
X133180Y220161D01*
X133127Y220196D01*
X133077Y220234D01*
X133070Y220234D01*
X133064Y220238D01*
X132990Y220249D01*
X122990Y220249D01*
X122965Y220242D01*
X122939Y220244D01*
X122899Y220223D01*
X122856Y220210D01*
X122839Y220190D01*
X122816Y220178D01*
X122794Y220139D01*
X122764Y220105D01*
X122760Y220079D01*
X122747Y220056D01*
X122741Y219982D01*
X123021Y216069D01*
X123025Y216059D01*
X123026Y216033D01*
X123860Y212199D01*
X123865Y212191D01*
X123870Y212165D01*
X125242Y208489D01*
X125247Y208481D01*
X125256Y208457D01*
X127137Y205013D01*
X127144Y205006D01*
X127156Y204983D01*
X129507Y201842D01*
X129515Y201836D01*
X129531Y201815D01*
X132305Y199041D01*
X132314Y199036D01*
X132332Y199017D01*
X135473Y196666D01*
X135482Y196663D01*
X135503Y196647D01*
X138947Y194766D01*
X138956Y194764D01*
X138979Y194752D01*
X142655Y193380D01*
X142665Y193380D01*
X142689Y193370D01*
X146523Y192536D01*
X146533Y192537D01*
X146559Y192531D01*
X150472Y192251D01*
X150482Y192253D01*
X150508Y192251D01*
X154421Y192531D01*
G37*
G36*
X52006Y478253D02*
X52006Y478253D01*
X52013Y478251D01*
X52073Y478272D01*
X52134Y478290D01*
X52138Y478295D01*
X52145Y478298D01*
X52184Y478348D01*
X52226Y478395D01*
X52227Y478402D01*
X52231Y478408D01*
X52248Y478480D01*
X52462Y481198D01*
X53094Y483831D01*
X54130Y486331D01*
X55544Y488639D01*
X57302Y490698D01*
X59360Y492456D01*
X61668Y493870D01*
X64169Y494906D01*
X66801Y495538D01*
X69499Y495750D01*
X72198Y495538D01*
X74830Y494906D01*
X77331Y493870D01*
X79639Y492456D01*
X81697Y490698D01*
X81821Y490552D01*
X82034Y490303D01*
X82460Y489804D01*
X82673Y489555D01*
X82886Y489306D01*
X83098Y489057D01*
X83099Y489057D01*
X83311Y488807D01*
X83455Y488639D01*
X84869Y486331D01*
X85905Y483831D01*
X86537Y481198D01*
X86751Y478480D01*
X86754Y478474D01*
X86752Y478467D01*
X86778Y478409D01*
X86801Y478350D01*
X86806Y478345D01*
X86809Y478339D01*
X86862Y478304D01*
X86913Y478266D01*
X86920Y478266D01*
X86926Y478262D01*
X86999Y478251D01*
X96999Y478251D01*
X97024Y478258D01*
X97050Y478256D01*
X97090Y478277D01*
X97134Y478290D01*
X97151Y478310D01*
X97174Y478322D01*
X97196Y478361D01*
X97226Y478395D01*
X97229Y478421D01*
X97242Y478444D01*
X97248Y478518D01*
X96968Y482431D01*
X96965Y482441D01*
X96963Y482467D01*
X96129Y486301D01*
X96124Y486309D01*
X96119Y486335D01*
X94748Y490011D01*
X94742Y490019D01*
X94733Y490043D01*
X92853Y493487D01*
X92846Y493494D01*
X92833Y493517D01*
X90482Y496658D01*
X90474Y496664D01*
X90459Y496685D01*
X87684Y499459D01*
X87676Y499464D01*
X87657Y499483D01*
X84516Y501834D01*
X84507Y501837D01*
X84486Y501853D01*
X81043Y503734D01*
X81033Y503736D01*
X81010Y503748D01*
X77334Y505120D01*
X77325Y505120D01*
X77300Y505130D01*
X73466Y505964D01*
X73456Y505963D01*
X73431Y505969D01*
X69517Y506249D01*
X69508Y506247D01*
X69482Y506249D01*
X65568Y505969D01*
X65559Y505965D01*
X65533Y505964D01*
X61699Y505130D01*
X61690Y505125D01*
X61665Y505120D01*
X57988Y503748D01*
X57981Y503743D01*
X57956Y503734D01*
X54512Y501853D01*
X54506Y501846D01*
X54482Y501834D01*
X51341Y499483D01*
X51336Y499475D01*
X51315Y499459D01*
X48540Y496685D01*
X48535Y496676D01*
X48517Y496658D01*
X46165Y493517D01*
X46162Y493508D01*
X46146Y493487D01*
X44266Y490043D01*
X44264Y490034D01*
X44251Y490011D01*
X42880Y486335D01*
X42879Y486325D01*
X42870Y486301D01*
X42036Y482467D01*
X42036Y482457D01*
X42031Y482431D01*
X41751Y478518D01*
X41756Y478492D01*
X41752Y478467D01*
X41771Y478425D01*
X41780Y478381D01*
X41799Y478363D01*
X41809Y478339D01*
X41847Y478314D01*
X41879Y478282D01*
X41904Y478276D01*
X41926Y478262D01*
X41999Y478251D01*
X51999Y478251D01*
X52006Y478253D01*
G37*
G36*
X952335Y478253D02*
X952335Y478253D01*
X952342Y478251D01*
X952401Y478272D01*
X952462Y478290D01*
X952467Y478295D01*
X952474Y478298D01*
X952512Y478348D01*
X952554Y478395D01*
X952555Y478402D01*
X952559Y478408D01*
X952576Y478480D01*
X952790Y481198D01*
X953422Y483831D01*
X954458Y486331D01*
X955872Y488639D01*
X957630Y490698D01*
X959689Y492456D01*
X961996Y493870D01*
X964497Y494906D01*
X967129Y495538D01*
X969828Y495750D01*
X972526Y495538D01*
X975158Y494906D01*
X977659Y493870D01*
X979967Y492456D01*
X982025Y490698D01*
X982150Y490552D01*
X982362Y490303D01*
X982363Y490303D01*
X982788Y489804D01*
X983001Y489555D01*
X983214Y489306D01*
X983427Y489057D01*
X983640Y488807D01*
X983783Y488639D01*
X985198Y486331D01*
X986234Y483831D01*
X986865Y481198D01*
X987079Y478480D01*
X987082Y478474D01*
X987081Y478467D01*
X987107Y478409D01*
X987129Y478350D01*
X987135Y478345D01*
X987138Y478339D01*
X987190Y478304D01*
X987241Y478266D01*
X987248Y478266D01*
X987254Y478262D01*
X987328Y478251D01*
X997328Y478251D01*
X997353Y478258D01*
X997379Y478256D01*
X997419Y478277D01*
X997462Y478290D01*
X997479Y478310D01*
X997502Y478322D01*
X997524Y478361D01*
X997554Y478395D01*
X997558Y478421D01*
X997571Y478444D01*
X997576Y478518D01*
X997297Y482431D01*
X997293Y482441D01*
X997291Y482467D01*
X996457Y486301D01*
X996453Y486309D01*
X996447Y486335D01*
X995076Y490011D01*
X995070Y490019D01*
X995061Y490043D01*
X993181Y493487D01*
X993174Y493494D01*
X993162Y493517D01*
X990810Y496658D01*
X990803Y496664D01*
X990787Y496685D01*
X988013Y499459D01*
X988004Y499464D01*
X987986Y499483D01*
X984845Y501834D01*
X984836Y501837D01*
X984815Y501853D01*
X981371Y503734D01*
X981362Y503736D01*
X981339Y503748D01*
X977663Y505120D01*
X977653Y505120D01*
X977628Y505130D01*
X973794Y505964D01*
X973785Y505963D01*
X973759Y505969D01*
X969846Y506249D01*
X969836Y506247D01*
X969810Y506249D01*
X965896Y505969D01*
X965887Y505965D01*
X965861Y505964D01*
X962027Y505130D01*
X962019Y505125D01*
X961993Y505120D01*
X958317Y503748D01*
X958309Y503743D01*
X958284Y503734D01*
X954841Y501853D01*
X954834Y501846D01*
X954811Y501834D01*
X951670Y499483D01*
X951664Y499475D01*
X951643Y499459D01*
X948868Y496685D01*
X948864Y496676D01*
X948845Y496658D01*
X946494Y493517D01*
X946490Y493508D01*
X946475Y493487D01*
X944594Y490043D01*
X944592Y490034D01*
X944579Y490011D01*
X943208Y486335D01*
X943208Y486325D01*
X943198Y486301D01*
X942364Y482467D01*
X942365Y482457D01*
X942359Y482431D01*
X942079Y478518D01*
X942085Y478492D01*
X942081Y478467D01*
X942099Y478425D01*
X942109Y478381D01*
X942127Y478363D01*
X942138Y478339D01*
X942175Y478314D01*
X942207Y478282D01*
X942233Y478276D01*
X942254Y478262D01*
X942328Y478251D01*
X952328Y478251D01*
X952335Y478253D01*
G37*
G36*
X1402499Y478253D02*
X1402499Y478253D01*
X1402506Y478251D01*
X1402565Y478272D01*
X1402626Y478290D01*
X1402631Y478295D01*
X1402638Y478298D01*
X1402677Y478348D01*
X1402718Y478395D01*
X1402719Y478402D01*
X1402724Y478408D01*
X1402740Y478480D01*
X1402954Y481198D01*
X1403586Y483831D01*
X1404622Y486331D01*
X1406036Y488639D01*
X1407794Y490698D01*
X1409853Y492456D01*
X1412161Y493870D01*
X1414661Y494906D01*
X1417294Y495538D01*
X1419992Y495750D01*
X1422690Y495538D01*
X1425323Y494906D01*
X1427823Y493870D01*
X1430131Y492456D01*
X1432190Y490698D01*
X1432314Y490552D01*
X1432527Y490303D01*
X1432952Y489804D01*
X1432953Y489804D01*
X1433165Y489555D01*
X1433378Y489306D01*
X1433591Y489057D01*
X1433804Y488807D01*
X1433948Y488639D01*
X1435362Y486331D01*
X1436398Y483831D01*
X1437030Y481198D01*
X1437244Y478480D01*
X1437246Y478474D01*
X1437245Y478467D01*
X1437271Y478409D01*
X1437293Y478350D01*
X1437299Y478345D01*
X1437302Y478339D01*
X1437355Y478304D01*
X1437405Y478266D01*
X1437413Y478266D01*
X1437419Y478262D01*
X1437492Y478251D01*
X1447492Y478251D01*
X1447517Y478258D01*
X1447543Y478256D01*
X1447583Y478277D01*
X1447626Y478290D01*
X1447643Y478310D01*
X1447666Y478322D01*
X1447688Y478361D01*
X1447718Y478395D01*
X1447722Y478421D01*
X1447735Y478444D01*
X1447741Y478518D01*
X1447461Y482431D01*
X1447457Y482441D01*
X1447456Y482467D01*
X1446622Y486301D01*
X1446617Y486309D01*
X1446612Y486335D01*
X1445240Y490011D01*
X1445235Y490019D01*
X1445226Y490043D01*
X1443345Y493487D01*
X1443338Y493494D01*
X1443326Y493517D01*
X1440975Y496658D01*
X1440967Y496664D01*
X1440951Y496685D01*
X1438177Y499459D01*
X1438168Y499464D01*
X1438150Y499483D01*
X1435009Y501834D01*
X1435000Y501837D01*
X1434979Y501853D01*
X1431535Y503734D01*
X1431526Y503736D01*
X1431503Y503748D01*
X1427827Y505120D01*
X1427817Y505120D01*
X1427793Y505130D01*
X1423959Y505964D01*
X1423949Y505963D01*
X1423923Y505969D01*
X1420010Y506249D01*
X1420000Y506247D01*
X1419974Y506249D01*
X1416061Y505969D01*
X1416051Y505965D01*
X1416025Y505964D01*
X1412191Y505130D01*
X1412183Y505125D01*
X1412157Y505120D01*
X1408481Y503748D01*
X1408473Y503743D01*
X1408449Y503734D01*
X1405005Y501853D01*
X1404998Y501846D01*
X1404975Y501834D01*
X1401834Y499483D01*
X1401828Y499475D01*
X1401807Y499459D01*
X1399033Y496685D01*
X1399028Y496676D01*
X1399009Y496658D01*
X1396658Y493517D01*
X1396655Y493508D01*
X1396639Y493487D01*
X1394758Y490043D01*
X1394756Y490034D01*
X1394744Y490011D01*
X1393372Y486335D01*
X1393372Y486325D01*
X1393362Y486301D01*
X1392528Y482467D01*
X1392529Y482457D01*
X1392523Y482431D01*
X1392243Y478518D01*
X1392249Y478492D01*
X1392245Y478467D01*
X1392263Y478425D01*
X1392273Y478381D01*
X1392291Y478363D01*
X1392302Y478339D01*
X1392340Y478314D01*
X1392371Y478282D01*
X1392397Y478276D01*
X1392419Y478262D01*
X1392492Y478251D01*
X1402492Y478251D01*
X1402499Y478253D01*
G37*
G36*
X502171Y478253D02*
X502171Y478253D01*
X502178Y478251D01*
X502237Y478272D01*
X502298Y478290D01*
X502303Y478295D01*
X502309Y478298D01*
X502348Y478348D01*
X502390Y478395D01*
X502391Y478402D01*
X502395Y478408D01*
X502412Y478480D01*
X502626Y481198D01*
X503258Y483831D01*
X504294Y486331D01*
X505708Y488639D01*
X507466Y490698D01*
X509524Y492456D01*
X511832Y493870D01*
X514333Y494906D01*
X516965Y495538D01*
X519664Y495750D01*
X522362Y495538D01*
X524994Y494906D01*
X527495Y493870D01*
X529803Y492456D01*
X531861Y490698D01*
X531985Y490552D01*
X532198Y490303D01*
X532624Y489804D01*
X532837Y489555D01*
X533050Y489306D01*
X533263Y489057D01*
X533476Y488807D01*
X533619Y488639D01*
X535033Y486331D01*
X536069Y483831D01*
X536701Y481198D01*
X536915Y478480D01*
X536918Y478474D01*
X536917Y478467D01*
X536942Y478409D01*
X536965Y478350D01*
X536971Y478345D01*
X536973Y478339D01*
X537026Y478304D01*
X537077Y478266D01*
X537084Y478266D01*
X537090Y478262D01*
X537164Y478251D01*
X547164Y478251D01*
X547189Y478258D01*
X547215Y478256D01*
X547254Y478277D01*
X547298Y478290D01*
X547315Y478310D01*
X547338Y478322D01*
X547360Y478361D01*
X547390Y478395D01*
X547394Y478421D01*
X547406Y478444D01*
X547412Y478518D01*
X547132Y482431D01*
X547129Y482441D01*
X547127Y482467D01*
X546293Y486301D01*
X546289Y486309D01*
X546283Y486335D01*
X544912Y490011D01*
X544906Y490019D01*
X544897Y490043D01*
X543017Y493487D01*
X543010Y493494D01*
X542998Y493517D01*
X540646Y496658D01*
X540639Y496664D01*
X540623Y496685D01*
X537849Y499459D01*
X537840Y499464D01*
X537822Y499483D01*
X534681Y501834D01*
X534672Y501837D01*
X534651Y501853D01*
X531207Y503734D01*
X531198Y503736D01*
X531175Y503748D01*
X527498Y505120D01*
X527489Y505120D01*
X527464Y505130D01*
X523630Y505964D01*
X523621Y505963D01*
X523595Y505969D01*
X519681Y506249D01*
X519672Y506247D01*
X519646Y506249D01*
X515732Y505969D01*
X515723Y505965D01*
X515697Y505964D01*
X511863Y505130D01*
X511854Y505125D01*
X511829Y505120D01*
X508153Y503748D01*
X508145Y503743D01*
X508120Y503734D01*
X504677Y501853D01*
X504670Y501846D01*
X504647Y501834D01*
X501506Y499483D01*
X501500Y499475D01*
X501479Y499459D01*
X498704Y496685D01*
X498700Y496676D01*
X498681Y496658D01*
X496330Y493517D01*
X496326Y493508D01*
X496310Y493487D01*
X494430Y490043D01*
X494428Y490034D01*
X494415Y490011D01*
X493044Y486335D01*
X493043Y486325D01*
X493034Y486301D01*
X492200Y482467D01*
X492201Y482457D01*
X492195Y482431D01*
X491915Y478518D01*
X491920Y478492D01*
X491917Y478467D01*
X491935Y478425D01*
X491945Y478381D01*
X491963Y478363D01*
X491973Y478339D01*
X492011Y478314D01*
X492043Y478282D01*
X492068Y478276D01*
X492090Y478262D01*
X492164Y478251D01*
X502164Y478251D01*
X502171Y478253D01*
G37*
G36*
X277101Y478253D02*
X277101Y478253D01*
X277108Y478251D01*
X277167Y478272D01*
X277228Y478290D01*
X277233Y478295D01*
X277240Y478298D01*
X277279Y478348D01*
X277320Y478395D01*
X277321Y478402D01*
X277326Y478408D01*
X277343Y478480D01*
X277557Y481198D01*
X278189Y483831D01*
X279224Y486331D01*
X280639Y488639D01*
X282397Y490698D01*
X284455Y492456D01*
X286763Y493870D01*
X289264Y494906D01*
X291896Y495538D01*
X294594Y495750D01*
X297293Y495538D01*
X299925Y494906D01*
X302426Y493870D01*
X304734Y492456D01*
X306792Y490698D01*
X306916Y490552D01*
X307129Y490303D01*
X307555Y489804D01*
X307768Y489555D01*
X307980Y489306D01*
X308193Y489057D01*
X308406Y488807D01*
X308550Y488639D01*
X309964Y486331D01*
X311000Y483831D01*
X311632Y481198D01*
X311846Y478480D01*
X311848Y478474D01*
X311847Y478467D01*
X311873Y478409D01*
X311895Y478350D01*
X311901Y478345D01*
X311904Y478339D01*
X311957Y478304D01*
X312007Y478266D01*
X312015Y478266D01*
X312021Y478262D01*
X312094Y478251D01*
X322094Y478251D01*
X322119Y478258D01*
X322145Y478256D01*
X322185Y478277D01*
X322228Y478290D01*
X322246Y478310D01*
X322268Y478322D01*
X322291Y478361D01*
X322320Y478395D01*
X322324Y478421D01*
X322337Y478444D01*
X322343Y478518D01*
X322063Y482431D01*
X322060Y482441D01*
X322058Y482467D01*
X321224Y486301D01*
X321219Y486309D01*
X321214Y486335D01*
X319843Y490011D01*
X319837Y490019D01*
X319828Y490043D01*
X317947Y493487D01*
X317941Y493494D01*
X317928Y493517D01*
X315577Y496658D01*
X315569Y496664D01*
X315554Y496685D01*
X312779Y499459D01*
X312771Y499464D01*
X312752Y499483D01*
X309611Y501834D01*
X309602Y501837D01*
X309581Y501853D01*
X306138Y503734D01*
X306128Y503736D01*
X306105Y503748D01*
X302429Y505120D01*
X302419Y505120D01*
X302395Y505130D01*
X298561Y505964D01*
X298551Y505963D01*
X298526Y505969D01*
X294612Y506249D01*
X294603Y506247D01*
X294576Y506249D01*
X290663Y505969D01*
X290654Y505965D01*
X290628Y505964D01*
X286794Y505130D01*
X286785Y505125D01*
X286759Y505120D01*
X283083Y503748D01*
X283075Y503743D01*
X283051Y503734D01*
X279607Y501853D01*
X279600Y501846D01*
X279577Y501834D01*
X276436Y499483D01*
X276430Y499475D01*
X276409Y499459D01*
X273635Y496685D01*
X273630Y496676D01*
X273612Y496658D01*
X271260Y493517D01*
X271257Y493508D01*
X271241Y493487D01*
X269361Y490043D01*
X269359Y490034D01*
X269346Y490011D01*
X267975Y486335D01*
X267974Y486325D01*
X267965Y486301D01*
X267131Y482467D01*
X267131Y482457D01*
X267125Y482431D01*
X266846Y478518D01*
X266851Y478492D01*
X266847Y478467D01*
X266866Y478425D01*
X266875Y478381D01*
X266893Y478363D01*
X266904Y478339D01*
X266942Y478314D01*
X266974Y478282D01*
X266999Y478276D01*
X267021Y478262D01*
X267094Y478251D01*
X277094Y478251D01*
X277101Y478253D01*
G37*
G36*
X1177430Y478253D02*
X1177430Y478253D01*
X1177437Y478251D01*
X1177496Y478272D01*
X1177557Y478290D01*
X1177562Y478295D01*
X1177568Y478298D01*
X1177607Y478348D01*
X1177649Y478395D01*
X1177650Y478402D01*
X1177654Y478408D01*
X1177671Y478480D01*
X1177885Y481198D01*
X1178517Y483831D01*
X1179553Y486331D01*
X1180967Y488639D01*
X1182725Y490698D01*
X1184783Y492456D01*
X1187091Y493870D01*
X1189592Y494906D01*
X1192224Y495538D01*
X1194923Y495750D01*
X1197621Y495538D01*
X1200253Y494906D01*
X1202754Y493870D01*
X1205062Y492456D01*
X1207120Y490698D01*
X1207244Y490552D01*
X1207457Y490303D01*
X1207883Y489804D01*
X1208096Y489555D01*
X1208309Y489306D01*
X1208522Y489057D01*
X1208735Y488807D01*
X1208878Y488639D01*
X1210292Y486331D01*
X1211328Y483831D01*
X1211960Y481198D01*
X1212174Y478480D01*
X1212177Y478474D01*
X1212176Y478467D01*
X1212201Y478409D01*
X1212224Y478350D01*
X1212230Y478345D01*
X1212232Y478339D01*
X1212285Y478304D01*
X1212336Y478266D01*
X1212343Y478266D01*
X1212349Y478262D01*
X1212423Y478251D01*
X1222423Y478251D01*
X1222448Y478258D01*
X1222474Y478256D01*
X1222513Y478277D01*
X1222557Y478290D01*
X1222574Y478310D01*
X1222597Y478322D01*
X1222619Y478361D01*
X1222649Y478395D01*
X1222653Y478421D01*
X1222665Y478444D01*
X1222671Y478518D01*
X1222391Y482431D01*
X1222388Y482441D01*
X1222386Y482467D01*
X1221552Y486301D01*
X1221548Y486309D01*
X1221542Y486335D01*
X1220171Y490011D01*
X1220165Y490019D01*
X1220156Y490043D01*
X1218276Y493487D01*
X1218269Y493494D01*
X1218257Y493517D01*
X1215905Y496658D01*
X1215898Y496664D01*
X1215882Y496685D01*
X1213108Y499459D01*
X1213099Y499464D01*
X1213081Y499483D01*
X1209940Y501834D01*
X1209931Y501837D01*
X1209910Y501853D01*
X1206466Y503734D01*
X1206457Y503736D01*
X1206434Y503748D01*
X1202757Y505120D01*
X1202748Y505120D01*
X1202723Y505130D01*
X1198889Y505964D01*
X1198880Y505963D01*
X1198854Y505969D01*
X1194940Y506249D01*
X1194931Y506247D01*
X1194905Y506249D01*
X1190991Y505969D01*
X1190982Y505965D01*
X1190956Y505964D01*
X1187122Y505130D01*
X1187113Y505125D01*
X1187088Y505120D01*
X1183412Y503748D01*
X1183404Y503743D01*
X1183379Y503734D01*
X1179936Y501853D01*
X1179929Y501846D01*
X1179906Y501834D01*
X1176765Y499483D01*
X1176759Y499475D01*
X1176738Y499459D01*
X1173963Y496685D01*
X1173959Y496676D01*
X1173940Y496658D01*
X1171589Y493517D01*
X1171585Y493508D01*
X1171569Y493487D01*
X1169689Y490043D01*
X1169687Y490034D01*
X1169674Y490011D01*
X1168303Y486335D01*
X1168302Y486325D01*
X1168293Y486301D01*
X1167459Y482467D01*
X1167460Y482457D01*
X1167454Y482431D01*
X1167174Y478518D01*
X1167179Y478492D01*
X1167176Y478467D01*
X1167194Y478425D01*
X1167204Y478381D01*
X1167222Y478363D01*
X1167232Y478339D01*
X1167270Y478314D01*
X1167302Y478282D01*
X1167327Y478276D01*
X1167349Y478262D01*
X1167423Y478251D01*
X1177423Y478251D01*
X1177430Y478253D01*
G37*
G36*
X727265Y478253D02*
X727265Y478253D01*
X727272Y478251D01*
X727332Y478272D01*
X727393Y478290D01*
X727397Y478295D01*
X727404Y478298D01*
X727443Y478348D01*
X727485Y478395D01*
X727486Y478402D01*
X727490Y478408D01*
X727507Y478480D01*
X727721Y481198D01*
X728353Y483831D01*
X729389Y486331D01*
X730803Y488639D01*
X732561Y490698D01*
X734619Y492456D01*
X736927Y493870D01*
X739428Y494906D01*
X742060Y495538D01*
X744758Y495750D01*
X747457Y495538D01*
X750089Y494906D01*
X752590Y493870D01*
X754898Y492456D01*
X756956Y490698D01*
X757080Y490552D01*
X757293Y490303D01*
X757719Y489804D01*
X757932Y489555D01*
X758145Y489306D01*
X758357Y489057D01*
X758358Y489057D01*
X758570Y488807D01*
X758714Y488639D01*
X760128Y486331D01*
X761164Y483831D01*
X761796Y481198D01*
X762010Y478480D01*
X762013Y478474D01*
X762011Y478467D01*
X762037Y478409D01*
X762060Y478350D01*
X762065Y478345D01*
X762068Y478339D01*
X762121Y478304D01*
X762172Y478266D01*
X762179Y478266D01*
X762185Y478262D01*
X762258Y478251D01*
X772258Y478251D01*
X772283Y478258D01*
X772309Y478256D01*
X772349Y478277D01*
X772393Y478290D01*
X772410Y478310D01*
X772433Y478322D01*
X772455Y478361D01*
X772485Y478395D01*
X772488Y478421D01*
X772501Y478444D01*
X772507Y478518D01*
X772227Y482431D01*
X772224Y482441D01*
X772222Y482467D01*
X771388Y486301D01*
X771383Y486309D01*
X771378Y486335D01*
X770007Y490011D01*
X770001Y490019D01*
X769992Y490043D01*
X768112Y493487D01*
X768105Y493494D01*
X768092Y493517D01*
X765741Y496658D01*
X765733Y496664D01*
X765718Y496685D01*
X762943Y499459D01*
X762935Y499464D01*
X762916Y499483D01*
X759775Y501834D01*
X759766Y501837D01*
X759745Y501853D01*
X756302Y503734D01*
X756292Y503736D01*
X756269Y503748D01*
X752593Y505120D01*
X752584Y505120D01*
X752559Y505130D01*
X748725Y505964D01*
X748715Y505963D01*
X748690Y505969D01*
X744776Y506249D01*
X744767Y506247D01*
X744741Y506249D01*
X740827Y505969D01*
X740818Y505965D01*
X740792Y505964D01*
X736958Y505130D01*
X736949Y505125D01*
X736924Y505120D01*
X733247Y503748D01*
X733240Y503743D01*
X733215Y503734D01*
X729771Y501853D01*
X729765Y501846D01*
X729741Y501834D01*
X726600Y499483D01*
X726595Y499475D01*
X726574Y499459D01*
X723799Y496685D01*
X723794Y496676D01*
X723776Y496658D01*
X721424Y493517D01*
X721421Y493508D01*
X721405Y493487D01*
X719525Y490043D01*
X719523Y490034D01*
X719510Y490011D01*
X718139Y486335D01*
X718138Y486325D01*
X718129Y486301D01*
X717295Y482467D01*
X717295Y482457D01*
X717290Y482431D01*
X717010Y478518D01*
X717015Y478492D01*
X717011Y478467D01*
X717030Y478425D01*
X717039Y478381D01*
X717058Y478363D01*
X717068Y478339D01*
X717106Y478314D01*
X717138Y478282D01*
X717163Y478276D01*
X717185Y478262D01*
X717258Y478251D01*
X727258Y478251D01*
X727265Y478253D01*
G37*
G36*
X1627568Y478253D02*
X1627568Y478253D01*
X1627575Y478251D01*
X1627635Y478272D01*
X1627696Y478290D01*
X1627700Y478295D01*
X1627707Y478298D01*
X1627746Y478348D01*
X1627788Y478395D01*
X1627789Y478402D01*
X1627793Y478408D01*
X1627810Y478480D01*
X1628024Y481198D01*
X1628656Y483831D01*
X1629692Y486331D01*
X1631106Y488639D01*
X1632864Y490698D01*
X1634922Y492456D01*
X1637230Y493870D01*
X1639731Y494906D01*
X1642363Y495538D01*
X1645061Y495750D01*
X1647760Y495538D01*
X1650392Y494906D01*
X1652893Y493870D01*
X1655201Y492456D01*
X1657259Y490698D01*
X1657383Y490552D01*
X1657596Y490303D01*
X1658022Y489804D01*
X1658235Y489555D01*
X1658448Y489306D01*
X1658660Y489057D01*
X1658661Y489057D01*
X1658873Y488807D01*
X1659017Y488639D01*
X1660431Y486331D01*
X1661467Y483831D01*
X1662099Y481198D01*
X1662313Y478480D01*
X1662316Y478474D01*
X1662314Y478467D01*
X1662340Y478409D01*
X1662363Y478350D01*
X1662368Y478345D01*
X1662371Y478339D01*
X1662424Y478304D01*
X1662475Y478266D01*
X1662482Y478266D01*
X1662488Y478262D01*
X1662561Y478251D01*
X1672561Y478251D01*
X1672586Y478258D01*
X1672612Y478256D01*
X1672652Y478277D01*
X1672696Y478290D01*
X1672713Y478310D01*
X1672736Y478322D01*
X1672758Y478361D01*
X1672788Y478395D01*
X1672791Y478421D01*
X1672804Y478444D01*
X1672810Y478518D01*
X1672530Y482431D01*
X1672527Y482441D01*
X1672525Y482467D01*
X1671691Y486301D01*
X1671686Y486309D01*
X1671681Y486335D01*
X1670310Y490011D01*
X1670304Y490019D01*
X1670295Y490043D01*
X1668415Y493487D01*
X1668408Y493494D01*
X1668395Y493517D01*
X1666044Y496658D01*
X1666036Y496664D01*
X1666021Y496685D01*
X1663246Y499459D01*
X1663238Y499464D01*
X1663219Y499483D01*
X1660078Y501834D01*
X1660069Y501837D01*
X1660048Y501853D01*
X1656605Y503734D01*
X1656595Y503736D01*
X1656572Y503748D01*
X1652896Y505120D01*
X1652887Y505120D01*
X1652862Y505130D01*
X1649028Y505964D01*
X1649018Y505963D01*
X1648993Y505969D01*
X1645079Y506249D01*
X1645070Y506247D01*
X1645044Y506249D01*
X1641130Y505969D01*
X1641121Y505965D01*
X1641095Y505964D01*
X1637261Y505130D01*
X1637252Y505125D01*
X1637227Y505120D01*
X1633550Y503748D01*
X1633543Y503743D01*
X1633518Y503734D01*
X1630074Y501853D01*
X1630068Y501846D01*
X1630044Y501834D01*
X1626903Y499483D01*
X1626898Y499475D01*
X1626877Y499459D01*
X1624102Y496685D01*
X1624097Y496676D01*
X1624079Y496658D01*
X1621727Y493517D01*
X1621724Y493508D01*
X1621708Y493487D01*
X1619828Y490043D01*
X1619826Y490034D01*
X1619813Y490011D01*
X1618442Y486335D01*
X1618441Y486325D01*
X1618432Y486301D01*
X1617598Y482467D01*
X1617598Y482457D01*
X1617593Y482431D01*
X1617313Y478518D01*
X1617318Y478492D01*
X1617314Y478467D01*
X1617333Y478425D01*
X1617342Y478381D01*
X1617361Y478363D01*
X1617371Y478339D01*
X1617409Y478314D01*
X1617441Y478282D01*
X1617466Y478276D01*
X1617488Y478262D01*
X1617561Y478251D01*
X1627561Y478251D01*
X1627568Y478253D01*
G37*
D10*
X138350Y161410D03*
X128350Y161410D03*
D11*
X46482Y210820D03*
X213106Y57150D03*
D10*
X27098Y208280D03*
X17098Y208280D03*
D12*
X200490Y15250D03*
X195490Y15250D03*
X190490Y15250D03*
X185490Y15250D03*
X180490Y15250D03*
X175490Y15250D03*
X170490Y15250D03*
X165490Y15250D03*
X160490Y15250D03*
X155490Y15250D03*
X150490Y15250D03*
X125490Y15250D03*
X120490Y15250D03*
X115490Y15250D03*
X110490Y15250D03*
X105490Y15250D03*
X100490Y15250D03*
X95490Y15250D03*
X90490Y15250D03*
X85490Y15250D03*
X80490Y15250D03*
X75490Y15250D03*
X70490Y15250D03*
X65490Y15250D03*
X60490Y15250D03*
X55490Y15250D03*
X50490Y15250D03*
X45490Y15250D03*
X40490Y15250D03*
X35490Y15250D03*
X30490Y15250D03*
X25490Y15250D03*
X20490Y15250D03*
D13*
X129490Y210000D03*
X171490Y210000D03*
X150490Y197000D03*
D14*
X143320Y138430D03*
X143320Y125730D03*
X143320Y113030D03*
X143320Y100330D03*
X87820Y113030D03*
X87820Y100330D03*
X87820Y125730D03*
X87820Y138430D03*
D10*
X103310Y203360D03*
X103310Y193360D03*
X87710Y153670D03*
X97710Y153670D03*
X138350Y152170D03*
X128350Y152170D03*
D15*
X11430Y81000D03*
X11430Y58000D03*
D10*
X363419Y161410D03*
X353419Y161410D03*
D11*
X271551Y210820D03*
X438175Y57150D03*
D10*
X252167Y208280D03*
X242167Y208280D03*
D12*
X425559Y15250D03*
X420559Y15250D03*
X415559Y15250D03*
X410559Y15250D03*
X405559Y15250D03*
X400559Y15250D03*
X395559Y15250D03*
X390559Y15250D03*
X385559Y15250D03*
X380559Y15250D03*
X375559Y15250D03*
X350559Y15250D03*
X345559Y15250D03*
X340559Y15250D03*
X335559Y15250D03*
X330559Y15250D03*
X325559Y15250D03*
X320559Y15250D03*
X315559Y15250D03*
X310559Y15250D03*
X305559Y15250D03*
X300559Y15250D03*
X295559Y15250D03*
X290559Y15250D03*
X285559Y15250D03*
X280559Y15250D03*
X275559Y15250D03*
X270559Y15250D03*
X265559Y15250D03*
X260559Y15250D03*
X255559Y15250D03*
X250559Y15250D03*
X245559Y15250D03*
D13*
X354559Y210000D03*
X396559Y210000D03*
X375559Y197000D03*
D14*
X368389Y138430D03*
X368389Y125730D03*
X368389Y113030D03*
X368389Y100330D03*
X312889Y113030D03*
X312889Y100330D03*
X312889Y125730D03*
X312889Y138430D03*
D10*
X328379Y203360D03*
X328379Y193360D03*
X312779Y153670D03*
X322779Y153670D03*
X363419Y152170D03*
X353419Y152170D03*
D15*
X236499Y81000D03*
X236499Y58000D03*
D10*
X588514Y161410D03*
X578514Y161410D03*
D11*
X496646Y210820D03*
X663270Y57150D03*
D10*
X477262Y208280D03*
X467262Y208280D03*
D12*
X650654Y15250D03*
X645654Y15250D03*
X640654Y15250D03*
X635654Y15250D03*
X630654Y15250D03*
X625654Y15250D03*
X620654Y15250D03*
X615654Y15250D03*
X610654Y15250D03*
X605654Y15250D03*
X600654Y15250D03*
X575654Y15250D03*
X570654Y15250D03*
X565654Y15250D03*
X560654Y15250D03*
X555654Y15250D03*
X550654Y15250D03*
X545654Y15250D03*
X540654Y15250D03*
X535654Y15250D03*
X530654Y15250D03*
X525654Y15250D03*
X520654Y15250D03*
X515654Y15250D03*
X510654Y15250D03*
X505654Y15250D03*
X500654Y15250D03*
X495654Y15250D03*
X490654Y15250D03*
X485654Y15250D03*
X480654Y15250D03*
X475654Y15250D03*
X470654Y15250D03*
D13*
X579654Y210000D03*
X621654Y210000D03*
X600654Y197000D03*
D14*
X593484Y138430D03*
X593484Y125730D03*
X593484Y113030D03*
X593484Y100330D03*
X537984Y113030D03*
X537984Y100330D03*
X537984Y125730D03*
X537984Y138430D03*
D10*
X553474Y203360D03*
X553474Y193360D03*
X537874Y153670D03*
X547874Y153670D03*
X588514Y152170D03*
X578514Y152170D03*
D15*
X461594Y81000D03*
X461594Y58000D03*
D10*
X813584Y161410D03*
X803584Y161410D03*
D11*
X721716Y210820D03*
X888340Y57150D03*
D10*
X702332Y208280D03*
X692332Y208280D03*
D12*
X875724Y15250D03*
X870724Y15250D03*
X865724Y15250D03*
X860724Y15250D03*
X855724Y15250D03*
X850724Y15250D03*
X845724Y15250D03*
X840724Y15250D03*
X835724Y15250D03*
X830724Y15250D03*
X825724Y15250D03*
X800724Y15250D03*
X795724Y15250D03*
X790724Y15250D03*
X785724Y15250D03*
X780724Y15250D03*
X775724Y15250D03*
X770724Y15250D03*
X765724Y15250D03*
X760724Y15250D03*
X755724Y15250D03*
X750724Y15250D03*
X745724Y15250D03*
X740724Y15250D03*
X735724Y15250D03*
X730724Y15250D03*
X725724Y15250D03*
X720724Y15250D03*
X715724Y15250D03*
X710724Y15250D03*
X705724Y15250D03*
X700724Y15250D03*
X695724Y15250D03*
D13*
X804724Y210000D03*
X846724Y210000D03*
X825724Y197000D03*
D14*
X818554Y138430D03*
X818554Y125730D03*
X818554Y113030D03*
X818554Y100330D03*
X763054Y113030D03*
X763054Y100330D03*
X763054Y125730D03*
X763054Y138430D03*
D10*
X778544Y203360D03*
X778544Y193360D03*
X762944Y153670D03*
X772944Y153670D03*
X813584Y152170D03*
X803584Y152170D03*
D15*
X686664Y81000D03*
X686664Y58000D03*
D10*
X1038678Y161410D03*
X1028678Y161410D03*
D11*
X946810Y210820D03*
X1113434Y57150D03*
D10*
X927426Y208280D03*
X917426Y208280D03*
D12*
X1100818Y15250D03*
X1095818Y15250D03*
X1090818Y15250D03*
X1085818Y15250D03*
X1080818Y15250D03*
X1075818Y15250D03*
X1070818Y15250D03*
X1065818Y15250D03*
X1060818Y15250D03*
X1055818Y15250D03*
X1050818Y15250D03*
X1025818Y15250D03*
X1020818Y15250D03*
X1015818Y15250D03*
X1010818Y15250D03*
X1005818Y15250D03*
X1000818Y15250D03*
X995818Y15250D03*
X990818Y15250D03*
X985818Y15250D03*
X980818Y15250D03*
X975818Y15250D03*
X970818Y15250D03*
X965818Y15250D03*
X960818Y15250D03*
X955818Y15250D03*
X950818Y15250D03*
X945818Y15250D03*
X940818Y15250D03*
X935818Y15250D03*
X930818Y15250D03*
X925818Y15250D03*
X920818Y15250D03*
D13*
X1029818Y210000D03*
X1071818Y210000D03*
X1050818Y197000D03*
D14*
X1043648Y138430D03*
X1043648Y125730D03*
X1043648Y113030D03*
X1043648Y100330D03*
X988148Y113030D03*
X988148Y100330D03*
X988148Y125730D03*
X988148Y138430D03*
D10*
X1003638Y203360D03*
X1003638Y193360D03*
X988038Y153670D03*
X998038Y153670D03*
X1038678Y152170D03*
X1028678Y152170D03*
D15*
X911758Y81000D03*
X911758Y58000D03*
D10*
X1263748Y161410D03*
X1253748Y161410D03*
D11*
X1171880Y210820D03*
X1338504Y57150D03*
D10*
X1152496Y208280D03*
X1142496Y208280D03*
D12*
X1325888Y15250D03*
X1320888Y15250D03*
X1315888Y15250D03*
X1310888Y15250D03*
X1305888Y15250D03*
X1300888Y15250D03*
X1295888Y15250D03*
X1290888Y15250D03*
X1285888Y15250D03*
X1280888Y15250D03*
X1275888Y15250D03*
X1250888Y15250D03*
X1245888Y15250D03*
X1240888Y15250D03*
X1235888Y15250D03*
X1230888Y15250D03*
X1225888Y15250D03*
X1220888Y15250D03*
X1215888Y15250D03*
X1210888Y15250D03*
X1205888Y15250D03*
X1200888Y15250D03*
X1195888Y15250D03*
X1190888Y15250D03*
X1185888Y15250D03*
X1180888Y15250D03*
X1175888Y15250D03*
X1170888Y15250D03*
X1165888Y15250D03*
X1160888Y15250D03*
X1155888Y15250D03*
X1150888Y15250D03*
X1145888Y15250D03*
D13*
X1254888Y210000D03*
X1296888Y210000D03*
X1275888Y197000D03*
D14*
X1268718Y138430D03*
X1268718Y125730D03*
X1268718Y113030D03*
X1268718Y100330D03*
X1213218Y113030D03*
X1213218Y100330D03*
X1213218Y125730D03*
X1213218Y138430D03*
D10*
X1228708Y203360D03*
X1228708Y193360D03*
X1213108Y153670D03*
X1223108Y153670D03*
X1263748Y152170D03*
X1253748Y152170D03*
D15*
X1136828Y81000D03*
X1136828Y58000D03*
D10*
X1488843Y161410D03*
X1478843Y161410D03*
D11*
X1396975Y210820D03*
X1563599Y57150D03*
D10*
X1377591Y208280D03*
X1367591Y208280D03*
D12*
X1550983Y15250D03*
X1545983Y15250D03*
X1540983Y15250D03*
X1535983Y15250D03*
X1530983Y15250D03*
X1525983Y15250D03*
X1520983Y15250D03*
X1515983Y15250D03*
X1510983Y15250D03*
X1505983Y15250D03*
X1500983Y15250D03*
X1475983Y15250D03*
X1470983Y15250D03*
X1465983Y15250D03*
X1460983Y15250D03*
X1455983Y15250D03*
X1450983Y15250D03*
X1445983Y15250D03*
X1440983Y15250D03*
X1435983Y15250D03*
X1430983Y15250D03*
X1425983Y15250D03*
X1420983Y15250D03*
X1415983Y15250D03*
X1410983Y15250D03*
X1405983Y15250D03*
X1400983Y15250D03*
X1395983Y15250D03*
X1390983Y15250D03*
X1385983Y15250D03*
X1380983Y15250D03*
X1375983Y15250D03*
X1370983Y15250D03*
D13*
X1479983Y210000D03*
X1521983Y210000D03*
X1500983Y197000D03*
D14*
X1493813Y138430D03*
X1493813Y125730D03*
X1493813Y113030D03*
X1493813Y100330D03*
X1438313Y113030D03*
X1438313Y100330D03*
X1438313Y125730D03*
X1438313Y138430D03*
D10*
X1453803Y203360D03*
X1453803Y193360D03*
X1438203Y153670D03*
X1448203Y153670D03*
X1488843Y152170D03*
X1478843Y152170D03*
D15*
X1361923Y81000D03*
X1361923Y58000D03*
D10*
X1713912Y161410D03*
X1703912Y161410D03*
D11*
X1622044Y210820D03*
X1788668Y57150D03*
D10*
X1602660Y208280D03*
X1592660Y208280D03*
D12*
X1776052Y15250D03*
X1771052Y15250D03*
X1766052Y15250D03*
X1761052Y15250D03*
X1756052Y15250D03*
X1751052Y15250D03*
X1746052Y15250D03*
X1741052Y15250D03*
X1736052Y15250D03*
X1731052Y15250D03*
X1726052Y15250D03*
X1701052Y15250D03*
X1696052Y15250D03*
X1691052Y15250D03*
X1686052Y15250D03*
X1681052Y15250D03*
X1676052Y15250D03*
X1671052Y15250D03*
X1666052Y15250D03*
X1661052Y15250D03*
X1656052Y15250D03*
X1651052Y15250D03*
X1646052Y15250D03*
X1641052Y15250D03*
X1636052Y15250D03*
X1631052Y15250D03*
X1626052Y15250D03*
X1621052Y15250D03*
X1616052Y15250D03*
X1611052Y15250D03*
X1606052Y15250D03*
X1601052Y15250D03*
X1596052Y15250D03*
D13*
X1705052Y210000D03*
X1747052Y210000D03*
X1726052Y197000D03*
D14*
X1718882Y138430D03*
X1718882Y125730D03*
X1718882Y113030D03*
X1718882Y100330D03*
X1663382Y113030D03*
X1663382Y100330D03*
X1663382Y125730D03*
X1663382Y138430D03*
D10*
X1678872Y203360D03*
X1678872Y193360D03*
X1663272Y153670D03*
X1673272Y153670D03*
X1713912Y152170D03*
X1703912Y152170D03*
D15*
X1586992Y81000D03*
X1586992Y58000D03*
D10*
X81639Y537090D03*
X91639Y537090D03*
D11*
X173507Y487680D03*
X6883Y641350D03*
D10*
X192891Y490220D03*
X202891Y490220D03*
D12*
X19499Y683250D03*
X24499Y683250D03*
X29499Y683250D03*
X34499Y683250D03*
X39499Y683250D03*
X44499Y683250D03*
X49499Y683250D03*
X54499Y683250D03*
X59499Y683250D03*
X64499Y683250D03*
X69499Y683250D03*
X94499Y683250D03*
X99499Y683250D03*
X104499Y683250D03*
X109499Y683250D03*
X114499Y683250D03*
X119499Y683250D03*
X124499Y683250D03*
X129499Y683250D03*
X134499Y683250D03*
X139499Y683250D03*
X144499Y683250D03*
X149499Y683250D03*
X154499Y683250D03*
X159499Y683250D03*
X164499Y683250D03*
X169499Y683250D03*
X174499Y683250D03*
X179499Y683250D03*
X184499Y683250D03*
X189499Y683250D03*
X194499Y683250D03*
X199499Y683250D03*
D13*
X90499Y488500D03*
X48499Y488500D03*
X69499Y501500D03*
D14*
X76669Y560070D03*
X76669Y572770D03*
X76669Y585470D03*
X76669Y598170D03*
X132169Y585470D03*
X132169Y598170D03*
X132169Y572770D03*
X132169Y560070D03*
D10*
X116679Y495140D03*
X116679Y505140D03*
X132279Y544830D03*
X122279Y544830D03*
X81639Y546330D03*
X91639Y546330D03*
D15*
X208559Y617500D03*
X208559Y640500D03*
D10*
X306734Y537090D03*
X316734Y537090D03*
D11*
X398602Y487680D03*
X231978Y641350D03*
D10*
X417986Y490220D03*
X427986Y490220D03*
D12*
X244594Y683250D03*
X249594Y683250D03*
X254594Y683250D03*
X259594Y683250D03*
X264594Y683250D03*
X269594Y683250D03*
X274594Y683250D03*
X279594Y683250D03*
X284594Y683250D03*
X289594Y683250D03*
X294594Y683250D03*
X319594Y683250D03*
X324594Y683250D03*
X329594Y683250D03*
X334594Y683250D03*
X339594Y683250D03*
X344594Y683250D03*
X349594Y683250D03*
X354594Y683250D03*
X359594Y683250D03*
X364594Y683250D03*
X369594Y683250D03*
X374594Y683250D03*
X379594Y683250D03*
X384594Y683250D03*
X389594Y683250D03*
X394594Y683250D03*
X399594Y683250D03*
X404594Y683250D03*
X409594Y683250D03*
X414594Y683250D03*
X419594Y683250D03*
X424594Y683250D03*
D13*
X315594Y488500D03*
X273594Y488500D03*
X294594Y501500D03*
D14*
X301764Y560070D03*
X301764Y572770D03*
X301764Y585470D03*
X301764Y598170D03*
X357264Y585470D03*
X357264Y598170D03*
X357264Y572770D03*
X357264Y560070D03*
D10*
X341774Y495140D03*
X341774Y505140D03*
X357374Y544830D03*
X347374Y544830D03*
X306734Y546330D03*
X316734Y546330D03*
D15*
X433654Y617500D03*
X433654Y640500D03*
D10*
X531804Y537090D03*
X541804Y537090D03*
D11*
X623672Y487680D03*
X457048Y641350D03*
D10*
X643056Y490220D03*
X653056Y490220D03*
D12*
X469664Y683250D03*
X474664Y683250D03*
X479664Y683250D03*
X484664Y683250D03*
X489664Y683250D03*
X494664Y683250D03*
X499664Y683250D03*
X504664Y683250D03*
X509664Y683250D03*
X514664Y683250D03*
X519664Y683250D03*
X544664Y683250D03*
X549664Y683250D03*
X554664Y683250D03*
X559664Y683250D03*
X564664Y683250D03*
X569664Y683250D03*
X574664Y683250D03*
X579664Y683250D03*
X584664Y683250D03*
X589664Y683250D03*
X594664Y683250D03*
X599664Y683250D03*
X604664Y683250D03*
X609664Y683250D03*
X614664Y683250D03*
X619664Y683250D03*
X624664Y683250D03*
X629664Y683250D03*
X634664Y683250D03*
X639664Y683250D03*
X644664Y683250D03*
X649664Y683250D03*
D13*
X540664Y488500D03*
X498664Y488500D03*
X519664Y501500D03*
D14*
X526834Y560070D03*
X526834Y572770D03*
X526834Y585470D03*
X526834Y598170D03*
X582334Y585470D03*
X582334Y598170D03*
X582334Y572770D03*
X582334Y560070D03*
D10*
X566844Y495140D03*
X566844Y505140D03*
X582444Y544830D03*
X572444Y544830D03*
X531804Y546330D03*
X541804Y546330D03*
D15*
X658724Y617500D03*
X658724Y640500D03*
D10*
X756898Y537090D03*
X766898Y537090D03*
D11*
X848766Y487680D03*
X682142Y641350D03*
D10*
X868150Y490220D03*
X878150Y490220D03*
D12*
X694758Y683250D03*
X699758Y683250D03*
X704758Y683250D03*
X709758Y683250D03*
X714758Y683250D03*
X719758Y683250D03*
X724758Y683250D03*
X729758Y683250D03*
X734758Y683250D03*
X739758Y683250D03*
X744758Y683250D03*
X769758Y683250D03*
X774758Y683250D03*
X779758Y683250D03*
X784758Y683250D03*
X789758Y683250D03*
X794758Y683250D03*
X799758Y683250D03*
X804758Y683250D03*
X809758Y683250D03*
X814758Y683250D03*
X819758Y683250D03*
X824758Y683250D03*
X829758Y683250D03*
X834758Y683250D03*
X839758Y683250D03*
X844758Y683250D03*
X849758Y683250D03*
X854758Y683250D03*
X859758Y683250D03*
X864758Y683250D03*
X869758Y683250D03*
X874758Y683250D03*
D13*
X765758Y488500D03*
X723758Y488500D03*
X744758Y501500D03*
D14*
X751928Y560070D03*
X751928Y572770D03*
X751928Y585470D03*
X751928Y598170D03*
X807428Y585470D03*
X807428Y598170D03*
X807428Y572770D03*
X807428Y560070D03*
D10*
X791938Y495140D03*
X791938Y505140D03*
X807538Y544830D03*
X797538Y544830D03*
X756898Y546330D03*
X766898Y546330D03*
D15*
X883818Y617500D03*
X883818Y640500D03*
D10*
X981968Y537090D03*
X991968Y537090D03*
D11*
X1073836Y487680D03*
X907212Y641350D03*
D10*
X1093220Y490220D03*
X1103220Y490220D03*
D12*
X919828Y683250D03*
X924828Y683250D03*
X929828Y683250D03*
X934828Y683250D03*
X939828Y683250D03*
X944828Y683250D03*
X949828Y683250D03*
X954828Y683250D03*
X959828Y683250D03*
X964828Y683250D03*
X969828Y683250D03*
X994828Y683250D03*
X999828Y683250D03*
X1004828Y683250D03*
X1009828Y683250D03*
X1014828Y683250D03*
X1019828Y683250D03*
X1024828Y683250D03*
X1029828Y683250D03*
X1034828Y683250D03*
X1039828Y683250D03*
X1044828Y683250D03*
X1049828Y683250D03*
X1054828Y683250D03*
X1059828Y683250D03*
X1064828Y683250D03*
X1069828Y683250D03*
X1074828Y683250D03*
X1079828Y683250D03*
X1084828Y683250D03*
X1089828Y683250D03*
X1094828Y683250D03*
X1099828Y683250D03*
D13*
X990828Y488500D03*
X948828Y488500D03*
X969828Y501500D03*
D14*
X976998Y560070D03*
X976998Y572770D03*
X976998Y585470D03*
X976998Y598170D03*
X1032498Y585470D03*
X1032498Y598170D03*
X1032498Y572770D03*
X1032498Y560070D03*
D10*
X1017008Y495140D03*
X1017008Y505140D03*
X1032608Y544830D03*
X1022608Y544830D03*
X981968Y546330D03*
X991968Y546330D03*
D15*
X1108888Y617500D03*
X1108888Y640500D03*
D10*
X1207063Y537090D03*
X1217063Y537090D03*
D11*
X1298931Y487680D03*
X1132307Y641350D03*
D10*
X1318315Y490220D03*
X1328315Y490220D03*
D12*
X1144923Y683250D03*
X1149923Y683250D03*
X1154923Y683250D03*
X1159923Y683250D03*
X1164923Y683250D03*
X1169923Y683250D03*
X1174923Y683250D03*
X1179923Y683250D03*
X1184923Y683250D03*
X1189923Y683250D03*
X1194923Y683250D03*
X1219923Y683250D03*
X1224923Y683250D03*
X1229923Y683250D03*
X1234923Y683250D03*
X1239923Y683250D03*
X1244923Y683250D03*
X1249923Y683250D03*
X1254923Y683250D03*
X1259923Y683250D03*
X1264923Y683250D03*
X1269923Y683250D03*
X1274923Y683250D03*
X1279923Y683250D03*
X1284923Y683250D03*
X1289923Y683250D03*
X1294923Y683250D03*
X1299923Y683250D03*
X1304923Y683250D03*
X1309923Y683250D03*
X1314923Y683250D03*
X1319923Y683250D03*
X1324923Y683250D03*
D13*
X1215923Y488500D03*
X1173923Y488500D03*
X1194923Y501500D03*
D14*
X1202093Y560070D03*
X1202093Y572770D03*
X1202093Y585470D03*
X1202093Y598170D03*
X1257593Y585470D03*
X1257593Y598170D03*
X1257593Y572770D03*
X1257593Y560070D03*
D10*
X1242103Y495140D03*
X1242103Y505140D03*
X1257703Y544830D03*
X1247703Y544830D03*
X1207063Y546330D03*
X1217063Y546330D03*
D15*
X1333983Y617500D03*
X1333983Y640500D03*
D10*
X1432132Y537090D03*
X1442132Y537090D03*
D11*
X1524000Y487680D03*
X1357376Y641350D03*
D10*
X1543384Y490220D03*
X1553384Y490220D03*
D12*
X1369992Y683250D03*
X1374992Y683250D03*
X1379992Y683250D03*
X1384992Y683250D03*
X1389992Y683250D03*
X1394992Y683250D03*
X1399992Y683250D03*
X1404992Y683250D03*
X1409992Y683250D03*
X1414992Y683250D03*
X1419992Y683250D03*
X1444992Y683250D03*
X1449992Y683250D03*
X1454992Y683250D03*
X1459992Y683250D03*
X1464992Y683250D03*
X1469992Y683250D03*
X1474992Y683250D03*
X1479992Y683250D03*
X1484992Y683250D03*
X1489992Y683250D03*
X1494992Y683250D03*
X1499992Y683250D03*
X1504992Y683250D03*
X1509992Y683250D03*
X1514992Y683250D03*
X1519992Y683250D03*
X1524992Y683250D03*
X1529992Y683250D03*
X1534992Y683250D03*
X1539992Y683250D03*
X1544992Y683250D03*
X1549992Y683250D03*
D13*
X1440992Y488500D03*
X1398992Y488500D03*
X1419992Y501500D03*
D14*
X1427162Y560070D03*
X1427162Y572770D03*
X1427162Y585470D03*
X1427162Y598170D03*
X1482662Y585470D03*
X1482662Y598170D03*
X1482662Y572770D03*
X1482662Y560070D03*
D10*
X1467172Y495140D03*
X1467172Y505140D03*
X1482772Y544830D03*
X1472772Y544830D03*
X1432132Y546330D03*
X1442132Y546330D03*
D15*
X1559052Y617500D03*
X1559052Y640500D03*
D10*
X1657201Y537090D03*
X1667201Y537090D03*
D11*
X1749069Y487680D03*
X1582445Y641350D03*
D10*
X1768453Y490220D03*
X1778453Y490220D03*
D12*
X1595061Y683250D03*
X1600061Y683250D03*
X1605061Y683250D03*
X1610061Y683250D03*
X1615061Y683250D03*
X1620061Y683250D03*
X1625061Y683250D03*
X1630061Y683250D03*
X1635061Y683250D03*
X1640061Y683250D03*
X1645061Y683250D03*
X1670061Y683250D03*
X1675061Y683250D03*
X1680061Y683250D03*
X1685061Y683250D03*
X1690061Y683250D03*
X1695061Y683250D03*
X1700061Y683250D03*
X1705061Y683250D03*
X1710061Y683250D03*
X1715061Y683250D03*
X1720061Y683250D03*
X1725061Y683250D03*
X1730061Y683250D03*
X1735061Y683250D03*
X1740061Y683250D03*
X1745061Y683250D03*
X1750061Y683250D03*
X1755061Y683250D03*
X1760061Y683250D03*
X1765061Y683250D03*
X1770061Y683250D03*
X1775061Y683250D03*
D13*
X1666061Y488500D03*
X1624061Y488500D03*
X1645061Y501500D03*
D14*
X1652231Y560070D03*
X1652231Y572770D03*
X1652231Y585470D03*
X1652231Y598170D03*
X1707731Y585470D03*
X1707731Y598170D03*
X1707731Y572770D03*
X1707731Y560070D03*
D10*
X1692241Y495140D03*
X1692241Y505140D03*
X1707841Y544830D03*
X1697841Y544830D03*
X1657201Y546330D03*
X1667201Y546330D03*
D15*
X1784121Y617500D03*
X1784121Y640500D03*
D16*
X-26238Y635000D03*
X1821815Y635000D03*
D17*
X-35293Y68580D02*
X-35290Y68802D01*
X-35282Y69024D01*
X-35268Y69246D01*
X-35249Y69468D01*
X-35225Y69688D01*
X-35195Y69909D01*
X-35160Y70128D01*
X-35119Y70347D01*
X-35073Y70564D01*
X-35022Y70780D01*
X-34965Y70995D01*
X-34903Y71209D01*
X-34836Y71420D01*
X-34764Y71631D01*
X-34686Y71839D01*
X-34604Y72045D01*
X-34516Y72249D01*
X-34424Y72452D01*
X-34326Y72651D01*
X-34224Y72848D01*
X-34117Y73043D01*
X-34005Y73235D01*
X-33888Y73424D01*
X-33767Y73611D01*
X-33641Y73794D01*
X-33511Y73974D01*
X-33376Y74151D01*
X-33238Y74324D01*
X-33095Y74494D01*
X-32947Y74661D01*
X-32796Y74824D01*
X-32641Y74983D01*
X-32482Y75138D01*
X-32319Y75289D01*
X-32152Y75437D01*
X-31982Y75580D01*
X-31809Y75718D01*
X-31632Y75853D01*
X-31452Y75983D01*
X-31269Y76109D01*
X-31082Y76230D01*
X-30893Y76347D01*
X-30701Y76459D01*
X-30506Y76566D01*
X-30309Y76668D01*
X-30110Y76766D01*
X-29907Y76858D01*
X-29703Y76946D01*
X-29497Y77028D01*
X-29289Y77106D01*
X-29078Y77178D01*
X-28867Y77245D01*
X-28653Y77307D01*
X-28438Y77364D01*
X-28222Y77415D01*
X-28005Y77461D01*
X-27786Y77502D01*
X-27567Y77537D01*
X-27346Y77567D01*
X-27126Y77591D01*
X-26904Y77610D01*
X-26682Y77624D01*
X-26460Y77632D01*
X-26238Y77635D01*
X-26016Y77632D01*
X-25794Y77624D01*
X-25572Y77610D01*
X-25350Y77591D01*
X-25130Y77567D01*
X-24909Y77537D01*
X-24690Y77502D01*
X-24471Y77461D01*
X-24254Y77415D01*
X-24038Y77364D01*
X-23823Y77307D01*
X-23609Y77245D01*
X-23398Y77178D01*
X-23187Y77106D01*
X-22979Y77028D01*
X-22773Y76946D01*
X-22569Y76858D01*
X-22366Y76766D01*
X-22167Y76668D01*
X-21970Y76566D01*
X-21775Y76459D01*
X-21583Y76347D01*
X-21394Y76230D01*
X-21207Y76109D01*
X-21024Y75983D01*
X-20844Y75853D01*
X-20667Y75718D01*
X-20494Y75580D01*
X-20324Y75437D01*
X-20157Y75289D01*
X-19994Y75138D01*
X-19835Y74983D01*
X-19680Y74824D01*
X-19529Y74661D01*
X-19381Y74494D01*
X-19238Y74324D01*
X-19100Y74151D01*
X-18965Y73974D01*
X-18835Y73794D01*
X-18709Y73611D01*
X-18588Y73424D01*
X-18471Y73235D01*
X-18359Y73043D01*
X-18252Y72848D01*
X-18150Y72651D01*
X-18052Y72452D01*
X-17960Y72249D01*
X-17872Y72045D01*
X-17790Y71839D01*
X-17712Y71631D01*
X-17640Y71420D01*
X-17573Y71209D01*
X-17511Y70995D01*
X-17454Y70780D01*
X-17403Y70564D01*
X-17357Y70347D01*
X-17316Y70128D01*
X-17281Y69909D01*
X-17251Y69688D01*
X-17227Y69468D01*
X-17208Y69246D01*
X-17194Y69024D01*
X-17186Y68802D01*
X-17183Y68580D01*
X-17186Y68358D01*
X-17194Y68136D01*
X-17208Y67914D01*
X-17227Y67692D01*
X-17251Y67472D01*
X-17281Y67251D01*
X-17316Y67032D01*
X-17357Y66813D01*
X-17403Y66596D01*
X-17454Y66380D01*
X-17511Y66165D01*
X-17573Y65951D01*
X-17640Y65740D01*
X-17712Y65529D01*
X-17790Y65321D01*
X-17872Y65115D01*
X-17960Y64911D01*
X-18052Y64708D01*
X-18150Y64509D01*
X-18252Y64312D01*
X-18359Y64117D01*
X-18471Y63925D01*
X-18588Y63736D01*
X-18709Y63549D01*
X-18835Y63366D01*
X-18965Y63186D01*
X-19100Y63009D01*
X-19238Y62836D01*
X-19381Y62666D01*
X-19529Y62499D01*
X-19680Y62336D01*
X-19835Y62177D01*
X-19994Y62022D01*
X-20157Y61871D01*
X-20324Y61723D01*
X-20494Y61580D01*
X-20667Y61442D01*
X-20844Y61307D01*
X-21024Y61177D01*
X-21207Y61051D01*
X-21394Y60930D01*
X-21583Y60813D01*
X-21775Y60701D01*
X-21970Y60594D01*
X-22167Y60492D01*
X-22366Y60394D01*
X-22569Y60302D01*
X-22773Y60214D01*
X-22979Y60132D01*
X-23187Y60054D01*
X-23398Y59982D01*
X-23609Y59915D01*
X-23823Y59853D01*
X-24038Y59796D01*
X-24254Y59745D01*
X-24471Y59699D01*
X-24690Y59658D01*
X-24909Y59623D01*
X-25130Y59593D01*
X-25350Y59569D01*
X-25572Y59550D01*
X-25794Y59536D01*
X-26016Y59528D01*
X-26238Y59525D01*
X-26460Y59528D01*
X-26682Y59536D01*
X-26904Y59550D01*
X-27126Y59569D01*
X-27346Y59593D01*
X-27567Y59623D01*
X-27786Y59658D01*
X-28005Y59699D01*
X-28222Y59745D01*
X-28438Y59796D01*
X-28653Y59853D01*
X-28867Y59915D01*
X-29078Y59982D01*
X-29289Y60054D01*
X-29497Y60132D01*
X-29703Y60214D01*
X-29907Y60302D01*
X-30110Y60394D01*
X-30309Y60492D01*
X-30506Y60594D01*
X-30701Y60701D01*
X-30893Y60813D01*
X-31082Y60930D01*
X-31269Y61051D01*
X-31452Y61177D01*
X-31632Y61307D01*
X-31809Y61442D01*
X-31982Y61580D01*
X-32152Y61723D01*
X-32319Y61871D01*
X-32482Y62022D01*
X-32641Y62177D01*
X-32796Y62336D01*
X-32947Y62499D01*
X-33095Y62666D01*
X-33238Y62836D01*
X-33376Y63009D01*
X-33511Y63186D01*
X-33641Y63366D01*
X-33767Y63549D01*
X-33888Y63736D01*
X-34005Y63925D01*
X-34117Y64117D01*
X-34224Y64312D01*
X-34326Y64509D01*
X-34424Y64708D01*
X-34516Y64911D01*
X-34604Y65115D01*
X-34686Y65321D01*
X-34764Y65529D01*
X-34836Y65740D01*
X-34903Y65951D01*
X-34965Y66165D01*
X-35022Y66380D01*
X-35073Y66596D01*
X-35119Y66813D01*
X-35160Y67032D01*
X-35195Y67251D01*
X-35225Y67472D01*
X-35249Y67692D01*
X-35268Y67914D01*
X-35282Y68136D01*
X-35290Y68358D01*
X-35293Y68580D01*
D18*
X-26238Y68580D03*
M02*
